<svg width="772" height="538" viewBox="0 0 772 538" fill="none" xmlns="http://www.w3.org/2000/svg">
    <rect width="772" height="538" rx="40" fill="white"/>
    <path d="M583.562 473.562V408.666H534.152L508.713 380.537L483.145 408.666H320.236V277.568H267.655L332.876 129.967H395.775L418.228 180.532V129.968H496.085L509.603 168.072L523.21 129.968H583.563V64H174V473.562H583.562ZM542.475 392.252H583.562L529.211 334.616L583.562 277.634H543.128L509.563 314.313L476.321 277.634H435.224L489.257 334.944L435.224 392.253H475.178L508.907 355.247L542.475 392.252ZM552.087 334.664L583.562 368.149V301.458L552.087 334.664ZM368.909 365.726V347.878H433.585V322.006H368.909V304.16H435.221V277.633H337.633V392.251H435.221V365.725H368.909V365.726ZM552.614 261H583.562V146.382H535.421L509.713 217.771L484.17 146.382H435.213V261H466.158V180.768L495.633 261H523.14L552.614 180.602V261ZM400.009 261H435.213L384.62 146.382H344.339L293.74 261H328.126L337.625 238.077H390.348L400.009 261ZM379.543 212.369H348.43L363.987 174.873L379.543 212.369Z" fill="#006FCF"/>
</svg>
