<svg width="772" height="538" viewBox="0 0 772 538" fill="none" xmlns="http://www.w3.org/2000/svg">
<g clip-path="url(#clip0_6969_98)">
<path d="M710.464 0H61.5362C27.5507 0 0 28.187 0 62.9574V475.043C0 509.813 27.5507 538 61.5362 538H710.464C744.449 538 772 509.813 772 475.043V62.9574C772 28.187 744.449 0 710.464 0Z" fill="white"/>
<path fill-rule="evenodd" clip-rule="evenodd" d="M250.64 268.649C250.64 302.333 277.09 328.451 311.128 328.451C320.749 328.451 328.992 326.56 339.153 321.773V295.462C330.219 304.405 322.302 308.013 312.168 308.013C289.655 308.013 273.676 291.689 273.676 268.481C273.676 246.481 290.16 229.125 311.128 229.125C321.789 229.125 329.861 232.929 339.153 242.018V215.72C329.342 210.743 321.276 208.68 311.655 208.68C277.789 208.68 250.64 235.328 250.64 268.649ZM193.276 240.818C193.276 247.011 197.212 250.282 210.628 255.247C236.054 264.549 243.589 272.787 243.589 290.997C243.589 313.179 227.292 328.626 204.066 328.626C187.055 328.626 174.686 321.928 164.388 306.808L178.829 292.902C183.974 302.853 192.563 308.189 203.225 308.189C213.2 308.189 220.581 301.309 220.581 292.025C220.581 287.212 218.345 283.081 213.877 280.164C211.632 278.782 207.178 276.728 198.425 273.637C177.43 266.084 170.232 258 170.232 242.212C170.232 223.458 185.697 209.378 205.974 209.378C218.539 209.378 230.037 213.673 239.648 222.08L227.952 237.394C222.13 230.869 216.622 228.114 209.928 228.114C200.294 228.114 193.276 233.601 193.276 240.818ZM133.615 325.87H155.97V211.271H133.615V325.87ZM87.9244 297.358C80.9026 303.703 71.7777 306.47 57.3354 306.47H51.3363V230.685H57.3354C71.7777 230.685 80.544 233.271 87.9244 239.957C95.6548 246.837 100.304 257.507 100.304 268.482C100.304 279.485 95.6548 290.478 87.9244 297.358ZM61.8116 211.271H29V325.866H61.6389C78.9943 325.866 91.524 321.775 102.526 312.637C115.6 301.822 123.33 285.516 123.33 268.651C123.33 234.83 98.0633 211.271 61.8116 211.271ZM485.832 211.271L516.389 288.247L547.346 211.271H571.577L522.07 328.811H510.04L461.41 211.271H485.832ZM581.685 325.869H645.077V306.467H604.021V275.533H643.567V256.122H604.021V230.688H645.077V211.269H581.685V325.869ZM682.208 264.029H688.738C703.017 264.029 710.583 257.826 710.583 246.306C710.583 235.154 703.017 229.322 689.092 229.322H682.208V264.029ZM693.029 211.267C718.806 211.267 733.583 223.647 733.583 245.102C733.583 262.648 724.313 274.168 707.476 277.59L743.554 325.867H716.065L685.125 279.83H682.208V325.867H659.88V211.267H693.029Z" fill="#1D1D1B"/>
<path fill-rule="evenodd" clip-rule="evenodd" d="M458.774 301.813C476.916 273.444 468.631 235.755 440.265 217.615C411.898 199.474 374.203 207.755 356.06 236.125C337.922 264.486 346.211 302.187 374.577 320.328C402.942 338.468 440.635 330.175 458.774 301.813Z" fill="url(#paint0_linear_6969_98)"/>
</g>
<defs>
<linearGradient id="paint0_linear_6969_98" x1="491.618" y1="250.456" x2="388.904" y2="184.768" gradientUnits="userSpaceOnUse">
<stop stop-color="#F6A000"/>
<stop offset="0.623918" stop-color="#E47E02"/>
<stop offset="1" stop-color="#D36002"/>
</linearGradient>
<clipPath id="clip0_6969_98">
<rect width="772" height="538" fill="white"/>
</clipPath>
</defs>
</svg>
