<svg width="772" height="538" viewBox="0 0 772 538" fill="none" xmlns="http://www.w3.org/2000/svg">
<g clip-path="url(#clip0_6969_148)">
<path d="M724.596 0H47.4035C21.2233 0 0 21.6166 0 48.2821V489.718C0 516.383 21.2233 538 47.4035 538H724.596C750.777 538 772 516.383 772 489.718V48.2821C772 21.6166 750.777 0 724.596 0Z" fill="white"/>
<path fill-rule="evenodd" clip-rule="evenodd" d="M370.927 328.927V266.705L404.588 266.692C418.465 266.701 430.129 262.341 439.577 253.611C449.126 245.325 454.464 233.414 454.192 220.999C454.381 208.651 449.053 196.828 439.577 188.568C430.211 179.792 417.615 175.003 404.588 175.266H350.555V328.927H370.927ZM370.927 247.823V194.185L405.094 194.172C412.709 193.964 420.05 196.934 425.253 202.325C430.487 207.257 433.44 214.029 433.44 221.102C433.44 228.175 430.487 234.949 425.253 239.879C419.985 245.157 412.668 248.041 405.094 247.823H370.927Z" fill="#5F6368"/>
<path fill-rule="evenodd" clip-rule="evenodd" d="M536.797 232.058C528.083 224.259 516.197 220.361 501.138 220.361C481.795 220.361 467.186 227.226 457.316 240.959L475.261 251.908C481.891 242.605 490.897 237.954 502.277 237.954C509.533 237.873 516.555 240.443 521.942 245.152C527.313 249.455 530.403 255.87 530.357 262.623V267.135C522.528 262.844 512.566 260.698 500.468 260.698C486.295 260.714 474.966 263.935 466.479 270.36C457.992 276.783 453.748 285.436 453.748 296.314C453.563 306.221 457.999 315.68 465.821 322.062C473.868 328.928 483.869 332.361 495.824 332.361C509.828 332.361 521.047 326.353 529.484 314.338H530.37V328.928H549.857V264.131C549.865 250.546 545.512 239.855 536.797 232.058ZM481.537 309.618C477.269 306.637 474.752 301.841 474.779 296.743C474.779 291.018 477.55 286.25 483.131 282.325C488.657 278.459 495.557 276.527 503.833 276.527C515.197 276.527 524.055 278.978 530.407 283.883C530.407 292.171 527.033 299.392 520.284 305.548C514.206 311.437 505.964 314.753 497.367 314.767C491.636 314.87 486.043 313.052 481.537 309.618Z" fill="#5F6368"/>
<path fill-rule="evenodd" clip-rule="evenodd" d="M661.719 223.795L593.691 375.274H572.659L597.904 322.271L553.172 223.795H575.317L607.648 299.319H608.091L639.536 223.795H661.719Z" fill="#5F6368"/>
<path fill-rule="evenodd" clip-rule="evenodd" d="M288.6 253.293C288.609 247.278 288.083 241.272 287.032 235.344H201.109V269.342H250.322C248.287 280.315 241.714 290.006 232.125 296.169V318.238H261.496C278.693 302.875 288.6 280.156 288.6 253.293Z" fill="#4285F4"/>
<path fill-rule="evenodd" clip-rule="evenodd" d="M201.108 339.558C225.695 339.558 246.397 331.734 261.494 318.249L232.123 296.18C223.949 301.55 213.421 304.614 201.108 304.614C177.344 304.614 157.173 289.093 149.96 268.176H119.703V290.919C135.168 320.737 166.666 339.555 201.108 339.558Z" fill="#34A853"/>
<path fill-rule="evenodd" clip-rule="evenodd" d="M149.959 268.178C146.145 257.218 146.145 245.348 149.959 234.388V211.645H119.702C106.766 236.584 106.766 265.982 119.702 290.922L149.959 268.178Z" fill="#FBBC04"/>
<path fill-rule="evenodd" clip-rule="evenodd" d="M201.108 197.949C214.101 197.742 226.655 202.5 236.059 211.191L262.064 185.995C245.574 170.989 223.728 162.751 201.108 163.006C166.666 163.007 135.168 181.826 119.703 211.643L149.96 234.386C157.173 213.471 177.344 197.949 201.108 197.949Z" fill="#EA4335"/>
</g>
<defs>
<clipPath id="clip0_6969_148">
<rect width="772" height="538" fill="white"/>
</clipPath>
</defs>
</svg>
