<svg width="772" height="541" viewBox="0 0 772 541" fill="none" xmlns="http://www.w3.org/2000/svg">
<path d="M724.596 3H47.4035C21.2233 3 0 24.6166 0 51.2821V492.718C0 519.383 21.2233 541 47.4035 541H724.596C750.777 541 772 519.383 772 492.718V51.2821C772 24.6166 750.777 3 724.596 3Z" fill="white"/>
<path d="M457.313 396.332H314.539V141.652H457.313V396.332Z" fill="#FF5F00"/>
<path d="M323.687 268.971C323.687 217.308 348.057 171.287 386.008 141.631C358.255 119.944 323.23 107 285.164 107C195.05 107 122 179.516 122 268.971C122 358.425 195.05 430.941 285.164 430.941C323.23 430.941 358.255 417.998 386.008 396.311C348.057 366.654 323.687 320.633 323.687 268.971Z" fill="#EB001B"/>
<path d="M649.873 268.971C649.873 358.425 576.824 430.941 486.709 430.941C448.643 430.941 413.618 417.998 385.855 396.311C423.817 366.654 448.187 320.633 448.187 268.971C448.187 217.308 423.817 171.287 385.855 141.631C413.618 119.944 448.643 107 486.709 107C576.824 107 649.873 179.516 649.873 268.971Z" fill="#F79E1B"/>
</svg>
