<svg width="801" height="552" viewBox="0 0 801 552" fill="none" xmlns="http://www.w3.org/2000/svg">
<path d="M744.931 7H55.2759C28.6138 7 7 28.6138 7 55.2759V496.655C7 523.317 28.6138 544.931 55.2759 544.931H744.931C771.593 544.931 793.207 523.317 793.207 496.655V55.2759C793.207 28.6138 771.593 7 744.931 7Z" fill="white" stroke="#F3F3F3" stroke-width="13.7931"/>
<g clip-path="url(#clip0_1342_28)">
<path d="M740.787 102H245.646C223.234 102 205 119.828 205 141.741V424.26C205 446.172 223.234 464 245.646 464H740.787C763.198 464 781.433 446.172 781.433 424.26V141.741C781.433 119.828 763.198 102 740.787 102Z" fill="white"/>
<path d="M330.488 223.787C324.321 219.547 316.273 217.422 306.345 217.422H267.909C264.866 217.422 263.184 218.945 262.865 221.985L247.251 319.998C247.088 320.961 247.329 321.841 247.971 322.641C248.609 323.443 249.412 323.842 250.373 323.842H268.63C271.832 323.842 273.592 322.323 273.915 319.278L278.238 292.855C278.396 291.575 278.959 290.533 279.92 289.732C280.881 288.931 282.082 288.408 283.523 288.168C284.965 287.93 286.324 287.81 287.607 287.81C288.887 287.81 290.408 287.891 292.172 288.05C293.932 288.21 295.054 288.288 295.535 288.288C309.307 288.288 320.117 284.407 327.966 276.638C335.811 268.872 339.737 258.102 339.737 244.327C339.737 234.88 336.652 228.033 330.488 223.787ZM310.67 253.216C309.867 258.823 307.787 262.504 304.424 264.266C301.061 266.031 296.256 266.908 290.011 266.908L282.084 267.148L286.168 241.444C286.487 239.684 287.527 238.803 289.29 238.803H293.856C300.259 238.803 304.906 239.726 307.789 241.564C310.67 243.407 311.631 247.293 310.67 253.216Z" fill="#003087"/>
<path d="M736.107 217.422H718.332C716.566 217.422 715.526 218.304 715.209 220.065L699.593 319.998L699.353 320.478C699.353 321.283 699.673 322.04 700.315 322.761C700.952 323.481 701.757 323.841 702.716 323.841H718.573C721.611 323.841 723.293 322.323 723.618 319.278L739.232 221.024V220.785C739.231 218.544 738.187 217.422 736.107 217.422Z" fill="#009CDE"/>
<path d="M521.347 256.098C521.347 255.299 521.024 254.537 520.388 253.817C519.745 253.097 519.023 252.735 518.225 252.735H499.728C497.962 252.735 496.522 253.54 495.403 255.137L469.94 292.614L459.371 256.579C458.567 254.018 456.806 252.735 454.086 252.735H436.067C435.264 252.735 434.543 253.096 433.906 253.817C433.264 254.537 432.945 255.3 432.945 256.098C432.945 256.421 434.507 261.143 437.629 270.271C440.751 279.401 444.115 289.251 447.719 299.822C451.323 310.39 453.202 315.999 453.364 316.635C440.231 334.573 433.666 344.183 433.666 345.462C433.666 347.546 434.706 348.585 436.788 348.585H455.286C457.048 348.585 458.488 347.786 459.61 346.184L520.868 257.779C521.186 257.461 521.347 256.903 521.347 256.098Z" fill="#003087"/>
<path d="M693.588 252.735H675.329C673.086 252.735 671.729 255.377 671.248 260.663C667.08 254.26 659.477 251.053 648.425 251.053C636.894 251.053 627.083 255.377 618.998 264.026C610.909 272.675 606.867 282.846 606.867 294.535C606.867 303.986 609.629 311.512 615.153 317.115C620.679 322.724 628.085 325.523 637.377 325.523C642.019 325.523 646.744 324.561 651.548 322.641C656.353 320.719 660.113 318.158 662.84 314.954C662.84 315.114 662.677 315.834 662.359 317.115C662.036 318.398 661.878 319.361 661.878 319.997C661.878 322.563 662.917 323.84 665.002 323.84H681.579C684.617 323.84 686.382 322.322 686.861 319.277L696.711 256.579C696.869 255.618 696.629 254.738 695.99 253.936C695.348 253.136 694.549 252.735 693.588 252.735ZM662.239 300.06C658.155 304.064 653.231 306.065 647.465 306.065C642.819 306.065 639.059 304.785 636.175 302.221C633.291 299.663 631.85 296.139 631.85 291.652C631.85 285.73 633.851 280.722 637.856 276.638C641.856 272.554 646.824 270.512 652.751 270.512C657.23 270.512 660.955 271.834 663.92 274.476C666.881 277.118 668.366 280.763 668.366 285.407C668.365 291.172 666.322 296.058 662.239 300.06Z" fill="#009CDE"/>
<path d="M420.693 252.735H402.436C400.191 252.735 398.833 255.377 398.352 260.663C394.028 254.26 386.42 251.053 375.53 251.053C363.999 251.053 354.188 255.377 346.102 264.026C338.013 272.675 333.971 282.846 333.971 294.535C333.971 303.986 336.734 311.512 342.26 317.115C347.785 322.724 355.19 325.523 364.48 325.523C368.962 325.523 373.609 324.561 378.413 322.641C383.217 320.719 387.061 318.158 389.944 314.954C389.301 316.875 388.982 318.557 388.982 319.997C388.982 322.563 390.023 323.84 392.105 323.84H408.681C411.721 323.84 413.485 322.322 413.966 319.277L423.815 256.579C423.972 255.618 423.732 254.738 423.094 253.936C422.453 253.136 421.654 252.735 420.693 252.735ZM389.344 300.179C385.259 304.107 380.252 306.065 374.33 306.065C369.683 306.065 365.959 304.785 363.159 302.221C360.355 299.663 358.955 296.139 358.955 291.652C358.955 285.73 360.955 280.722 364.961 276.638C368.962 272.554 373.927 270.512 379.855 270.512C384.337 270.512 388.06 271.834 391.026 274.476C393.986 277.118 395.47 280.763 395.47 285.407C395.47 291.333 393.428 296.259 389.344 300.179Z" fill="#003087"/>
<path d="M603.383 223.787C597.217 219.547 589.17 217.422 579.241 217.422H541.045C537.84 217.422 536.078 218.945 535.76 221.985L520.146 319.997C519.983 320.96 520.224 321.84 520.866 322.641C521.502 323.442 522.307 323.841 523.268 323.841H542.965C544.887 323.841 546.167 322.801 546.809 320.719L551.134 292.854C551.293 291.574 551.854 290.533 552.815 289.731C553.777 288.93 554.976 288.407 556.419 288.167C557.86 287.929 559.219 287.809 560.503 287.809C561.783 287.809 563.304 287.89 565.066 288.049C566.827 288.209 567.952 288.287 568.429 288.287C582.203 288.287 593.011 284.407 600.86 276.637C608.707 268.871 612.631 258.102 612.631 244.327C612.632 234.88 609.547 228.033 603.383 223.787ZM578.76 263.305C575.236 265.707 569.951 266.908 562.906 266.908L555.218 267.148L559.303 241.444C559.62 239.684 560.66 238.803 562.425 238.803H566.747C570.27 238.803 573.072 238.963 575.158 239.282C577.236 239.605 579.241 240.603 581.163 242.285C583.086 243.967 584.045 246.41 584.045 249.613C584.045 256.339 582.282 260.902 578.76 263.305Z" fill="#009CDE"/>
</g>
<path d="M183.584 211.754C176.617 203.813 164.023 200.408 147.912 200.408H101.152C99.5574 200.408 98.0155 200.976 96.8032 202.012C95.5908 203.047 94.7876 204.481 94.5381 206.055L75.0681 329.539C74.6811 331.974 76.5666 334.179 79.0346 334.179H107.903L115.153 288.193L114.928 289.633C115.444 286.383 118.224 283.985 121.516 283.985H135.234C162.183 283.985 183.285 273.039 189.449 241.375C189.632 240.438 189.79 239.527 189.927 238.636C189.149 238.224 189.149 238.224 189.927 238.636C191.763 226.933 189.915 218.966 183.584 211.754Z" fill="#27346A"/>
<path d="M126.199 234.42C126.988 234.044 127.851 233.849 128.725 233.85H165.384C169.725 233.85 173.774 234.133 177.474 234.728C178.509 234.893 179.539 235.09 180.563 235.319C182.013 235.639 183.446 236.031 184.858 236.493C186.677 237.1 188.371 237.808 189.928 238.636C191.763 226.928 189.915 218.966 183.584 211.754C176.613 203.813 164.023 200.408 147.912 200.408H101.148C97.8551 200.408 95.0541 202.805 94.5381 206.055L75.0681 329.534C74.6811 331.973 76.5666 334.175 79.0306 334.175H107.903L122.944 238.79C123.092 237.853 123.466 236.965 124.033 236.204C124.599 235.443 125.343 234.83 126.199 234.42Z" fill="#27346A"/>
<path d="M189.449 241.374C183.285 273.034 162.184 283.985 135.234 283.985H121.512C118.22 283.985 115.44 286.382 114.928 289.633L105.909 346.81C105.572 348.941 107.22 350.872 109.376 350.872H133.711C135.105 350.872 136.453 350.374 137.513 349.469C138.572 348.563 139.274 347.309 139.492 345.932L139.729 344.692L144.316 315.624L144.611 314.018C144.829 312.641 145.531 311.387 146.591 310.482C147.65 309.576 148.998 309.078 150.392 309.078H154.034C177.608 309.078 196.066 299.501 201.46 271.803C203.712 260.228 202.547 250.564 196.591 243.776C194.784 241.72 192.541 240.022 189.927 238.636C189.786 239.531 189.632 240.438 189.449 241.374Z" fill="#2790C3"/>
<path d="M183.476 236.064C182.515 235.783 181.545 235.535 180.567 235.319C179.543 235.094 178.514 234.898 177.479 234.732C173.775 234.132 169.729 233.849 165.384 233.849H128.729C127.854 233.848 126.991 234.044 126.203 234.424C125.346 234.833 124.601 235.445 124.034 236.206C123.467 236.968 123.094 237.856 122.948 238.794L115.157 288.193L114.932 289.633C115.444 286.382 118.224 283.985 121.517 283.985H135.239C162.188 283.985 183.289 273.039 189.453 241.374C189.636 240.438 189.79 239.53 189.932 238.636C188.371 237.813 186.681 237.099 184.862 236.496C184.403 236.344 183.941 236.2 183.477 236.064" fill="#1F264F"/>
<defs>
<clipPath id="clip0_1342_28">
<rect width="524" height="524" fill="white" transform="translate(246 21)"/>
</clipPath>
</defs>
</svg>
