<svg width="772" height="538" viewBox="0 0 772 538" fill="none" xmlns="http://www.w3.org/2000/svg">
<g clip-path="url(#clip0_6969_160)">
<path d="M732 0H40C17.9086 0 0 17.9086 0 40V498C0 520.091 17.9086 538 40 538H732C754.091 538 772 520.091 772 498V40C772 17.9086 754.091 0 732 0Z" fill="white"/>
<path d="M197.999 76.001H352.214C373.741 76.001 387.13 93.5077 382.108 115.058L310.31 422.617C305.243 444.091 283.69 461.613 262.148 461.613H107.948C86.4507 461.613 73.0316 444.091 78.0534 422.617L149.882 115.058C154.904 93.5077 176.446 76.001 197.999 76.001Z" fill="#E21836"/>
<path d="M339.383 76.002H516.726C538.249 76.002 528.544 93.5085 523.481 115.058L451.694 422.617C446.657 444.091 448.228 461.613 426.66 461.613H249.317C227.749 461.613 214.401 444.091 219.468 422.617L291.251 115.058C296.348 93.5085 317.845 76.002 339.383 76.002Z" fill="#00447C"/>
<path d="M509.693 76.002H663.907C685.464 76.002 698.853 93.5085 693.79 115.058L622.003 422.617C616.936 444.091 595.368 461.613 573.815 461.613H419.672C398.103 461.613 384.726 444.091 389.778 422.617L461.575 115.058C466.597 93.5085 488.124 76.002 509.693 76.002Z" fill="#007B84"/>
<path d="M238.067 175.241C238.133 174.942 237.862 174.57 237.555 174.573C231.596 174.631 227.266 174.642 224.114 174.613C219.78 174.573 215.486 177.693 214.568 181.929C212.12 193.219 207.68 213.655 205.803 222.253C205.226 224.896 204.627 227.599 203.991 230.229C202.081 238.127 200.156 243.941 195.254 247.889C192.021 250.555 188.247 251.842 183.872 251.842C176.839 251.842 172.742 248.357 172.054 241.749L172.049 241.658C171.964 240.211 172.038 238.76 172.267 237.329C172.654 234.915 173.28 231.01 173.682 228.488C173.94 226.872 174.26 225.28 174.658 223.692C177.003 214.358 185.575 180.352 187.307 175.241V175.241C187.416 174.894 187.125 174.568 186.761 174.572C174.517 174.676 168.071 174.657 164.756 174.555C163.368 174.512 160.777 177.479 160.777 177.479V177.479L149.309 228.068L148.324 232.358L146.418 246.392C146.418 250.555 147.238 253.953 148.869 256.826C154.094 265.935 168.998 267.3 177.429 267.3C188.292 267.3 198.482 264.998 205.369 260.794C217.322 253.747 220.449 242.732 223.238 232.943L224.531 227.922C224.531 227.922 236.101 181.305 238.067 175.241V175.241ZM277.639 212.172C274.85 212.172 269.753 212.847 265.175 215.086C264.859 215.248 264.546 215.415 264.235 215.586C262.778 216.385 261.064 215.089 261.509 213.488L261.619 213.088C261.719 212.728 261.628 212.341 261.378 212.064V212.064C261.119 211.778 260.725 211.65 260.347 211.726C251.261 213.554 248.94 213.847 240.41 215.044C240.216 215.072 240.026 215.143 239.863 215.251V215.251C239.543 215.463 239.332 215.806 239.286 216.187C238.273 224.508 237.303 231.073 233.533 247.609C232.088 253.742 230.589 259.934 229.086 266.056C229.035 266.262 229.061 266.481 229.16 266.669V266.669C229.318 266.973 229.643 267.156 229.985 267.138C238.507 266.695 241.418 266.686 248.8 266.805C249.172 266.811 249.531 266.658 249.783 266.385V266.385C249.947 266.208 250.059 265.986 250.105 265.749C251.056 260.863 251.234 259.461 253.428 249.207C254.12 245.943 255.305 240.117 256.345 235.392C257.187 231.567 259.702 227.556 263.619 227.556V227.556C268.095 227.556 267.55 231.452 267.377 233.005C267.186 235.611 265.554 244.125 263.882 251.434L262.765 256.152C262.007 259.549 261.177 262.853 260.415 266.217C260.377 266.386 260.397 266.562 260.473 266.717V266.717C260.607 266.99 260.895 267.157 261.199 267.141C269.648 266.695 272.522 266.686 279.705 266.805C280.057 266.811 280.403 266.698 280.681 266.483V266.483C280.99 266.245 281.198 265.898 281.264 265.514C282.581 257.898 283.031 255.549 285.45 244.05L286.698 238.631C289.122 228.025 290.34 222.647 288.506 218.266C286.566 213.357 281.913 212.172 277.639 212.172ZM321.791 223.685C321.688 223.447 321.433 223.311 321.178 223.36C316.612 224.237 313.635 224.827 310.676 225.211C307.759 225.678 304.911 226.103 300.539 226.711C300.218 226.756 299.918 226.896 299.678 227.113V227.113V227.113C299.461 227.284 299.318 227.532 299.281 227.806C298.827 231.085 298.49 233.972 297.874 237.34C297.329 240.974 296.49 245.103 295.126 251.036C294.07 255.578 293.525 257.161 292.923 258.758C292.359 260.298 291.738 261.795 290.632 265.893C290.55 266.199 290.604 266.526 290.781 266.788V266.788V266.788C290.925 267.022 291.185 267.159 291.459 267.146C295.559 266.951 298.309 266.814 301.133 266.788C303.942 266.687 306.848 266.781 311.234 266.811C311.575 266.814 311.908 266.696 312.172 266.48V266.48V266.48C312.456 266.244 312.646 265.911 312.707 265.546C313.3 261.978 313.41 260.906 313.804 259.036C314.213 256.928 314.92 254.01 316.653 246.217C317.472 242.557 318.386 238.908 319.235 235.172C320.083 231.605 320.967 228.088 321.815 224.578C321.886 224.284 321.877 223.976 321.791 223.685V223.685V223.685ZM321.717 208.304C317.342 205.728 309.663 206.545 304.494 210.104C299.341 213.592 298.754 218.542 303.115 221.153C307.415 223.658 315.124 222.912 320.248 219.323C325.39 215.76 326.032 210.854 321.717 208.304ZM348.178 267.974C357.03 267.974 366.104 265.54 372.934 258.317C378.189 252.459 380.598 243.743 381.432 240.154C384.15 228.258 382.034 222.704 379.376 219.321C375.339 214.164 368.205 212.51 360.804 212.51C356.353 212.51 345.753 212.949 337.473 220.566C331.526 226.06 328.778 233.516 327.121 240.664C325.448 247.947 323.523 261.058 335.608 265.938C339.337 267.535 344.712 267.974 348.178 267.974ZM347.486 241.208C349.527 232.199 351.937 224.639 358.086 224.639C362.905 224.639 363.255 230.264 361.112 239.303C360.729 241.309 358.969 248.768 356.59 251.945C354.929 254.289 352.963 255.71 350.79 255.71C350.144 255.71 346.298 255.71 346.238 250.014C346.208 247.201 346.783 244.328 347.486 241.208ZM402.982 266.807C403.35 266.813 403.707 266.668 403.965 266.406V266.406C404.152 266.216 404.279 265.973 404.328 265.711C405.244 260.858 405.452 259.432 407.568 249.208C408.278 245.951 409.485 240.143 410.531 235.425C411.382 231.585 413.9 227.553 417.833 227.553V227.553C422.28 227.553 421.739 231.45 421.562 233.002C421.4 235.613 419.769 244.122 418.066 251.432L417.01 256.15C416.222 259.55 415.366 262.851 414.603 266.218C414.565 266.387 414.585 266.563 414.661 266.718V266.718C414.795 266.991 415.083 267.158 415.387 267.142C423.864 266.696 426.642 266.687 433.867 266.807C434.217 266.813 434.562 266.703 434.842 266.493V266.493C435.168 266.25 435.387 265.889 435.454 265.489C436.735 257.89 437.149 255.533 439.638 244.051L440.856 238.628C443.292 228.022 444.525 222.648 442.721 218.267C440.725 213.358 436.041 212.173 431.827 212.173C429.035 212.173 423.911 212.844 419.359 215.087C419.066 215.241 418.774 215.398 418.481 215.558C417.01 216.365 415.236 215.051 415.657 213.428L415.759 213.033C415.844 212.705 415.767 212.355 415.551 212.093V212.093C415.302 211.789 414.901 211.649 414.515 211.727C405.449 213.554 403.082 213.848 394.576 215.044C394.375 215.072 394.179 215.15 394.014 215.269V215.269C393.735 215.472 393.552 215.782 393.509 216.123C392.453 224.475 391.527 231.027 387.747 247.61C386.303 253.745 384.803 259.937 383.303 266.059C383.253 266.264 383.279 266.481 383.376 266.669V266.669C383.534 266.973 383.859 267.157 384.201 267.139C392.738 266.696 395.61 266.687 402.982 266.807ZM465.044 266.958C470.484 267.014 471.175 263.092 472.275 257.764C472.339 257.454 472.403 257.144 472.467 256.835C473.551 251.587 475.205 244.21 476.477 239.004C476.765 237.827 477.019 236.799 477.189 236.133C477.323 235.606 477.557 235.12 477.919 234.714C478 234.622 478.089 234.525 478.184 234.428C478.796 233.799 479.681 233.589 480.559 233.589V233.589C493.185 233.589 507.443 233.589 518.618 225.387C526.222 219.762 531.42 211.455 533.74 201.359C534.341 198.884 534.784 195.939 534.784 192.995C534.784 189.129 534.006 185.303 531.759 182.314C526.06 174.36 514.712 174.214 501.613 174.154C501.571 174.154 495.155 174.214 495.155 174.214C483.141 174.362 476.282 174.373 472.343 174.243C470.401 174.179 468.226 177.409 468.226 177.409V177.409C468.226 177.409 464.163 196.2 462.72 202.895C462.385 204.453 462.035 205.991 461.658 207.539C459.848 214.975 454.076 238.689 450.379 253.875C448.752 260.561 458.163 266.887 465.044 266.958V266.958ZM481.469 217.827C481.469 217.827 487.855 190.108 487.825 190.213L488.032 188.791V188.791C488.081 188.196 488.61 187.758 489.204 187.819L490.674 187.97C490.674 187.97 497.492 188.555 501.432 188.894C503.239 189.049 505.089 189.354 506.549 190.428C509.978 192.95 511.239 197.462 509.999 203.058C508.634 209.227 504.623 214.414 499.47 216.919C495.226 219.042 490.028 219.218 484.671 219.218H482.622C481.886 219.218 481.332 218.55 481.469 217.827V217.827ZM521.232 241.721C519.544 248.899 517.604 262.011 529.629 266.684C533.463 268.311 536.898 268.795 540.39 268.619C543.189 268.468 545.832 267.369 548.327 265.688C549.08 265.18 550.143 265.894 549.913 266.774V266.774C549.844 267.038 549.901 267.324 550.069 267.54V267.54C550.244 267.766 550.521 267.892 550.807 267.88C558.944 267.542 561.746 267.537 570.552 267.603C570.873 267.605 571.189 267.501 571.444 267.308V267.308C571.738 267.085 571.935 266.759 571.997 266.396C573.331 258.565 574.641 250.782 578.114 235.788C579.83 228.505 581.543 221.29 583.303 214.037C583.336 213.9 583.329 213.755 583.283 213.622V213.622C583.164 213.276 582.806 213.07 582.446 213.137C573.41 214.803 570.685 215.209 561.88 216.456C561.64 216.49 561.408 216.589 561.22 216.742L561.014 216.909C560.877 217.02 560.788 217.185 560.766 217.359V217.359C560.684 217.996 559.809 218.192 559.401 217.697C558.037 216.045 556.223 214.649 553.738 213.695C549.6 212.071 539.879 214.164 531.523 221.754C525.652 227.174 522.833 234.599 521.232 241.721ZM541.552 242.16C543.623 233.313 546.002 225.827 552.167 225.827C555.744 225.827 557.767 228.85 557.753 234.079C557.751 235.049 557.598 236.014 557.388 236.962C557.145 238.066 556.882 239.228 556.587 240.491C555.971 243.12 555.302 245.727 554.652 248.337C553.99 250.122 553.219 251.806 552.374 252.927C550.787 255.17 547.014 256.561 544.841 256.561C544.224 256.561 540.42 256.561 540.289 250.966C540.259 248.179 540.834 245.31 541.552 242.16ZM647.373 213.451C647.562 213.126 647.499 212.758 647.251 212.476V212.476C647.045 212.242 646.724 212.137 646.418 212.198C637.466 214.006 635.533 214.347 627.332 215.456C627 215.501 626.688 215.653 626.451 215.889L626.188 216.152C626.175 216.164 626.166 216.179 626.162 216.196C626.14 216.28 626.119 216.392 626.09 216.503C626.085 216.524 626.056 216.523 626.051 216.502V216.502C626.047 216.482 626.019 216.481 626.01 216.5C619.747 230.91 619.67 228.5 614.955 238.793C614.801 239.13 614.311 239.042 614.291 238.672V238.672L612.983 213.443C612.966 213.124 612.833 212.823 612.609 212.595V212.595C612.303 212.284 611.856 212.148 611.428 212.231C602.257 214.012 601.656 214.354 593.115 215.458C592.778 215.502 592.457 215.646 592.204 215.872V215.872C591.985 216.068 591.816 216.317 591.779 216.608C591.76 216.759 591.746 216.916 591.724 217.079C591.714 217.147 591.723 217.216 591.751 217.278V217.278C591.762 217.302 591.771 217.329 591.776 217.355C592.925 223.211 592.651 221.922 593.809 231.216C594.351 235.788 595.072 240.386 595.614 244.901C596.325 250.79 596.793 254.349 597.493 261.089C597.939 265.386 596.92 269.697 594.769 273.443C591.088 279.854 589.166 283.783 584.425 290.902C584.408 290.928 584.405 290.962 584.418 290.99V290.99C584.431 291.018 584.429 291.05 584.413 291.076L580.199 297.725C579.714 298.43 579.274 298.914 578.657 299.12C577.981 299.454 577.101 299.514 575.88 299.514V299.514C574.485 299.514 573.254 300.429 572.852 301.764L572.273 303.685C571.152 307.406 573.898 311.169 577.784 311.236L582.018 311.309C589.051 311.279 593.471 307.997 595.85 303.587L603.356 290.754C603.368 290.734 603.353 290.708 603.33 290.708V290.708C603.304 290.708 603.29 290.678 603.307 290.658L604.008 289.855C604.04 289.819 604.062 289.787 604.083 289.743C608.992 279.254 643.815 219.546 647.373 213.451ZM520.484 367.581C520.855 366.372 519.95 365.147 518.685 365.147V365.147C517.423 365.147 516.518 363.929 516.884 362.72L534.05 306.071C534.589 304.292 536.229 303.075 538.088 303.075H540.471C540.903 303.075 541.285 302.794 541.413 302.381V302.381C541.743 301.316 543.31 301.532 543.34 302.646L543.371 303.791C543.138 308.186 546.603 312.083 555.707 311.438H561.803C564.436 311.438 566.758 309.716 567.522 307.196L568.71 303.277C569.282 301.39 567.87 299.486 565.898 299.486V299.486C563.62 299.486 562.564 298.912 562.695 297.682V297.682C562.588 293.656 559.293 290.447 555.265 290.447H543.025C543.015 290.447 543.006 290.456 543.006 290.467V290.467C543.006 290.477 542.999 290.486 542.988 290.486C536.668 290.617 517.874 291.09 514.067 292.101C512.128 292.6 510.146 293.505 508.498 294.386C507.183 295.091 505.477 293.815 505.904 292.385V292.385C506.203 291.381 505.451 290.372 504.404 290.372H494.775C490.912 290.372 487.508 292.908 486.401 296.608L484.466 303.075L465.941 364.323C465.623 365.376 464.653 366.096 463.553 366.096V366.096C462.455 366.096 461.487 366.813 461.166 367.862L460.423 370.295C459.257 374.108 462.109 377.962 466.096 377.962H492.334C493.363 377.962 494.098 378.958 493.795 379.94V379.94C493.492 380.923 494.227 381.918 495.256 381.918H509.021C510.247 381.918 511.327 381.115 511.68 379.94V379.94C512.033 378.766 513.113 377.962 514.339 377.962H514.793C516.281 377.962 517.594 376.992 518.031 375.57L520.484 367.581ZM506.327 315.687V315.687C502.954 316.62 499.566 313.704 500.586 310.356L501.588 307.068C502.311 304.696 504.499 303.075 506.978 303.075H509.341C513.302 303.075 516.14 306.899 514.993 310.69V310.69C514.276 313.059 512.153 314.708 509.702 315.048C508.563 315.206 507.358 315.415 506.327 315.687ZM507.748 334.603C507.053 336.883 505.08 338.533 502.727 338.912C501.498 339.11 500.17 339.346 499.058 339.596V339.596C495.724 340.604 492.248 337.766 493.256 334.432L494.365 330.765C495.078 328.406 497.252 326.792 499.716 326.792H501.965C506.027 326.792 508.934 330.718 507.748 334.603V334.603ZM499.973 360.324C499.093 363.266 496.382 365.293 493.312 365.293V365.293C488.651 365.293 485.318 360.773 486.667 356.311V356.311C487.554 353.379 490.259 351.361 493.322 351.361V351.361C497.975 351.361 501.307 355.867 499.973 360.324V360.324ZM535.783 319.084C534.639 322.93 537.52 326.792 541.532 326.792H547.846C551.122 326.792 553.461 329.965 552.492 333.095V333.095C551.862 335.132 549.978 336.52 547.846 336.52H534.16C531.811 336.52 529.74 338.062 529.066 340.312V340.312C528.044 343.724 530.598 347.156 534.16 347.156H534.618C539.216 347.156 541.894 352.35 539.227 356.096L531.525 366.917C530.54 368.368 529.657 368.882 528.676 369.291C527.691 369.79 526.398 370.375 524.902 370.375H524.066C521.502 370.375 519.239 372.053 518.493 374.506V374.506C517.356 378.247 520.156 382.024 524.066 382.024H529.687C536.694 382.024 540.832 378.843 543.888 374.669L545.537 372.417C548.489 368.387 554.839 369.936 555.604 374.872V374.872C556.044 377.377 557.848 378.843 559.07 379.413C560.42 380.088 561.814 381.247 563.784 381.42C565.896 381.51 567.422 381.581 568.437 381.581H570.234C573.101 381.581 575.632 379.708 576.468 376.965L578.275 371.044C578.654 369.801 577.724 368.545 576.425 368.545V368.545C574.925 368.545 572.343 368.293 571.903 367.825C571.463 367.255 571.463 366.377 571.226 365.042L569.504 354.058C569.286 352.665 568.086 351.638 566.675 351.638H565.338C563.432 351.638 562.396 349.412 563.623 347.954V347.954C564.049 347.448 564.677 347.156 565.338 347.156H581.551C583.888 347.156 585.951 345.631 586.636 343.396V343.396C587.683 339.978 585.126 336.52 581.551 336.52H575.751C572.467 336.52 570.127 333.332 571.111 330.199V330.199C571.748 328.172 573.627 326.792 575.751 326.792H587.285C589.929 326.792 592.262 325.061 593.027 322.53V322.53C594.192 318.679 591.309 314.795 587.285 314.795H541.532C538.878 314.795 536.539 316.54 535.783 319.084V319.084ZM356.531 368.002L358.518 361.407C360.241 355.687 365.51 351.771 371.484 351.771H377.046C379.704 351.771 382.048 350.034 382.822 347.492V347.492C384.001 343.614 381.1 339.698 377.046 339.698H371.837C368.476 339.698 366.074 336.447 367.062 333.235V333.235C367.706 331.138 369.643 329.707 371.837 329.707H383.503C386.061 329.707 388.322 328.044 389.084 325.601V325.601C390.256 321.839 387.445 318.017 383.503 318.017H346.586C344.014 318.017 341.745 319.697 340.995 322.157L340.327 324.346C339.513 327.013 341.508 329.707 344.297 329.707V329.707C347.074 329.707 349.068 332.383 348.274 335.044L347.95 336.131C347.319 338.248 345.372 339.698 343.163 339.698H340.238C337.531 339.698 335.144 341.47 334.361 344.061L333.583 346.634C332.778 349.295 334.77 351.977 337.549 351.977V351.977C340.331 351.977 342.323 354.663 341.515 357.325L336.62 373.451C335.74 376.294 337.034 377.378 337.853 378.698C338.691 379.984 339.541 380.836 341.45 381.32C343.42 381.758 344.769 382.021 346.604 382.021H364.751C367.43 382.021 369.791 380.267 370.565 377.703V377.703C371.844 373.468 368.31 369.331 363.927 369.931L363.255 370.023C361.316 370.023 355.944 369.791 356.531 368.002ZM364.086 290.299C360.846 290.299 357.861 292.057 356.29 294.891L353.743 299.484C352.653 301.49 351.672 302.735 350.788 303.309C350.01 303.793 348.469 303.995 346.236 303.995V303.995C344.658 303.995 343.267 305.029 342.81 306.539L342.317 308.17C341.177 311.942 344 315.745 347.941 315.745H348.853C353.096 315.745 356.355 314.193 357.911 313.416C359.584 312.524 360.024 313.034 361.317 311.789V311.789C363.24 310.127 365.697 309.212 368.238 309.212H387.303C390.006 309.212 392.388 307.438 393.163 304.848V304.848C394.336 300.925 391.397 296.979 387.303 296.979H379.117C377.402 296.979 376.302 295.156 377.102 293.639V293.639C377.902 292.123 376.802 290.299 375.087 290.299H364.086ZM399.523 368.238C399.054 367.563 399.392 366.374 400.11 363.899L403.342 353.227C405.896 344.792 413.67 339.023 422.483 339.023H434.439C438.345 338.966 441.164 338.921 442.998 338.79C444.968 338.584 447.111 337.883 449.445 336.622C451.854 335.302 453.087 333.911 454.128 332.313C455.29 330.719 457.154 327.232 458.756 321.854L460.429 316.29C464.304 303.409 454.612 290.452 441.161 290.53L440.416 290.534C440.416 290.534 431.853 291.794 428.083 293.186C426.812 293.705 425.359 294.535 423.987 295.409C422.338 296.461 420.063 294.886 420.609 293.008V293.008C420.982 291.726 420.02 290.444 418.685 290.444H410.324C406.674 290.444 403.455 292.835 402.399 296.328L380.128 370.023C379.274 373.113 378.703 375.356 378.572 376.703C378.526 378.154 380.406 379.59 381.624 380.674C383.063 381.758 385.191 381.582 387.232 381.758C389.378 381.919 392.43 382.02 396.644 382.02H405.072C407.903 382.02 410.397 380.159 411.203 377.445V377.445C412.492 373.102 408.982 368.833 404.472 369.258L402.079 369.483C400.816 369.483 399.903 368.808 399.523 368.238ZM411.89 324.221C412.254 323.033 413.351 322.221 414.594 322.221H436.133C438.367 322.221 439.954 324.395 439.274 326.523V326.523C439.009 327.352 438.38 327.769 437.509 327.744C436.971 327.729 436.215 327.751 435.142 327.877H414.594C412.693 327.877 411.333 326.039 411.89 324.221V324.221ZM417.441 305.779C417.857 304.399 419.127 303.454 420.568 303.454H441.999C444.252 303.454 445.865 305.629 445.213 307.785V307.785C444.78 309.213 443.461 310.184 441.969 310.178C437.987 310.162 430.517 310.171 428.963 310.456C427.321 310.74 425.798 311.127 424.402 311.572C421.243 312.579 416.485 308.954 417.441 305.779V305.779ZM439.49 346.554C439.257 347.391 438.888 347.901 438.374 348.283C437.802 348.651 436.877 348.782 435.498 348.782H434.896C433.033 348.782 431.541 347.238 431.605 345.375V345.375C431.67 343.513 430.178 341.968 428.315 341.968H423.153C418.647 341.968 414.969 345.573 414.877 350.078L414.366 375.282C414.339 377.686 414.572 379.078 416.335 380.191C418.098 381.583 423.53 381.759 430.841 381.759H436.837C439.484 381.759 441.818 380.027 442.585 377.494V377.494C443.792 373.506 440.669 369.531 436.509 369.759L435.968 369.788L434.42 369.878C433.448 369.935 432.384 369.876 431.694 369.188V369.188C431.311 368.809 430.664 369.042 430.769 366.638V366.638C430.809 361.855 434.594 357.943 439.374 357.746L440.384 357.704C445.538 357.704 447.741 356.032 449.62 354.438C451.413 352.911 451.999 351.156 452.676 348.782V348.782C453.501 344.887 450.53 341.221 446.548 341.221H446.056C443.144 341.221 440.57 343.112 439.698 345.89L439.49 346.554Z" fill="#FEFEFE"/>
</g>
<defs>
<clipPath id="clip0_6969_160">
<rect width="772" height="538" fill="white"/>
</clipPath>
</defs>
</svg>
