<svg width="772" height="538" viewBox="0 0 772 538" fill="none" xmlns="http://www.w3.org/2000/svg">
	<rect width="772" height="538" rx="40" fill="white"/>
	<path d="M197.999 76.0014H352.214C373.741 76.0014 387.13 93.5081 382.108 115.058L310.31 422.617C305.243 444.091 283.69 461.613 262.148 461.613H107.948C86.4512 461.613 73.0321 444.091 78.0539 422.617L149.882 115.058C154.904 93.5081 176.446 76.0014 197.999 76.0014Z" fill="#E21836"/>
	<path d="M339.382 76.0016H516.725C538.248 76.0016 528.543 93.5082 523.48 115.058L451.693 422.617C446.656 444.091 448.227 461.613 426.659 461.613H249.316C227.748 461.613 214.4 444.091 219.467 422.617L291.25 115.058C296.347 93.5082 317.844 76.0016 339.382 76.0016Z" fill="#00447C"/>
	<path d="M509.691 76.0016H663.905C685.462 76.0016 698.851 93.5082 693.788 115.058L622.001 422.617C616.934 444.091 595.366 461.613 573.813 461.613H419.67C398.101 461.613 384.724 444.091 389.776 422.617L461.573 115.058C466.595 93.5082 488.122 76.0016 509.691 76.0016Z" fill="#007B84"/>
	<path d="M238.275 174.565C222.416 174.727 217.732 174.565 216.236 174.213C215.661 176.939 204.96 226.193 204.93 226.234C202.626 236.199 200.949 243.302 195.255 247.889C192.022 250.555 188.248 251.842 183.873 251.842C176.84 251.842 172.743 248.357 172.055 241.749L171.923 239.48C171.923 239.48 174.066 226.133 174.066 226.058C174.066 226.058 185.297 181.174 187.308 175.241C187.414 174.903 187.444 174.727 187.47 174.565C165.608 174.757 161.733 174.565 161.466 174.213C161.32 174.697 160.778 177.479 160.778 177.479L149.31 228.068L148.325 232.358L146.419 246.392C146.419 250.555 147.239 253.953 148.87 256.826C154.095 265.935 168.999 267.3 177.43 267.3C188.293 267.3 198.483 264.998 205.37 260.794C217.323 253.747 220.45 242.732 223.239 232.943L224.532 227.922C224.532 227.922 236.102 181.305 238.068 175.241C238.143 174.903 238.173 174.727 238.275 174.565ZM277.64 212.172C274.851 212.172 269.754 212.847 265.176 215.086C263.514 215.937 261.943 216.92 260.285 217.899L261.781 212.509L260.962 211.602C251.253 213.563 249.08 213.826 240.112 215.086L239.36 215.585C238.319 224.199 237.394 230.676 233.534 247.609C232.064 253.849 230.538 260.15 229.008 266.376L229.421 267.167C238.612 266.683 241.401 266.683 249.388 266.814L250.035 266.113C251.05 260.926 251.181 259.711 253.429 249.207C254.485 244.226 256.688 233.283 257.774 229.386C259.77 228.463 261.74 227.556 263.62 227.556C268.096 227.556 267.551 231.452 267.378 233.005C267.187 235.611 265.555 244.125 263.883 251.434L262.766 256.152C261.988 259.636 261.135 263.023 260.357 266.477L260.695 267.167C269.754 266.683 272.517 266.683 280.252 266.814L281.162 266.113C282.56 258.012 282.97 255.845 285.451 244.05L286.699 238.631C289.123 228.025 290.341 222.647 288.507 218.266C286.567 213.357 281.914 212.172 277.64 212.172ZM321.616 223.276C316.801 224.199 313.73 224.814 310.677 225.211C307.652 225.695 304.701 226.134 300.047 226.779L299.679 227.113L299.341 227.379C298.856 230.837 298.518 233.826 297.875 237.34C297.33 240.974 296.491 245.103 295.127 251.036C294.071 255.578 293.526 257.161 292.924 258.758C292.338 260.356 291.691 261.909 290.504 266.375L290.782 266.788L291.015 267.167C295.364 266.96 298.209 266.814 301.134 266.788C304.054 266.683 307.08 266.788 311.764 266.814L312.173 266.48L312.613 266.113C313.29 262.085 313.391 261.001 313.805 259.036C314.214 256.928 314.921 254.01 316.654 246.217C317.473 242.557 318.387 238.908 319.236 235.172C320.12 231.452 321.044 227.788 321.924 224.128L321.792 223.685L321.616 223.276ZM321.718 208.304C317.343 205.728 309.664 206.545 304.495 210.104C299.342 213.592 298.755 218.542 303.116 221.153C307.416 223.658 315.125 222.912 320.249 219.323C325.391 215.76 326.033 210.854 321.718 208.304ZM348.179 267.974C357.031 267.974 366.105 265.54 372.935 258.317C378.19 252.459 380.599 243.743 381.433 240.154C384.151 228.258 382.035 222.704 379.377 219.321C375.34 214.164 368.206 212.51 360.805 212.51C356.354 212.51 345.754 212.949 337.474 220.566C331.527 226.06 328.779 233.516 327.122 240.664C325.449 247.947 323.524 261.058 335.609 265.938C339.338 267.535 344.713 267.974 348.179 267.974ZM347.487 241.208C349.528 232.199 351.938 224.639 358.087 224.639C362.906 224.639 363.256 230.264 361.113 239.303C360.73 241.309 358.97 248.768 356.591 251.945C354.93 254.289 352.964 255.71 350.791 255.71C350.145 255.71 346.299 255.71 346.239 250.014C346.209 247.201 346.784 244.328 347.487 241.208ZM403.562 266.816L404.253 266.114C405.235 260.928 405.396 259.709 407.569 249.208C408.655 244.227 410.903 233.284 411.959 229.387C413.959 228.461 415.895 227.553 417.834 227.553C422.281 227.553 421.74 231.45 421.563 233.002C421.401 235.613 419.77 244.122 418.067 251.432L417.011 256.15C416.203 259.637 415.323 263.02 414.545 266.478L414.883 267.168C423.972 266.684 426.63 266.684 434.411 266.816L435.35 266.114C436.715 258.01 437.083 255.842 439.639 244.051L440.857 238.628C443.293 228.022 444.526 222.648 442.722 218.267C440.726 213.358 436.042 212.173 431.828 212.173C429.036 212.173 423.912 212.844 419.36 215.087C417.733 215.938 416.101 216.917 414.5 217.9L415.895 212.51L415.147 211.599C405.441 213.564 403.224 213.827 394.266 215.087L393.578 215.586C392.492 224.2 391.609 230.673 387.748 247.61C386.279 253.851 384.752 260.151 383.226 266.377L383.636 267.168C392.842 266.684 395.589 266.684 403.562 266.816ZM470.34 267.166C470.911 264.383 474.305 247.889 474.336 247.889C474.336 247.889 477.226 235.787 477.403 235.348C477.403 235.348 478.312 234.088 479.222 233.589H480.56C493.186 233.589 507.444 233.589 518.619 225.387C526.223 219.762 531.421 211.455 533.741 201.359C534.342 198.884 534.785 195.939 534.785 192.995C534.785 189.129 534.007 185.303 531.76 182.314C526.061 174.36 514.713 174.214 501.614 174.154C501.572 174.154 495.156 174.214 495.156 174.214C478.388 174.42 471.663 174.36 468.9 174.022C468.667 175.241 468.227 177.409 468.227 177.409C468.227 177.409 462.221 205.184 462.221 205.229C462.221 205.229 447.847 264.282 447.17 267.065C461.811 266.889 467.814 266.889 470.34 267.166ZM481.47 217.827C481.47 217.827 487.856 190.108 487.826 190.213L488.033 188.791L488.123 187.707L490.675 187.97C490.675 187.97 503.846 189.099 504.155 189.129C509.353 191.135 511.496 196.307 510 203.058C508.635 209.227 504.624 214.414 499.471 216.919C495.227 219.042 490.029 219.218 484.672 219.218H481.207L481.47 217.827ZM521.233 241.721C519.545 248.899 517.605 262.011 529.63 266.684C533.464 268.311 536.899 268.795 540.391 268.619C544.079 268.42 547.496 266.575 550.661 263.92C550.375 265.011 550.089 266.102 549.804 267.197L550.349 267.899C558.998 267.535 561.682 267.535 571.052 267.606L571.902 266.961C573.27 258.935 574.559 251.142 578.115 235.788C579.848 228.434 581.577 221.15 583.355 213.826L583.077 213.02C573.402 214.809 570.816 215.191 561.509 216.508L560.802 217.081C560.708 217.828 560.61 218.544 560.52 219.26C559.073 216.928 556.975 214.936 553.739 213.695C549.601 212.071 539.88 214.164 531.524 221.754C525.653 227.174 522.834 234.599 521.233 241.721ZM541.553 242.16C543.624 233.313 546.003 225.827 552.168 225.827C556.066 225.827 558.118 229.416 557.701 235.537C557.37 237.063 557.013 238.672 556.588 240.491C555.972 243.12 555.303 245.727 554.653 248.337C553.991 250.122 553.22 251.806 552.375 252.927C550.788 255.17 547.015 256.561 544.842 256.561C544.225 256.561 540.421 256.561 540.29 250.966C540.26 248.179 540.835 245.31 541.553 242.16ZM647.667 212.948L646.919 212.097C637.346 214.032 635.613 214.339 626.817 215.525L626.17 216.17C626.14 216.275 626.114 216.436 626.069 216.582L626.039 216.436C619.491 231.509 619.683 228.257 614.353 240.123C614.323 239.583 614.323 239.246 614.292 238.672L612.958 212.948L612.12 212.097C602.091 214.032 601.854 214.339 592.593 215.525L591.871 216.17C591.769 216.477 591.769 216.815 591.709 217.182L591.769 217.314C592.927 223.217 592.649 221.9 593.81 231.216C594.352 235.788 595.073 240.386 595.615 244.901C596.528 252.458 597.039 256.178 598.156 267.711C591.901 278.009 590.42 281.906 584.398 290.944L584.44 291.034L580.2 297.725C579.715 298.43 579.275 298.914 578.658 299.12C577.982 299.454 577.102 299.514 575.881 299.514H573.531L570.039 311.102L582.019 311.309C589.052 311.279 593.472 307.997 595.851 303.587L603.384 290.708H603.264L604.057 289.8C609.124 278.917 647.667 212.948 647.667 212.948ZM521.232 365.147H516.15L534.959 303.075H541.199L543.18 296.68L543.372 303.791C543.139 308.186 546.604 312.083 555.708 311.438H566.237L569.86 299.486H565.899C563.621 299.486 562.565 298.912 562.696 297.682L562.504 290.447H543.007V290.485C536.704 290.616 517.879 291.089 514.068 292.101C509.456 293.286 504.595 296.774 504.595 296.774L506.505 290.372H488.267L484.467 303.075L465.406 366.096H461.707L458.08 377.962H494.405L493.187 381.918H511.087L512.275 377.962H517.297L521.232 365.147ZM506.328 315.687C503.408 316.494 497.972 318.939 497.972 318.939L502.806 303.075H517.297L513.801 314.633C513.801 314.633 509.324 314.896 506.328 315.687ZM506.606 338.351C506.606 338.351 502.054 338.921 499.059 339.596C496.108 340.488 490.575 343.301 490.575 343.301L495.567 326.792H510.132L506.606 338.351ZM498.487 365.293H483.952L488.165 351.361H502.656L498.487 365.293ZM533.492 326.792H554.444L551.433 336.52H530.203L527.016 347.156H545.592L531.526 366.917C530.541 368.368 529.658 368.882 528.677 369.291C527.692 369.79 526.399 370.375 524.903 370.375H519.75L516.209 382.024H529.688C536.695 382.024 540.833 378.843 543.889 374.669L553.534 361.498L555.605 374.872C556.045 377.377 557.849 378.843 559.071 379.413C560.421 380.088 561.815 381.247 563.785 381.42C565.897 381.51 567.423 381.581 568.438 381.581H575.061L579.038 368.545H576.426C574.926 368.545 572.344 368.293 571.904 367.825C571.464 367.255 571.464 366.377 571.227 365.042L569.126 351.638H560.522L564.296 347.156H585.485L588.743 336.52H569.126L572.182 326.792H591.739L595.367 314.795H537.059L533.492 326.792ZM356.532 368.002L361.422 351.771H381.521L385.193 339.698H365.076L368.147 329.707H387.805L391.448 318.017H342.259L338.692 329.707H349.867L346.887 339.698H335.681L331.968 351.977H343.139L336.621 373.451C335.741 376.294 337.035 377.378 337.854 378.698C338.692 379.984 339.542 380.836 341.451 381.32C343.421 381.758 344.77 382.021 346.605 382.021H369.263L373.3 368.647L363.256 370.023C361.317 370.023 355.945 369.791 356.532 368.002ZM358.837 290.299L353.744 299.484C352.654 301.49 351.673 302.735 350.789 303.309C350.011 303.793 348.47 303.995 346.237 303.995H343.58L340.028 315.745H348.854C353.097 315.745 356.356 314.193 357.912 313.416C359.585 312.524 360.025 313.034 361.318 311.789L364.299 309.212H391.859L395.516 296.979H375.342L378.864 290.299H358.837ZM399.524 368.238C399.055 367.563 399.393 366.374 400.111 363.899L407.644 339.023H434.44C438.346 338.966 441.165 338.921 442.999 338.79C444.969 338.584 447.112 337.883 449.446 336.622C451.855 335.302 453.088 333.911 454.129 332.313C455.291 330.719 457.155 327.232 458.757 321.854L468.225 290.373L440.417 290.534C440.417 290.534 431.854 291.794 428.084 293.186C424.28 294.738 418.845 299.074 418.845 299.074L421.356 290.444H404.178L380.129 370.023C379.275 373.113 378.704 375.356 378.573 376.703C378.527 378.154 380.407 379.59 381.625 380.674C383.064 381.758 385.192 381.582 387.233 381.758C389.379 381.919 392.431 382.02 396.645 382.02H409.846L413.898 368.369L402.08 369.483C400.817 369.483 399.904 368.808 399.524 368.238ZM412.504 322.221H440.65L438.861 327.817C438.609 327.948 438.008 327.539 435.143 327.877H410.771L412.504 322.221ZM418.142 303.454H446.525L444.484 310.194C444.484 310.194 431.106 310.062 428.964 310.456C419.537 312.084 414.03 317.109 414.03 317.109L418.142 303.454ZM439.491 346.554C439.258 347.391 438.889 347.901 438.375 348.283C437.803 348.651 436.878 348.782 435.499 348.782H431.488L431.725 341.968H415.043L414.367 375.282C414.34 377.686 414.573 379.078 416.336 380.191C418.099 381.583 423.531 381.759 430.842 381.759H441.295L445.069 369.289L435.969 369.788L432.943 369.964C432.529 369.788 432.135 369.627 431.695 369.188C431.312 368.809 430.665 369.042 430.77 366.638L430.842 358.098L440.385 357.704C445.539 357.704 447.742 356.032 449.621 354.438C451.414 352.911 452 351.156 452.677 348.782L454.278 341.221H441.164L439.491 346.554Z" fill="#FEFEFE"/>
</svg>
