<svg width="77" height="77" viewBox="0 0 77 77" fill="none" xmlns="http://www.w3.org/2000/svg">
<path d="M32.6562 9.37523C32.6562 11.5965 33.5386 13.7268 35.1092 15.2974C36.68 16.8681 38.8104 17.7505 41.0315 17.7505C43.2526 17.7505 45.3829 16.8681 46.9537 15.2974C48.5243 13.7268 49.4067 11.5965 49.4067 9.37523C49.4067 7.15399 48.5243 5.0237 46.9537 3.45306C45.3829 1.88239 43.2526 1 41.0315 1C38.8104 1 36.68 1.88239 35.1092 3.45306C33.5386 5.0237 32.6562 7.15399 32.6562 9.37523Z" stroke="#00304D" stroke-width="2" stroke-linecap="round" stroke-linejoin="round"/>
<path d="M51 38.0554C51.952 38.0402 52.8935 38.2558 53.7438 38.6839C54.5941 39.1123 55.3277 39.7405 55.8822 40.5143C56.4367 41.2885 56.7949 42.1853 56.9266 43.1283C57.0583 44.071 56.9597 45.0321 56.6386 45.9283" stroke="#00304D" stroke-width="2" stroke-linecap="round" stroke-linejoin="round"/>
<path d="M41.0156 17.748V70.748" stroke="#00304D" stroke-width="2" stroke-linecap="round" stroke-linejoin="round"/>
<path d="M48.6797 12.7031H73.2967C81.6501 12.7031 69.5522 32.8393 52.1652 26.121" stroke="#00304D" stroke-width="2" stroke-linecap="round" stroke-linejoin="round"/>
<path d="M33.3151 12.7031H8.70424C0.353979 12.7031 12.4488 32.8393 29.8358 26.121" stroke="#00304D" stroke-width="2" stroke-linecap="round" stroke-linejoin="round"/>
<path d="M31.0556 38.0003C29.483 37.9844 27.9683 38.59 26.8434 39.6844C25.7185 40.7788 25.0753 42.2723 25.0547 43.8381C25.0629 45.4331 25.6935 46.9627 26.8132 48.1035C27.9329 49.2446 29.4541 49.9078 31.0556 49.9529H47.0538C48.6455 49.9529 50.1718 50.5825 51.2973 51.7027C52.4224 52.8232 53.0547 54.3429 53.0547 55.9277C53.0547 57.5121 52.4224 59.0318 51.2973 60.1523C50.1718 61.2729 48.6455 61.9024 47.0538 61.9024H36.0558C34.6978 61.9333 33.4077 62.5002 32.4694 63.4782C31.5311 64.4561 31.0214 65.7653 31.0525 67.1175C31.0485 67.8432 31.1938 68.5618 31.4793 69.2297C31.7649 69.8975 32.1847 70.5 32.713 71" stroke="#00304D" stroke-width="2" stroke-linecap="round" stroke-linejoin="round"/>
<path d="M28.6562 13.3752C28.6562 15.5965 29.5386 17.7268 31.1092 19.2974C32.68 20.8681 34.8104 21.7505 37.0315 21.7505C39.2526 21.7505 41.3829 20.8681 42.9537 19.2974C44.5243 17.7268 45.4067 15.5965 45.4067 13.3752C45.4067 11.154 44.5243 9.0237 42.9537 7.45306C41.3829 5.88239 39.2526 5 37.0315 5C34.8104 5 32.68 5.88239 31.1092 7.45306C29.5386 9.0237 28.6562 11.154 28.6562 13.3752Z" stroke="#006D8D" stroke-width="4" stroke-linecap="round" stroke-linejoin="round"/>
<path d="M47 42.0554C47.952 42.0402 48.8935 42.2558 49.7438 42.6839C50.5941 43.1123 51.3277 43.7405 51.8822 44.5143C52.4367 45.2885 52.7949 46.1853 52.9266 47.1283C53.0583 48.071 52.9597 49.0321 52.6386 49.9283" stroke="#006D8D" stroke-width="4" stroke-linecap="round" stroke-linejoin="round"/>
<path d="M37.0156 21.748V74.748" stroke="#006D8D" stroke-width="4" stroke-linecap="round" stroke-linejoin="round"/>
<path d="M44.6797 16.7031H69.2967C77.6501 16.7031 65.5522 36.8393 48.1652 30.121" stroke="#006D8D" stroke-width="4" stroke-linecap="round" stroke-linejoin="round"/>
<path d="M29.3151 16.7031H4.70424C-3.64602 16.7031 8.44875 36.8393 25.8358 30.121" stroke="#006D8D" stroke-width="4" stroke-linecap="round" stroke-linejoin="round"/>
<path d="M27.0556 42.0003C25.483 41.9844 23.9683 42.59 22.8434 43.6844C21.7185 44.7788 21.0753 46.2723 21.0547 47.8381C21.0629 49.4331 21.6935 50.9627 22.8132 52.1035C23.9329 53.2446 25.4541 53.9078 27.0556 53.9529H43.0538C44.6455 53.9529 46.1718 54.5825 47.2973 55.7027C48.4224 56.8232 49.0547 58.3429 49.0547 59.9277C49.0547 61.5121 48.4224 63.0318 47.2973 64.1523C46.1718 65.2729 44.6455 65.9024 43.0538 65.9024H32.0558C30.6978 65.9333 29.4077 66.5002 28.4694 67.4782C27.5311 68.4561 27.0214 69.7653 27.0525 71.1175C27.0485 71.8432 27.1938 72.5618 27.4793 73.2297C27.7649 73.8975 28.1847 74.5 28.713 75" stroke="#006D8D" stroke-width="4" stroke-linecap="round" stroke-linejoin="round"/>
</svg>
