<svg width="30" height="30" viewBox="0 0 30 30" fill="none" xmlns="http://www.w3.org/2000/svg">
<path d="M4.21875 9.84375C4.21875 11.2113 4.762 12.5227 5.72897 13.4897C6.69596 14.4567 8.00748 15 9.375 15C10.7425 15 12.054 14.4567 13.021 13.4897C13.988 12.5227 14.5312 11.2113 14.5312 9.84375C14.5312 8.47623 13.988 7.16471 13.021 6.19772C12.054 5.23075 10.7425 4.6875 9.375 4.6875C8.00748 4.6875 6.69596 5.23075 5.72897 6.19772C4.762 7.16471 4.21875 8.47623 4.21875 9.84375Z" stroke="#EDF8FF" stroke-linecap="round" stroke-linejoin="round"/>
<path d="M0.9375 25.3125C0.9375 23.0747 1.82645 20.9286 3.40879 19.3463C4.99112 17.764 7.13724 16.875 9.375 16.875C11.6128 16.875 13.7589 17.764 15.3413 19.3463C16.9235 20.9286 17.8125 23.0747 17.8125 25.3125" stroke="#EDF8FF" stroke-linecap="round" stroke-linejoin="round"/>
<path d="M17.9414 12.6562C17.9414 13.7751 18.3858 14.8481 19.177 15.6394C19.9682 16.4305 21.0412 16.875 22.16 16.875C23.279 16.875 24.352 16.4305 25.1432 15.6394C25.9344 14.8481 26.3788 13.7751 26.3788 12.6562C26.3788 11.5374 25.9344 10.4643 25.1432 9.67314C24.352 8.88198 23.279 8.4375 22.16 8.4375C21.0412 8.4375 19.9682 8.88198 19.177 9.67314C18.3858 10.4643 17.9414 11.5374 17.9414 12.6562Z" stroke="#EDF8FF" stroke-linecap="round" stroke-linejoin="round"/>
<path d="M19.7656 18.8354C20.8095 18.4506 21.9308 18.3237 23.0343 18.4655C24.1376 18.6071 25.1905 19.0132 26.1034 19.6492C27.0161 20.2852 27.7617 21.1324 28.2769 22.1184C28.7919 23.1045 29.0612 24.2004 29.0619 25.3129" stroke="#EDF8FF" stroke-linecap="round" stroke-linejoin="round"/>
</svg>
