<svg width="55" height="56" viewBox="0 0 55 56" fill="none" xmlns="http://www.w3.org/2000/svg">
<path fill-rule="evenodd" clip-rule="evenodd" d="M18.2209 2.66846C18.2209 1.56389 17.3254 0.668457 16.2209 0.668457C15.1163 0.668457 14.2209 1.56389 14.2209 2.66846V3.33487H4.81463C3.53571 3.33487 2.31043 3.84455 1.40799 4.74978C0.505757 5.65481 0 6.88098 0 8.15821V19.4516V50.5084C0 51.7857 0.505756 53.0118 1.40799 53.9169C2.31043 54.8221 3.53572 55.3318 4.81463 55.3318H49.8488C51.1277 55.3318 52.353 54.8221 53.2554 53.9169C54.1576 53.0118 54.6634 51.7856 54.6634 50.5084V19.4516V8.15821C54.6634 6.88098 54.1576 5.65481 53.2554 4.74978C52.353 3.84455 51.1277 3.33487 49.8488 3.33487H40.3429V2.66846C40.3429 1.56389 39.4475 0.668457 38.3429 0.668457C37.2383 0.668457 36.3429 1.56389 36.3429 2.66846V3.33487H18.2209V2.66846ZM14.2209 7.33487V11.0489C14.2209 12.1534 15.1163 13.0489 16.2209 13.0489C17.3254 13.0489 18.2209 12.1534 18.2209 11.0489V7.33487H36.3429V11.0489C36.3429 12.1534 37.2383 13.0489 38.3429 13.0489C39.4475 13.0489 40.3429 12.1534 40.3429 11.0489V7.33487H49.8488C50.0628 7.33487 50.2693 7.42011 50.4226 7.57383C50.5761 7.72777 50.6634 7.93785 50.6634 8.15821V17.4516H4V8.15821C4 7.93786 4.08732 7.72777 4.24078 7.57383C4.39404 7.42011 4.60058 7.33487 4.81463 7.33487H14.2209ZM42.5295 32.0102C43.3066 31.2252 43.3002 29.9589 42.5152 29.1818C41.7301 28.4047 40.4638 28.4111 39.6868 29.1961L28.6257 40.37C27.8487 41.155 27.8551 42.4213 28.6401 43.1984C29.4251 43.9755 30.6914 43.9691 31.4685 43.1841L42.5295 32.0102ZM50.6634 21.4516H4V50.5084C4 50.7288 4.08733 50.9389 4.24078 51.0928C4.39403 51.2465 4.60057 51.3318 4.81463 51.3318H49.8488C50.0628 51.3318 50.2694 51.2465 50.4226 51.0928C50.5761 50.9389 50.6634 50.7288 50.6634 50.5084V21.4516ZM31.8949 29.7356C32.6545 30.5375 32.6203 31.8034 31.8185 32.563L20.5599 43.229C19.7885 43.9598 18.5803 43.9598 17.8089 43.229L12.1797 37.896C11.3778 37.1364 11.3436 35.8705 12.1033 35.0686C12.8629 34.2668 14.1288 34.2326 14.9307 34.9922L19.1844 39.0221L29.0675 29.6592C29.8693 28.8996 31.1352 28.9338 31.8949 29.7356Z" fill="#006D8D"/>
</svg>
