<svg width="29" height="30" viewBox="0 0 29 30" fill="none" xmlns="http://www.w3.org/2000/svg">
<g clip-path="url(#clip0_5377_27)">
<path d="M10.8748 28.4483C11.5422 28.4483 12.0832 27.8693 12.0832 27.1552C12.0832 26.441 11.5422 25.8621 10.8748 25.8621C10.2075 25.8621 9.6665 26.441 9.6665 27.1552C9.6665 27.8693 10.2075 28.4483 10.8748 28.4483Z" stroke="#01433D" stroke-width="1.5" stroke-linecap="round" stroke-linejoin="round"/>
<path d="M24.1668 28.4483C24.8342 28.4483 25.3752 27.8693 25.3752 27.1552C25.3752 26.441 24.8342 25.8621 24.1668 25.8621C23.4995 25.8621 22.9585 26.441 22.9585 27.1552C22.9585 27.8693 23.4995 28.4483 24.1668 28.4483Z" stroke="#01433D" stroke-width="1.5" stroke-linecap="round" stroke-linejoin="round"/>
<path d="M1.2085 1.29311H6.04183L9.28016 18.6078C9.39066 19.2031 9.6933 19.7379 10.1351 20.1185C10.5769 20.4991 11.1298 20.7013 11.6968 20.6897H23.4418C24.0089 20.7013 24.5617 20.4991 25.0035 20.1185C25.4454 19.7379 25.748 19.2031 25.8585 18.6078L27.7918 7.75862H7.25016" stroke="#01433D" stroke-width="1.5" stroke-linecap="round" stroke-linejoin="round"/>
</g>
<defs>
<clipPath id="clip0_5377_27">
<rect width="29" height="30" fill="white"/>
</clipPath>
</defs>
</svg>
