<svg width="36" height="34" viewBox="0 0 36 34" fill="none" xmlns="http://www.w3.org/2000/svg">
    <path d="M13.392 33C14.2336 33 14.9158 32.3178 14.9158 31.4762C14.9158 30.6346 14.2336 29.9524 13.392 29.9524C12.5504 29.9524 11.8682 30.6346 11.8682 31.4762C11.8682 32.3178 12.5504 33 13.392 33Z" stroke="#01433D" stroke-width="2" stroke-linecap="round" stroke-linejoin="round" />
    <path d="M30.1542 33C30.9958 33 31.678 32.3178 31.678 31.4762C31.678 30.6346 30.9958 29.9524 30.1542 29.9524C29.3126 29.9524 28.6304 30.6346 28.6304 31.4762C28.6304 32.3178 29.3126 33 30.1542 33Z" stroke="#01433D" stroke-width="2" stroke-linecap="round" stroke-linejoin="round" />
    <path d="M1.20166 1H7.2969L11.3807 21.4038C11.5201 22.1054 11.9017 22.7356 12.4589 23.1841C13.016 23.6326 13.7132 23.8708 14.4283 23.8571H29.2398C29.9549 23.8708 30.652 23.6326 31.2092 23.1841C31.7664 22.7356 32.148 22.1054 32.2874 21.4038L34.7255 8.61905H8.82071" stroke="#01433D" stroke-width="2" stroke-linecap="round" stroke-linejoin="round" />
</svg>