<svg width="35" height="32" viewBox="0 0 35 32" fill="none" xmlns="http://www.w3.org/2000/svg">
<path d="M13.1825 31C13.9715 31 14.6111 30.3604 14.6111 29.5714C14.6111 28.7824 13.9715 28.1429 13.1825 28.1429C12.3935 28.1429 11.7539 28.7824 11.7539 29.5714C11.7539 30.3604 12.3935 31 13.1825 31Z" stroke="#01433D" stroke-width="1.875" stroke-linecap="round" stroke-linejoin="round"/>
<path d="M28.8973 31C29.6863 31 30.3259 30.3604 30.3259 29.5714C30.3259 28.7824 29.6863 28.1429 28.8973 28.1429C28.1083 28.1429 27.4688 28.7824 27.4688 29.5714C27.4688 30.3604 28.1083 31 28.8973 31Z" stroke="#01433D" stroke-width="1.875" stroke-linecap="round" stroke-linejoin="round"/>
<path d="M1.75488 1H7.46917L11.2977 20.1286C11.4284 20.7863 11.7862 21.3771 12.3085 21.7976C12.8309 22.2181 13.4845 22.4414 14.1549 22.4286H28.0406C28.711 22.4414 29.3646 22.2181 29.887 21.7976C30.4093 21.3771 30.7671 20.7863 30.8977 20.1286L33.1835 8.14286H8.89774" stroke="#01433D" stroke-width="1.875" stroke-linecap="round" stroke-linejoin="round"/>
</svg>
