  <svg
    width="92"
    height="93"
    viewBox="0 0 92 93"
    fill="none"
    xmlns="http://www.w3.org/2000/svg"
  >
    <circle cx="46" cy="46.75" r="45" stroke="#EDF8FF" strokeWidth="none" />
    <path
      fillRule="evenodd"
      clipRule="evenodd"
      d="M47.492 23.3402C47.1276 22.9252 46.4957 22.8842 46.0807 23.2486C45.6658 23.613 45.6248 24.2449 45.9892 24.6599L65.2724 46.6181H26C25.4477 46.6181 25 47.0658 25 47.6181C25 48.1704 25.4477 48.6181 26 48.6181H65.2722L45.9892 70.5762C45.6248 70.9912 45.6658 71.623 46.0807 71.9874C46.4957 72.3518 47.1276 72.3109 47.492 71.8959L68.2207 48.2916C68.3827 48.1139 68.4815 47.8775 68.4815 47.6181C68.4815 47.3612 68.3846 47.127 68.2255 46.9499L47.492 23.3402Z"
      fill="#EDF8FF"
    />
  </svg>