<svg width="58" height="58" viewBox="0 0 58 58" fill="none" xmlns="http://www.w3.org/2000/svg">
<path fill-rule="evenodd" clip-rule="evenodd" d="M4 29C4 15.2343 15.1593 4.07495 28.9251 4.07495C42.6908 4.07495 53.8502 15.2343 53.8502 29C53.8502 42.7658 42.6908 53.9251 28.9251 53.9251C15.1593 53.9251 4 42.7658 4 29ZM28.9251 0.0749512C12.9502 0.0749512 0 13.0252 0 29C0 44.9749 12.9502 57.9251 28.9251 57.9251C44.9 57.9251 57.8502 44.9749 57.8502 29C57.8502 13.0252 44.9 0.0749512 28.9251 0.0749512ZM30.9261 12.8449C30.9261 11.7404 30.0306 10.8449 28.9261 10.8449C27.8215 10.8449 26.9261 11.7404 26.9261 12.8449V29C26.9261 29.7575 27.3541 30.4501 28.0317 30.7889L38.8017 36.1739C39.7896 36.6679 40.991 36.2674 41.485 35.2794C41.979 34.2915 41.5785 33.0901 40.5905 32.5962L30.9261 27.7639V12.8449Z" fill="#006D8D"/>
</svg>
