<svg width="42" height="42" viewBox="0 0 42 42" fill="none" xmlns="http://www.w3.org/2000/svg">
<path d="M21 41C32.0457 41 41 32.0457 41 21C41 9.9543 32.0457 1 21 1C9.9543 1 1 9.9543 1 21C1 32.0457 9.9543 41 21 41Z" stroke="#D8DCE2" stroke-width="2" stroke-linecap="round" stroke-linejoin="round"/>
<path d="M29 13.001H17C15.9391 13.001 14.9217 13.4224 14.1716 14.1726C13.4214 14.9227 13 15.9401 13 17.001C13 18.0618 13.4214 19.0793 14.1716 19.8294C14.9217 20.5795 15.9391 21.001 17 21.001H25C26.0609 21.001 27.0783 21.4224 27.8284 22.1726C28.5786 22.9227 29 23.9401 29 25.001C29 26.0618 28.5786 27.0793 27.8284 27.8294C27.0783 28.5795 26.0609 29.001 25 29.001H13" stroke="#D8DCE2" stroke-width="2" stroke-linecap="round" stroke-linejoin="round"/>
<path d="M21 32.999V8.99902" stroke="#D8DCE2" stroke-width="2" stroke-linecap="round" stroke-linejoin="round"/>
</svg>
