<svg width="32" height="40" viewBox="0 0 32 40" fill="none" xmlns="http://www.w3.org/2000/svg">
<path d="M1.2461 6.05085V33.9541C1.24593 34.1819 1.30826 34.4054 1.42593 34.6004C1.54376 34.7954 1.7126 34.9546 1.9141 35.0606C2.11576 35.1666 2.34243 35.2156 2.56993 35.2021C2.79726 35.1886 3.0166 35.1133 3.20443 34.9841L23.496 21.0324C23.6634 20.9179 23.8004 20.7641 23.895 20.5848C23.9896 20.4053 24.0391 20.2054 24.0391 20.0024C24.0391 19.7996 23.9896 19.5998 23.895 19.4203C23.8004 19.2408 23.6634 19.0871 23.496 18.9724L3.20443 5.02085C3.0166 4.89177 2.79726 4.81642 2.56993 4.80297C2.34243 4.7895 2.11576 4.83843 1.9141 4.94447C1.7126 5.0505 1.54376 5.20962 1.42593 5.4046C1.30826 5.5996 1.24593 5.82305 1.2461 6.05085Z" fill="#EDF8FF" fill-opacity="0.6"/>
<path d="M28.25 3.75H25.75C25.75 3.75 23.25 3.75 23.25 6.25V33.75C23.25 33.75 23.25 36.25 25.75 36.25H28.25C28.25 36.25 30.75 36.25 30.75 33.75V6.25C30.75 6.25 30.75 3.75 28.25 3.75Z" fill="#EDF8FF" fill-opacity="0.6"/>
</svg>
