<svg width="39" height="32" viewBox="0 0 39 32" fill="none" xmlns="http://www.w3.org/2000/svg">
<path d="M1.00391 20.7388V2C1.00391 1.44772 1.45162 1 2.00391 1H36.3853C36.9376 1 37.3853 1.44772 37.3853 2V20.7388M1.00391 20.7388V23.0286C1.00391 23.5809 1.45162 24.0286 2.00391 24.0286H15.9048M1.00391 20.7388H37.3853M37.3853 20.7388V23.0286C37.3853 23.5809 36.9376 24.0286 36.3853 24.0286H22.8714M15.9048 24.0286L14.7437 28.0925M15.9048 24.0286H22.8714M14.7437 28.0925H24.0325M14.7437 28.0925H12.4539C11.9016 28.0925 11.4539 28.5402 11.4539 29.0925V30C11.4539 30.5523 11.9016 31 12.4539 31H26.3224C26.8746 31 27.3224 30.5523 27.3224 30V29.0925C27.3224 28.5402 26.8746 28.0925 26.3224 28.0925H24.0325M24.0325 28.0925L22.8714 24.0286" stroke="#01433D" stroke-width="1.5" stroke-linecap="round"/>
<path d="M24.085 10.1438C24.8797 10.6317 24.8798 11.7869 24.085 12.2747L18.2422 15.8587C17.4093 16.3696 16.3379 15.7703 16.3379 14.7932V7.62526C16.3379 6.64815 17.4093 6.04891 18.2422 6.55983L24.085 10.1438Z" stroke="#01433D" stroke-width="1.5"/>
</svg>
