<svg width="34" height="30" viewBox="0 0 34 30" fill="none" xmlns="http://www.w3.org/2000/svg">
<path d="M4.05078 1.94196H22.9766C22.9766 1.94196 24.9688 1.94196 24.9688 3.95088V26.0491C24.9688 26.0491 24.9688 28.058 22.9766 28.058H4.05078C4.05078 28.058 2.05859 28.058 2.05859 26.0491V3.95088C2.05859 3.95088 2.05859 1.94196 4.05078 1.94196Z" stroke="#01433D" stroke-width="1.5" stroke-linecap="round" stroke-linejoin="round"/>
<path d="M24.9688 4.70358C27.0234 5.51313 28.788 6.92891 30.0321 8.76588C31.2761 10.6029 31.9415 12.7756 31.9415 15C31.9415 17.2244 31.2761 19.3971 30.0321 21.2341C28.788 23.0711 27.0234 24.487 24.9688 25.2964" stroke="#01433D" stroke-width="1.5" stroke-linecap="round" stroke-linejoin="round"/>
<path d="M10.1774 19.9018C10.0041 19.9888 9.81156 20.03 9.61808 20.021C9.4246 20.0122 9.23659 19.9535 9.07189 19.8508C8.90719 19.7479 8.77126 19.6045 8.67697 19.4338C8.5827 19.2632 8.53322 19.0712 8.5332 18.8759V11.1241C8.53322 10.9288 8.5827 10.7367 8.67697 10.5661C8.77126 10.3955 8.90719 10.252 9.07189 10.1492C9.23659 10.0464 9.4246 9.98782 9.61808 9.97889C9.81156 9.96996 10.0041 10.011 10.1774 10.0982L17.8659 13.9755C18.0548 14.0704 18.2135 14.2167 18.3245 14.3976C18.4356 14.5785 18.4944 14.7872 18.4944 15C18.4944 15.2127 18.4356 15.4213 18.3245 15.6023C18.2135 15.7832 18.0548 15.9295 17.8659 16.0246L10.1774 19.9018Z" stroke="#01433D" stroke-width="1.5" stroke-linecap="round" stroke-linejoin="round"/>
</svg>
