<svg width="39" height="32" viewBox="0 0 39 32" fill="none" xmlns="http://www.w3.org/2000/svg">
    <path d="M1.521 20.7388V2C1.521 1.44772 1.96871 1 2.521 1H36.9024C37.4547 1 37.9024 1.44772 37.9024 2V20.7388M1.521 20.7388V23.0286C1.521 23.5809 1.96871 24.0286 2.521 24.0286H16.4219M1.521 20.7388H37.9024M37.9024 20.7388V23.0286C37.9024 23.5809 37.4547 24.0286 36.9024 24.0286H23.3885M16.4219 24.0286L15.2608 28.0925M16.4219 24.0286H23.3885M15.2608 28.0925H24.5496M15.2608 28.0925H12.971C12.4187 28.0925 11.971 28.5402 11.971 29.0925V30C11.971 30.5523 12.4187 31 12.971 31H26.8394C27.3917 31 27.8394 30.5523 27.8394 30V29.0925C27.8394 28.5402 27.3917 28.0925 26.8394 28.0925H24.5496M24.5496 28.0925L23.3885 24.0286" stroke="#01433D" stroke-width="1.5" stroke-linecap="round" />
    <path d="M24.6021 10.1438C25.3472 10.6012 25.3939 11.6455 24.7417 12.176L24.6021 12.2747L18.7593 15.8587C17.9264 16.3696 16.855 15.7703 16.855 14.7932V7.62526C16.855 6.70927 17.7962 6.12537 18.6001 6.47682L18.7593 6.55983L24.6021 10.1438Z" stroke="#01433D" stroke-width="1.5" />
</svg>