<svg width="57" height="55" viewBox="0 0 57 55" fill="none" xmlns="http://www.w3.org/2000/svg">
<path fill-rule="evenodd" clip-rule="evenodd" d="M30.4337 2.62671C30.4337 1.52214 29.5383 0.626709 28.4337 0.626709C27.3291 0.626709 26.4337 1.52214 26.4337 2.62671V9.76953H17.4203C13.0901 9.76953 8.83537 10.6565 5.59548 12.3374C2.43045 13.9794 0 16.5455 0 19.7695C0 22.9936 2.43045 25.5597 5.59548 27.2017C8.83537 28.8825 13.0901 29.7695 17.4203 29.7695H26.4337V41.7695H2C0.89543 41.7695 0 42.665 0 43.7695C0 44.8741 0.89543 45.7695 2 45.7695H26.4337V52.9124C26.4337 54.017 27.3291 54.9124 28.4337 54.9124C29.5383 54.9124 30.4337 54.017 30.4337 52.9124V45.7695H39.4493C43.7795 45.7695 48.0342 44.8825 51.2741 43.2017C54.4392 41.5597 56.8696 38.9936 56.8696 35.7695C56.8696 32.5455 54.4392 29.9794 51.2741 28.3374C48.0342 26.6565 43.7795 25.7695 39.4493 25.7695H30.4337V13.7695H50.4638C51.5684 13.7695 52.4638 12.8741 52.4638 11.7695C52.4638 10.665 51.5684 9.76953 50.4638 9.76953H30.4337V2.62671ZM26.4337 13.7695H17.4203C13.5711 13.7695 9.98137 14.5682 7.43753 15.888C4.81882 17.2466 4 18.7501 4 19.7695C4 20.789 4.81882 22.2925 7.43753 23.6511C9.98137 24.9708 13.5711 25.7695 17.4203 25.7695H26.4337V13.7695ZM30.4337 29.7695V41.7695H39.4493C43.2985 41.7695 46.8882 40.9708 49.4321 39.6511C52.0508 38.2925 52.8696 36.789 52.8696 35.7695C52.8696 34.7501 52.0508 33.2466 49.4321 31.888C46.8882 30.5682 43.2985 29.7695 39.4493 29.7695H30.4337Z" fill="#006D8D"/>
</svg>
