<svg width="40" height="40" viewBox="0 0 40 40" fill="none" xmlns="http://www.w3.org/2000/svg">
<g clip-path="url(#clip0_7882_147)">
<path d="M34.9998 7.95719V36C34.9998 38.2091 33.209 40 30.9998 40H9C6.79086 40 5 38.2091 5 36V4C5 1.79086 6.79086 0 9 0H26.3367L34.9998 7.95719Z" fill="#D8E4EE"/>
<g filter="url(#filter0_d_7882_147)">
<path d="M34.9991 7.95719H27.3359C26.7837 7.95719 26.3359 7.50947 26.3359 6.95719V0L34.9991 7.95719Z" fill="#D8E4EE"/>
</g>
<path d="M16.673 23.682V24.915H14.099V26.247H16.025V27.444H14.099V30H12.56V23.682H16.673ZM21.3068 26.76C21.6728 26.838 21.9668 27.021 22.1888 27.309C22.4108 27.591 22.5218 27.915 22.5218 28.281C22.5218 28.809 22.3358 29.229 21.9638 29.541C21.5978 29.847 21.0848 30 20.4248 30H17.4818V23.682H20.3258C20.9678 23.682 21.4688 23.829 21.8288 24.123C22.1948 24.417 22.3778 24.816 22.3778 25.32C22.3778 25.692 22.2788 26.001 22.0808 26.247C21.8888 26.493 21.6308 26.664 21.3068 26.76ZM19.0208 26.238H20.0288C20.2808 26.238 20.4728 26.184 20.6048 26.076C20.7428 25.962 20.8118 25.797 20.8118 25.581C20.8118 25.365 20.7428 25.2 20.6048 25.086C20.4728 24.972 20.2808 24.915 20.0288 24.915H19.0208V26.238ZM20.1548 28.758C20.4128 28.758 20.6108 28.701 20.7488 28.587C20.8928 28.467 20.9648 28.296 20.9648 28.074C20.9648 27.852 20.8898 27.678 20.7398 27.552C20.5958 27.426 20.3948 27.363 20.1368 27.363H19.0208V28.758H20.1548ZM23.2074 28.767C23.4114 28.605 23.5044 28.53 23.4864 28.542C24.0744 28.056 24.5364 27.657 24.8724 27.345C25.2144 27.033 25.5024 26.706 25.7364 26.364C25.9704 26.022 26.0874 25.689 26.0874 25.365C26.0874 25.119 26.0304 24.927 25.9164 24.789C25.8024 24.651 25.6314 24.582 25.4034 24.582C25.1754 24.582 24.9954 24.669 24.8634 24.843C24.7374 25.011 24.6744 25.251 24.6744 25.563H23.1894C23.2014 25.053 23.3094 24.627 23.5134 24.285C23.7234 23.943 23.9964 23.691 24.3324 23.529C24.6744 23.367 25.0524 23.286 25.4664 23.286C26.1804 23.286 26.7174 23.469 27.0774 23.835C27.4434 24.201 27.6264 24.678 27.6264 25.266C27.6264 25.908 27.4074 26.505 26.9694 27.057C26.5314 27.603 25.9734 28.137 25.2954 28.659H27.7254V29.91H23.2074V28.767Z" fill="#475467"/>
</g>
<defs>
<filter id="filter0_d_7882_147" x="23.3359" y="-1" width="12.6641" height="11.957" filterUnits="userSpaceOnUse" color-interpolation-filters="sRGB">
<feFlood flood-opacity="0" result="BackgroundImageFix"/>
<feColorMatrix in="SourceAlpha" type="matrix" values="0 0 0 0 0 0 0 0 0 0 0 0 0 0 0 0 0 0 127 0" result="hardAlpha"/>
<feOffset dx="-1" dy="1"/>
<feGaussianBlur stdDeviation="1"/>
<feComposite in2="hardAlpha" operator="out"/>
<feColorMatrix type="matrix" values="0 0 0 0 0 0 0 0 0 0 0 0 0 0 0 0 0 0 0.2 0"/>
<feBlend mode="normal" in2="BackgroundImageFix" result="effect1_dropShadow_7882_147"/>
<feBlend mode="normal" in="SourceGraphic" in2="effect1_dropShadow_7882_147" result="shape"/>
</filter>
<clipPath id="clip0_7882_147">
<rect width="40" height="40" fill="white"/>
</clipPath>
</defs>
</svg>
