<svg width="49" height="49" viewBox="0 0 49 49" fill="none" xmlns="http://www.w3.org/2000/svg">
    <path d="M47.8462 23.2304C47.855 26.6584 47.0643 30.04 45.5385 33.0998C43.7293 36.7664 40.9481 39.8504 37.5063 42.0064C34.0645 44.1624 30.0981 45.3051 26.0513 45.3067C22.667 45.3157 19.3285 44.5148 16.3077 42.9692L1.69238 47.9039L6.56417 33.0998C5.03836 30.04 4.24766 26.6584 4.25648 23.2304C4.25805 19.1314 5.38625 15.1138 7.51473 11.6275C9.64321 8.14127 12.6879 5.32413 16.3077 3.49162C19.3285 1.9461 22.667 1.14519 26.0513 1.15413H27.3334C32.6778 1.45278 37.7258 3.73773 41.5106 7.57147C45.2955 11.4052 47.5513 16.5183 47.8462 21.9318V23.2304Z" stroke="#EDF8FF" stroke-width="2" stroke-linecap="round" stroke-linejoin="round" />
</svg>