<svg width="62" height="39" viewBox="0 0 62 39" fill="none" xmlns="http://www.w3.org/2000/svg">
<path fill-rule="evenodd" clip-rule="evenodd" d="M2 0.119873C3.10457 0.119873 4 1.0153 4 2.11987V15.5219C6.43848 13.1072 9.79308 11.6159 13.496 11.6159C20.2701 11.6159 25.8784 16.6067 26.8448 23.1118H34.6355C35.6019 16.6067 41.2103 11.6159 47.9843 11.6159C51.6872 11.6159 55.0418 13.1072 57.4803 15.522V2.11987C57.4803 1.0153 58.3757 0.119873 59.4803 0.119873C60.5849 0.119873 61.4803 1.0153 61.4803 2.11987V25.1119C61.4803 32.5654 55.4378 38.6079 47.9843 38.6079C41.2103 38.6079 35.6018 33.617 34.6354 27.1118H26.8448C25.8785 33.617 20.2701 38.6079 13.496 38.6079C6.04235 38.6079 0 32.5654 0 25.1119V2.11987C0 1.0153 0.89543 0.119873 2 0.119873ZM4 25.1119C4 30.3563 8.25151 34.6079 13.496 34.6079C18.7405 34.6079 22.992 30.3563 22.992 25.1119C22.992 19.8675 18.7405 15.6159 13.496 15.6159C8.25151 15.6159 4 19.8675 4 25.1119ZM57.4803 25.1119C57.4803 19.8675 53.2287 15.6159 47.9843 15.6159C42.7399 15.6159 38.4883 19.8675 38.4883 25.1119C38.4883 30.3563 42.7399 34.6079 47.9843 34.6079C53.2287 34.6079 57.4803 30.3563 57.4803 25.1119Z" fill="#006D8D"/>
</svg>
