<svg width="30" height="30" viewBox="0 0 30 30" fill="none" xmlns="http://www.w3.org/2000/svg">
<path fill-rule="evenodd" clip-rule="evenodd" d="M14.2747 1.45587C7.46339 2.01881 2.07676 7.60441 1.82739 14.5001H9.28865C9.49436 9.72108 11.2479 5.1442 14.2747 1.45587ZM15.4093 0.40918C7.35093 0.40918 0.818359 6.94175 0.818359 15.0001C0.818359 23.0584 7.35093 29.591 15.4093 29.591C23.4676 29.591 30.0002 23.0584 30.0002 15.0001C30.0002 6.94175 23.4676 0.40918 15.4093 0.40918ZM16.5439 1.45587C19.5706 5.1442 21.3242 9.72108 21.5299 14.5001H28.9911C28.7418 7.60441 23.3551 2.0188 16.5439 1.45587ZM20.5289 14.5001C20.3155 9.76626 18.5112 5.24251 15.4093 1.66141C12.3073 5.24251 10.5031 9.76626 10.2896 14.5001H20.5289ZM10.2896 15.5001H20.5289C20.3155 20.2339 18.5112 24.7577 15.4093 28.3388C12.3073 24.7577 10.5031 20.2339 10.2896 15.5001ZM9.28865 15.5001H1.82739C2.07676 22.3958 7.46339 27.9814 14.2747 28.5443C11.2479 24.856 9.49436 20.2791 9.28865 15.5001ZM16.5439 28.5443C19.5706 24.856 21.3242 20.2791 21.5299 15.5001H28.9911C28.7418 22.3958 23.3551 27.9814 16.5439 28.5443Z" fill="#01433D"/>
</svg>
