<svg width="114" height="114" viewBox="0 0 114 114" fill="none" xmlns="http://www.w3.org/2000/svg">
<path d="M66.739 109.53H10.8861C7.96647 109.53 5.31725 107.381 5.31725 104.927V8.77043C5.31725 6.31676 7.96674 4.47071 10.8861 4.47071H66.739C68.2072 4.47071 69.3975 3.47099 69.3975 2.23547C69.3975 0.999727 68.2069 0 66.739 0H10.8861C5.03548 0 0 3.85017 0 8.77043V104.927C0 109.847 5.03548 114 10.8861 114H66.739C68.2072 114 69.3975 113 69.3975 111.765C69.3975 110.529 68.2069 109.53 66.739 109.53Z" fill="#01433d"/>
<path d="M85.2651 54.2359L65.1474 31.883C64.3211 30.9641 62.9077 30.892 61.991 31.7172C61.073 32.5423 60.9989 34.0328 61.8252 34.9495L78.5849 53.6472H27.7216C26.4872 53.6472 25.4863 54.647 25.4863 55.8825C25.4863 57.118 26.4872 58.1177 27.7216 58.1177H78.2078L61.9058 74.3443C61.0325 75.2175 61.0325 76.5938 61.9058 77.467C62.3424 77.9036 62.9142 78.1034 63.4862 78.1034C64.0582 78.1034 64.63 77.8758 65.0666 77.4392L85.1843 57.3166C86.0248 56.4761 86.0608 55.1199 85.2651 54.2359Z" fill="#01433d"/>
</svg>
