<svg width="210" height="234" viewBox="0 0 210 234" fill="none" xmlns="http://www.w3.org/2000/svg">
<path d="M93.7578 0C94.1927 0 94.6271 0.00288637 95.0605 0.00878906C95.288 0.0115727 95.5152 0.0170864 95.7422 0.0214844C95.8966 0.0246894 96.0509 0.0263231 96.2051 0.0302734C146.987 1.26035 187.775 42.8117 187.775 93.8896C187.775 118.017 178.674 140.017 163.718 156.647L208.535 201.464C210.488 203.416 210.488 206.583 208.535 208.535C206.583 210.488 203.416 210.488 201.464 208.535L156.647 163.718C140.017 178.675 118.016 187.777 93.8877 187.777C42.035 187.777 0 145.742 0 93.8896V93.7578C2.79038e-05 41.9769 41.9769 9.66185e-05 93.7578 0ZM93.8877 10.002C47.5802 10.0021 10.0361 47.5241 10 93.8232C10.0353 140.051 47.5216 177.516 93.7578 177.516C140.016 177.516 177.516 140.016 177.516 93.7578C177.516 47.8906 140.647 10.6342 94.9287 10.0078C94.5823 10.0036 94.2351 10.002 93.8877 10.002ZM141.475 106.51C144.236 106.51 146.474 108.749 146.474 111.511C146.473 114.272 144.235 116.51 141.474 116.51C132.766 116.508 124.225 118.863 116.755 123.316L116.035 123.754C108.396 128.49 102.232 135.267 98.2373 143.318C97.0098 145.792 94.0087 146.802 91.5352 145.575C89.0617 144.348 88.0514 141.347 89.2783 138.873C94.1008 129.153 101.543 120.973 110.766 115.255L111.635 114.727C120.653 109.35 130.963 106.508 141.475 106.51ZM64.1729 62.1309C68.5679 62.1313 72.1309 65.6947 72.1309 70.0898C72.1304 74.4846 68.5676 78.0464 64.1729 78.0469V78.0479L64.1719 78.0469C59.9142 78.0466 56.438 74.7037 56.2246 70.499L56.2139 70.0898L56.2246 69.6797C56.4379 65.4749 59.9141 62.1312 64.1719 62.1309H64.1729ZM123.345 62.1309C127.74 62.1313 131.303 65.6946 131.303 70.0898C131.302 74.4847 127.739 78.0464 123.345 78.0469H123.344C119.086 78.0466 115.61 74.7038 115.396 70.499L115.386 70.0898L115.396 69.6797C115.61 65.4748 119.086 62.1312 123.344 62.1309H123.345Z" fill="#7FDFD5"/>
<g filter="url(#filter0_f_7671_617)">
<ellipse cx="100" cy="215" rx="80" ry="5" fill="#7FDFD5"/>
</g>
<defs>
<filter id="filter0_f_7671_617" x="6" y="196" width="188" height="38" filterUnits="userSpaceOnUse" color-interpolation-filters="sRGB">
<feFlood flood-opacity="0" result="BackgroundImageFix"/>
<feBlend mode="normal" in="SourceGraphic" in2="BackgroundImageFix" result="shape"/>
<feGaussianBlur stdDeviation="7" result="effect1_foregroundBlur_7671_617"/>
</filter>
</defs>
</svg>
