<svg width="58" height="32" viewBox="0 0 58 32" fill="none" xmlns="http://www.w3.org/2000/svg">
<g clip-path="url(#clip0_5516_318)">
<path fill-rule="evenodd" clip-rule="evenodd" d="M9.78336 2.49425C9.79716 4.94978 9.79905 4.9885 9.90525 4.98393C9.96457 4.98139 10.183 4.97569 10.3906 4.97122L10.7682 4.96308L10.7503 4.22705C10.7405 3.82225 10.747 3.41378 10.7648 3.31937L10.797 3.14761L11.5377 3.1146C11.945 3.09645 12.3919 3.05045 12.5307 3.01237C12.904 2.91009 13.2249 2.65804 13.4056 2.32514C13.5438 2.07038 13.5627 1.97974 13.5674 1.54747C13.5722 1.10373 13.5582 1.0321 13.4173 0.778151C13.241 0.460546 13.1253 0.341572 12.8176 0.161415C12.6086 0.0390477 12.558 0.0346314 11.1856 0.0175582L9.76933 0L9.78336 2.49425ZM37.0602 0.83955C37.0602 1.29697 37.0383 1.6847 37.0116 1.70118C36.9848 1.71772 36.8368 1.64646 36.6826 1.54278C36.4267 1.37081 36.3683 1.35439 36.0137 1.35439C35.0353 1.35439 34.5254 1.99024 34.5254 3.2102C34.5254 3.93158 34.6476 4.28075 35.0359 4.66853C35.5332 5.16511 36.311 5.22155 36.7662 4.79413C36.9858 4.5879 37.1142 4.59054 37.1142 4.80134C37.1142 4.9466 37.1319 4.96346 37.2895 4.96841C37.3858 4.97143 37.5683 4.97865 37.695 4.98441C37.8216 4.99023 37.9429 4.98166 37.9646 4.96545C37.9863 4.94924 37.9962 3.8272 37.9867 2.47195L37.9693 0.0079174H37.5148H37.0602V0.83955ZM40.9036 0.452252C40.9059 0.696609 40.9025 1.80502 40.8961 2.91532L40.8843 4.93405L41.0352 4.97569C41.1182 4.99858 41.2831 5.00692 41.4018 4.99427C41.5204 4.98156 41.6465 4.96933 41.6819 4.96707C41.7172 4.96481 41.7536 4.86786 41.7628 4.75169L41.7793 4.5404L42.0914 4.77652C42.4328 5.03477 42.6443 5.09708 43.0482 5.0583C43.4238 5.02227 43.7933 4.81502 44.0232 4.51137C44.2829 4.1684 44.3447 3.9605 44.3794 3.31199C44.4195 2.56416 44.2905 2.12085 43.9296 1.76549C43.5985 1.43948 43.3185 1.33602 42.8403 1.363C42.5348 1.38024 42.4152 1.41589 42.1867 1.55776C42.0329 1.65325 41.8843 1.7314 41.8567 1.7314C41.8275 1.7314 41.8063 1.36737 41.8063 0.869657V0.0079174H41.3528H40.8994L40.9036 0.452252ZM12.0117 0.876067C12.5042 0.999888 12.7257 1.51058 12.4692 1.93073C12.3029 2.20315 12.1183 2.26718 11.4597 2.28086C11.1387 2.28749 10.8457 2.27424 10.8086 2.25135C10.7608 2.22189 10.7412 2.02353 10.7412 1.56934C10.7412 1.01621 10.7541 0.921362 10.8356 0.873966C10.9628 0.799964 11.7145 0.801311 12.0117 0.876067ZM15.4873 1.40474C15.0845 1.52754 14.6455 1.87471 14.4635 2.21429C14.2403 2.63073 14.1823 3.37996 14.3337 3.88919C14.5633 4.6612 15.2667 5.10629 16.1855 5.061C16.8983 5.02583 17.4519 4.66632 17.7463 4.04732C17.8709 3.78546 17.8871 3.68545 17.8859 3.18558C17.8847 2.67506 17.8697 2.59012 17.7321 2.31226C17.4147 1.67102 16.8546 1.35078 16.065 1.35902C15.8214 1.36155 15.5614 1.38212 15.4873 1.40474ZM24.9429 1.44261C24.5988 1.56438 24.2648 1.89066 24.0855 2.28033C23.9433 2.58931 23.9291 2.67371 23.9284 3.21251C23.9277 3.75401 23.9412 3.83415 24.0848 4.1447C24.3744 4.77113 24.8732 5.07064 25.6266 5.07064C26.1063 5.07064 26.5028 4.94542 26.7612 4.71232C27.0148 4.48352 27.2227 4.16398 27.157 4.10414C27.131 4.08045 26.9289 4.01786 26.708 3.96503C26.3955 3.89027 26.3013 3.88391 26.2838 3.93643C26.2714 3.97354 26.1887 4.08637 26.1001 4.18719C25.9634 4.34268 25.9036 4.37047 25.7054 4.37047C25.5769 4.37047 25.4103 4.34715 25.3353 4.31861C25.1545 4.25005 24.8715 3.85365 24.8715 3.66918C24.8715 3.52979 24.8875 3.52085 25.2008 3.48547C25.3819 3.465 25.9098 3.45283 26.3738 3.45843L27.2176 3.46866L27.2097 3.01108C27.1972 2.27359 26.9288 1.79754 26.3679 1.51758C26.081 1.37442 25.9871 1.35492 25.6044 1.35864C25.3645 1.36096 25.0668 1.39877 24.9429 1.44261ZM28.0728 1.4356C28.0613 1.4655 28.0584 2.27742 28.0662 3.23987L28.0805 4.98985L28.2423 4.99303C28.3313 4.99475 28.5304 4.98263 28.6848 4.9661L28.9656 4.93599L28.9883 3.83189C29.0129 2.63504 29.0457 2.47653 29.3126 2.26686C29.4619 2.14961 29.637 2.14369 29.9734 2.24435C30.0954 2.28092 30.1384 2.20853 30.2711 1.74314C30.3579 1.43819 30.3039 1.39009 29.8458 1.3643C29.4884 1.34421 29.4782 1.34744 29.1996 1.56917C29.0438 1.69305 28.913 1.77416 28.9088 1.74944C28.9046 1.72472 28.8985 1.64388 28.8953 1.56982C28.8897 1.44148 28.8709 1.43393 28.4916 1.40824C28.2485 1.39182 28.0855 1.40243 28.0728 1.4356ZM31.4782 1.48106C30.7559 1.81768 30.4235 2.63288 30.5849 3.67209C30.7291 4.60002 31.293 5.07064 32.2604 5.07064C32.8933 5.07064 33.4819 4.7728 33.6822 4.35119C33.8274 4.04565 33.8096 4.024 33.3545 3.95167C32.9738 3.89119 32.9343 3.89356 32.8862 3.97994C32.7459 4.23216 32.5399 4.37047 32.3048 4.37037C31.9635 4.37026 31.7206 4.22624 31.5725 3.9361C31.3355 3.47184 31.4391 3.43366 32.8557 3.46306C33.9846 3.48644 33.9253 3.52091 33.826 2.89975C33.7026 2.12839 33.4291 1.70156 32.9074 1.46625C32.5472 1.30376 31.8431 1.31103 31.4782 1.48106ZM18.2917 1.42844C18.2917 1.43959 18.5223 2.19695 18.804 3.11153C19.0858 4.0261 19.3164 4.80533 19.3164 4.84308C19.3165 4.95565 19.5349 4.99755 19.9569 4.96588L20.3545 4.93599L20.6191 3.88688C20.7646 3.30983 20.9054 2.81606 20.9318 2.78961C20.9881 2.73344 21.0206 2.84175 21.3055 4.03644C21.4207 4.51923 21.5245 4.92382 21.5362 4.93551C21.5864 4.98559 22.4554 4.97358 22.507 4.92204C22.538 4.89118 22.607 4.71199 22.6604 4.52392C22.7138 4.33584 22.8073 4.02443 22.8681 3.83189C22.9909 3.44281 23.1617 2.8913 23.4105 2.08148C23.5015 1.78526 23.5761 1.5116 23.5765 1.47341C23.577 1.42101 23.4691 1.40776 23.1383 1.41955L22.6995 1.43517L22.4022 2.53928C22.2387 3.14653 22.0944 3.65545 22.0815 3.6702C22.0255 3.73462 21.9081 3.46899 21.8006 3.03499C21.7368 2.77717 21.6189 2.31172 21.5387 2.00069L21.3929 1.43517H20.9397H20.4865L20.2268 2.44535C19.9598 3.48391 19.8772 3.71582 19.803 3.63568C19.7602 3.58936 19.5455 2.83728 19.3096 1.90644L19.1833 1.40824H18.7375C18.4923 1.40824 18.2917 1.41735 18.2917 1.42844ZM44.8862 1.45623C44.8448 1.483 44.8241 1.54984 44.84 1.60472C44.9337 1.92669 45.9027 4.47254 46.02 4.70494C46.1578 4.97784 46.1442 5.16645 45.9685 5.42029C45.7838 5.68711 45.6269 5.76897 45.2984 5.76999L45.0422 5.7708V6.03869C45.0422 6.27864 45.0583 6.31488 45.1955 6.38576C45.3899 6.48615 45.9588 6.45944 46.2694 6.33535C46.6754 6.17313 46.7504 6.03245 47.4621 4.10118C47.7295 3.37543 48.0587 2.4908 48.1935 2.13534C48.3283 1.77987 48.439 1.47083 48.4393 1.44864C48.4397 1.42645 48.2259 1.40824 47.9642 1.40824H47.4885L47.2396 2.17573C47.1027 2.59788 46.9259 3.15644 46.8468 3.41712C46.7615 3.69805 46.678 3.88268 46.6417 3.87061C46.6079 3.85935 46.5409 3.73096 46.4925 3.58521C46.4442 3.43947 46.329 3.08998 46.2365 2.80857C46.1439 2.52716 45.9985 2.10302 45.9134 1.86604L45.7586 1.43517L45.36 1.42139C45.1407 1.41374 44.9275 1.42946 44.8862 1.45623ZM-18.7935 2.26971C-19.6204 2.69073 -20.3212 3.05357 -20.3509 3.07598C-20.4131 3.12305 -21.2811 3.5767 -22.8587 4.38647C-23.4668 4.69864 -24.1949 5.07748 -24.4767 5.22839C-24.7585 5.3793 -25.4744 5.74813 -26.0677 6.04801C-27.8644 6.95623 -28.5382 7.33249 -28.7643 7.5539L-28.9801 7.76514L-28.9965 11.8172C-29.0185 17.2355 -28.947 18.4357 -28.4919 20.2938C-27.8198 23.037 -26.5294 25.2811 -24.4691 27.2896C-23.7215 28.0183 -22.8702 28.7343 -22.2655 29.1426C-20.6129 30.2586 -20.0286 30.6025 -18.3571 31.4429C-16.9458 32.1524 -17.0486 32.1487 -15.8205 31.5356C-15.0231 31.1376 -14.2077 30.7162 -14.0138 30.602C-13.3938 30.2369 -12.7516 29.8436 -12.5576 29.7101C-12.2391 29.491 -11.6018 29.0492 -11.3999 28.9076C-10.1042 27.9989 -8.48092 26.3533 -7.57022 25.0253C-6.53175 23.5111 -5.70108 21.529 -5.33245 19.6858C-5.01959 18.1217 -4.95293 16.7339 -4.95649 11.8584C-4.95967 7.54329 -4.94387 7.74295 -5.30581 7.45453C-5.49749 7.30174 -6.48774 6.76778 -7.8655 6.0743C-8.35494 5.82795 -9.19224 5.39584 -9.72617 5.1141C-10.2601 4.83237 -11.3037 4.29152 -12.0453 3.91224C-12.7868 3.53297 -13.5999 3.10889 -13.852 2.96982C-14.1041 2.83071 -14.8322 2.4537 -15.47 2.13194C-16.4979 1.61334 -16.667 1.54451 -16.9598 1.5256L-17.2901 1.50427L-18.7935 2.26971ZM16.3365 2.10765C16.3735 2.10808 16.5011 2.19625 16.6201 2.30359C16.9004 2.55646 17.0235 2.94381 16.97 3.40446C16.9277 3.76844 16.7874 4.01113 16.5107 4.19893C16.13 4.4574 15.4791 4.24498 15.2937 3.80183C15.1825 3.5362 15.1443 3.07986 15.2121 2.82861C15.3312 2.38761 15.8086 2.01362 16.1614 2.08509C16.2207 2.0971 16.2995 2.10728 16.3365 2.10765ZM25.9928 2.13889C26.1328 2.23681 26.3277 2.59335 26.3277 2.75153C26.3277 2.82198 26.2813 2.87202 26.1962 2.89335C26.0222 2.93697 24.9453 2.90056 24.8942 2.84929C24.8222 2.77717 24.9784 2.38691 25.1466 2.21898C25.288 2.07782 25.3509 2.05455 25.5917 2.05455C25.759 2.05455 25.9209 2.08859 25.9928 2.13889ZM32.5749 2.13076C32.7987 2.24629 33.0119 2.70985 32.902 2.84207C32.8311 2.92738 31.6944 2.94903 31.5655 2.86749C31.4452 2.79144 31.5397 2.45978 31.7429 2.24462C31.8987 2.0797 31.9558 2.05455 32.1749 2.05455C32.3138 2.05455 32.4938 2.08886 32.5749 2.13076ZM36.6723 2.16356C36.9403 2.32675 37.0576 2.63563 37.0591 3.18203C37.0605 3.73063 36.9358 4.0408 36.6357 4.23486C36.4693 4.34247 36.4024 4.35545 36.1885 4.32136C35.6573 4.23669 35.4871 3.99158 35.453 3.26255C35.4333 2.83965 35.4461 2.74189 35.5485 2.53545C35.7246 2.18026 35.9006 2.05509 36.2243 2.05503C36.3999 2.05498 36.5562 2.09284 36.6723 2.16356ZM43.1163 2.2423C43.338 2.47028 43.4244 2.73678 43.4239 3.19183C43.4234 3.81341 43.2683 4.13996 42.8991 4.29706C42.4924 4.47011 41.9951 4.15585 41.8661 3.64424C41.7169 3.05277 41.8402 2.48617 42.1803 2.20045C42.3219 2.08142 42.4073 2.05455 42.6438 2.05455C42.904 2.05455 42.9524 2.07378 43.1163 2.2423ZM30.5614 7.38506C30.2054 7.46843 29.3621 7.65214 28.6872 7.7933L27.4603 8.05V9.73901V11.428L27.6086 11.3956C27.6902 11.3777 27.7889 11.3532 27.8281 11.3409C28.0806 11.2622 31.2709 10.5642 31.3781 10.5642C31.3938 10.5642 31.3985 9.8129 31.3886 8.89461C31.3731 7.45087 31.3596 7.22558 31.2896 7.22924C31.245 7.23156 30.9173 7.30168 30.5614 7.38506ZM12.7637 9.55088C11.8145 9.75899 11.0074 9.93807 10.9702 9.94889C10.9165 9.96451 10.9032 11.3226 10.9051 16.5609C10.9064 20.1866 10.9302 23.4169 10.9578 23.7392C11.0695 25.0401 11.6279 26.0619 12.6019 26.7477C13.0321 27.0507 13.4382 27.2276 14.0345 27.3719C14.4684 27.4769 14.6217 27.4876 15.3174 27.4615C16.1284 27.431 16.8784 27.3026 17.4019 27.1044C17.6565 27.0079 17.6736 26.9893 17.7086 26.7678C17.729 26.6389 17.7458 25.8825 17.7459 25.0869L17.7462 23.6405L17.6279 23.67C17.563 23.6863 17.3641 23.7369 17.1861 23.7826C17.0081 23.8283 16.6441 23.8658 16.3771 23.866C15.7867 23.8664 15.4503 23.7339 15.149 23.3823C14.7894 22.9628 14.7932 23.0028 14.7775 19.5047C14.7696 17.7717 14.7819 16.3236 14.8048 16.2866C14.8364 16.2356 15.197 16.2194 16.3028 16.2194H17.7592L17.7423 14.4655L17.7254 12.7117L16.2869 12.7167C15.4957 12.7195 14.8366 12.7027 14.8222 12.6795C14.8078 12.6562 14.7877 11.8557 14.7776 10.9006L14.7592 9.1639L14.6243 9.16821C14.5502 9.17058 13.7129 9.34277 12.7637 9.55088ZM-9.15988 11.1811C-8.75943 11.5794 -8.43179 11.9272 -8.43179 11.9541C-8.43179 12.0239 -8.70124 12.3177 -9.10654 12.6898C-9.51626 13.0659 -11.3202 14.7766 -12.288 15.7068C-12.6587 16.0632 -13.2291 16.6093 -13.5554 16.9203C-13.8817 17.2313 -14.6439 17.9583 -15.2493 18.5357C-15.8547 19.1131 -16.378 19.6098 -16.4122 19.6394C-16.4464 19.669 -16.7642 19.972 -17.1185 20.3127C-19.4642 22.5679 -19.9342 23.0056 -20.0104 23.0056C-20.047 23.0056 -20.4418 22.6481 -20.888 22.2112C-21.3342 21.7742 -22.0874 21.0532 -22.5619 20.6089C-24.8645 18.4526 -25.5553 17.7811 -25.5553 17.6993C-25.5553 17.6643 -25.3211 17.408 -25.0348 17.1295C-24.7486 16.8511 -24.4194 16.531 -24.3035 16.4181C-24.1835 16.3013 -24.0511 16.22 -23.9963 16.2296C-23.9084 16.2449 -22.972 17.1216 -20.9359 19.0952C-20.5112 19.5068 -20.12 19.8742 -20.0665 19.9116C-19.98 19.9721 -19.8881 19.9009 -19.2396 19.271C-18.8384 18.8811 -18.2932 18.3562 -18.0281 18.1045C-17.763 17.8527 -17.1683 17.2831 -16.7066 16.8388C-15.9884 16.1477 -14.7266 14.9467 -13.9398 14.2053C-13.8174 14.09 -13.4138 13.702 -13.043 13.3433C-11.6011 11.9481 -10.2266 10.6442 -10.1797 10.6271C-10.1527 10.6172 -10.1307 10.5748 -10.1307 10.5328C-10.1307 10.4895 -10.0782 10.4566 -10.0093 10.4568C-9.92577 10.4569 -9.66118 10.6826 -9.15988 11.1811ZM3.91874 12.5278C2.12063 12.8552 0.981903 13.6241 0.328566 14.9522C-0.0216179 15.664 -0.104187 15.9983 -0.138165 16.8416C-0.17527 17.7623 -0.10252 18.1819 0.204626 18.8188C0.416418 19.2578 0.505894 19.3748 0.965721 19.8136C1.43175 20.2583 1.56119 20.3475 2.19042 20.6574C2.57738 20.8481 3.27618 21.1553 3.74324 21.3403C5.23679 21.9318 5.64571 22.2127 5.78637 22.7438C5.84348 22.9597 5.83944 23.028 5.75644 23.2451C5.58326 23.6978 5.2478 23.8853 4.48611 23.9549C3.57622 24.038 1.90129 23.5875 0.480547 22.8775L0.00863838 22.6416V24.6161V26.5905L0.183916 26.6603C3.08236 27.8146 6.25655 27.721 8.07143 26.4277C8.66819 26.0025 9.2868 25.2302 9.48516 24.6628C9.75974 23.8775 9.86927 22.9638 9.7785 22.2157C9.62782 20.9734 9.19242 20.2281 8.17827 19.4763C7.6781 19.1056 7.29028 18.9153 6.24474 18.5282C4.3612 17.8306 4.12347 17.7054 3.90768 17.2979C3.65054 16.8123 3.8222 16.3305 4.32485 16.1268C4.56722 16.0286 4.72573 16.0072 5.21312 16.0067C6.27489 16.0058 7.38298 16.2561 8.54242 16.7588C8.77169 16.8583 8.96984 16.929 8.98267 16.9161C8.99551 16.9032 9.01283 16.0741 9.02113 15.0738C9.03402 13.5184 9.02452 13.2433 8.95565 13.1745C8.84229 13.0612 8.0518 12.8015 7.41928 12.6696C6.3621 12.4492 4.71635 12.3825 3.91874 12.5278ZM39.1097 12.4864C38.5113 12.5864 37.7149 12.9709 37.2281 13.3948C37.0387 13.5599 36.8646 13.6752 36.8413 13.651C36.818 13.627 36.7593 13.4141 36.7109 13.1779C36.6625 12.9418 36.6127 12.7385 36.6002 12.726C36.5877 12.7135 35.8089 12.7038 34.8694 12.7044L33.1614 12.7055L33.1558 22.3528C33.1527 27.6587 33.1638 32 33.1805 32C33.1973 32 33.889 31.8449 34.7176 31.6554C35.5463 31.4659 36.4253 31.2683 36.6711 31.2164L37.1178 31.1219L37.1112 28.8369C37.1075 27.5801 37.1177 26.5387 37.1338 26.5227C37.1499 26.5066 37.3156 26.5975 37.5021 26.7246C38.7044 27.5442 40.1212 27.6938 41.5831 27.1555C42.7777 26.7156 43.7708 25.7457 44.4154 24.3894C45.2706 22.5896 45.5049 19.3038 44.9347 17.1081C44.8732 16.8711 44.8152 16.6408 44.8058 16.5964C44.7965 16.552 44.7738 16.4793 44.7554 16.4348C44.7371 16.3904 44.6828 16.2329 44.6347 16.0847C44.512 15.7062 44.1058 14.959 43.8148 14.5767C42.9325 13.4173 41.8514 12.6939 40.7232 12.5078C40.3844 12.452 39.3949 12.4388 39.1097 12.4864ZM51.4872 12.4862C51.2433 12.5176 50.6955 12.6553 50.371 12.7668C49.2283 13.1594 48.0614 14.2143 47.3241 15.5213C47.1502 15.8297 46.785 16.8043 46.669 17.2696C46.3851 18.409 46.3635 18.6061 46.3653 20.0434C46.3671 21.5004 46.4328 22.0428 46.7273 23.0325C47.267 24.8462 48.2937 26.1177 49.8153 26.8564C51.353 27.603 53.8025 27.672 55.779 27.0244C56.4129 26.8167 56.8107 26.6483 57.0287 26.4954L57.177 26.3914V24.7576V23.1238L56.6356 23.3618C55.9198 23.6764 55.3036 23.8498 54.5524 23.9482C52.8968 24.1649 51.7655 23.9548 51.0355 23.2951C50.8538 23.1309 50.7051 22.9702 50.7051 22.938C50.7051 22.9058 50.6719 22.8412 50.6312 22.7944C50.5272 22.6748 50.3257 22.0625 50.2892 21.7554L50.2586 21.4976H54.1293H58L57.9711 20.003C57.9417 18.4891 57.8997 18.0982 57.6627 17.135C57.4954 16.4552 57.4218 16.2532 57.0547 15.4654C56.3031 13.8526 54.8767 12.7571 53.2027 12.5072C52.8372 12.4526 51.8429 12.4405 51.4872 12.4862ZM24.7906 12.5304C24.7609 12.5407 24.6021 12.5865 24.4375 12.6322C23.9882 12.7569 23.5222 13.0844 23.2122 13.4933C23.065 13.6874 22.9306 13.8323 22.9134 13.8151C22.8962 13.798 22.8405 13.5464 22.7897 13.2561L22.6972 12.7284L22.5064 12.7061C22.4014 12.6939 21.6347 12.6856 20.8026 12.6878L19.2895 12.6916L19.2758 19.9491L19.2621 27.2066H21.2308H23.1996V22.2628V17.319L23.4288 17.0977C23.9975 16.5489 24.5483 16.3555 25.4333 16.3942C25.7621 16.4086 26.0735 16.4383 26.1254 16.4603C26.2143 16.4979 26.2198 16.3884 26.2198 14.5868V12.6733L25.8451 12.5882C25.51 12.5121 24.934 12.4805 24.7906 12.5304ZM27.4603 19.9378V27.2109L29.4153 27.1953L31.3704 27.1796L31.3841 19.9562L31.3977 12.7327L31.1953 12.6993C31.0839 12.6809 30.198 12.6656 29.2265 12.6653L27.4603 12.6647V19.9378ZM52.7276 15.8451C53.2628 15.9838 53.683 16.3294 53.958 16.8571C54.2631 17.4424 54.4245 18.3755 54.2333 18.4488C54.1864 18.4668 53.2933 18.4815 52.2486 18.4815C50.8432 18.4815 50.3324 18.4647 50.2845 18.4168C50.2489 18.3813 50.2197 18.2613 50.2197 18.1502C50.2197 17.357 50.7863 16.3204 51.3921 16.005C51.7676 15.8096 52.3307 15.7422 52.7276 15.8451ZM39.8554 16.3252C40.4932 16.6671 40.9594 17.3867 41.2457 18.471C41.5716 19.7056 41.4041 21.4467 40.8548 22.5361C40.6211 22.9995 40.1169 23.5219 39.7299 23.7017C39.0023 24.0396 37.8171 23.8166 37.2663 23.2382L37.1217 23.0864L37.1045 19.9825L37.0872 16.8785L37.222 16.7474C37.7052 16.2776 38.193 16.1051 38.9748 16.1271C39.4704 16.1411 39.5419 16.1572 39.8554 16.3252Z" fill="#01433D"/>
</g>
<defs>
<clipPath id="clip0_5516_318">
<rect width="58" height="32" fill="white"/>
</clipPath>
</defs>
</svg>
