<svg width="27" height="32" viewBox="0 0 27 32" fill="none" xmlns="http://www.w3.org/2000/svg">
<path d="M13.2542 24.8017C11.2196 24.8017 7.97116 23.2683 6.71067 20.8757C6.43414 20.3509 5.82091 20.0158 5.3154 20.3263C3.14384 21.6603 1.32906 24.7449 1.12462 29.9981C1.10315 30.55 1.55318 31 2.10547 31H13.2542M13.2542 22.3223C10.6405 22.3223 7.11594 19.9996 7.69989 13.521C7.7447 13.0239 8.17 12.6529 8.66912 12.6529C9.88846 12.6529 12.0423 12.6529 13.2542 12.6529M13.2542 10.1736H8.79968C8.2474 10.1736 7.79968 9.72584 7.79968 9.17355V5.77961M7.79968 5.77961L4.82372 4.95143C3.8296 4.67477 3.855 3.25656 4.85838 3.01567L13.2542 1M7.79968 5.77961L13.2542 7.26722" stroke="#01433D" stroke-width="1.5" stroke-linecap="round"/>
<path d="M13.6051 24.8017C15.6397 24.8017 18.8882 23.2683 20.1487 20.8757C20.4252 20.3509 21.0385 20.0158 21.544 20.3263C23.7155 21.6603 25.5303 24.7449 25.7348 29.9981C25.7562 30.55 25.3062 31 24.7539 31H13.6051M13.6051 22.3223C16.2189 22.3223 19.7434 19.9996 19.1595 13.521C19.1147 13.0239 18.6894 12.6529 18.1903 12.6529C16.9709 12.6529 14.8171 12.6529 13.6051 12.6529M13.6051 10.1736H18.0597C18.612 10.1736 19.0597 9.72584 19.0597 9.17355V5.77961M19.0597 5.77961L22.0357 4.95143C23.0298 4.67477 23.0044 3.25656 22.001 3.01567L13.6051 1M19.0597 5.77961L13.6051 7.26722" stroke="#01433D" stroke-width="1.5" stroke-linecap="round"/>
</svg>
