<svg width="26" height="30" viewBox="0 0 26 30" fill="none" xmlns="http://www.w3.org/2000/svg">
<path d="M13.1591 22.7358C11.2707 22.7358 8.26897 21.4196 7.05628 19.3589C6.7628 18.8602 6.16879 18.5304 5.66923 18.8224C3.66284 19.9951 1.98842 22.6647 1.77334 27.183C1.74708 27.7347 2.19772 28.1836 2.75 28.1836H13.1591M13.1591 20.5567C10.7184 20.5567 7.43203 18.5384 7.93395 12.9177C7.97803 12.4241 8.40297 12.0582 8.89855 12.0582C10.051 12.0582 12.0358 12.0582 13.1591 12.0582M13.1591 9.8791H9.03663C8.48435 9.8791 8.03663 9.43139 8.03663 8.8791V6.01724M8.03663 6.01724L5.74065 5.41925C4.72586 5.15495 4.75033 3.70575 5.77347 3.47586L13.1591 1.81641M8.03663 6.01724L13.1591 7.3247" stroke="#01433D" stroke-width="1.5" stroke-linecap="round"/>
<path d="M13.4894 22.7358C15.3777 22.7358 18.3795 21.4196 19.5922 19.3589C19.8856 18.8602 20.4796 18.5304 20.9792 18.8224C22.9856 19.9951 24.66 22.6647 24.8751 27.183C24.9014 27.7347 24.4507 28.1836 23.8984 28.1836H13.4894M13.4894 20.5567C15.93 20.5567 19.2164 18.5384 18.7145 12.9177C18.6704 12.4241 18.2455 12.0582 17.7499 12.0582C16.5974 12.0582 14.6126 12.0582 13.4894 12.0582M13.4894 9.8791H17.6118C18.1641 9.8791 18.6118 9.43139 18.6118 8.8791V6.01724M18.6118 6.01724L20.9078 5.41925C21.9226 5.15495 21.8981 3.70575 20.875 3.47586L13.4894 1.81641M18.6118 6.01724L13.4894 7.3247" stroke="#01433D" stroke-width="1.5" stroke-linecap="round"/>
</svg>
