<svg width="17" height="20" viewBox="0 0 17 20" fill="none" xmlns="http://www.w3.org/2000/svg">
    <path d="M12.1389 18.972L12.1324 19.472L12.1324 19.472L12.1389 18.972ZM5.85383 18.9311L5.85731 18.4311L5.85731 18.4311L5.85383 18.9311ZM3.30842 18.4184C3.03227 18.4184 2.80842 18.6423 2.80842 18.9184C2.80842 19.1946 3.03227 19.4184 3.30842 19.4184V18.4184ZM0.951119 15.4624L0.472422 15.3177L0.469879 15.3267L0.951119 15.4624ZM1.01723 15.2429L0.538424 15.0989L0.538423 15.0989L1.01723 15.2429ZM2.40029 12.0884L2.75239 12.4434L2.75239 12.4434L2.40029 12.0884ZM14.3714 12.0884L14.7235 11.7334L14.7235 11.7334L14.3714 12.0884ZM15.8571 14.9599L15.3801 15.1099L15.8571 14.9599ZM15.7557 14.6347L16.2338 14.4881L15.7557 14.6347ZM8.15048 8.65285V9.15285C10.6266 9.15285 12.6783 7.2397 12.6783 4.82643H12.1783H11.6783C11.6783 6.63971 10.1233 8.15285 8.15048 8.15285V8.65285ZM4.12266 4.82643H3.62266C3.62266 7.2397 5.67431 9.15285 8.15048 9.15285V8.65285V8.15285C6.17764 8.15285 4.62266 6.63971 4.62266 4.82643H4.12266ZM8.15048 1V0.5C5.67431 0.5 3.62266 2.41315 3.62266 4.82643H4.12266H4.62266C4.62266 3.01315 6.17764 1.5 8.15048 1.5V1ZM12.1783 4.82643H12.6783C12.6783 2.41315 10.6266 0.5 8.15048 0.5V1V1.5C10.1233 1.5 11.6783 3.01315 11.6783 4.82643H12.1783ZM16.1486 16.0423L16.6346 15.9248C16.496 15.3515 16.3942 15.0009 16.3341 14.8098L15.8571 14.9599L15.3801 15.1099C15.4323 15.2757 15.5283 15.6043 15.6626 16.1598L16.1486 16.0423ZM12.1389 18.972L12.1324 19.472C12.7717 19.4803 13.3111 19.4873 13.755 19.4873V18.9873V18.4873C13.319 18.4873 12.787 18.4804 12.1454 18.4721L12.1389 18.972ZM8.55973 18.9443V19.4443C10.0003 19.4443 11.1807 19.4596 12.1324 19.472L12.1389 18.972L12.1454 18.4721C11.1934 18.4597 10.0074 18.4443 8.55973 18.4443V18.9443ZM5.85383 18.9311L5.85035 19.4311C6.79366 19.4376 7.75451 19.4443 8.55973 19.4443V18.9443V18.4443C7.75871 18.4443 6.80165 18.4377 5.85731 18.4311L5.85383 18.9311ZM3.30842 18.9184V19.4184C4.03689 19.4184 4.93527 19.4247 5.85035 19.4311L5.85383 18.9311L5.85731 18.4311C4.94336 18.4247 4.04112 18.4184 3.30842 18.4184V18.9184ZM0.951119 15.4624L0.469879 15.3267L0.399567 15.5761L0.880807 15.7118L1.36205 15.8474L1.43236 15.598L0.951119 15.4624ZM1.01723 15.2429L0.538423 15.0989C0.516171 15.1729 0.494244 15.2458 0.472506 15.3177L0.951119 15.4624L1.42973 15.607C1.4517 15.5344 1.47382 15.4608 1.49604 15.3869L1.01723 15.2429ZM2.40029 12.0884L2.04818 11.7334C1.66163 12.1168 1.37396 12.6922 1.1452 13.2684C0.911847 13.8563 0.714722 14.5128 0.538424 15.0989L1.01723 15.2429L1.49604 15.3869C1.675 14.792 1.86 14.1781 2.07465 13.6374C2.2939 13.0851 2.52013 12.6738 2.75239 12.4434L2.40029 12.0884ZM4.87959 11.0698V10.5698C3.81838 10.5698 2.79981 10.9879 2.04818 11.7334L2.40029 12.0884L2.75239 12.4434C3.31587 11.8845 4.08097 11.5698 4.87959 11.5698V11.0698ZM11.8467 11.0698V10.5698H4.87959V11.0698V11.5698H11.8467V11.0698ZM14.3714 12.0884L14.7235 11.7334C14.3784 11.3911 13.5188 10.5698 11.8467 10.5698V11.0698V11.5698C13.1314 11.5698 13.7502 12.1765 14.0193 12.4434L14.3714 12.0884ZM15.7557 14.6347L16.2338 14.4881C16.1137 14.0967 15.9178 13.5927 15.6665 13.1004C15.4179 12.6132 15.0992 12.1061 14.7235 11.7334L14.3714 12.0884L14.0193 12.4434C14.2874 12.7093 14.5491 13.1108 14.7758 13.5549C14.9998 13.9939 15.1742 14.4438 15.2777 14.7814L15.7557 14.6347ZM3.30842 18.9184V18.4184C1.96782 18.4184 0.998272 17.1377 1.36205 15.8474L0.880807 15.7118L0.399567 15.5761C-0.144095 17.5044 1.3049 19.4184 3.30842 19.4184V18.9184ZM15.8571 14.9599L16.3341 14.8098C16.2999 14.7012 16.2666 14.5951 16.2338 14.4881L15.7557 14.6347L15.2777 14.7814C15.3117 14.8921 15.346 15.0013 15.3801 15.1099L15.8571 14.9599ZM16.1486 16.0423L15.6626 16.1598C15.9489 17.3436 15.0183 18.4873 13.755 18.4873V18.9873V19.4873C15.6198 19.4873 17.0837 17.7816 16.6346 15.9248L16.1486 16.0423Z" fill="#01433D" stroke-width="1" />
</svg>