<svg width="33" height="38" viewBox="0 0 33 38" fill="none" xmlns="http://www.w3.org/2000/svg">
    <path d="M16.2016 29.562C13.7043 29.562 9.68313 27.637 8.24946 24.6527C7.99257 24.1179 7.38163 23.7842 6.86637 24.0782C4.14884 25.6291 1.85055 29.417 1.63893 35.9976C1.62118 36.5496 2.07076 37 2.62305 37H16.2016M16.2016 26.5868C13.0416 26.5868 8.77217 23.7576 9.55294 15.8496C9.60198 15.3529 10.0261 14.9835 10.5252 14.9835C11.9487 14.9835 14.6876 14.9835 16.2016 14.9835M16.2016 12.0083H10.6561C10.1038 12.0083 9.6561 11.5605 9.6561 11.0083V6.73554M9.6561 6.73554L5.34131 5.53476C4.34719 5.25811 4.37258 3.83989 5.37596 3.599L16.2016 1M9.6561 6.73554L16.2016 8.52066" stroke="#01433D" stroke-width="2" stroke-linecap="round" />
    <path d="M16.6231 29.562C19.1204 29.562 23.1416 27.637 24.5752 24.6527C24.8321 24.1179 25.4431 23.7842 25.9583 24.0782C28.6759 25.6291 30.9742 29.417 31.1858 35.9976C31.2035 36.5496 30.7539 37 30.2017 37H16.6231M16.6231 26.5868C19.7831 26.5868 24.0525 23.7576 23.2718 15.8496C23.2227 15.3529 22.7986 14.9835 22.2995 14.9835C20.876 14.9835 18.1371 14.9835 16.6231 14.9835M16.6231 12.0083H22.1686C22.7209 12.0083 23.1686 11.5605 23.1686 11.0083V6.73554M23.1686 6.73554L27.4834 5.53476C28.4775 5.25811 28.4521 3.83989 27.4487 3.599L16.6231 1M23.1686 6.73554L16.6231 8.52066" stroke="#01433D" stroke-width="2" stroke-linecap="round" />
</svg>