<svg width="31" height="31" viewBox="0 0 31 31" fill="none" xmlns="http://www.w3.org/2000/svg">
<g clip-path="url(#clip0_7582_453)">
<path opacity="0.5" d="M6.125 23H5.1875C4.19294 23 3.23911 22.6049 2.53585 21.9016C1.83259 21.1984 1.4375 20.2445 1.4375 19.25V15.5C1.4375 14.5055 1.83259 13.5516 2.53585 12.8483C3.23911 12.1451 4.19294 11.75 5.1875 11.75H6.125C6.37364 11.75 6.6121 11.8488 6.78791 12.0246C6.96372 12.2004 7.0625 12.4389 7.0625 12.6875V22.0625C7.0625 22.3111 6.96372 22.5496 6.78791 22.7254C6.6121 22.9012 6.37364 23 6.125 23Z" stroke="#03D3BF" stroke-width="1.5" stroke-linecap="round" stroke-linejoin="round"/>
<path opacity="0.5" d="M25.8125 23H24.875C24.6264 23 24.3879 22.9012 24.2121 22.7254C24.0363 22.5496 23.9375 22.3111 23.9375 22.0625V12.6875C23.9375 12.4389 24.0363 12.2004 24.2121 12.0246C24.3879 11.8488 24.6264 11.75 24.875 11.75H25.8125C26.807 11.75 27.7609 12.1451 28.4641 12.8483C29.1674 13.5516 29.5625 14.5055 29.5625 15.5V19.25C29.5625 20.2445 29.1674 21.1984 28.4641 21.9016C27.7609 22.6049 26.807 23 25.8125 23Z" stroke="#03D3BF" stroke-width="1.5" stroke-linecap="round" stroke-linejoin="round"/>
<path opacity="0.5" d="M5.1875 11.75C5.1875 9.01495 6.27399 6.39192 8.20796 4.45796C10.1419 2.52399 12.765 1.4375 15.5 1.4375C18.235 1.4375 20.8581 2.52399 22.792 4.45796C24.726 6.39192 25.8125 9.01495 25.8125 11.75" stroke="#03D3BF" stroke-width="1.5" stroke-linecap="round" stroke-linejoin="round"/>
<path opacity="0.5" d="M19.25 27.6875H22.0625C23.057 27.6875 24.0109 27.2924 24.7141 26.5891C25.4174 25.8859 25.8125 24.932 25.8125 23.9375V23" stroke="#03D3BF" stroke-width="1.5" stroke-linecap="round" stroke-linejoin="round"/>
<path opacity="0.5" d="M17.375 29.5625H15.5C15.0028 29.5625 14.5257 29.365 14.1741 29.0134C13.8225 28.6617 13.625 28.1847 13.625 27.6875C13.625 27.1903 13.8225 26.7133 14.1741 26.3616C14.5257 26.01 15.0028 25.8125 15.5 25.8125H17.375C17.8722 25.8125 18.3492 26.01 18.7009 26.3616C19.0525 26.7133 19.25 27.1903 19.25 27.6875C19.25 28.1847 19.0525 28.6617 18.7009 29.0134C18.3492 29.365 17.8722 29.5625 17.375 29.5625Z" stroke="#03D3BF" stroke-width="1.5" stroke-linecap="round" stroke-linejoin="round"/>
<path opacity="0.5" d="M11.75 10.8128C11.7501 10.1253 11.9392 9.4511 12.2966 8.86385C12.6541 8.2766 13.166 7.7989 13.7766 7.48295C14.3871 7.16701 15.0729 7.02499 15.7586 7.07241C16.4445 7.11982 17.1041 7.35486 17.6654 7.75182C18.2266 8.14879 18.668 8.6924 18.9411 9.32325C19.2144 9.9541 19.3089 10.6479 19.2144 11.3288C19.1199 12.0098 18.8401 12.6517 18.4055 13.1843C17.9709 13.717 17.3981 14.1198 16.75 14.349C16.3842 14.4783 16.0676 14.7178 15.8437 15.0346C15.6199 15.3515 15.4997 15.7298 15.5 16.1177V16.4377" stroke="#03D3BF" stroke-width="1.5" stroke-linecap="round" stroke-linejoin="round"/>
<path opacity="0.5" d="M15.5 21.125C15.2411 21.125 15.0312 20.9151 15.0312 20.6562C15.0312 20.3974 15.2411 20.1875 15.5 20.1875" stroke="#03D3BF" stroke-width="1.5"/>
<path opacity="0.5" d="M15.5 21.125C15.7589 21.125 15.9688 20.9151 15.9688 20.6562C15.9688 20.3974 15.7589 20.1875 15.5 20.1875" stroke="#03D3BF" stroke-width="1.5"/>
</g>
<defs>
<clipPath id="clip0_7582_453">
<rect width="30" height="30" fill="white" transform="translate(0.5 0.5)"/>
</clipPath>
</defs>
</svg>
