<svg width="40" height="40" viewBox="0 0 40 40" fill="none" xmlns="http://www.w3.org/2000/svg">
<g clip-path="url(#clip0_5218_168)">
<path d="M38.5604 38.7509L38.7271 36.8792C38.8371 35.6687 38.5024 34.4596 37.7854 33.4781C37.0686 32.4964 36.0188 31.8096 34.8321 31.5459L29.0471 30.1942V20.6259C29.0386 20.2086 28.9474 19.7971 28.7793 19.4151C28.6109 19.0331 28.3689 18.6881 28.0668 18.4001C27.7648 18.1119 27.4088 17.8864 27.0193 17.7364C26.6298 17.5864 26.2144 17.5149 25.7971 17.5259C25.3901 17.5091 24.9841 17.5784 24.6058 17.7297C24.2274 17.8809 23.8853 18.1104 23.6019 18.4032C23.3186 18.6959 23.1004 19.0454 22.9618 19.4284C22.8231 19.8116 22.7669 20.2196 22.7971 20.6259V35.9592L20.3338 34.1209C19.8419 33.7536 19.2341 33.5756 18.6216 33.6196C18.0091 33.6637 17.4331 33.9269 16.9988 34.3609C16.5645 34.7951 16.301 35.3711 16.2567 35.9834C16.2123 36.5959 16.39 37.2037 16.7571 37.6959L17.5488 38.7509" stroke="#D8DCE2" stroke-width="2" stroke-linecap="round" stroke-linejoin="round"/>
<path d="M14.9996 28.75C12.4431 28.7492 9.9374 28.0357 7.76397 26.6895C5.59055 25.3435 3.83545 23.418 2.69577 21.1297C1.5561 18.8412 1.07699 16.2803 1.31226 13.7346C1.54753 11.189 2.48785 8.75928 4.02763 6.71848C5.5674 4.67767 7.64565 3.10655 10.029 2.18157C12.4123 1.25657 15.0063 1.01436 17.5196 1.48211C20.033 1.94987 22.3663 3.10907 24.2573 4.82952C26.1481 6.54998 27.5221 8.76357 28.2246 11.2217" stroke="#D8DCE2" stroke-width="2" stroke-linecap="round" stroke-linejoin="round"/>
<path d="M18.9301 9.10656H13.4152C13.1011 9.08139 12.7853 9.12476 12.4897 9.23364C12.1941 9.34253 11.9256 9.51434 11.7029 9.73719C11.4802 9.96006 11.3086 10.2286 11.1999 10.5243C11.0912 10.8201 11.0481 11.1359 11.0735 11.4499C11.0735 14.0166 18.9301 15.9816 18.9301 18.5499C18.9346 18.8575 18.8774 19.163 18.7617 19.448C18.6461 19.7332 18.4743 19.9922 18.2568 20.2099C18.0393 20.4274 17.7801 20.599 17.4951 20.7147C17.2099 20.8304 16.9044 20.8877 16.5968 20.8832H11.0735" stroke="#D8DCE2" stroke-width="2" stroke-linecap="round" stroke-linejoin="round"/>
<path d="M15 9.10682V6.16016" stroke="#D8DCE2" stroke-width="2" stroke-linecap="round" stroke-linejoin="round"/>
<path d="M15 23.8392V20.8926" stroke="#D8DCE2" stroke-width="2" stroke-linecap="round" stroke-linejoin="round"/>
</g>
<defs>
<clipPath id="clip0_5218_168">
<rect width="40" height="40" fill="white"/>
</clipPath>
</defs>
</svg>
