<svg width="12" height="14" viewBox="0 0 12 14" fill="none" xmlns="http://www.w3.org/2000/svg">
    <path d="M0.84375 3.66667H1.95486H10.8438" stroke="#01433D" stroke-linecap="round" stroke-linejoin="round" />
    <path d="M9.73286 3.66667V11.4444C9.73286 11.7391 9.61579 12.0217 9.40742 12.2301C9.19904 12.4385 8.91643 12.5556 8.62174 12.5556H3.06619C2.7715 12.5556 2.48889 12.4385 2.28051 12.2301C2.07214 12.0217 1.95508 11.7391 1.95508 11.4444V3.66667M3.62174 3.66667V2.55556C3.62174 2.26087 3.73881 1.97826 3.94718 1.76988C4.15556 1.56151 4.43817 1.44444 4.73286 1.44444H6.95508C7.24976 1.44444 7.53238 1.56151 7.74075 1.76988C7.94913 1.97826 8.06619 2.26087 8.06619 2.55556V3.66667" stroke="#01433D" stroke-linecap="round" stroke-linejoin="round" />
    <path d="M4.7334 6.44444V9.77778" stroke="#01433D" stroke-linecap="round" stroke-linejoin="round" />
    <path d="M6.95508 6.44444V9.77778" stroke="#01433D" stroke-linecap="round" stroke-linejoin="round" />
</svg>