<svg width="41" height="41" viewBox="0 0 41 41" fill="none" xmlns="http://www.w3.org/2000/svg">
<path d="M26.8887 35.5957V32.2624C26.8887 30.4943 26.1863 28.7986 24.9361 27.5483C23.6858 26.2981 21.9901 25.5957 20.222 25.5957H8.55534C6.78723 25.5957 5.09154 26.2981 3.84129 27.5483C2.59105 28.7986 1.88867 30.4943 1.88867 32.2624V35.5957" stroke="#D8DCE2" stroke-linecap="round" stroke-linejoin="round"/>
<path d="M14.3893 18.929C18.0712 18.929 21.056 15.9443 21.056 12.2624C21.056 8.58047 18.0712 5.5957 14.3893 5.5957C10.7074 5.5957 7.72266 8.58047 7.72266 12.2624C7.72266 15.9443 10.7074 18.929 14.3893 18.929Z" stroke="#D8DCE2" stroke-linecap="round" stroke-linejoin="round"/>
<path d="M33.5566 13.9287V23.9287" stroke="#D8DCE2" stroke-linecap="round" stroke-linejoin="round"/>
<path d="M38.5566 18.9287H28.5566" stroke="#D8DCE2" stroke-linecap="round" stroke-linejoin="round"/>
</svg>
