<svg width="265" height="56" viewBox="0 0 265 56" fill="none" xmlns="http://www.w3.org/2000/svg">
<g clip-path="url(#clip0_7647_251)">
<mask id="mask0_7647_251" style="mask-type:luminance" maskUnits="userSpaceOnUse" x="0" y="0" width="265" height="56">
<path d="M265 0H0V56H265V0Z" fill="white"/>
</mask>
<g mask="url(#mask0_7647_251)">
<mask id="mask1_7647_251" style="mask-type:luminance" maskUnits="userSpaceOnUse" x="30" y="6" width="104" height="91">
<path d="M134 6H30V97H134V6Z" fill="white"/>
</mask>
<g mask="url(#mask1_7647_251)">
<mask id="mask2_7647_251" style="mask-type:luminance" maskUnits="userSpaceOnUse" x="30" y="-10" width="265" height="97">
<path d="M295 87V3.90811C294.978 0.20178 293.496 -3.34426 290.881 -5.95176C288.266 -8.55912 284.73 -10.0151 281.05 -9.99988H162.5C160.339 -10.0033 158.208 -9.50093 156.271 -8.5325C154.337 -7.56406 152.652 -6.15618 151.349 -4.4196L134.587 22.0013H43.9355C40.2537 21.9899 36.7176 23.4515 34.1043 26.0647C31.4911 28.6779 30.0156 32.2289 30 35.9378V87" fill="white"/>
</mask>
<g mask="url(#mask2_7647_251)">
<path d="M296 87C296 87.5523 295.552 88 295 88C294.448 88 294 87.5523 294 87H296ZM295 3.90814L296 3.90208V3.90814H295ZM281.05 -9.99985L281.055 -8.99985H281.05V-9.99985ZM162.5 -9.99985V-8.99985H162.498L162.5 -9.99985ZM151.349 -4.41957L150.504 -4.95528C150.518 -4.97735 150.533 -4.99886 150.549 -5.01977L151.349 -4.41957ZM134.587 22.0013L135.431 22.537C135.248 22.8261 134.929 23.0013 134.587 23.0013V22.0013ZM43.9355 22.0013V23.0013H43.9324L43.9355 22.0013ZM30 35.9378H29V35.9336L30 35.9378ZM31 87C31 87.5523 30.5523 88 30 88C29.4477 88 29 87.5523 29 87H31ZM295 87H294V3.90814H295H296V87H295ZM295 3.90814L294 3.9142C293.979 0.470404 292.603 -2.82299 290.175 -5.24358L290.881 -5.95173L291.587 -6.65992C294.39 -3.86552 295.976 -0.0667877 296 3.90208L295 3.90814ZM290.881 -5.95173L290.175 -5.24358C287.747 -7.66384 284.467 -9.01398 281.055 -8.99985L281.05 -9.99985L281.046 -10.9999C284.993 -11.0162 288.784 -9.45437 291.587 -6.65992L290.881 -5.95173ZM281.05 -9.99985V-8.99985H162.5V-9.99985V-10.9999H281.05V-9.99985ZM162.5 -9.99985L162.498 -8.99985C160.494 -9.00302 158.516 -8.53701 156.719 -7.6381L156.271 -8.53247L155.824 -9.42671C157.899 -10.4646 160.184 -11.0035 162.502 -10.9999L162.5 -9.99985ZM156.271 -8.53247L156.719 -7.6381C154.923 -6.73935 153.359 -5.43249 152.149 -3.81938L151.349 -4.41957L150.549 -5.01977C151.945 -6.8798 153.75 -8.38859 155.824 -9.42671L156.271 -8.53247ZM151.349 -4.41957L152.193 -3.88386L135.431 22.537L134.587 22.0013L133.742 21.4656L150.504 -4.95528L151.349 -4.41957ZM134.587 22.0013V23.0013H43.9355V22.0013V21.0013H134.587V22.0013ZM43.9355 22.0013L43.9324 23.0013C40.5181 22.9907 37.2372 24.3461 34.8114 26.7718L34.1043 26.0647L33.3972 25.3575C36.198 22.5569 39.9894 20.9891 43.9386 21.0013L43.9355 22.0013ZM34.1043 26.0647L34.8114 26.7718C32.3856 29.1976 31.0144 32.4956 31 35.942L30 35.9378L29 35.9336C29.0167 31.9622 30.5966 28.1581 33.3972 25.3575L34.1043 26.0647ZM30 35.9378H31V87H30H29V35.9378H30Z" fill="#D8E4EE"/>
</g>
</g>
<path d="M265 103V19.9081C264.978 16.2018 263.496 12.6557 260.881 10.0482C258.266 7.44088 254.73 5.98489 251.05 6.00012H132.5C130.339 5.9967 128.208 6.49907 126.271 7.4675C124.337 8.43594 122.652 9.84382 121.349 11.5804L104.587 38.0013H13.9355C10.2537 37.9899 6.71759 39.4515 4.10434 42.0647C1.49109 44.6779 0.0155467 48.2289 0 51.9378V103" fill="#D8E4EE"/>
<mask id="mask3_7647_251" style="mask-type:luminance" maskUnits="userSpaceOnUse" x="0" y="6" width="265" height="97">
<path d="M265 103V19.9081C264.978 16.2018 263.496 12.6557 260.881 10.0482C258.266 7.44088 254.73 5.98489 251.05 6.00012H132.5C130.339 5.9967 128.208 6.49907 126.271 7.4675C124.337 8.43594 122.652 9.84382 121.349 11.5804L104.587 38.0013H13.9355C10.2537 37.9899 6.71759 39.4515 4.10434 42.0647C1.49109 44.6779 0.0155467 48.2289 0 51.9378V103" fill="white"/>
</mask>
<g mask="url(#mask3_7647_251)">
<path d="M266.5 103C266.5 103.828 265.828 104.5 265 104.5C264.172 104.5 263.5 103.828 263.5 103H266.5ZM265 19.9081L266.5 19.899V19.9081H265ZM251.05 6.00012L251.057 7.50012H251.05V6.00012ZM132.5 6.00012V7.50012H132.498L132.5 6.00012ZM121.349 11.5804L120.082 10.7768C120.103 10.7437 120.125 10.7115 120.149 10.6801L121.349 11.5804ZM104.587 38.0013L105.853 38.8049C105.578 39.2385 105.1 39.5013 104.587 39.5013V38.0013ZM13.9355 38.0013V39.5013H13.9308L13.9355 38.0013ZM1.00136e-05 51.9378H-1.5L-1.49998 51.9315L1.00136e-05 51.9378ZM1.50001 103C1.50001 103.828 0.828437 104.5 1.00136e-05 104.5C-0.828417 104.5 -1.49999 103.828 -1.49999 103H1.50001ZM265 103H263.5V19.9081H265H266.5V103H265ZM265 19.9081L263.5 19.9172C263.48 16.6047 262.156 13.4376 259.822 11.1105L260.881 10.0482L261.94 8.98595C264.836 11.8738 266.475 15.7989 266.5 19.899L265 19.9081ZM260.881 10.0482L259.822 11.1105C257.488 8.78381 254.336 7.48654 251.057 7.50012L251.05 6.00012L251.044 4.50013C255.125 4.48324 259.043 6.09795 261.94 8.98595L260.881 10.0482ZM251.05 6.00012V7.50012H132.5V6.00012V4.50012H251.05V6.00012ZM132.5 6.00012L132.498 7.50012C130.571 7.49707 128.67 7.9449 126.942 8.80906L126.271 7.4675L125.6 6.12614C127.745 5.05343 130.107 4.49633 132.502 4.50012L132.5 6.00012ZM126.271 7.4675L126.943 8.80886C125.217 9.67277 123.713 10.9293 122.549 12.4807L121.349 11.5804L120.149 10.6801C121.591 8.75834 123.456 7.1991 125.6 6.12614L126.271 7.4675ZM121.349 11.5804L122.615 12.384L105.853 38.8049L104.587 38.0013L103.32 37.1977L120.082 10.7768L121.349 11.5804ZM104.587 38.0013V39.5013H13.9355V38.0013V36.5013H104.587V38.0013ZM13.9355 38.0013L13.9308 39.5013C10.6502 39.4911 7.49701 40.7934 5.165 43.1253L4.10435 42.0647L3.0437 41.004C5.93819 38.1096 9.85726 36.4887 13.9401 36.5013L13.9355 38.0013ZM4.10435 42.0647L5.165 43.1253C2.83284 45.4574 1.51389 48.6289 1.5 51.9441L1.00136e-05 51.9378L-1.49998 51.9315C-1.48278 47.8288 0.149352 43.8983 3.0437 41.004L4.10435 42.0647ZM1.00136e-05 51.9378H1.50001V103H1.00136e-05H-1.49999L-1.5 51.9378H1.00136e-05Z" fill="#D8E4EE"/>
</g>
<mask id="mask4_7647_251" style="mask-type:luminance" maskUnits="userSpaceOnUse" x="0" y="34" width="265" height="65">
<path d="M265 34H0V99H265V34Z" fill="white"/>
</mask>
<g mask="url(#mask4_7647_251)">
<path d="M265 99V15.9081C264.978 12.2018 263.496 8.65574 260.881 6.04824C258.266 3.44088 254.73 1.98489 251.05 2.00012H132.5C130.339 1.9967 128.208 2.49907 126.271 3.4675C124.337 4.43594 122.652 5.84382 121.349 7.5804L104.587 34.0013H13.9355C10.2537 33.9899 6.71758 35.4515 4.10433 38.0647C1.49107 40.6779 0.0155466 44.2289 0 47.9378V99" fill="#D8E4EE"/>
<mask id="mask5_7647_251" style="mask-type:luminance" maskUnits="userSpaceOnUse" x="0" y="2" width="265" height="97">
<path d="M265 99V15.9081C264.978 12.2018 263.496 8.65574 260.881 6.04824C258.266 3.44088 254.73 1.98489 251.05 2.00012H132.5C130.339 1.9967 128.208 2.49907 126.271 3.4675C124.337 4.43594 122.652 5.84382 121.349 7.5804L104.587 34.0013H13.9355C10.2537 33.9899 6.71758 35.4515 4.10433 38.0647C1.49107 40.6779 0.0155466 44.2289 0 47.9378V99" fill="white"/>
</mask>
<g mask="url(#mask5_7647_251)">
<path d="M266.5 99C266.5 99.8284 265.828 100.5 265 100.5C264.172 100.5 263.5 99.8284 263.5 99H266.5ZM265 15.9081L266.5 15.899V15.9081H265ZM251.05 2.00012L251.057 3.50012H251.05V2.00012ZM132.5 2.00012V3.50012H132.498L132.5 2.00012ZM121.349 7.5804L120.082 6.77683C120.103 6.74373 120.125 6.71146 120.149 6.68011L121.349 7.5804ZM104.587 34.0013L105.853 34.8049C105.578 35.2385 105.1 35.5013 104.587 35.5013V34.0013ZM13.9355 34.0013V35.5013H13.9308L13.9355 34.0013ZM1.68085e-05 47.9378H-1.5L-1.49997 47.9315L1.68085e-05 47.9378ZM1.50002 99C1.50002 99.8284 0.828444 100.5 1.68085e-05 100.5C-0.82841 100.5 -1.49998 99.8284 -1.49998 99H1.50002ZM265 99H263.5V15.9081H265H266.5V99H265ZM265 15.9081L263.5 15.9172C263.48 12.6047 262.156 9.43761 259.822 7.11047L260.881 6.04824L261.94 4.98595C264.836 7.87381 266.475 11.7989 266.5 15.899L265 15.9081ZM260.881 6.04824L259.822 7.11047C257.488 4.78375 254.336 3.48654 251.057 3.50012L251.05 2.00012L251.044 0.500131C255.125 0.48324 259.043 2.09795 261.94 4.98595L260.881 6.04824ZM251.05 2.00012V3.50012H132.5V2.00012V0.500118H251.05V2.00012ZM132.5 2.00012L132.498 3.50012C130.571 3.49707 128.67 3.9449 126.942 4.80906L126.271 3.4675L125.6 2.12614C127.745 1.05343 130.107 0.496333 132.502 0.50012L132.5 2.00012ZM126.271 3.4675L126.943 4.80886C125.217 5.67277 123.713 6.9293 122.549 8.48069L121.349 7.5804L120.149 6.68011C121.591 4.75834 123.456 3.1991 125.6 2.12614L126.271 3.4675ZM121.349 7.5804L122.615 8.38396L105.853 34.8049L104.587 34.0013L103.32 33.1977L120.082 6.77683L121.349 7.5804ZM104.587 34.0013V35.5013H13.9355V34.0013V32.5013H104.587V34.0013ZM13.9355 34.0013L13.9308 35.5013C10.6502 35.4912 7.49701 36.7934 5.16499 39.1253L4.10435 38.0647L3.0437 37.004C5.93819 34.1096 9.85727 32.4887 13.9401 32.5013L13.9355 34.0013ZM4.10435 38.0647L5.16499 39.1253C2.83284 41.4574 1.5139 44.6289 1.5 47.9441L1.68085e-05 47.9378L-1.49997 47.9315C-1.48277 43.8288 0.149347 39.8983 3.0437 37.004L4.10435 38.0647ZM1.68085e-05 47.9378H1.50002V99H1.68085e-05H-1.49998L-1.5 47.9378H1.68085e-05Z" fill="#D8E4EE"/>
</g>
</g>
</g>
</g>
<defs>
<clipPath id="clip0_7647_251">
<rect width="265" height="56" fill="white"/>
</clipPath>
</defs>
</svg>
