<?xml version="1.0" encoding="utf-8"?>
<!-- Generator: Adobe Illustrator 22.0.1, SVG Export Plug-In . SVG Version: 6.00 Build 0)  -->
<svg version="1.1" xmlns="http://www.w3.org/2000/svg" xmlns:xlink="http://www.w3.org/1999/xlink" x="0px" y="0px"
	 viewBox="0 0 2500 2500" style="enable-background:new 0 0 2500 2500;" xml:space="preserve">
<style type="text/css">
	.st0{fill:#FF0202;}
	.st1{fill:#00D4BE;}
	.st2{fill:#FFFFFF;}
	.st3{fill:#000105;}
	.st4{font-family:'Calibri';}
	.st5{font-size:900px;}
</style>
<g id="Слой_3">
	<ellipse class="st0" cx="880.1" cy="877.5" rx="552.9" ry="553.8"/>
</g>
<g id="Слой_4">
	<ellipse class="st1" cx="1658.4" cy="1501.3" rx="552.9" ry="553.8"/>
</g>
<g id="Слой_2">
	<path class="st2" d="M1775.3,1105.3c2.1-1.8,5-4.1,8.7-6.3c1.8-1.1,7.7-4.6,16.4-7.3c9.2-2.8,16.5-3.1,22.5-3.4
		c5.4-0.2,13.8-0.6,23.3,1.4c21.4,4.4,35.3,17.7,39.9,22.3c6.6,6.5,15,16.9,20.3,31.7c7.3,20.1,4.9,37.3,4,42.7
		c-3.4,20-13.3,33-17.7,38.7c-4.5,5.7-13.6,17.2-30,25c-18.3,8.7-34.9,7.8-41.7,7.3c-22.3-1.5-37.5-11.1-41.3-13.7
		c-13.7-9.1-21.5-20.1-25.3-26.3c-2.1-3.4-10.6-18-12-39c-1.3-18.6,3.7-32.4,5-36c5.4-14.3,13.4-23.5,16.7-27
		C1768.2,1110.8,1772.2,1107.6,1775.3,1105.3z"/>
	<g>
		<path class="st3" d="M297.3,1518c0,10.9-1.4,20.5-4.2,28.7c-2.8,8.2-6.9,14.9-12.3,20.3s-12,9.4-19.8,12.1c-7.8,2.7-17.1,4-27.9,4
			h-26.8c-1.5,0-2.9-0.5-4.2-1.5c-1.3-1-2-2.8-2-5.3v-112.7c0-2.5,0.7-4.3,2-5.3c1.3-1,2.7-1.5,4.2-1.5H235
			c10.9,0,20.2,1.4,27.7,4.2c7.6,2.8,13.9,6.9,19,12.2c5.1,5.3,9,11.7,11.6,19.3C296,1499.9,297.3,1508.5,297.3,1518z M279.6,1518.6
			c0-6.8-0.8-13.2-2.5-19.1c-1.7-5.9-4.3-11-8-15.3s-8.2-7.6-13.7-10.1c-5.5-2.4-12.7-3.6-21.4-3.6h-17.1v98.3h17.3
			c8.1,0,14.9-1,20.4-3c5.5-2,10.2-5.1,13.9-9.3c3.7-4.2,6.5-9.4,8.3-15.7C278.7,1534.7,279.6,1527.2,279.6,1518.6z"/>
		<path class="st3" d="M424.9,1532.8c0,2.5-0.6,4.3-1.9,5.4c-1.3,1.1-2.7,1.6-4.4,1.6h-57.9c0,4.9,0.5,9.3,1.5,13.2
			c1,3.9,2.6,7.3,4.9,10.1c2.3,2.8,5.3,4.9,8.9,6.4c3.7,1.5,8.1,2.2,13.4,2.2c4.2,0,7.9-0.3,11.2-1s6.1-1.4,8.5-2.3
			c2.4-0.8,4.4-1.6,5.9-2.3s2.7-1,3.5-1c0.5,0,0.9,0.1,1.2,0.3c0.4,0.2,0.6,0.6,0.8,1c0.2,0.5,0.3,1.1,0.4,1.9
			c0.1,0.8,0.1,1.8,0.1,3c0,0.8,0,1.6-0.1,2.2c-0.1,0.6-0.1,1.2-0.2,1.7s-0.3,0.9-0.5,1.3c-0.2,0.4-0.5,0.8-0.9,1.1
			c-0.4,0.4-1.4,0.9-3.2,1.8c-1.8,0.8-4,1.6-6.8,2.4c-2.8,0.8-6,1.5-9.7,2.1c-3.7,0.6-7.6,0.9-11.8,0.9c-7.2,0-13.6-1-19-3
			c-5.4-2-10-5-13.7-9c-3.7-4-6.5-9-8.4-14.9c-1.9-6-2.8-13-2.8-20.9c0-7.6,1-14.3,2.9-20.4c2-6,4.8-11.1,8.4-15.3
			c3.7-4.2,8.1-7.4,13.3-9.7c5.2-2.2,11-3.4,17.5-3.4c6.9,0,12.8,1.1,17.6,3.3c4.8,2.2,8.8,5.2,12,8.9c3.1,3.7,5.4,8.1,6.9,13.2
			c1.5,5,2.2,10.4,2.2,16.2V1532.8z M408.6,1528c0.2-8.5-1.7-15.1-5.7-19.9c-4-4.8-9.8-7.2-17.6-7.2c-4,0-7.5,0.7-10.5,2.2
			c-3,1.5-5.5,3.5-7.6,6c-2,2.5-3.6,5.4-4.7,8.6c-1.1,3.3-1.7,6.7-1.9,10.3H408.6z"/>
		<path class="st3" d="M542.9,1580.6c0,0.5-0.1,1-0.4,1.3c-0.3,0.4-0.7,0.7-1.3,0.9s-1.4,0.5-2.4,0.6c-1,0.1-2.3,0.2-3.9,0.2
			c-1.6,0-3-0.1-4-0.2c-1-0.1-1.9-0.3-2.4-0.6s-1-0.6-1.3-0.9c-0.3-0.4-0.4-0.8-0.4-1.3v-51.5c0-5-0.4-9-1.2-12.1
			c-0.8-3.1-1.9-5.7-3.4-7.9c-1.5-2.2-3.4-3.9-5.8-5.1c-2.4-1.2-5.1-1.8-8.3-1.8c-4,0-8.1,1.4-12.1,4.3c-4,2.9-8.3,7.1-12.7,12.6
			v61.4c0,0.5-0.1,1-0.4,1.3c-0.3,0.4-0.7,0.7-1.3,0.9s-1.4,0.5-2.4,0.6c-1,0.1-2.4,0.2-4,0.2c-1.6,0-2.9-0.1-3.9-0.2
			c-1-0.1-1.9-0.3-2.5-0.6c-0.6-0.3-1-0.6-1.3-0.9c-0.2-0.4-0.3-0.8-0.3-1.3v-87.9c0-0.5,0.1-1,0.3-1.3c0.2-0.4,0.6-0.7,1.2-1
			s1.3-0.5,2.2-0.6c0.9-0.1,2.1-0.1,3.6-0.1c1.4,0,2.6,0,3.6,0.1c0.9,0.1,1.7,0.3,2.2,0.6c0.5,0.3,0.9,0.6,1.1,1
			c0.2,0.4,0.3,0.8,0.3,1.3v11.6c4.9-5.5,9.9-9.6,14.8-12.2c4.9-2.6,9.9-3.9,14.9-3.9c5.9,0,10.8,1,14.8,3c4,2,7.2,4.6,9.7,8
			c2.5,3.3,4.2,7.2,5.3,11.7c1.1,4.5,1.6,9.8,1.6,16.1V1580.6z"/>
		<path class="st3" d="M631.5,1574.1c0,1.9-0.1,3.4-0.4,4.5c-0.3,1.1-0.7,1.9-1.2,2.4c-0.5,0.5-1.3,1-2.3,1.5
			c-1,0.5-2.2,0.8-3.6,1.1c-1.3,0.3-2.8,0.5-4.2,0.7c-1.5,0.2-3,0.3-4.5,0.3c-4.6,0-8.5-0.6-11.7-1.8c-3.3-1.2-5.9-3-8-5.5
			c-2.1-2.4-3.6-5.5-4.5-9.3c-0.9-3.7-1.4-8.2-1.4-13.2v-51.4h-12.3c-1,0-1.8-0.5-2.3-1.6c-0.6-1-0.9-2.7-0.9-5.1
			c0-1.2,0.1-2.3,0.2-3.1c0.2-0.8,0.4-1.5,0.6-2.1c0.3-0.6,0.6-0.9,1-1.2c0.4-0.2,0.9-0.3,1.4-0.3h12.2v-20.9c0-0.5,0.1-0.9,0.3-1.3
			c0.2-0.4,0.6-0.7,1.3-1c0.6-0.3,1.4-0.5,2.5-0.6c1-0.1,2.3-0.2,3.9-0.2c1.6,0,3,0.1,4,0.2c1,0.1,1.9,0.3,2.4,0.6s1,0.6,1.3,1
			c0.3,0.4,0.4,0.8,0.4,1.3v20.9h22.6c0.5,0,1,0.1,1.4,0.3c0.4,0.2,0.7,0.6,1,1.2c0.3,0.6,0.5,1.3,0.6,2.1c0.1,0.8,0.2,1.9,0.2,3.1
			c0,2.3-0.3,4-0.9,5.1c-0.6,1-1.4,1.6-2.3,1.6h-22.6v49c0,6.1,0.9,10.6,2.7,13.7c1.8,3.1,5,4.6,9.6,4.6c1.5,0,2.8-0.1,4-0.4
			s2.2-0.6,3.1-0.9c0.9-0.3,1.7-0.6,2.3-0.9c0.6-0.3,1.2-0.4,1.8-0.4c0.3,0,0.6,0.1,0.9,0.2c0.3,0.2,0.5,0.5,0.7,0.9
			c0.2,0.5,0.3,1.1,0.4,1.9C631.5,1572,631.5,1572.9,631.5,1574.1z"/>
		<path class="st3" d="M734.1,1580.7c0,0.8-0.3,1.4-0.8,1.8c-0.5,0.4-1.2,0.7-2.1,0.9c-0.9,0.2-2.2,0.3-4,0.3c-1.7,0-3-0.1-4.1-0.3
			c-1-0.2-1.7-0.5-2.2-0.9c-0.5-0.4-0.7-1-0.7-1.8v-8.8c-3.8,4.1-8.1,7.3-12.8,9.6c-4.7,2.3-9.7,3.4-15,3.4c-4.6,0-8.8-0.6-12.5-1.8
			c-3.7-1.2-6.9-2.9-9.6-5.2c-2.6-2.3-4.7-5.1-6.2-8.4s-2.2-7.1-2.2-11.3c0-4.9,1-9.2,3-12.9c2-3.6,4.9-6.7,8.7-9.1
			c3.8-2.4,8.4-4.2,13.9-5.4c5.5-1.2,11.6-1.8,18.5-1.8h12.1v-6.8c0-3.4-0.4-6.4-1.1-9c-0.7-2.6-1.9-4.8-3.5-6.5
			c-1.6-1.7-3.7-3-6.2-3.9s-5.7-1.3-9.4-1.3c-4,0-7.5,0.5-10.7,1.4c-3.2,0.9-5.9,2-8.3,3.1c-2.4,1.1-4.4,2.2-6,3.1
			c-1.6,0.9-2.8,1.4-3.6,1.4c-0.5,0-1-0.1-1.4-0.4c-0.4-0.3-0.7-0.7-1-1.2c-0.3-0.5-0.5-1.2-0.6-2c-0.1-0.8-0.2-1.7-0.2-2.7
			c0-1.6,0.1-2.9,0.3-3.9c0.2-0.9,0.8-1.8,1.7-2.7c0.9-0.8,2.4-1.8,4.5-3c2.1-1.1,4.6-2.2,7.4-3.1c2.8-0.9,5.9-1.7,9.2-2.3
			c3.3-0.6,6.7-0.9,10.1-0.9c6.3,0,11.7,0.7,16.1,2.1c4.4,1.4,8,3.5,10.7,6.3c2.7,2.8,4.7,6.2,6,10.3c1.2,4.1,1.9,8.9,1.9,14.4
			V1580.7z M718.1,1540.5h-13.8c-4.4,0-8.3,0.4-11.5,1.1c-3.3,0.7-6,1.9-8.1,3.3s-3.7,3.2-4.7,5.3c-1,2.1-1.5,4.4-1.5,7.1
			c0,4.6,1.4,8.2,4.3,10.9c2.9,2.7,6.9,4.1,12.2,4.1c4.2,0,8.2-1.1,11.8-3.2s7.4-5.4,11.4-9.9V1540.5z"/>
		<path class="st3" d="M794.5,1580.6c0,0.5-0.1,1-0.4,1.3c-0.3,0.4-0.7,0.7-1.3,0.9s-1.4,0.5-2.4,0.6c-1,0.1-2.4,0.2-4,0.2
			c-1.6,0-2.9-0.1-3.9-0.2c-1-0.1-1.9-0.3-2.5-0.6c-0.6-0.3-1-0.6-1.3-0.9c-0.2-0.4-0.3-0.8-0.3-1.3v-130.5c0-0.5,0.1-1,0.3-1.4
			c0.2-0.4,0.6-0.7,1.3-1c0.6-0.3,1.4-0.5,2.5-0.6c1-0.1,2.3-0.2,3.9-0.2c1.6,0,3,0.1,4,0.2c1,0.1,1.9,0.3,2.4,0.6
			c0.6,0.3,1,0.6,1.3,1c0.3,0.4,0.4,0.8,0.4,1.4V1580.6z"/>
		<path class="st3" d="M1083,1518.2c0,10.2-1.2,19.4-3.6,27.6c-2.4,8.2-6,15.2-10.8,20.9s-10.8,10.2-18,13.3s-15.7,4.6-25.3,4.6
			c-9.5,0-17.7-1.4-24.7-4.2s-12.7-6.9-17.2-12.4c-4.5-5.4-7.9-12.1-10.1-20.1c-2.2-8-3.3-17.2-3.3-27.6c0-10,1.2-19,3.6-27.1
			c2.4-8.1,6-15.1,10.8-20.8c4.8-5.7,10.8-10.1,18.1-13.2c7.2-3.1,15.7-4.6,25.3-4.6c9.3,0,17.4,1.4,24.3,4.2
			c6.9,2.8,12.6,6.9,17.2,12.3s8,12,10.3,19.9S1083,1507.9,1083,1518.2z M1065.3,1519.3c0-7.2-0.6-13.8-1.9-20s-3.4-11.5-6.3-16
			c-3-4.5-6.9-8.1-11.9-10.6s-11.1-3.8-18.3-3.8c-7.3,0-13.4,1.4-18.3,4.1c-4.9,2.7-9,6.4-12,10.9c-3.1,4.6-5.3,9.9-6.6,16
			c-1.3,6.1-2,12.5-2,19.2c0,7.4,0.6,14.3,1.9,20.5c1.2,6.3,3.3,11.6,6.2,16.2c2.9,4.5,6.8,8,11.8,10.5c4.9,2.5,11.1,3.8,18.5,3.8
			c7.3,0,13.5-1.4,18.5-4.1c5-2.7,9-6.4,12.1-11.1c3.1-4.7,5.2-10,6.5-16.2C1064.6,1532.6,1065.3,1526.2,1065.3,1519.3z"/>
		<path class="st3" d="M1193.7,1580.6c0,0.5-0.1,1-0.4,1.3c-0.3,0.4-0.7,0.7-1.3,0.9s-1.4,0.5-2.4,0.6c-1,0.1-2.3,0.2-3.9,0.2
			c-1.6,0-3-0.1-4-0.2c-1-0.1-1.9-0.3-2.4-0.6s-1-0.6-1.3-0.9c-0.3-0.4-0.4-0.8-0.4-1.3v-51.5c0-5-0.4-9-1.2-12.1
			c-0.8-3.1-1.9-5.7-3.4-7.9c-1.5-2.2-3.4-3.9-5.8-5.1c-2.4-1.2-5.1-1.8-8.3-1.8c-4,0-8.1,1.4-12.1,4.3c-4,2.9-8.3,7.1-12.7,12.6
			v61.4c0,0.5-0.1,1-0.4,1.3c-0.3,0.4-0.7,0.7-1.3,0.9s-1.4,0.5-2.4,0.6c-1,0.1-2.4,0.2-4,0.2c-1.6,0-2.9-0.1-3.9-0.2
			c-1-0.1-1.9-0.3-2.5-0.6c-0.6-0.3-1-0.6-1.3-0.9c-0.2-0.4-0.3-0.8-0.3-1.3v-87.9c0-0.5,0.1-1,0.3-1.3c0.2-0.4,0.6-0.7,1.2-1
			s1.3-0.5,2.2-0.6c0.9-0.1,2.1-0.1,3.6-0.1c1.4,0,2.6,0,3.6,0.1c0.9,0.1,1.7,0.3,2.2,0.6c0.5,0.3,0.9,0.6,1.1,1
			c0.2,0.4,0.3,0.8,0.3,1.3v11.6c4.9-5.5,9.9-9.6,14.8-12.2c4.9-2.6,9.9-3.9,14.9-3.9c5.9,0,10.8,1,14.8,3c4,2,7.2,4.6,9.7,8
			c2.5,3.3,4.2,7.2,5.3,11.7c1.1,4.5,1.6,9.8,1.6,16.1V1580.6z"/>
		<path class="st3" d="M1256.3,1580.6c0,0.5-0.1,1-0.4,1.3c-0.3,0.4-0.7,0.7-1.3,0.9s-1.4,0.5-2.4,0.6c-1,0.1-2.4,0.2-4,0.2
			c-1.6,0-2.9-0.1-3.9-0.2c-1-0.1-1.9-0.3-2.5-0.6c-0.6-0.3-1-0.6-1.3-0.9c-0.2-0.4-0.3-0.8-0.3-1.3v-130.5c0-0.5,0.1-1,0.3-1.4
			c0.2-0.4,0.7-0.7,1.3-1c0.6-0.3,1.4-0.5,2.5-0.6c1-0.1,2.3-0.2,3.9-0.2c1.6,0,3,0.1,4,0.2c1,0.1,1.9,0.3,2.4,0.6
			c0.6,0.3,1,0.6,1.3,1c0.3,0.4,0.4,0.8,0.4,1.4V1580.6z"/>
		<path class="st3" d="M1317,1463c0,3.8-0.7,6.3-2.1,7.7c-1.4,1.4-4.1,2.1-7.9,2.1c-3.8,0-6.4-0.7-7.8-2c-1.4-1.3-2.1-3.9-2.1-7.6
			c0-3.8,0.7-6.3,2.1-7.7c1.4-1.4,4.1-2.1,7.9-2.1c3.8,0,6.4,0.7,7.8,2C1316.3,1456.7,1317,1459.3,1317,1463z M1315.1,1580.6
			c0,0.5-0.1,1-0.4,1.3c-0.3,0.4-0.7,0.7-1.3,0.9s-1.4,0.5-2.4,0.6c-1,0.1-2.4,0.2-4,0.2c-1.6,0-2.9-0.1-3.9-0.2
			c-1-0.1-1.9-0.3-2.5-0.6c-0.6-0.3-1-0.6-1.3-0.9c-0.2-0.4-0.3-0.8-0.3-1.3v-87.9c0-0.5,0.1-0.9,0.3-1.3c0.2-0.4,0.7-0.7,1.3-1
			c0.6-0.3,1.4-0.5,2.5-0.6c1-0.1,2.3-0.2,3.9-0.2c1.6,0,3,0.1,4,0.2c1,0.1,1.9,0.3,2.4,0.6c0.6,0.3,1,0.6,1.3,1
			c0.3,0.4,0.4,0.8,0.4,1.3V1580.6z"/>
		<path class="st3" d="M1430,1580.6c0,0.5-0.1,1-0.4,1.3c-0.3,0.4-0.7,0.7-1.3,0.9s-1.4,0.5-2.4,0.6c-1,0.1-2.3,0.2-3.9,0.2
			c-1.6,0-3-0.1-4-0.2c-1-0.1-1.9-0.3-2.4-0.6s-1-0.6-1.3-0.9c-0.3-0.4-0.4-0.8-0.4-1.3v-51.5c0-5-0.4-9-1.2-12.1
			c-0.8-3.1-1.9-5.7-3.4-7.9c-1.5-2.2-3.4-3.9-5.8-5.1c-2.4-1.2-5.1-1.8-8.3-1.8c-4,0-8.1,1.4-12.1,4.3c-4,2.9-8.3,7.1-12.7,12.6
			v61.4c0,0.5-0.1,1-0.4,1.3c-0.3,0.4-0.7,0.7-1.3,0.9s-1.4,0.5-2.4,0.6c-1,0.1-2.4,0.2-4,0.2c-1.6,0-2.9-0.1-3.9-0.2
			c-1-0.1-1.9-0.3-2.5-0.6c-0.6-0.3-1-0.6-1.3-0.9c-0.2-0.4-0.3-0.8-0.3-1.3v-87.9c0-0.5,0.1-1,0.3-1.3c0.2-0.4,0.6-0.7,1.2-1
			s1.3-0.5,2.2-0.6c0.9-0.1,2.1-0.1,3.6-0.1c1.4,0,2.6,0,3.6,0.1c0.9,0.1,1.7,0.3,2.2,0.6c0.5,0.3,0.9,0.6,1.1,1
			c0.2,0.4,0.3,0.8,0.3,1.3v11.6c4.9-5.5,9.9-9.6,14.8-12.2c4.9-2.6,9.9-3.9,14.9-3.9c5.9,0,10.8,1,14.8,3c4,2,7.2,4.6,9.7,8
			c2.5,3.3,4.2,7.2,5.3,11.7c1.1,4.5,1.6,9.8,1.6,16.1V1580.6z"/>
		<path class="st3" d="M1547.1,1532.2c0,2.5-0.6,4.3-1.9,5.4c-1.3,1.1-2.7,1.6-4.4,1.6h-57.9c0,4.9,0.5,9.3,1.5,13.2
			c1,3.9,2.6,7.3,4.9,10.1c2.3,2.8,5.3,4.9,8.9,6.4c3.7,1.5,8.1,2.2,13.4,2.2c4.2,0,7.9-0.3,11.2-1s6.1-1.4,8.5-2.3
			c2.4-0.8,4.4-1.6,5.9-2.3s2.7-1,3.5-1c0.5,0,0.9,0.1,1.2,0.3c0.4,0.2,0.6,0.6,0.8,1c0.2,0.5,0.3,1.1,0.4,1.9
			c0.1,0.8,0.1,1.8,0.1,3c0,0.8,0,1.6-0.1,2.2c-0.1,0.6-0.1,1.2-0.2,1.7s-0.3,0.9-0.5,1.3c-0.2,0.4-0.5,0.8-0.9,1.1
			c-0.4,0.4-1.4,0.9-3.2,1.8c-1.8,0.8-4,1.6-6.8,2.4c-2.8,0.8-6,1.5-9.7,2.1c-3.7,0.6-7.6,0.9-11.8,0.9c-7.2,0-13.6-1-19-3
			c-5.4-2-10-5-13.7-9c-3.7-4-6.5-9-8.4-14.9c-1.9-6-2.8-13-2.8-20.9c0-7.6,1-14.3,2.9-20.4c2-6,4.8-11.1,8.4-15.3
			c3.7-4.2,8.1-7.4,13.3-9.7c5.2-2.2,11-3.4,17.5-3.4c6.9,0,12.8,1.1,17.6,3.3c4.8,2.2,8.8,5.2,12,8.9c3.1,3.7,5.4,8.1,6.9,13.2
			c1.5,5,2.2,10.4,2.2,16.2V1532.2z M1530.9,1527.4c0.2-8.5-1.7-15.1-5.7-19.9c-4-4.8-9.8-7.2-17.6-7.2c-4,0-7.5,0.7-10.5,2.2
			c-3,1.5-5.5,3.5-7.6,6c-2,2.5-3.6,5.4-4.7,8.6c-1.1,3.3-1.7,6.7-1.9,10.3H1530.9z"/>
		<path class="st3" d="M1795.5,1547.6c0,5.9-1.1,11.2-3.3,15.8c-2.2,4.6-5.2,8.5-9.1,11.8c-3.9,3.2-8.4,5.6-13.7,7.3
			c-5.2,1.6-10.9,2.4-16.9,2.4c-4.2,0-8.2-0.4-11.8-1.1c-3.6-0.7-6.8-1.6-9.7-2.6c-2.8-1-5.2-2.1-7.1-3.2c-1.9-1.1-3.3-2.1-4-2.8
			c-0.7-0.8-1.3-1.8-1.7-3c-0.4-1.2-0.5-2.8-0.5-4.8c0-1.4,0.1-2.6,0.2-3.6c0.1-0.9,0.3-1.7,0.6-2.3c0.3-0.6,0.6-1,1-1.2
			c0.4-0.2,0.8-0.3,1.4-0.3c0.9,0,2.2,0.6,3.9,1.7c1.7,1.1,3.8,2.3,6.4,3.6c2.6,1.3,5.7,2.5,9.4,3.7c3.7,1.1,7.9,1.7,12.7,1.7
			c3.6,0,7-0.5,10-1.5s5.6-2.4,7.8-4.2c2.2-1.8,3.9-4,5-6.6c1.2-2.6,1.8-5.6,1.8-8.9c0-3.6-0.8-6.6-2.4-9.2
			c-1.6-2.5-3.8-4.8-6.4-6.7c-2.7-1.9-5.7-3.7-9.1-5.3c-3.4-1.6-6.9-3.2-10.5-4.9c-3.6-1.7-7.1-3.5-10.4-5.5c-3.4-2-6.4-4.4-9.1-7.1
			c-2.7-2.7-4.8-5.9-6.5-9.6c-1.7-3.7-2.5-8.1-2.5-13.2c0-5.3,1-10,2.9-14.1c1.9-4.1,4.6-7.6,8-10.4c3.4-2.8,7.5-4.9,12.2-6.4
			c4.7-1.5,9.8-2.2,15.3-2.2c2.8,0,5.6,0.2,8.4,0.7s5.5,1.1,8,2c2.5,0.8,4.7,1.7,6.7,2.7c2,1,3.2,1.8,3.9,2.4c0.6,0.6,1,1.1,1.2,1.5
			c0.2,0.4,0.4,0.8,0.5,1.4c0.1,0.6,0.2,1.2,0.3,2c0.1,0.8,0.1,1.8,0.1,3c0,1.2,0,2.2-0.1,3.1c-0.1,0.9-0.2,1.7-0.4,2.3
			c-0.2,0.6-0.5,1.1-0.8,1.4c-0.4,0.3-0.8,0.4-1.2,0.4c-0.7,0-1.8-0.5-3.4-1.4c-1.5-0.9-3.4-1.9-5.6-3.1c-2.2-1.1-4.8-2.2-7.9-3.1
			c-3-0.9-6.4-1.4-10.2-1.4c-3.5,0-6.6,0.5-9.2,1.4c-2.6,0.9-4.8,2.2-6.4,3.8c-1.7,1.6-3,3.4-3.8,5.6c-0.8,2.1-1.3,4.4-1.3,6.8
			c0,3.5,0.8,6.5,2.4,9.1c1.6,2.5,3.8,4.8,6.5,6.7c2.7,2,5.8,3.7,9.2,5.4c3.5,1.6,7,3.3,10.5,4.9c3.6,1.7,7.1,3.5,10.5,5.5
			c3.5,2,6.5,4.3,9.2,7c2.7,2.7,4.9,5.9,6.5,9.6C1794.7,1538.2,1795.5,1542.5,1795.5,1547.6z"/>
		<path class="st3" d="M1895.4,1567.2c0,1.1,0,2.1-0.1,2.9c-0.1,0.8-0.2,1.5-0.3,2.1c-0.2,0.6-0.4,1-0.6,1.5c-0.2,0.4-0.7,1-1.6,1.9
			c-0.8,0.8-2.2,1.8-4.2,3c-2,1.2-4.2,2.3-6.6,3.2c-2.4,0.9-5.1,1.7-8,2.3c-2.9,0.6-5.8,0.9-8.9,0.9c-6.3,0-11.9-1-16.8-3.1
			s-9-5.1-12.3-9.1c-3.3-4-5.8-8.9-7.5-14.7c-1.7-5.8-2.6-12.5-2.6-20.2c0-8.7,1.1-16.1,3.2-22.3c2.1-6.2,5-11.3,8.7-15.3
			c3.7-4,8-6.9,13-8.8c5-1.9,10.4-2.9,16.2-2.9c2.8,0,5.5,0.3,8.2,0.8c2.6,0.5,5.1,1.2,7.3,2.1c2.2,0.8,4.2,1.8,5.9,2.9
			c1.7,1.1,3,2.1,3.8,2.8s1.3,1.4,1.6,1.9c0.3,0.5,0.5,1,0.7,1.6c0.2,0.6,0.3,1.3,0.4,2.1c0.1,0.8,0.1,1.8,0.1,2.9
			c0,2.5-0.3,4.3-0.9,5.3c-0.6,1-1.3,1.5-2.1,1.5c-1,0-2.1-0.5-3.4-1.6s-2.9-2.3-4.8-3.6c-2-1.3-4.3-2.5-7.1-3.6
			c-2.8-1.1-6-1.6-9.8-1.6c-7.7,0-13.7,3-17.8,8.9c-4.1,6-6.2,14.6-6.2,25.9c0,5.7,0.5,10.6,1.6,14.9c1.1,4.3,2.7,7.8,4.7,10.7
			c2.1,2.9,4.6,5,7.7,6.4c3,1.4,6.5,2.1,10.4,2.1c3.7,0,7-0.6,9.8-1.8c2.8-1.2,5.2-2.5,7.3-3.9c2.1-1.4,3.8-2.7,5.2-3.8
			c1.4-1.1,2.5-1.7,3.3-1.7c0.5,0,0.8,0.1,1.2,0.4c0.3,0.3,0.6,0.7,0.8,1.3c0.2,0.6,0.4,1.4,0.5,2.3
			C1895.3,1564.8,1895.4,1565.9,1895.4,1567.2z"/>
		<path class="st3" d="M2004.5,1580.6c0,0.5-0.1,1-0.4,1.3c-0.3,0.4-0.7,0.7-1.3,0.9s-1.4,0.5-2.4,0.6c-1,0.1-2.3,0.2-3.9,0.2
			c-1.6,0-3-0.1-4-0.2c-1-0.1-1.9-0.3-2.4-0.6s-1-0.6-1.3-0.9c-0.3-0.4-0.4-0.8-0.4-1.3v-51.5c0-5-0.4-9-1.2-12.1
			c-0.8-3.1-1.9-5.7-3.4-7.9c-1.5-2.2-3.4-3.9-5.8-5.1c-2.4-1.2-5.1-1.8-8.3-1.8c-4,0-8.1,1.4-12.1,4.3c-4,2.9-8.3,7.1-12.7,12.6
			v61.4c0,0.5-0.1,1-0.4,1.3c-0.3,0.4-0.7,0.7-1.3,0.9s-1.4,0.5-2.4,0.6c-1,0.1-2.4,0.2-4,0.2c-1.6,0-2.9-0.1-3.9-0.2
			c-1-0.1-1.9-0.3-2.5-0.6c-0.6-0.3-1-0.6-1.3-0.9c-0.2-0.4-0.3-0.8-0.3-1.3v-130.5c0-0.5,0.1-1,0.3-1.4c0.2-0.4,0.7-0.7,1.3-1
			c0.6-0.3,1.4-0.5,2.5-0.6c1-0.1,2.3-0.2,3.9-0.2c1.6,0,3,0.1,4,0.2c1,0.1,1.9,0.3,2.4,0.6c0.6,0.3,1,0.6,1.3,1
			c0.3,0.4,0.4,0.8,0.4,1.4v52.6c4.6-4.9,9.3-8.5,14-10.9c4.7-2.4,9.4-3.6,14.2-3.6c5.9,0,10.8,1,14.8,3c4,2,7.2,4.6,9.7,8
			c2.5,3.3,4.2,7.2,5.3,11.7c1.1,4.5,1.6,9.8,1.6,16.2V1580.6z"/>
		<path class="st3" d="M2126.3,1535.6c0,7.2-0.9,13.8-2.8,19.8c-1.9,6-4.7,11.2-8.4,15.6c-3.7,4.4-8.4,7.8-14.1,10.2
			c-5.6,2.4-12.2,3.7-19.6,3.7c-7.2,0-13.5-1.1-18.9-3.2s-9.8-5.3-13.4-9.4c-3.6-4.1-6.3-9.1-8-14.9s-2.6-12.5-2.6-19.9
			c0-7.2,0.9-13.8,2.8-19.8c1.9-6,4.7-11.2,8.4-15.6c3.7-4.4,8.4-7.7,14-10.2c5.6-2.4,12.1-3.6,19.6-3.6c7.2,0,13.5,1.1,18.9,3.2
			s9.8,5.3,13.4,9.4c3.6,4.1,6.3,9.1,8.1,14.9C2125.4,1521.7,2126.3,1528.3,2126.3,1535.6z M2109.6,1536.7c0-4.8-0.4-9.2-1.3-13.5
			c-0.9-4.2-2.4-7.9-4.4-11.1c-2-3.2-4.8-5.7-8.3-7.6c-3.5-1.9-7.8-2.8-13-2.8c-4.8,0-8.9,0.8-12.4,2.5c-3.4,1.7-6.3,4.1-8.5,7.2
			c-2.2,3.1-3.9,6.8-5,11c-1.1,4.2-1.6,8.9-1.6,13.9c0,4.8,0.4,9.3,1.3,13.6c0.9,4.2,2.4,7.9,4.4,11.1c2.1,3.2,4.8,5.7,8.3,7.5
			s7.8,2.8,13,2.8c4.7,0,8.8-0.8,12.3-2.5c3.5-1.7,6.3-4.1,8.6-7.1c2.2-3.1,3.9-6.7,4.9-10.9
			C2109.1,1546.4,2109.6,1541.8,2109.6,1536.7z"/>
		<path class="st3" d="M2246.1,1535.6c0,7.2-0.9,13.8-2.8,19.8c-1.9,6-4.7,11.2-8.4,15.6c-3.7,4.4-8.4,7.8-14.1,10.2
			c-5.6,2.4-12.2,3.7-19.6,3.7c-7.2,0-13.5-1.1-18.9-3.2s-9.8-5.3-13.4-9.4c-3.6-4.1-6.3-9.1-8-14.9s-2.6-12.5-2.6-19.9
			c0-7.2,0.9-13.8,2.8-19.8c1.9-6,4.7-11.2,8.4-15.6c3.7-4.4,8.4-7.7,14-10.2c5.6-2.4,12.1-3.6,19.6-3.6c7.2,0,13.5,1.1,18.9,3.2
			s9.8,5.3,13.4,9.4c3.6,4.1,6.3,9.1,8.1,14.9C2245.2,1521.7,2246.1,1528.3,2246.1,1535.6z M2229.4,1536.7c0-4.8-0.4-9.2-1.3-13.5
			c-0.9-4.2-2.4-7.9-4.4-11.1c-2-3.2-4.8-5.7-8.3-7.6c-3.5-1.9-7.8-2.8-13-2.8c-4.8,0-8.9,0.8-12.4,2.5c-3.4,1.7-6.3,4.1-8.5,7.2
			c-2.2,3.1-3.9,6.8-5,11c-1.1,4.2-1.6,8.9-1.6,13.9c0,4.8,0.4,9.3,1.3,13.6c0.9,4.2,2.4,7.9,4.4,11.1c2.1,3.2,4.8,5.7,8.3,7.5
			s7.8,2.8,13,2.8c4.7,0,8.8-0.8,12.3-2.5c3.5-1.7,6.3-4.1,8.6-7.1c2.2-3.1,3.9-6.7,4.9-10.9
			C2228.9,1546.4,2229.4,1541.8,2229.4,1536.7z"/>
		<path class="st3" d="M2298.3,1581.8c0,0.5-0.1,1-0.4,1.3c-0.3,0.4-0.7,0.7-1.3,0.9s-1.4,0.5-2.4,0.6c-1,0.1-2.4,0.2-4,0.2
			c-1.6,0-2.9-0.1-3.9-0.2c-1-0.1-1.9-0.3-2.5-0.6c-0.6-0.3-1-0.6-1.3-0.9c-0.2-0.4-0.3-0.8-0.3-1.3v-130.5c0-0.5,0.1-1,0.3-1.4
			c0.2-0.4,0.7-0.7,1.3-1c0.6-0.3,1.4-0.5,2.5-0.6c1-0.1,2.3-0.2,3.9-0.2c1.6,0,3,0.1,4,0.2c1,0.1,1.9,0.3,2.4,0.6
			c0.6,0.3,1,0.6,1.3,1c0.3,0.4,0.4,0.8,0.4,1.4V1581.8z"/>
	</g>
	<g>
		<path class="st3" d="M631.5,1101.2c0,49.2-6.3,92.2-18.9,129c-12.6,36.8-31,67.2-55.2,91.4s-53.8,42.3-89,54.3
			c-35.2,12-77.1,18-125.7,18H222.4c-6.7,0-13.1-2.3-19.1-6.8c-6-4.5-9-12.5-9-24V855.9c0-11.4,3-19.4,9-24c6-4.5,12.4-6.8,19.1-6.8
			h128.8c49.2,0,90.8,6.4,124.8,19.1c34,12.7,62.5,31.1,85.5,54.9c23,23.9,40.4,52.8,52.3,86.8
			C625.6,1020,631.5,1058.4,631.5,1101.2z M552,1104.2c0-30.8-3.8-59.4-11.4-85.9c-7.6-26.5-19.6-49.4-35.8-68.8
			s-36.8-34.4-61.7-45.3c-24.9-10.8-57-16.3-96.2-16.3h-76.9v442.5h77.8c36.3,0,66.9-4.5,91.8-13.6c24.9-9.1,45.7-23,62.4-41.7
			c16.7-18.7,29.2-42.3,37.6-70.5C547.8,1176.4,552,1142.9,552,1104.2z"/>
		<path class="st3" d="M1029.8,1168c0,11.4-2.9,19.6-8.6,24.4c-5.7,4.8-12.3,7.3-19.6,7.3H741c0,22,2.2,41.7,6.6,59.3
			s11.8,32.7,22.1,45.3c10.3,12.6,23.7,22.3,40.2,29c16.5,6.7,36.7,10.1,60.5,10.1c18.8,0,35.6-1.5,50.3-4.6
			c14.7-3.1,27.5-6.5,38.2-10.3c10.7-3.8,19.6-7.3,26.5-10.3c6.9-3.1,12.1-4.6,15.7-4.6c2.1,0,3.9,0.5,5.5,1.5
			c1.6,1,2.9,2.6,3.8,4.6c0.9,2.1,1.5,4.9,2,8.6c0.4,3.7,0.7,8.1,0.7,13.4c0,3.8-0.2,7.1-0.4,9.9c-0.3,2.8-0.7,5.3-1.1,7.5
			s-1.2,4.2-2.2,5.9c-1,1.8-2.3,3.4-4,5.1c-1.6,1.6-6.4,4.3-14.3,7.9c-7.9,3.7-18.2,7.3-30.8,10.8c-12.6,3.5-27.2,6.7-43.7,9.4
			c-16.6,2.8-34.2,4.2-53,4.2c-32.5,0-61-4.5-85.5-13.6c-24.5-9.1-45-22.6-61.7-40.4c-16.7-17.9-29.3-40.3-37.8-67.2
			c-8.5-27-12.7-58.3-12.7-94c0-34,4.4-64.5,13.2-91.6c8.8-27.1,21.5-50.1,38-69c16.5-18.9,36.5-33.4,60-43.5
			c23.4-10.1,49.7-15.2,78.7-15.2c31.1,0,57.5,5,79.3,14.9c21.8,10,39.8,23.4,53.8,40.2c14.1,16.9,24.4,36.6,31,59.3
			c6.6,22.7,9.9,47,9.9,72.7V1168z M956.8,1146.4c0.9-38.1-7.6-68-25.4-89.6c-17.8-21.7-44.3-32.5-79.4-32.5
			c-18,0-33.8,3.4-47.3,10.1c-13.6,6.7-24.9,15.7-34.1,26.8c-9.1,11.1-16.2,24.1-21.2,38.9c-5,14.8-7.8,30.3-8.4,46.4H956.8z"/>
		<path class="st3" d="M1420.3,1382.8c0,2.3-0.6,4.3-1.8,5.9c-1.2,1.6-3.1,3-5.7,4.2s-6.3,2-11,2.6c-4.7,0.6-10.5,0.9-17.6,0.9
			c-7.3,0-13.3-0.3-18-0.9c-4.7-0.6-8.3-1.5-11-2.6s-4.5-2.6-5.7-4.2c-1.2-1.6-1.8-3.6-1.8-5.9v-231.6c0-22.6-1.8-40.7-5.3-54.5
			c-3.5-13.8-8.6-25.6-15.4-35.6c-6.7-10-15.5-17.6-26.1-22.9c-10.7-5.3-23.1-7.9-37.1-7.9c-18.2,0-36.3,6.4-54.5,19.3
			c-18.2,12.9-37.2,31.8-57.1,56.7v276.4c0,2.3-0.6,4.3-1.8,5.9c-1.2,1.6-3.1,3-5.7,4.2c-2.6,1.2-6.3,2-11,2.6
			c-4.7,0.6-10.7,0.9-18,0.9c-7,0-12.9-0.3-17.6-0.9c-4.7-0.6-8.4-1.5-11.2-2.6c-2.8-1.2-4.7-2.6-5.7-4.2c-1-1.6-1.5-3.6-1.5-5.9
			V987.3c0-2.3,0.4-4.3,1.3-5.9c0.9-1.6,2.6-3.1,5.3-4.4s6-2.2,10.1-2.6c4.1-0.4,9.5-0.7,16.3-0.7c6.4,0,11.8,0.2,16,0.7
			c4.2,0.4,7.5,1.3,9.9,2.6c2.3,1.3,4,2.8,5.1,4.4c1,1.6,1.5,3.6,1.5,5.9v52.3c22.3-24.9,44.5-43.1,66.6-54.7
			c22.1-11.6,44.5-17.4,67-17.4c26.4,0,48.6,4.5,66.6,13.4c18,8.9,32.6,20.9,43.7,35.8c11.1,14.9,19.1,32.5,23.9,52.5
			c4.8,20.1,7.3,44.2,7.3,72.3V1382.8z"/>
		<path class="st3" d="M1704.6,1353.8c0,8.5-0.6,15.2-1.8,20.2c-1.2,5-2.9,8.6-5.3,11c-2.3,2.3-5.9,4.5-10.5,6.6
			c-4.7,2.1-10,3.7-16,5.1c-6,1.3-12.4,2.4-19.1,3.3c-6.7,0.9-13.5,1.3-20.2,1.3c-20.5,0-38.1-2.7-52.7-8.1
			c-14.7-5.4-26.7-13.6-36-24.6c-9.4-11-16.2-24.9-20.4-41.7c-4.3-16.8-6.4-36.7-6.4-59.5v-231.2h-55.4c-4.4,0-7.9-2.3-10.5-7
			c-2.6-4.7-4-12.3-4-22.9c0-5.6,0.4-10.3,1.1-14.1c0.7-3.8,1.7-7,2.9-9.4c1.2-2.5,2.7-4.2,4.6-5.3c1.9-1,4-1.5,6.4-1.5h54.9v-94
			c0-2,0.5-4,1.5-5.7c1-1.8,2.9-3.3,5.7-4.6c2.8-1.3,6.5-2.3,11.2-2.9c4.7-0.6,10.5-0.9,17.6-0.9c7.3,0,13.3,0.3,18,0.9
			c4.7,0.6,8.3,1.5,11,2.9s4.5,2.9,5.7,4.6c1.2,1.8,1.8,3.7,1.8,5.7v94h101.5c2.3,0,4.4,0.5,6.2,1.5c1.8,1,3.3,2.8,4.6,5.3
			c1.3,2.5,2.3,5.6,2.9,9.4c0.6,3.8,0.9,8.5,0.9,14.1c0,10.5-1.3,18.2-4,22.9c-2.6,4.7-6.2,7-10.5,7h-101.5v220.6
			c0,27.2,4,47.8,12.1,61.7c8.1,13.9,22.5,20.9,43.3,20.9c6.7,0,12.7-0.7,18-2s10-2.7,14.1-4.2c4.1-1.5,7.6-2.9,10.5-4.2
			c2.9-1.3,5.6-2,7.9-2c1.5,0,2.9,0.4,4.2,1.1c1.3,0.7,2.3,2.1,3.1,4.2c0.7,2.1,1.4,4.8,2,8.3
			C1704.3,1344.2,1704.6,1348.6,1704.6,1353.8z"/>
	</g>
	<text transform="matrix(1 0 0 1 1924.8633 1396.4706)" class="st3 st4 st5">S</text>
	<g id="Слой_5">
		<g id="Слой_6">
		</g>
	</g>
</g>
</svg>
