<svg width="29" height="30" viewBox="0 0 29 30" fill="none" xmlns="http://www.w3.org/2000/svg">
    <path fill-rule="evenodd" clip-rule="evenodd" d="M2.73267 13.5408C2.73267 7.64552 7.51173 2.86646 13.407 2.86646C19.3023 2.86646 24.0814 7.64552 24.0814 13.5408C24.0814 16.4302 22.9334 19.0514 21.0686 20.9733C21.0253 21.0045 20.9839 21.0395 20.9449 21.0785C20.906 21.1175 20.8709 21.1589 20.8397 21.2022C18.9178 23.0671 16.2965 24.2151 13.407 24.2151C7.51173 24.2151 2.73267 19.4361 2.73267 13.5408ZM21.6344 23.1822C19.4203 25.0733 16.547 26.2151 13.407 26.2151C6.40716 26.2151 0.732666 20.5406 0.732666 13.5408C0.732666 6.54095 6.40716 0.866455 13.407 0.866455C20.4069 0.866455 26.0814 6.54095 26.0814 13.5408C26.0814 16.6807 24.9396 19.5539 23.0486 21.7679L28.7071 27.4264C29.0976 27.817 29.0976 28.4501 28.7071 28.8406C28.3165 29.2312 27.6834 29.2312 27.2929 28.8406L21.6344 23.1822Z" fill="#01433d" />
</svg>