<svg width="71" height="89" viewBox="0 0 71 89" fill="none" xmlns="http://www.w3.org/2000/svg">
<path d="M44.5598 15.5973C40.7172 10.7044 29.9189 5.79355 25.2358 17.6918C24.8294 17.9727 23.4883 28.1546 23.3755 31.4373C23.0912 39.703 14.1673 52.5776 8.40591 60.4512C6.18493 63.8393 2.84879 70.9626 7.27209 72.3508C11.6954 73.7391 16.7537 70.0568 18.7299 68.0421L32.4077 53.584C35.2634 49.7108 40.5474 44.1772 38.8385 53.0286C37.1295 61.8799 32.4162 71.2243 30.2732 74.7901C27.0587 80.1387 29.3129 85.347 35.2184 80.2639C42.6003 73.9099 62.0618 46.6641 66.9958 34.1283C69.4248 27.9568 69.9516 20.653 61.1993 22.1465C52.4469 23.6399 46.5727 22.8564 44.7296 22.2779" stroke="#01433D" stroke-width="2" stroke-linecap="round"/>
<path d="M41.7766 8.1356C38.0425 3.28547 27.4839 -1.53107 22.8008 10.3671C22.4 10.6503 21.0087 20.8125 20.8736 24.0864C20.5335 32.3301 11.6822 45.2332 5.97091 53.1266C3.76663 56.5212 0.440518 63.6485 4.77027 64.9999C9.10001 66.3513 14.0904 62.6423 16.0444 60.6188L29.5718 46.1015C32.4024 42.2185 37.628 36.662 35.8856 45.5002C34.1433 54.3384 29.4495 63.6904 27.3204 67.2616C24.1267 72.6185 26.2999 77.7949 32.1319 72.6828C39.4219 66.2927 58.7189 38.9821 63.6529 26.4464C66.082 20.2749 66.653 12.9885 58.0543 14.5424C49.4556 16.0964 43.6978 15.3586 41.8937 14.7955" stroke="#017F74" stroke-width="5" stroke-linecap="round"/>
</svg>
