<svg width="420" height="529" viewBox="0 0 420 529" fill="none" xmlns="http://www.w3.org/2000/svg">
<path d="M261.047 93.4672C238.02 64.1465 173.311 34.718 145.248 106.018C142.812 107.702 134.776 168.718 134.099 188.389C132.396 237.922 78.9192 315.073 44.3938 362.256C31.0845 382.559 11.0926 425.246 37.5994 433.565C64.1061 441.884 94.4183 419.818 106.261 407.745L188.226 321.104C205.338 297.894 237.003 264.734 226.762 317.776C216.521 370.818 188.277 426.814 175.435 448.182C156.171 480.234 169.68 511.445 205.069 480.984C249.305 442.908 365.928 279.636 395.496 204.515C410.052 167.532 413.209 123.764 360.76 132.713C308.311 141.663 273.11 136.968 262.065 133.501" stroke="#95E4DD" stroke-width="8" stroke-linecap="round"/>
<path d="M244.356 48.7529C221.98 19.6883 158.707 -9.17497 130.643 62.1255C128.241 63.8224 119.904 124.719 119.094 144.339C117.056 193.739 64.0143 271.062 29.7893 318.363C16.5801 338.706 -3.35179 381.416 22.5944 389.514C48.5406 397.613 78.4456 375.386 90.1549 363.261L171.219 276.265C188.181 252.996 219.495 219.698 209.054 272.661C198.613 325.625 170.485 381.667 157.727 403.068C138.589 435.169 151.612 466.189 186.56 435.555C230.246 397.262 345.884 233.602 375.451 158.481C390.007 121.498 393.429 77.8339 341.901 87.146C290.373 96.4581 255.869 92.0372 245.058 88.6628" stroke="#95E4DD" stroke-width="15" stroke-linecap="round"/>
</svg>
