<svg width="772" height="538" viewBox="0 0 772 538" fill="none" xmlns="http://www.w3.org/2000/svg">
<g clip-path="url(#clip0_6969_157)">
<path d="M732 0H40C17.9086 0 0 17.9086 0 40V498C0 520.091 17.9086 538 40 538H732C754.091 538 772 520.091 772 498V40C772 17.9086 754.091 0 732 0Z" fill="white"/>
<path d="M590.562 473.562V408.666H541.152L515.713 380.537L490.145 408.666H327.236V277.568H274.655L339.876 129.967H402.775L425.228 180.532V129.968H503.085L516.603 168.072L530.21 129.968H590.563V64H181V473.562H590.562ZM549.475 392.252H590.562L536.211 334.616L590.562 277.634H550.128L516.563 314.313L483.321 277.634H442.224L496.257 334.944L442.224 392.253H482.178L515.907 355.247L549.475 392.252ZM559.087 334.664L590.562 368.149V301.458L559.087 334.664ZM375.909 365.726V347.878H440.585V322.006H375.909V304.16H442.221V277.633H344.633V392.251H442.221V365.725H375.909V365.726ZM559.614 261H590.562V146.382H542.421L516.713 217.771L491.17 146.382H442.213V261H473.158V180.768L502.633 261H530.14L559.614 180.602V261ZM407.009 261H442.213L391.62 146.382H351.339L300.74 261H335.126L344.625 238.077H397.348L407.009 261ZM386.543 212.369H355.43L370.987 174.873L386.543 212.369Z" fill="#006FCF"/>
</g>
<defs>
<clipPath id="clip0_6969_157">
<rect width="772" height="538" fill="white"/>
</clipPath>
</defs>
</svg>
