<svg width="772" height="538" viewBox="0 0 772 538" fill="none" xmlns="http://www.w3.org/2000/svg">
<g clip-path="url(#clip0_6969_95)">
<path d="M731.596 5H54.4035C28.2233 5 7 26.6166 7 53.2821V494.718C7 521.383 28.2233 543 54.4035 543H731.596C757.777 543 779 521.383 779 494.718V53.2821C779 26.6166 757.777 5 731.596 5Z" fill="white"/>
<path fill-rule="evenodd" clip-rule="evenodd" d="M228.719 197.572C222.901 204.535 213.591 210.026 204.28 209.241C203.116 199.828 207.673 189.826 213.009 183.65C218.827 176.491 229.01 171.392 237.254 171C238.224 180.806 234.442 190.415 228.719 197.572ZM237.156 211.105C228.955 210.628 221.471 213.599 215.425 215.999C211.536 217.543 208.24 218.851 205.734 218.851C202.922 218.851 199.491 217.473 195.64 215.926C190.593 213.899 184.824 211.582 178.773 211.692C164.905 211.89 152.006 219.832 144.926 232.48C130.378 257.779 141.144 295.236 155.206 315.828C162.093 326.025 170.336 337.204 181.198 336.811C185.977 336.629 189.414 335.154 192.971 333.628C197.067 331.87 201.322 330.046 207.965 330.046C214.378 330.046 218.447 331.823 222.352 333.53C226.065 335.153 229.632 336.71 234.926 336.615C246.177 336.419 253.256 326.418 260.142 316.219C267.573 305.274 270.838 294.593 271.334 292.972L271.392 292.785C271.392 292.785 271.289 292.73 271.126 292.655C268.642 291.505 249.656 282.717 249.473 259.152C249.291 239.372 264.533 229.35 266.933 227.772C267.079 227.676 267.177 227.611 267.221 227.578C257.523 213.066 242.393 211.497 237.156 211.105ZM315.033 335.537V182.669H371.769C401.058 182.669 421.522 203.063 421.522 232.873C421.522 262.681 400.669 283.273 370.993 283.273H338.504V335.537H315.033ZM338.504 202.672H365.562C385.929 202.672 397.566 213.654 397.566 232.971C397.566 252.288 385.929 263.368 365.465 263.368H338.504V202.672ZM499.01 317.2C492.803 329.163 479.129 336.713 464.388 336.713C442.566 336.713 427.34 323.574 427.34 303.767C427.34 284.156 442.082 272.88 469.334 271.212L498.622 269.447V261.015C498.622 248.561 490.573 241.796 476.22 241.796C464.388 241.796 455.756 247.974 454.01 257.386H432.868C433.547 237.579 451.974 223.166 476.898 223.166C503.762 223.166 521.22 237.383 521.22 259.446V335.537H499.496V317.2H499.01ZM470.691 318.574C458.181 318.574 450.228 312.494 450.228 303.178C450.228 293.57 457.89 287.979 472.534 287.098L498.622 285.43V294.059C498.622 308.375 486.596 318.574 470.691 318.574ZM593.278 341.519C583.871 368.287 573.105 377.112 550.217 377.112C548.472 377.112 542.653 376.916 541.294 376.524V358.188C542.749 358.383 546.338 358.579 548.181 358.579C558.558 358.579 564.377 354.167 567.965 342.695L570.098 335.928L530.336 224.636H554.872L582.512 314.945H582.998L610.638 224.636H634.496L593.278 341.519Z" fill="black"/>
</g>
<defs>
<clipPath id="clip0_6969_95">
<rect width="772" height="538" fill="white"/>
</clipPath>
</defs>
</svg>
