<svg width="772" height="538" viewBox="0 0 772 538" fill="none" xmlns="http://www.w3.org/2000/svg">
<g clip-path="url(#clip0_6969_102)">
<path d="M710.464 0H61.5362C27.5507 0 0 28.187 0 62.9574V475.043C0 509.813 27.5507 538 61.5362 538H710.464C744.449 538 772 509.813 772 475.043V62.9574C772 28.187 744.449 0 710.464 0Z" fill="white"/>
<path fill-rule="evenodd" clip-rule="evenodd" d="M113.478 323.099C113.478 312.28 107.825 312.99 102.418 312.877V309.749C107.107 309.977 111.914 309.977 116.615 309.977C121.666 309.977 128.523 309.749 137.431 309.749C168.587 309.749 185.558 330.553 185.558 351.858C185.558 363.781 178.579 393.731 135.984 393.731C129.853 393.731 124.191 393.494 118.539 393.494C113.129 393.494 107.825 393.606 102.418 393.731V390.601C109.629 389.873 113.129 389.637 113.478 381.458V323.099ZM125.269 379.527C125.269 388.795 131.893 389.873 137.786 389.873C163.782 389.873 172.313 370.266 172.313 352.341C172.313 329.843 157.877 313.603 134.659 313.603C129.715 313.603 127.44 313.955 125.269 314.084V379.527Z" fill="#1A1919"/>
<path fill-rule="evenodd" clip-rule="evenodd" d="M189.773 390.603H192.053C195.422 390.603 197.83 390.603 197.83 386.623V354.021C197.83 348.735 196.029 348.004 191.571 345.604V343.684C197.226 341.983 203.969 339.715 204.445 339.352C205.292 338.869 206.004 338.741 206.616 338.741C207.205 338.741 207.453 339.463 207.453 340.436V386.623C207.453 390.603 210.104 390.603 213.478 390.603H215.514V393.732C211.423 393.732 207.205 393.495 202.888 393.495C198.557 393.495 194.222 393.607 189.773 393.732V390.603ZM202.645 320.218C199.511 320.218 196.75 317.331 196.75 314.204C196.75 311.19 199.642 308.418 202.645 308.418C205.768 308.418 208.543 310.953 208.543 314.204C208.543 317.458 205.889 320.218 202.645 320.218Z" fill="#1A1919"/>
<path fill-rule="evenodd" clip-rule="evenodd" d="M226.951 354.743C226.951 350.301 225.623 349.098 219.977 346.808V344.524C225.141 342.841 230.071 341.27 235.853 338.739C236.217 338.739 236.566 338.981 236.566 339.942V347.765C243.435 342.841 249.332 338.739 257.405 338.739C267.617 338.739 271.226 346.201 271.226 355.586V386.622C271.226 390.603 273.881 390.603 277.245 390.603H279.416V393.732C275.191 393.732 270.985 393.495 266.659 393.495C262.325 393.495 257.99 393.605 253.659 393.732V390.603H255.83C259.199 390.603 261.595 390.603 261.595 386.622V355.474C261.595 348.608 257.405 345.243 250.539 345.243C246.685 345.243 240.548 348.364 236.566 351.023V386.622C236.566 390.603 239.226 390.603 242.595 390.603H244.757V393.732C240.548 393.732 236.336 393.495 231.997 393.495C227.675 393.495 223.339 393.605 219.012 393.732V390.603H221.181C224.547 390.603 226.951 390.603 226.951 386.622V354.743Z" fill="#1A1919"/>
<path fill-rule="evenodd" clip-rule="evenodd" d="M288.561 360.528C288.316 361.611 288.316 363.412 288.561 367.506C289.27 378.932 296.626 388.313 306.241 388.313C312.867 388.313 318.044 384.702 322.488 380.259L324.168 381.943C318.632 389.281 311.776 395.542 301.918 395.542C282.782 395.542 278.934 377.003 278.934 369.308C278.934 345.723 294.811 338.739 303.225 338.739C312.982 338.739 323.456 344.876 323.568 357.633C323.568 358.364 323.568 359.077 323.456 359.801L322.368 360.528H288.561ZM309.866 356.674C312.867 356.674 313.219 355.108 313.219 353.658C313.219 347.532 309.492 342.599 302.752 342.599C295.419 342.599 290.363 348.003 288.921 356.674H309.866Z" fill="#1A1919"/>
<path fill-rule="evenodd" clip-rule="evenodd" d="M326.34 390.603H329.591C332.947 390.603 335.356 390.603 335.356 386.622V352.821C335.356 349.098 330.908 348.364 329.101 347.403V345.604C337.883 341.872 342.698 338.739 343.799 338.739C344.503 338.739 344.864 339.102 344.864 340.31V351.141H345.118C348.116 346.45 353.178 338.739 360.514 338.739C363.521 338.739 367.366 340.783 367.366 345.119C367.366 348.364 365.092 351.266 361.723 351.266C357.981 351.266 357.981 348.364 353.766 348.364C351.725 348.364 344.985 351.141 344.985 358.364V386.622C344.985 390.603 347.39 390.603 350.761 390.603H357.49V393.732C350.874 393.605 345.838 393.495 340.658 393.495C335.725 393.495 330.669 393.605 326.34 393.732V390.603Z" fill="#1A1919"/>
<path fill-rule="evenodd" clip-rule="evenodd" d="M372.658 377.002C374.226 384.943 379.029 391.69 387.829 391.69C394.916 391.69 397.561 387.354 397.561 383.145C397.561 368.941 371.339 373.518 371.339 354.148C371.339 347.403 376.757 338.741 389.993 338.741C393.836 338.741 399.008 339.832 403.696 342.241L404.542 354.503H401.776C400.574 346.927 396.368 342.598 388.659 342.598C383.847 342.598 379.28 345.361 379.28 350.536C379.28 364.621 407.186 360.282 407.186 379.173C407.186 387.108 400.816 395.541 386.494 395.541C381.685 395.541 376.02 393.854 371.822 391.447L370.492 377.609L372.658 377.002Z" fill="#1A1919"/>
<path fill-rule="evenodd" clip-rule="evenodd" d="M515.827 331.52H512.827C510.537 317.457 500.55 311.795 487.083 311.795C473.231 311.795 453.145 321.053 453.145 349.929C453.145 374.242 470.476 391.69 489.001 391.69C500.901 391.69 510.79 383.505 513.191 370.864L515.959 371.582L513.191 389.155C508.137 392.287 494.537 395.541 486.588 395.541C458.446 395.541 440.641 377.37 440.641 350.3C440.641 325.628 462.659 307.936 486.241 307.936C495.983 307.936 505.365 311.073 514.631 314.325L515.827 331.52Z" fill="#1A1919"/>
<path fill-rule="evenodd" clip-rule="evenodd" d="M520.172 390.603H522.449C525.83 390.603 528.231 390.603 528.231 386.623V319.623C528.231 311.794 526.43 311.557 521.852 310.23V308.303C526.663 306.742 531.721 304.58 534.253 303.125C535.559 302.415 536.531 301.8 536.885 301.8C537.62 301.8 537.859 302.531 537.859 303.498V386.623C537.859 390.603 540.508 390.603 543.873 390.603H545.91V393.732C541.831 393.732 537.62 393.495 533.286 393.495C528.957 393.495 524.63 393.607 520.172 393.732V390.603Z" fill="#1A1919"/>
<path fill-rule="evenodd" clip-rule="evenodd" d="M597.425 387.107C597.425 389.281 598.741 389.394 600.781 389.394C602.232 389.394 604.029 389.281 605.606 389.281V391.813C600.428 392.289 590.557 394.818 588.268 395.54L587.668 395.173V385.427C580.457 391.32 574.916 395.54 566.362 395.54C559.866 395.54 553.133 391.32 553.133 381.227V350.416C553.133 347.284 552.654 344.275 545.926 343.682V341.39C550.261 341.271 559.866 340.553 561.435 340.553C562.77 340.553 562.77 341.39 562.77 344.042V375.081C562.77 378.693 562.77 389.03 573.236 389.03C577.319 389.03 582.734 385.91 587.785 381.704V349.331C587.785 346.927 582.013 345.604 577.689 344.407V342.242C588.506 341.509 595.251 340.553 596.454 340.553C597.425 340.553 597.425 341.39 597.425 342.718V387.107Z" fill="#1A1919"/>
<path fill-rule="evenodd" clip-rule="evenodd" d="M621.36 347.404C626.171 343.321 632.67 338.739 639.286 338.739C653.246 338.739 661.67 350.905 661.67 364.016C661.67 379.774 650.114 395.542 632.9 395.542C624.006 395.542 619.313 392.644 616.179 391.321L612.58 394.089L610.058 392.771C611.133 385.673 611.74 378.695 611.74 371.352V319.623C611.74 311.794 609.928 311.557 605.355 310.23V308.303C610.173 306.742 615.222 304.58 617.747 303.125C619.075 302.415 620.034 301.8 620.401 301.8C621.117 301.8 621.36 302.534 621.36 303.498V347.404ZM621.36 380.132C621.36 384.702 625.695 392.409 633.753 392.409C646.624 392.409 652.037 379.774 652.037 369.06C652.037 356.069 642.182 345.243 632.8 345.243C628.329 345.243 624.606 348.135 621.36 350.905V380.132Z" fill="#1A1919"/>
<path fill-rule="evenodd" clip-rule="evenodd" d="M167.23 452.756L167.361 452.626V428.083C167.361 422.71 163.625 421.924 161.662 421.924H160.219V419.96C163.302 419.96 166.313 420.219 169.386 420.219C172.07 420.219 174.765 419.96 177.44 419.96V421.924H176.466C173.707 421.924 170.63 422.447 170.63 430.239V460.026C170.63 462.321 170.695 464.611 171.016 466.643H168.528L134.818 429.057V456.036C134.818 461.737 135.925 463.691 140.967 463.691H142.081V465.659C139.266 465.659 136.454 465.404 133.639 465.404C130.699 465.404 127.683 465.659 124.734 465.659V463.691H125.654C130.17 463.691 131.545 460.614 131.545 455.392V427.808C131.545 424.145 128.523 421.924 125.589 421.924H124.734V419.96C127.218 419.96 129.775 420.219 132.258 420.219C134.229 420.219 136.127 419.96 138.09 419.96L167.23 452.756Z" fill="#1A1919"/>
<path fill-rule="evenodd" clip-rule="evenodd" d="M171.017 466.917L168.322 466.825L135.097 429.794V456.034C135.176 461.727 136.04 463.346 140.97 463.408H142.373V465.938H142.082C139.25 465.938 136.432 465.676 133.639 465.676C130.708 465.676 127.699 465.938 124.733 465.938H124.445V463.408H125.655C129.981 463.383 131.218 460.602 131.265 455.389V427.816C131.253 424.329 128.393 422.208 125.593 422.208H124.445V419.673H124.733C127.236 419.673 129.798 419.928 132.254 419.928C134.207 419.928 136.098 419.673 138.305 419.775L167.078 452.161V428.081C167.044 422.883 163.57 422.251 161.665 422.208H159.933V419.673H160.222C163.315 419.673 166.329 419.928 169.387 419.928C172.051 419.928 174.734 419.673 177.44 419.673H177.729V422.208H176.467C173.763 422.277 170.991 422.516 170.911 430.237V460.025C170.911 462.317 170.982 464.603 171.297 466.589L171.358 466.917H171.017ZM168.531 466.346H170.698C170.406 464.376 170.353 462.203 170.353 460.025V430.237C170.353 422.379 173.647 421.638 176.467 421.633H177.156V420.24C174.576 420.26 171.991 420.498 169.387 420.498C166.388 420.498 163.473 420.26 160.515 420.24L160.508 421.633H161.665C163.678 421.638 167.644 422.532 167.644 428.081L167.558 452.83L167.429 452.957L167.206 453.168L138.09 420.24C136.145 420.24 134.251 420.498 132.254 420.498C129.856 420.498 127.397 420.26 125.023 420.24L125.01 421.633H125.593C128.663 421.638 131.822 423.982 131.822 427.816V455.389C131.822 460.627 130.363 463.972 125.655 463.99L125.023 463.972V465.378C127.858 465.356 130.78 465.114 133.639 465.114C136.37 465.114 139.096 465.356 141.798 465.378V463.99H140.97C135.817 463.972 134.541 461.727 134.537 456.034V428.321L168.531 466.346ZM167.078 452.625V452.6L167.025 452.558L167.078 452.625Z" fill="#1A1919"/>
<path fill-rule="evenodd" clip-rule="evenodd" d="M187.253 423.232C182.337 423.232 182.145 424.417 181.165 429.189H179.199C179.457 427.356 179.781 425.525 179.985 423.627C180.247 421.785 180.379 419.959 180.379 418.065H181.948C182.475 420.031 184.111 419.959 185.888 419.959H219.656C221.432 419.959 223.065 419.894 223.199 417.929L224.763 418.196C224.51 419.959 224.242 421.729 224.052 423.5C223.922 425.267 223.922 427.029 223.922 428.796L221.955 429.525C221.821 427.105 221.497 423.232 217.11 423.232H206.372V458.062C206.372 463.114 208.667 463.691 211.805 463.691H213.053V465.658C210.499 465.658 205.914 465.406 202.385 465.406C198.452 465.406 193.865 465.658 191.31 465.658V463.691H192.559C196.167 463.691 197.991 463.369 197.991 458.199V423.232H187.253Z" fill="#1A1919"/>
<path fill-rule="evenodd" clip-rule="evenodd" d="M213.057 465.938C210.477 465.938 205.897 465.679 202.383 465.679C198.456 465.679 193.875 465.938 191.308 465.938H191.028V463.409H192.558C196.166 463.325 197.616 463.278 197.697 458.199V423.514H187.252V422.94H198.264V458.199C198.264 463.456 196.146 463.987 192.558 463.991H191.588V465.374C194.17 465.356 198.581 465.116 202.383 465.116C205.791 465.116 210.165 465.356 212.759 465.374V463.991H211.804C208.635 463.987 206.088 463.209 206.088 458.064V422.94H217.108C221.5 422.958 222.082 426.69 222.219 429.126L223.637 428.603C223.637 426.893 223.643 425.181 223.759 423.461C223.954 421.769 224.191 420.105 224.437 418.428L223.442 418.261C223.137 420.167 221.292 420.269 219.652 420.245H185.544C184.002 420.246 182.325 420.173 181.736 418.345H180.655C180.645 420.155 180.521 421.912 180.274 423.657C180.078 425.456 179.777 427.182 179.54 428.918H180.937C181.797 424.351 182.358 422.876 187.252 422.94V423.514C182.402 423.61 182.508 424.42 181.441 429.257L181.394 429.48H178.871L178.906 429.141C179.173 427.315 179.506 425.475 179.696 423.574C179.969 421.758 180.092 419.943 180.092 418.065V417.776H182.172L182.221 417.981C182.661 419.632 183.874 419.645 185.544 419.674H219.652C221.475 419.645 222.804 419.62 222.915 417.907L222.937 417.598L223.235 417.657L225.086 417.949L225.039 418.239C224.779 419.996 224.524 421.758 224.325 423.514C224.204 425.268 224.203 427.027 224.203 428.796V428.995L224.013 429.071L221.696 429.919L221.681 429.54C221.5 427.076 221.248 423.514 217.108 423.514H206.659V458.064C206.722 463 208.681 463.347 211.804 463.409H213.335V465.938H213.057Z" fill="#1A1919"/>
<path fill-rule="evenodd" clip-rule="evenodd" d="M226.852 463.691H227.774C230.123 463.691 232.618 463.37 232.618 459.961V425.663C232.618 422.251 230.123 421.927 227.774 421.927H226.852V419.96C230.832 419.96 237.657 420.219 243.145 420.219C248.654 420.219 255.454 419.96 259.905 419.96C259.791 422.775 259.853 427.106 260.047 429.981L258.074 430.502C257.759 426.244 256.974 422.848 250.097 422.848H241.007V439.99H248.784C252.711 439.99 253.566 437.772 253.955 434.233H255.918C255.787 436.79 255.718 439.343 255.718 441.894C255.718 444.386 255.787 446.872 255.918 449.356L253.955 449.746C253.566 445.823 253.37 443.272 248.847 443.272H241.007V458.517C241.007 462.779 244.788 462.779 248.981 462.779C256.841 462.779 260.307 462.251 262.272 454.797L264.098 455.248C263.249 458.725 262.468 462.185 261.881 465.659C257.685 465.659 250.156 465.407 244.276 465.407C238.37 465.407 230.587 465.659 226.852 465.659V463.691Z" fill="#1A1919"/>
<path fill-rule="evenodd" clip-rule="evenodd" d="M261.879 465.938C257.679 465.938 250.145 465.665 244.272 465.665C238.374 465.665 230.592 465.938 226.853 465.938H226.578V463.408H227.775C230.144 463.368 232.3 463.16 232.33 459.96V425.663C232.3 422.463 230.144 422.251 227.775 422.208H226.578V419.673H226.853C230.853 419.673 237.662 419.928 243.149 419.928C248.653 419.928 255.451 419.673 259.909 419.673H260.199L260.189 419.975C260.146 420.954 260.12 422.118 260.12 423.35C260.12 425.614 260.189 428.094 260.317 429.957L260.33 430.19L260.109 430.258L257.807 430.859L257.797 430.523C257.411 426.274 256.842 423.185 250.101 423.12H241.276L241.271 439.702H248.785C252.559 439.662 253.233 437.734 253.679 434.203L253.694 433.939H256.211L256.207 434.24C256.08 436.797 256.003 439.342 256.003 441.892C256.003 444.368 256.08 446.854 256.207 449.342L256.211 449.579L255.974 449.634L253.694 450.087L253.679 449.78C253.225 445.783 253.196 443.591 248.851 443.545H241.276V458.516C241.286 462.495 244.716 462.473 248.982 462.495C256.866 462.448 260.024 462.062 261.996 454.718L262.062 454.454L262.338 454.499L264.436 455.044L264.377 455.314C263.527 458.778 262.746 462.24 262.155 465.705L262.105 465.938H261.879ZM261.636 465.372C262.208 462.062 262.955 458.756 263.757 455.46L262.469 455.135C260.509 462.458 256.709 463.113 248.982 463.063C244.857 463.063 240.733 463.063 240.711 458.516V442.985H248.851C253.424 442.938 253.884 445.694 254.211 449.418L255.625 449.128C255.498 446.714 255.433 444.291 255.433 441.892C255.433 439.434 255.498 436.98 255.625 434.51H254.211C253.843 437.929 252.774 440.316 248.785 440.274H240.711V422.553H250.101C256.908 422.498 258.036 426.022 258.333 430.14L259.744 429.757C259.629 427.91 259.552 425.536 259.552 423.35C259.552 422.23 259.582 421.167 259.62 420.24C255.171 420.26 248.531 420.498 243.149 420.498C237.77 420.498 231.148 420.26 227.141 420.24V421.633H227.775C230.104 421.638 232.89 422.042 232.905 425.663V459.96C232.89 463.574 230.104 463.972 227.775 463.99H227.141V465.372C230.952 465.36 238.52 465.114 244.272 465.114C250.051 465.114 257.417 465.36 261.636 465.372Z" fill="#1A1919"/>
<path fill-rule="evenodd" clip-rule="evenodd" d="M272.941 426.894C272.941 422.12 270.319 421.924 268.288 421.924H267.105V419.96C269.202 419.96 273.261 420.219 277.259 420.219C281.179 420.219 284.326 419.96 287.795 419.96C296.032 419.96 303.381 422.182 303.381 431.485C303.381 437.374 299.45 440.97 294.281 443.011L305.47 459.761C307.308 462.531 308.608 463.308 311.824 463.691V465.659C309.659 465.659 307.563 465.407 305.41 465.407C303.381 465.407 301.276 465.659 299.257 465.659C294.212 459.05 289.888 451.982 285.635 444.441H281.321V458.461C281.321 463.501 283.672 463.691 286.672 463.691H287.86V465.659C284.121 465.659 280.339 465.407 276.599 465.407C273.457 465.407 270.379 465.659 267.105 465.659V463.691H268.288C270.718 463.691 272.941 462.583 272.941 460.165V426.894ZM281.321 442.08H284.519C291.074 442.08 294.603 439.599 294.603 431.869C294.603 426.048 290.871 422.316 285.038 422.316C283.072 422.316 282.235 422.517 281.321 422.581V442.08Z" fill="#1A1919"/>
<path fill-rule="evenodd" clip-rule="evenodd" d="M311.823 465.938C309.627 465.938 307.546 465.676 305.393 465.676C303.397 465.676 301.303 465.938 299.023 465.829C294 459.237 289.696 452.208 285.469 444.735H281.6V458.447C281.671 463.375 283.647 463.338 286.673 463.408H288.142V465.938H287.852C284.11 465.938 280.306 465.676 276.595 465.676C273.469 465.676 270.393 465.938 267.104 465.938H266.82V463.408H268.287C270.641 463.39 272.631 462.364 272.641 460.164V426.892C272.591 422.251 270.32 422.273 268.287 422.208H266.82V419.673H267.104C269.223 419.673 273.266 419.928 277.258 419.928C281.167 419.928 284.306 419.673 287.795 419.673C296.049 419.691 303.645 421.963 303.664 431.474C303.664 437.382 299.76 441.074 294.711 443.134L305.704 459.604C307.536 462.32 308.675 462.998 311.86 463.408L312.099 463.445V465.938H311.823ZM281.317 444.157H285.79L285.871 444.303C290.135 451.825 294.437 458.895 299.256 465.378C301.249 465.378 303.353 465.114 305.393 465.114C307.481 465.114 309.503 465.343 311.536 465.372V463.935C308.467 463.561 307.026 462.634 305.238 459.921L293.841 442.878L294.164 442.747C299.291 440.727 303.091 437.23 303.092 431.474C303.091 422.391 296.024 420.285 287.795 420.24C284.347 420.24 281.201 420.506 277.258 420.506C273.412 420.506 269.527 420.26 267.384 420.24V421.633H268.287C270.32 421.638 273.211 421.975 273.211 426.892V460.164C273.211 462.79 270.75 463.985 268.287 463.99H267.384V465.372C270.532 465.36 273.521 465.114 276.595 465.114C280.252 465.114 283.949 465.36 287.569 465.372V463.99H286.673C283.691 463.985 281.027 463.615 281.027 458.447V444.157H281.317ZM281.317 442.36H281.027V422.314L281.277 422.295C282.175 422.223 283.056 422.042 285.037 422.042C291 422.042 294.882 425.916 294.888 431.885C294.87 439.702 291.124 442.358 284.518 442.36H281.317ZM284.518 441.802C291 441.739 294.266 439.491 294.329 431.885C294.291 426.165 290.739 422.616 285.037 422.591C283.27 422.591 282.434 422.756 281.6 422.837V441.802H284.518Z" fill="#1A1919"/>
<path fill-rule="evenodd" clip-rule="evenodd" d="M356.272 452.756L356.387 452.626V428.083C356.387 422.71 352.667 421.924 350.701 421.924H349.267V419.96C352.344 419.96 355.345 420.219 358.431 420.219C361.122 420.219 363.785 419.96 366.49 419.96V421.924H365.504C362.752 421.924 359.678 422.447 359.678 430.239V460.026C359.678 462.321 359.741 464.611 360.064 466.643H357.585L323.872 429.057V456.036C323.872 461.737 324.978 463.691 330.018 463.691H331.134V465.659C328.321 465.659 325.501 465.404 322.687 465.404C319.732 465.404 316.726 465.659 313.781 465.659V463.691H314.692C319.212 463.691 320.594 460.614 320.594 455.392V427.808C320.594 424.145 317.578 421.924 314.634 421.924H313.781V419.96C316.26 419.96 318.832 420.219 321.315 420.219C323.261 420.219 325.169 419.96 327.137 419.96L356.272 452.756Z" fill="#1A1919"/>
<path fill-rule="evenodd" clip-rule="evenodd" d="M360.062 466.917L357.374 466.825L324.143 429.798V456.033C324.221 461.735 325.083 463.346 330.019 463.408H331.407V465.938H331.123C328.292 465.938 325.483 465.665 322.677 465.665C319.754 465.665 316.73 465.938 313.781 465.938H313.488V463.408H314.692C319.017 463.39 320.255 460.603 320.298 455.374V427.807C320.29 424.317 317.436 422.208 314.634 422.208H313.488V419.673H313.781C316.28 419.673 318.843 419.928 321.314 419.928C323.237 419.928 325.132 419.673 327.328 419.757L356.11 452.161V428.081C356.092 422.883 352.606 422.238 350.702 422.208H348.975V419.673H349.261C352.353 419.673 355.371 419.928 358.432 419.928C361.098 419.928 363.779 419.673 366.479 419.673H366.768V422.208H365.505C362.803 422.273 360.021 422.516 359.956 430.237V460.025C359.956 462.317 360.012 464.587 360.348 466.594L360.379 466.917H360.062ZM357.585 466.346H359.73C359.443 464.389 359.386 462.203 359.386 460.025V430.237C359.39 422.379 362.702 421.651 365.505 421.633H366.193V420.24C363.617 420.26 361.029 420.498 358.432 420.498C355.423 420.498 352.506 420.26 349.545 420.24V421.633H350.702C352.72 421.651 356.684 422.532 356.684 428.081L356.59 452.83L356.472 452.957L356.266 453.172L327.138 420.24C325.19 420.24 323.291 420.498 321.314 420.498C318.886 420.498 316.439 420.26 314.061 420.24V421.633H314.634C317.716 421.651 320.865 423.972 320.865 427.807V455.374C320.865 460.627 319.386 463.972 314.692 463.99L314.061 463.985V465.375C316.888 465.356 319.804 465.114 322.677 465.114C325.422 465.114 328.143 465.356 330.85 465.375V463.99H330.019C324.868 463.985 323.583 461.735 323.568 456.033V428.332L357.585 466.346ZM356.11 452.625V452.608L356.062 452.558L356.11 452.625Z" fill="#1A1919"/>
<path fill-rule="evenodd" clip-rule="evenodd" d="M377.014 456.298C376.355 458.516 375.564 460.236 375.564 461.399C375.564 463.368 378.323 463.693 380.476 463.693H381.207V465.658C378.578 465.517 375.906 465.406 373.272 465.406C370.915 465.406 368.571 465.517 366.207 465.658V463.693H366.606C369.153 463.693 371.322 462.184 372.293 459.433L382.768 429.393C383.624 426.964 384.803 423.693 385.202 421.265C387.283 420.548 389.913 419.247 391.152 418.451C391.355 418.385 391.476 418.317 391.675 418.317C391.873 418.317 391.995 418.317 392.138 418.523C392.331 419.042 392.522 419.632 392.726 420.155L404.777 454.4C405.563 456.684 406.341 459.106 407.178 461.082C407.977 462.917 409.352 463.693 411.52 463.693H411.912V465.658C408.963 465.517 406.008 465.406 402.882 465.406C399.672 465.406 396.388 465.517 393.05 465.658V463.693H393.771C395.268 463.693 397.837 463.433 397.837 461.795C397.837 460.949 397.246 459.181 396.515 457.076L393.964 449.486H379.105L377.014 456.298ZM386.573 427.294H386.436L380.352 445.824H392.584L386.573 427.294Z" fill="#1A1919"/>
<path fill-rule="evenodd" clip-rule="evenodd" d="M411.894 465.938C408.952 465.813 406 465.666 402.883 465.666C399.673 465.666 396.407 465.813 393.066 465.938L392.764 465.953V463.396H393.773C395.29 463.396 397.54 463.057 397.545 461.795C397.56 461.048 396.973 459.255 396.251 457.172L393.759 449.766H379.317L377.282 456.382C376.622 458.608 375.826 460.338 375.839 461.403C375.861 463.001 378.305 463.396 380.478 463.396H381.484V465.953L381.186 465.938C378.57 465.813 375.898 465.666 373.279 465.666C370.942 465.666 368.575 465.813 366.231 465.938L365.926 465.953V463.396H366.606C369.039 463.39 371.071 462 372.017 459.341L382.502 429.291C383.348 426.868 384.537 423.611 385.102 420.995C387.156 420.298 389.791 418.977 391.047 418.186C391.231 418.121 391.411 418.037 391.675 418.037C391.835 418.028 392.188 418.07 392.4 418.413C392.586 418.95 392.795 419.537 392.992 420.065L405.046 454.306C405.817 456.599 406.6 459.017 407.458 460.957C408.215 462.702 409.418 463.39 411.522 463.396H412.184V465.953L411.894 465.938ZM393.337 465.356C396.575 465.241 399.756 465.116 402.883 465.116C405.919 465.116 408.774 465.241 411.618 465.356V463.985H411.522C409.276 464 407.733 463.119 406.93 461.188C406.077 459.21 405.282 456.779 404.509 454.487L392.455 420.243C392.257 419.72 392.071 419.135 391.9 418.67C391.835 418.606 391.85 418.606 391.798 418.606H391.675C391.542 418.606 391.464 418.646 391.295 418.687C390.036 419.505 387.411 420.796 385.464 421.306C385.065 423.788 383.886 427.058 383.035 429.484L372.56 459.527C371.564 462.372 369.262 463.99 366.606 463.985H366.495V465.356C368.741 465.241 371.006 465.116 373.279 465.116C375.811 465.116 378.393 465.241 380.9 465.356V463.985H380.478C378.34 463.956 375.36 463.723 375.286 461.403C375.291 460.105 376.094 458.429 376.735 456.217L378.891 449.212H394.157L396.78 456.988C397.515 459.094 398.111 460.839 398.111 461.795C398.013 463.8 395.258 463.948 393.773 463.985H393.337V465.356ZM379.955 446.105L386.222 427.004H386.574H386.77L392.992 446.105H379.955ZM380.738 445.532H392.199L386.502 427.99L380.738 445.532Z" fill="#1A1919"/>
<path fill-rule="evenodd" clip-rule="evenodd" d="M414.789 423.232C409.878 423.232 409.681 424.417 408.695 429.189H406.727C406.984 427.356 407.32 425.525 407.522 423.627C407.778 421.785 407.905 419.959 407.905 418.065H409.488C410.001 420.031 411.641 419.959 413.408 419.959H447.196C448.954 419.959 450.59 419.894 450.72 417.929L452.285 418.196C452.042 419.959 451.782 421.729 451.576 423.5C451.433 425.267 451.433 427.029 451.433 428.796L449.477 429.525C449.361 427.105 449.031 423.232 444.636 423.232H433.9V458.062C433.9 463.114 436.194 463.691 439.332 463.691H440.583V465.658C438.026 465.658 433.451 465.406 429.907 465.406C425.987 465.406 421.393 465.658 418.84 465.658V463.691H420.087C423.695 463.691 425.521 463.369 425.521 458.199V423.232H414.789Z" fill="#1A1919"/>
<path fill-rule="evenodd" clip-rule="evenodd" d="M440.586 465.938C438.014 465.938 433.423 465.679 429.905 465.679C425.994 465.679 421.409 465.938 418.844 465.938H418.554V463.409H420.088C423.699 463.325 425.146 463.278 425.233 458.199L425.229 423.514H414.79V422.94H425.805V458.199C425.805 463.456 423.684 463.974 420.088 463.987H419.124V465.378C421.712 465.356 426.11 465.116 429.905 465.116C433.327 465.116 437.709 465.356 440.292 465.378V463.987H439.331C436.176 463.974 433.626 463.216 433.622 458.064V422.94H444.637C449.036 422.958 449.608 426.69 449.735 429.126L451.157 428.603C451.157 426.893 451.167 425.181 451.301 423.468C451.477 421.781 451.725 420.105 451.963 418.435L450.974 418.261C450.674 420.167 448.825 420.274 447.197 420.245H413.076C411.531 420.261 409.86 420.173 409.266 418.341H408.196C408.181 420.152 408.052 421.912 407.794 423.657C407.616 425.462 407.301 427.195 407.051 428.918H408.459C409.318 424.351 409.885 422.868 414.79 422.94V423.514C409.935 423.598 410.043 424.42 408.974 429.257L408.927 429.48H406.398L406.438 429.156C406.714 427.315 407.036 425.475 407.227 423.589C407.495 421.758 407.616 419.943 407.616 418.065V417.776H409.695L409.75 417.981C410.208 419.632 411.4 419.645 413.076 419.674H447.197C449.008 419.645 450.329 419.62 450.445 417.912L450.456 417.598L450.761 417.657L452.619 417.949L452.575 418.239C452.305 419.996 452.056 421.758 451.859 423.514C451.725 425.268 451.725 427.029 451.725 428.796V428.995L451.534 429.071L449.216 429.919L449.207 429.54C449.036 427.076 448.775 423.514 444.637 423.514H434.185V458.064C434.251 463 436.211 463.347 439.331 463.409H440.858V465.938H440.586Z" fill="#1A1919"/>
<path fill-rule="evenodd" clip-rule="evenodd" d="M454.711 463.691H455.628C457.987 463.691 460.465 463.37 460.465 459.961V425.663C460.465 422.251 457.987 421.927 455.628 421.927H454.711V419.96C457.265 419.96 461.187 420.219 464.391 420.219C467.672 420.219 471.602 419.96 474.685 419.96V421.927H473.766C471.399 421.927 468.911 422.251 468.911 425.663V459.961C468.911 463.37 471.399 463.691 473.766 463.691H474.685V465.659C471.54 465.659 467.608 465.407 464.339 465.407C461.125 465.407 457.265 465.659 454.711 465.659V463.691Z" fill="#1A1919"/>
<path fill-rule="evenodd" clip-rule="evenodd" d="M474.685 465.938C471.519 465.938 467.605 465.665 464.339 465.665C461.133 465.665 457.268 465.938 454.71 465.938H454.43V463.408H455.63C457.988 463.368 460.165 463.16 460.18 459.96V425.663C460.165 422.463 457.988 422.251 455.63 422.208H454.43V419.673H454.71C457.268 419.673 461.206 419.928 464.39 419.928C467.653 419.928 471.581 419.673 474.685 419.673H474.957V422.208H473.768C471.37 422.251 469.217 422.463 469.195 425.663V459.96C469.217 463.16 471.37 463.368 473.768 463.408H474.957V465.938H474.685ZM474.387 465.372V463.985H473.768C471.419 463.985 468.641 463.574 468.641 459.96V425.663C468.641 422.042 471.419 421.638 473.768 421.633H474.387V420.24C471.369 420.26 467.577 420.498 464.39 420.498C461.282 420.498 457.536 420.26 454.995 420.24V421.633H455.63C457.954 421.638 460.744 422.042 460.752 425.663V459.96C460.744 463.574 457.954 463.985 455.63 463.985H454.995V465.372C457.518 465.343 461.22 465.114 464.339 465.114C467.512 465.114 471.299 465.356 474.387 465.372Z" fill="#1A1919"/>
<path fill-rule="evenodd" clip-rule="evenodd" d="M500.791 418.978C514.748 418.978 525.872 427.629 525.872 441.573C525.872 456.633 515.067 466.642 501.128 466.642C487.242 466.642 476.641 457.213 476.641 443.135C476.641 429.524 487.179 418.978 500.791 418.978ZM501.78 463.76C514.485 463.76 516.7 452.557 516.7 443.011C516.7 433.442 511.541 421.859 500.667 421.859C489.213 421.859 485.805 432.074 485.805 440.84C485.805 452.557 491.177 463.76 501.78 463.76Z" fill="#1A1919"/>
<path fill-rule="evenodd" clip-rule="evenodd" d="M476.348 443.135C476.375 429.366 487.033 418.715 500.786 418.693V419.266C487.328 419.266 476.917 429.669 476.902 443.135C476.93 457.055 487.378 466.343 501.128 466.347C514.927 466.343 525.577 456.477 525.593 441.564C525.581 427.793 514.632 419.278 500.786 419.266V418.693C514.843 418.707 526.126 427.444 526.15 441.564C526.137 456.78 515.203 466.893 501.128 466.918C487.124 466.893 476.375 457.369 476.348 443.135ZM485.516 440.84C485.537 432.03 488.974 421.568 500.664 421.568C511.781 421.593 516.964 433.391 516.986 443.011C516.964 452.557 514.719 464.029 501.781 464.029V463.473C514.229 463.463 516.392 452.557 516.411 443.011C516.411 433.526 511.305 422.162 500.664 422.144C489.432 422.157 486.113 432.12 486.084 440.84C486.088 452.502 491.413 463.456 501.781 463.473V464.029C490.915 464.019 485.537 452.626 485.516 440.84Z" fill="#1A1919"/>
<path fill-rule="evenodd" clip-rule="evenodd" d="M569.987 452.756L570.124 452.626V428.083C570.124 422.71 566.379 421.924 564.416 421.924H562.991V419.96C566.059 419.96 569.078 420.219 572.146 420.219C574.837 420.219 577.521 419.96 580.208 419.96V421.924H579.223C576.48 421.924 573.39 422.447 573.39 430.239V460.026C573.39 462.321 573.459 464.611 573.791 466.643H571.3L537.577 429.057V456.036C537.577 461.737 538.696 463.691 543.726 463.691H544.849V465.659C542.031 465.659 539.222 465.404 536.406 465.404C533.456 465.404 530.444 465.659 527.496 465.659V463.691H528.416C532.942 463.691 534.307 460.614 534.307 455.392V427.808C534.307 424.145 531.306 421.924 528.344 421.924H527.496V419.96C529.984 419.96 532.535 420.219 535.029 420.219C536.989 420.219 538.877 419.96 540.849 419.96L569.987 452.756Z" fill="#1A1919"/>
<path fill-rule="evenodd" clip-rule="evenodd" d="M573.795 466.917L571.086 466.825L537.861 429.798V456.034C537.939 461.735 538.803 463.338 543.719 463.396H545.13V465.938H544.852C542.017 465.938 539.208 465.676 536.406 465.676C533.472 465.676 530.459 465.938 527.49 465.938H527.223V463.396H528.414C532.729 463.383 533.973 460.602 534.025 455.389V427.807C534.023 424.317 531.161 422.208 528.348 422.208H527.223V419.673H527.49C530.001 419.673 532.554 419.928 535.027 419.928C536.969 419.928 538.85 419.673 541.071 419.775L569.836 452.161V428.081C569.814 422.883 566.328 422.251 564.417 422.208H562.693V419.673H562.992C566.068 419.673 569.089 419.928 572.14 419.928C574.819 419.928 577.49 419.673 580.21 419.673H580.486V422.208H579.221C576.523 422.277 573.737 422.525 573.683 430.237V460.025C573.683 462.317 573.736 464.603 574.053 466.594L574.11 466.917H573.795ZM571.301 466.346H573.447C573.17 464.376 573.105 462.203 573.105 460.025V430.237C573.105 422.367 576.412 421.651 579.221 421.633H579.93V420.24C577.332 420.26 574.756 420.498 572.14 420.498C569.158 420.498 566.231 420.26 563.267 420.24V421.633H564.417C566.439 421.651 570.392 422.545 570.392 428.081L570.323 452.83L570.196 452.957L569.988 453.172L540.853 420.24C538.915 420.24 537.009 420.498 535.027 420.498C532.613 420.498 530.154 420.26 527.773 420.24V421.633H528.348C531.425 421.651 534.588 423.972 534.588 427.807V455.389C534.588 460.627 533.126 463.972 528.414 463.99L527.773 463.985V465.375C530.616 465.356 533.529 465.114 536.406 465.114C539.137 465.114 541.852 465.356 544.565 465.375V463.99H543.719C538.583 463.985 537.294 461.735 537.294 456.034V428.321L571.301 466.346ZM569.836 452.625V452.608L569.785 452.558L569.836 452.625Z" fill="#1A1919"/>
<path fill-rule="evenodd" clip-rule="evenodd" d="M590.722 456.298C590.081 458.516 589.291 460.236 589.291 461.399C589.291 463.368 592.048 463.693 594.194 463.693H594.925V465.658C592.303 465.517 589.617 465.406 586.995 465.406C584.638 465.406 582.285 465.517 579.938 465.658V463.693H580.31C582.877 463.693 585.045 462.184 586.002 459.433L596.499 429.393C597.344 426.964 598.529 423.693 598.906 421.265C601.009 420.548 603.622 419.247 604.882 418.451C605.066 418.385 605.198 418.317 605.401 418.317C605.591 418.317 605.715 418.317 605.849 418.523C606.048 419.042 606.244 419.632 606.441 420.155L618.488 454.4C619.269 456.684 620.059 459.106 620.914 461.082C621.7 462.917 623.073 463.693 625.231 463.693H625.635V465.658C622.684 465.517 619.735 465.406 616.59 465.406C613.389 465.406 610.11 465.517 606.766 465.658V463.693H607.492C608.989 463.693 611.557 463.433 611.557 461.795C611.557 460.949 610.969 459.181 610.238 457.076L607.685 449.486H592.827L590.722 456.298ZM600.296 427.294H600.165L594.06 445.824H606.322L600.296 427.294Z" fill="#1A1919"/>
<path fill-rule="evenodd" clip-rule="evenodd" d="M625.608 465.938C622.658 465.821 619.718 465.674 616.596 465.674C613.401 465.674 610.12 465.821 606.784 465.938L606.495 465.953V463.408H607.491C609.012 463.408 611.267 463.055 611.27 461.794C611.287 461.048 610.695 459.262 609.958 457.172L607.476 449.765H593.023L591.001 456.382C590.342 458.625 589.568 460.336 589.576 461.397C589.576 463.001 592.031 463.408 594.196 463.408H595.197V465.953L594.902 465.938C592.287 465.821 589.605 465.674 586.998 465.674C584.652 465.674 582.303 465.821 579.94 465.938L579.656 465.953V463.408H580.313C582.754 463.396 584.796 461.997 585.754 459.341L596.225 429.291C597.065 426.867 598.247 423.611 598.822 421.004C600.878 420.29 603.509 418.976 604.782 418.186C604.95 418.121 605.133 418.043 605.401 418.043C605.571 418.027 605.914 418.069 606.116 418.426C606.314 418.942 606.507 419.536 606.72 420.065L618.758 454.305C619.547 456.597 620.328 459.016 621.178 460.97C621.949 462.701 623.133 463.39 625.227 463.408H625.903V465.953L625.608 465.938ZM607.049 465.36C610.288 465.241 613.473 465.114 616.596 465.114C619.638 465.114 622.487 465.241 625.343 465.356L625.336 463.985H625.227C623.009 463.99 621.464 463.117 620.648 461.187C619.784 459.21 619.007 456.778 618.222 454.494L606.175 420.243C605.982 419.72 605.773 419.135 605.62 418.681C605.565 418.605 605.571 418.605 605.531 418.605H605.401C605.26 418.605 605.189 418.65 605.033 418.694C603.751 419.495 601.132 420.808 599.198 421.306C598.793 423.786 597.602 427.052 596.76 429.484L586.276 459.527C585.278 462.372 582.991 463.99 580.313 463.985H580.216V465.356C582.471 465.241 584.721 465.114 586.998 465.114C589.533 465.114 592.124 465.241 594.638 465.356V463.985H594.196C592.067 463.956 589.082 463.73 588.998 461.397C589.016 460.105 589.822 458.434 590.463 456.216L592.616 449.212H607.877L610.507 456.986C611.227 459.094 611.825 460.837 611.825 461.794C611.731 463.799 608.978 463.947 607.491 463.985H607.049V465.36ZM593.673 446.102L599.96 427.003H600.299H600.498L606.688 446.102H593.673ZM594.463 445.532H605.917L600.222 428L594.463 445.532Z" fill="#1A1919"/>
<path fill-rule="evenodd" clip-rule="evenodd" d="M642.126 459.239C642.126 461.87 643.946 462.645 646.046 462.919C648.726 463.114 651.675 463.114 654.696 462.779C657.442 462.45 659.798 460.888 660.973 459.239C662.013 457.801 662.604 455.967 663.005 454.53H664.899C664.178 458.262 663.263 461.932 662.477 465.659C656.728 465.659 650.949 465.407 645.197 465.407C639.43 465.407 633.674 465.659 627.914 465.659V463.691H628.822C631.183 463.691 633.746 463.37 633.746 459.31V425.663C633.746 422.251 631.183 421.924 628.822 421.924H627.914V419.96C631.379 419.96 634.789 420.219 638.253 420.219C641.598 420.219 644.864 419.96 648.213 419.96V421.924H646.568C644.08 421.924 642.126 421.994 642.126 425.463V459.239Z" fill="#1A1919"/>
<path fill-rule="evenodd" clip-rule="evenodd" d="M662.479 465.938C656.705 465.938 650.938 465.676 645.196 465.676C639.436 465.676 633.675 465.938 627.901 465.938H627.625V463.408H628.82C631.186 463.35 633.435 463.185 633.462 459.309V425.651C633.435 422.463 631.196 422.251 628.82 422.208H627.625V419.673H627.901C631.388 419.673 634.795 419.928 638.247 419.928C641.581 419.928 644.842 419.673 648.211 419.673H648.475V422.208H646.566C644.026 422.273 642.45 422.158 642.393 425.462V459.237C642.41 461.685 644.014 462.339 646.061 462.631C647.213 462.711 648.432 462.753 649.691 462.753C651.293 462.753 652.955 462.678 654.647 462.5C657.315 462.183 659.608 460.641 660.741 459.081C661.752 457.68 662.323 455.887 662.719 454.462L662.774 454.245H665.242L665.185 454.59C664.444 458.332 663.542 461.985 662.749 465.717L662.697 465.938H662.479ZM662.239 465.372C662.996 461.816 663.851 458.339 664.56 454.808H663.21C662.808 456.233 662.224 457.99 661.197 459.415C659.973 461.11 657.549 462.711 654.709 463.063C652.997 463.237 651.294 463.325 649.691 463.325C648.422 463.325 647.199 463.269 646.006 463.185C643.877 462.951 641.818 462.037 641.821 459.237V425.462C641.821 421.822 644.123 421.633 646.566 421.633H647.915V420.24C644.69 420.26 641.506 420.506 638.247 420.506C634.865 420.506 631.546 420.26 628.196 420.24V421.633H628.82C631.155 421.633 634.013 422.042 634.013 425.651V459.309C634.013 463.546 631.167 463.985 628.82 463.985H628.196V465.372C633.851 465.36 639.511 465.114 645.196 465.114C650.888 465.114 656.571 465.36 662.239 465.372Z" fill="#1A1919"/>
<path fill-rule="evenodd" clip-rule="evenodd" d="M255.188 188.828C255.188 127.589 304.83 77.9473 366.065 77.9473C427.303 77.9473 476.946 127.589 476.946 188.828C476.946 250.065 427.303 299.711 366.065 299.711C304.83 299.711 255.188 250.065 255.188 188.828Z" fill="#FFFFFE"/>
<path fill-rule="evenodd" clip-rule="evenodd" d="M433.124 186.644C433.078 158.25 415.331 134.033 390.321 124.443V248.841C415.331 239.239 433.078 215.044 433.124 186.644ZM342.611 248.817V124.455C317.623 134.076 299.902 158.258 299.835 186.644C299.902 215.025 317.623 239.204 342.611 248.817ZM366.478 81.4988C308.409 81.5211 261.364 128.577 261.354 186.644C261.364 244.706 308.409 291.753 366.478 291.763C424.546 291.753 471.602 244.706 471.616 186.644C471.602 128.577 424.546 81.5211 366.478 81.4988ZM366.22 301.686C302.678 301.989 250.379 250.509 250.379 187.844C250.379 119.358 302.678 71.9876 366.22 72H395.998C458.79 71.9876 516.098 119.335 516.098 187.844C516.098 250.487 458.79 301.686 395.998 301.686H366.22Z" fill="#0069AA"/>
<path fill-rule="evenodd" clip-rule="evenodd" d="M102.285 463.691H103.205C105.559 463.691 108.047 463.37 108.047 459.961V425.663C108.047 422.251 105.559 421.927 103.205 421.927H102.285V419.96C104.838 419.96 108.766 420.219 111.982 420.219C115.253 420.219 119.176 419.96 122.254 419.96V421.927H121.33C118.986 421.927 116.492 422.251 116.492 425.663V459.961C116.492 463.37 118.986 463.691 121.33 463.691H122.254V465.659C119.114 465.659 115.177 465.407 111.915 465.407C108.701 465.407 104.838 465.659 102.285 465.659V463.691Z" fill="#1A1919"/>
<path fill-rule="evenodd" clip-rule="evenodd" d="M122.254 465.938C119.087 465.938 115.169 465.676 111.91 465.676C108.706 465.676 104.855 465.938 102.285 465.938H102V463.408H103.199C105.576 463.35 107.737 463.16 107.757 459.96V425.663C107.737 422.458 105.576 422.251 103.199 422.208H102V419.673H102.285C104.855 419.673 108.78 419.928 111.982 419.928C115.238 419.928 119.159 419.673 122.254 419.673H122.546V422.208H121.342C118.963 422.251 116.79 422.458 116.777 425.663V459.96C116.79 463.16 118.963 463.35 121.342 463.408H122.546V465.938H122.254ZM121.971 465.378L121.974 463.985H121.342C119 463.985 116.217 463.574 116.202 459.96V425.663C116.217 422.042 119 421.638 121.342 421.638H121.971V420.24C118.951 420.243 115.157 420.506 111.982 420.506C108.872 420.506 105.108 420.26 102.572 420.24V421.638H103.199C105.534 421.638 108.322 422.042 108.322 425.663V459.96C108.322 463.574 105.534 463.985 103.199 463.985H102.572V465.378C105.108 465.356 108.805 465.114 111.91 465.114C115.1 465.114 118.884 465.36 121.971 465.378Z" fill="#1A1919"/>
<path fill-rule="evenodd" clip-rule="evenodd" d="M664.102 418.103C668.052 418.103 670.999 421.136 670.999 425.012C670.999 428.885 668.052 431.886 664.102 431.886C660.161 431.886 657.211 428.885 657.211 425.012C657.211 421.136 660.161 418.103 664.102 418.103ZM664.102 430.605C667.194 430.605 669.557 427.976 669.557 425.012C669.557 422.043 667.222 419.394 664.102 419.394C661 419.394 658.64 422.043 658.64 425.012C658.64 427.976 661 430.605 664.102 430.605ZM660.674 428.647V428.312C661.517 428.191 661.676 428.213 661.676 427.698V422.588C661.676 421.869 661.604 421.621 660.702 421.661V421.309H664.232C665.443 421.309 666.56 421.889 666.56 423.143C666.56 424.167 665.887 424.927 664.93 425.223L666.065 426.803C666.593 427.518 667.194 428.191 667.582 428.429V428.647H666.241C665.597 428.647 665.026 427.294 663.763 425.478H663V427.762C663 428.213 663.159 428.191 664.005 428.312V428.647H660.674ZM663 425.012H663.812C664.702 425.012 665.113 424.34 665.113 423.253C665.113 422.156 664.479 421.767 663.768 421.767H663V425.012Z" fill="#1A1919"/>
</g>
<defs>
<clipPath id="clip0_6969_102">
<rect width="772" height="538" rx="20" fill="white"/>
</clipPath>
</defs>
</svg>
