<svg width="772" height="538" viewBox="0 0 772 538" fill="none" xmlns="http://www.w3.org/2000/svg">
<g clip-path="url(#clip0_6969_186)">
<path d="M724.596 0H47.4035C21.2233 0 0 21.6166 0 48.2821V489.718C0 516.383 21.2233 538 47.4035 538H724.596C750.777 538 772 516.383 772 489.718V48.2821C772 21.6166 750.777 0 724.596 0Z" fill="white"/>
<path fill-rule="evenodd" clip-rule="evenodd" d="M522.37 277.432H522.705H523.355H524.005H524.654H525.304H525.954H526.603H527.253H527.903H528.552H529.202H529.852H530.501H531.151H531.8H532.45H533.1H533.749H534.399H535.049H535.698H536.348H536.996H537.647H538.297H538.945H539.596H540.245H540.894H541.545H542.194H542.845H543.493H544.143H544.794H545.442H546.092H546.741H547.391H548.041H548.69H549.34H549.989H550.639H551.289H551.938H552.588H553.238H553.887H554.537H555.187H555.836H556.486H557.136H557.785H558.435H559.085H559.734H560.384H561.034H561.574L561.683 277.434C561.883 277.44 562.103 277.448 562.333 277.461C562.541 277.472 562.759 277.487 562.983 277.503C563.196 277.519 563.414 277.537 563.632 277.556C563.85 277.577 564.068 277.599 564.282 277.622C564.505 277.646 564.723 277.672 564.93 277.701C565.163 277.731 565.383 277.763 565.581 277.797C565.723 277.821 565.856 277.846 565.973 277.87L566.231 277.928C566.447 277.978 566.664 278.033 566.879 278.092C567.097 278.152 567.314 278.215 567.53 278.283C567.748 278.352 567.965 278.425 568.178 278.503C568.398 278.582 568.614 278.665 568.828 278.752C569.047 278.84 569.264 278.934 569.479 279.03C569.697 279.13 569.914 279.233 570.127 279.342C570.347 279.451 570.563 279.567 570.777 279.687C570.996 279.808 571.213 279.937 571.427 280.069C571.646 280.204 571.864 280.345 572.076 280.49C572.297 280.639 572.514 280.793 572.726 280.952C572.947 281.117 573.163 281.287 573.376 281.463C573.596 281.646 573.813 281.834 574.025 282.028C574.247 282.23 574.464 282.437 574.675 282.651C574.898 282.876 575.115 283.108 575.325 283.346C575.548 283.599 575.765 283.858 575.974 284.124C576.201 284.411 576.417 284.706 576.624 285.008C576.852 285.339 577.068 285.679 577.274 286.028C577.505 286.421 577.722 286.826 577.923 287.241C578.162 287.734 578.38 288.241 578.573 288.763C578.834 289.465 579.052 290.192 579.223 290.942C579.521 292.243 579.681 293.612 579.681 295.043C579.681 296.48 579.521 297.857 579.223 299.161C579.052 299.914 578.834 300.643 578.573 301.346C578.38 301.869 578.162 302.377 577.923 302.872C577.722 303.287 577.505 303.692 577.274 304.086C577.068 304.436 576.852 304.775 576.624 305.106C576.417 305.408 576.199 305.703 575.974 305.99C575.765 306.257 575.548 306.516 575.325 306.768C575.115 307.006 574.898 307.239 574.675 307.463C574.464 307.676 574.247 307.883 574.025 308.086C573.813 308.279 573.596 308.465 573.376 308.647C573.163 308.822 572.947 308.993 572.726 309.157C572.514 309.316 572.297 309.469 572.076 309.618C571.864 309.763 571.646 309.902 571.427 310.037C571.213 310.168 570.996 310.295 570.777 310.418C570.563 310.537 570.347 310.651 570.127 310.76C569.914 310.868 569.697 310.971 569.479 311.069C569.264 311.166 569.047 311.258 568.828 311.346C568.614 311.432 568.398 311.514 568.178 311.593C567.965 311.669 567.748 311.741 567.53 311.808C567.314 311.876 567.097 311.938 566.879 311.997C566.664 312.055 566.447 312.109 566.231 312.159L565.973 312.215C565.856 312.243 565.723 312.269 565.581 312.294C565.383 312.328 565.163 312.361 564.93 312.393C564.723 312.421 564.505 312.448 564.282 312.472C564.068 312.495 563.85 312.517 563.632 312.537C563.414 312.556 563.196 312.574 562.983 312.589C562.759 312.604 562.541 312.618 562.333 312.629C562.103 312.641 561.883 312.65 561.683 312.654L561.334 312.659H561.034H560.384H559.734H559.085H558.435H557.785H557.136H556.486H555.836H555.187H554.537H553.887H553.238H552.588H551.938H551.289H550.639H549.989H549.34H548.69H548.041H547.391H546.741H546.092H545.442H544.794H544.143H543.493H542.845H542.194H541.545H540.894H540.245H539.596H538.945H538.297H537.647H536.996H536.348H535.698H535.049H534.399H533.749H533.1H532.45H531.8H531.151H530.501H529.852H529.202H528.552H527.903H527.253H526.603H525.954H525.304H524.654H524.005H523.355H522.705H522.37V277.432ZM574.678 237.563C574.938 238.745 575.079 239.997 575.079 241.316C575.079 242.633 574.938 243.884 574.678 245.066C574.509 245.825 574.292 246.554 574.028 247.255C573.835 247.766 573.618 248.259 573.378 248.737C573.177 249.137 572.96 249.524 572.729 249.901C572.523 250.233 572.307 250.556 572.079 250.868C571.871 251.153 571.654 251.43 571.429 251.699C571.22 251.949 571.005 252.192 570.78 252.426C570.569 252.648 570.354 252.862 570.13 253.07C569.919 253.268 569.703 253.459 569.48 253.644C569.268 253.822 569.052 253.993 568.831 254.16C568.618 254.32 568.402 254.474 568.181 254.623C567.969 254.768 567.751 254.908 567.532 255.041C567.318 255.171 567.101 255.297 566.882 255.417C566.668 255.535 566.452 255.648 566.232 255.756C566.018 255.862 565.802 255.963 565.583 256.059C565.369 256.153 565.152 256.244 564.933 256.328C564.719 256.412 564.503 256.492 564.285 256.568C564.069 256.641 563.853 256.712 563.635 256.777C563.42 256.841 563.203 256.902 562.985 256.959C562.77 257.014 562.554 257.066 562.336 257.113C562.121 257.16 561.904 257.201 561.686 257.24L561.527 257.268C561.402 257.29 561.234 257.314 561.036 257.339C560.845 257.363 560.624 257.388 560.387 257.411C560.181 257.433 559.962 257.452 559.737 257.472C559.525 257.49 559.305 257.505 559.087 257.519C558.869 257.532 558.65 257.543 558.438 257.553C558.213 257.561 557.994 257.568 557.788 257.568L557.685 257.57H557.138H556.489H555.839H555.189H554.54H553.89H553.241H552.592H551.941H551.292H550.643H549.992H549.344H548.694H548.043H547.395H546.745H546.096H545.446H544.796H544.147H543.497H542.847H542.198H541.548H540.898H540.249H539.599H538.949H538.3H537.65H537.001H536.351H535.703H535.053H534.402H533.754H533.104H532.454H531.805H531.155H530.505H529.856H529.206H528.556H527.907H527.257H526.607H525.958H525.308H524.658H524.009H523.359H522.709H522.37V225.062H522.709H523.359H524.009H524.658H525.308H525.958H526.607H527.257H527.907H528.556H529.206H529.856H530.505H531.155H531.805H532.454H533.104H533.754H534.402H535.053H535.703H536.351H537.001H537.65H538.3H538.949H539.599H540.249H540.898H541.548H542.198H542.847H543.497H544.147H544.796H545.446H546.096H546.745H547.395H548.043H548.694H549.344H549.992H550.643H551.292H551.941H552.592H553.241H553.89H554.54H555.189H555.839H556.489H557.138H557.788H558.061L558.438 225.074C558.65 225.083 558.869 225.095 559.087 225.109C559.305 225.123 559.525 225.139 559.737 225.156C559.962 225.175 560.181 225.194 560.387 225.215C560.624 225.237 560.845 225.261 561.036 225.283C561.234 225.305 561.402 225.327 561.527 225.343L561.686 225.372C561.904 225.411 562.121 225.455 562.336 225.502C562.554 225.549 562.77 225.601 562.985 225.658C563.203 225.714 563.42 225.775 563.635 225.84C563.853 225.906 564.069 225.977 564.285 226.051C564.503 226.127 564.719 226.207 564.933 226.291C565.152 226.378 565.369 226.469 565.583 226.563C565.802 226.661 566.018 226.761 566.232 226.866C566.452 226.975 566.668 227.088 566.882 227.206C567.101 227.327 567.318 227.452 567.532 227.582C567.751 227.717 567.969 227.855 568.181 228C568.402 228.149 568.618 228.305 568.831 228.466C569.052 228.632 569.268 228.803 569.48 228.981C569.703 229.167 569.919 229.359 570.13 229.556C570.354 229.764 570.569 229.978 570.78 230.199C571.005 230.434 571.22 230.677 571.429 230.927C571.654 231.196 571.871 231.473 572.079 231.759C572.307 232.072 572.523 232.393 572.729 232.726C572.96 233.102 573.177 233.49 573.378 233.89C573.618 234.367 573.835 234.862 574.028 235.372C574.292 236.073 574.509 236.803 574.678 237.563ZM655.239 69H655.505V402.859C655.505 404.854 655.412 406.828 655.239 408.778C655.087 410.494 654.869 412.192 654.589 413.868C654.401 414.994 654.184 416.11 653.94 417.218C653.741 418.117 653.525 419.012 653.29 419.898C653.087 420.663 652.869 421.422 652.641 422.175C652.434 422.857 652.218 423.535 651.991 424.208C651.783 424.818 651.565 425.422 651.341 426.025C651.132 426.585 650.915 427.141 650.692 427.695C650.481 428.214 650.265 428.73 650.042 429.244C649.831 429.73 649.613 430.212 649.392 430.694C649.18 431.15 648.963 431.606 648.743 432.057C648.53 432.49 648.314 432.921 648.093 433.348C647.881 433.757 647.663 434.166 647.443 434.57C647.231 434.96 647.013 435.345 646.794 435.73C646.58 436.102 646.363 436.472 646.144 436.839C645.93 437.197 645.714 437.552 645.493 437.906C645.279 438.25 645.064 438.593 644.843 438.934C644.631 439.263 644.412 439.589 644.194 439.914C643.98 440.23 643.763 440.543 643.544 440.857C643.33 441.164 643.114 441.47 642.894 441.774C642.681 442.069 642.464 442.364 642.245 442.657C642.031 442.942 641.813 443.223 641.595 443.505C641.38 443.782 641.165 444.059 640.945 444.332C640.73 444.601 640.515 444.868 640.296 445.132C640.081 445.392 639.864 445.648 639.646 445.905C639.429 446.157 639.216 446.412 638.996 446.662C638.781 446.906 638.565 447.148 638.347 447.388C638.132 447.626 637.915 447.862 637.697 448.098C637.481 448.33 637.265 448.561 637.047 448.789C636.832 449.014 636.614 449.234 636.398 449.457C636.181 449.676 635.966 449.898 635.747 450.114C635.533 450.327 635.315 450.534 635.097 450.743C634.882 450.952 634.667 451.16 634.447 451.364C634.232 451.566 634.016 451.766 633.798 451.964C633.583 452.161 633.366 452.357 633.148 452.552C632.933 452.743 632.716 452.934 632.498 453.123C632.283 453.309 632.067 453.494 631.849 453.679C631.634 453.861 631.417 454.044 631.199 454.223C630.985 454.401 630.767 454.575 630.549 454.75C630.333 454.924 630.118 455.098 629.9 455.269C629.685 455.437 629.467 455.603 629.25 455.768C629.034 455.934 628.818 456.099 628.601 456.262C628.385 456.422 628.167 456.579 627.951 456.738C627.734 456.895 627.519 457.054 627.301 457.208C627.086 457.361 626.868 457.51 626.652 457.659C626.435 457.81 626.22 457.96 626.002 458.106C625.785 458.252 625.569 458.393 625.352 458.537C625.136 458.679 624.921 458.822 624.703 458.961C624.486 459.099 624.269 459.236 624.053 459.371C623.836 459.506 623.62 459.641 623.402 459.774C623.187 459.905 622.97 460.034 622.754 460.164L622.103 460.546C621.887 460.67 621.671 460.796 621.454 460.919C621.238 461.04 621.021 461.16 620.803 461.279C620.587 461.399 620.372 461.519 620.154 461.634C619.938 461.75 619.722 461.862 619.504 461.975C619.287 462.088 619.072 462.204 618.854 462.316C618.639 462.425 618.421 462.53 618.205 462.636C617.988 462.743 617.773 462.852 617.555 462.956C617.34 463.061 617.122 463.161 616.905 463.263L616.256 463.564L615.606 463.857C615.389 463.952 615.173 464.045 614.956 464.138C614.74 464.232 614.525 464.327 614.307 464.418C614.092 464.508 613.874 464.593 613.657 464.681C613.44 464.768 613.225 464.859 613.007 464.945C612.791 465.029 612.574 465.11 612.358 465.193C612.141 465.276 611.926 465.357 611.708 465.437L611.058 465.676C610.842 465.753 610.624 465.828 610.407 465.902C610.191 465.978 609.977 466.055 609.759 466.128C609.543 466.201 609.325 466.268 609.108 466.338L608.458 466.548C608.243 466.615 608.027 466.68 607.809 466.746L607.159 466.938C606.943 467 606.727 467.065 606.509 467.126C606.294 467.186 606.076 467.243 605.86 467.301C605.643 467.359 605.428 467.419 605.21 467.474L604.56 467.637L603.911 467.794L603.261 467.948C603.046 467.997 602.828 468.041 602.612 468.088C602.395 468.135 602.178 468.185 601.962 468.229L601.312 468.357L600.663 468.481C600.446 468.521 600.229 468.564 600.013 468.603C599.796 468.64 599.58 468.673 599.363 468.709L598.714 468.817L598.064 468.913L597.414 469.003C597.196 469.033 596.981 469.066 596.763 469.094C596.548 469.12 596.33 469.142 596.115 469.167C595.898 469.192 595.682 469.218 595.464 469.241C595.247 469.263 595.032 469.287 594.816 469.308C594.599 469.328 594.381 469.346 594.165 469.366C593.948 469.383 593.732 469.406 593.515 469.422C593.3 469.439 593.082 469.452 592.865 469.468L592.216 469.508C591.999 469.521 591.783 469.537 591.566 469.546C591.351 469.557 591.133 469.563 590.916 469.571L590.267 469.596L589.617 469.612C589.4 469.618 589.184 469.618 588.967 469.621L588.318 469.629L588.184 469.63H587.668H587.018H586.369H585.719H585.068H584.42H583.769H583.119H582.469H581.82H581.17H580.52H579.871H579.221H578.572H577.922H577.272H576.623H575.973H575.323H574.674H574.024H573.374H572.725H572.075H571.424H570.776H570.125H569.475H568.825H568.176H567.526H566.876H566.227H565.577H564.927H564.278H563.628H562.978H562.329H561.679H561.029H560.38H559.729H559.081H558.429H557.781H557.13H556.481H555.831H555.181H554.532H553.882H553.232H552.583H551.933H551.283H550.634H549.984H549.334H548.685H548.035H547.385H546.736H546.086H545.436H544.785H544.136H543.486H542.836H542.187H541.537H540.887H540.238H539.588H538.938H538.289H537.639H536.989H536.34H535.69H535.041H534.389H533.741H533.09H532.442H531.791H531.143H530.492H529.842H529.192H528.543H527.893H527.243H526.594H525.944H525.294H524.645H523.995H523.345H522.696H522.046H521.396H520.747H520.097H519.446H518.796H518.147H517.497H516.847H516.198H515.548H514.898H514.249H513.599H512.949H512.3H511.65H511H510.351H509.701H509.052H508.402H507.751H507.103H506.452H505.803H505.152H504.503H503.853H503.203H502.554H501.904H501.254H500.605H499.955H499.305H498.656H498.006H497.356H496.707H496.057H495.407H494.758H494.108H493.457H492.807H492.158H491.508H490.858H489.457V333.505H490.858H491.508H492.158H492.807H493.457H494.108H494.758H495.407H496.057H496.707H497.356H498.006H498.656H499.305H499.955H500.605H501.254H501.904H502.554H503.203H503.853H504.503H505.152H505.803H506.452H507.103H507.751H508.402H509.052H509.701H510.351H511H511.65H512.3H512.949H513.599H514.249H514.898H515.548H516.198H516.847H517.497H518.147H518.796H519.446H520.097H520.747H521.396H522.046H522.696H523.345H523.995H524.645H525.294H525.944H526.594H527.243H527.893H528.543H529.192H529.842H530.492H531.143H531.791H532.442H533.09H533.741H534.389H535.041H535.69H536.34H536.989H537.639H538.289H538.938H539.588H540.238H540.887H541.537H542.187H542.836H543.486H544.136H544.785H545.436H546.086H546.736H547.385H548.035H548.685H549.334H549.984H550.634H551.283H551.933H552.583H553.232H553.882H554.532H555.181H555.831H556.481H557.13H557.781H558.429H559.081H559.729H560.38H561.029H561.679H562.329H562.978H563.628H564.278H564.927H565.577H566.227H566.876H567.526H568.176H568.825H569.475H570.125H570.776H571.424H572.075H572.725H573.374H574.024H574.674H575.323H575.973H576.623H577.272H577.922H578.572H579.221H579.871H580.52H581.17H581.82H582.469H583.119H583.769H584.42H585.068H585.719H586.369H587.018H587.668H588.318H588.967H589.617H590.267H590.916H591.566H592.216H592.865H593.515H593.86L594.165 333.502L594.816 333.497L595.464 333.483C595.682 333.479 595.898 333.474 596.115 333.468C596.332 333.459 596.547 333.45 596.763 333.44L597.414 333.41L598.064 333.371L598.714 333.327L599.363 333.277L600.013 333.218C600.229 333.197 600.446 333.178 600.663 333.154C600.879 333.132 601.096 333.106 601.312 333.081L601.962 333.003C602.178 332.975 602.395 332.949 602.612 332.919C602.829 332.888 603.045 332.855 603.261 332.823C603.479 332.792 603.696 332.759 603.911 332.724L604.56 332.617L605.21 332.499C605.427 332.459 605.645 332.421 605.86 332.379C606.078 332.337 606.294 332.29 606.509 332.246L607.159 332.106C607.377 332.058 607.594 332.01 607.809 331.96C608.027 331.909 608.243 331.855 608.458 331.801C608.676 331.748 608.893 331.694 609.108 331.637C609.326 331.581 609.543 331.524 609.759 331.465C609.976 331.406 610.192 331.343 610.407 331.28C610.625 331.218 610.842 331.154 611.058 331.09L611.708 330.887C611.926 330.818 612.141 330.746 612.358 330.674C612.574 330.603 612.792 330.53 613.007 330.454C613.225 330.378 613.442 330.302 613.657 330.223C613.875 330.145 614.09 330.061 614.307 329.979C614.525 329.895 614.741 329.811 614.956 329.726C615.174 329.637 615.391 329.552 615.606 329.462C615.824 329.371 616.04 329.277 616.256 329.183C616.474 329.088 616.69 328.992 616.905 328.894C617.123 328.794 617.34 328.694 617.555 328.592C617.773 328.488 617.989 328.385 618.205 328.279C618.424 328.17 618.639 328.061 618.854 327.949C619.072 327.836 619.289 327.72 619.504 327.603C619.723 327.486 619.94 327.366 620.154 327.246C620.373 327.121 620.589 326.997 620.803 326.87C621.021 326.743 621.239 326.614 621.454 326.481C621.672 326.346 621.889 326.21 622.103 326.072C622.322 325.93 622.538 325.788 622.754 325.643C622.972 325.495 623.188 325.346 623.402 325.194C623.621 325.04 623.838 324.884 624.053 324.727C624.272 324.566 624.489 324.401 624.703 324.236C624.921 324.066 625.138 323.895 625.352 323.721C625.572 323.543 625.788 323.364 626.002 323.182C626.221 322.994 626.438 322.804 626.652 322.612C626.871 322.415 627.087 322.215 627.301 322.014C627.521 321.806 627.737 321.594 627.951 321.381C628.172 321.159 628.388 320.937 628.601 320.709C628.821 320.476 629.038 320.237 629.25 319.999C629.471 319.749 629.687 319.495 629.9 319.24C630.122 318.974 630.338 318.703 630.549 318.43C630.772 318.145 630.989 317.857 631.199 317.563C631.423 317.252 631.638 316.935 631.849 316.615C632.072 316.277 632.289 315.934 632.498 315.586C632.725 315.214 632.94 314.834 633.148 314.451C633.374 314.034 633.592 313.612 633.798 313.183C634.028 312.703 634.245 312.217 634.447 311.723C634.682 311.157 634.898 310.583 635.097 309.999C635.343 309.279 635.558 308.545 635.747 307.797C636.024 306.705 636.242 305.583 636.398 304.436C636.585 303.041 636.685 301.61 636.685 300.138C636.685 298.705 636.587 297.313 636.398 295.961C636.242 294.85 636.024 293.767 635.747 292.713C635.558 291.996 635.341 291.291 635.097 290.6C634.898 290.033 634.682 289.474 634.447 288.926C634.245 288.451 634.028 287.983 633.798 287.523C633.592 287.108 633.376 286.699 633.148 286.297C632.94 285.926 632.725 285.56 632.498 285.199C632.29 284.865 632.072 284.534 631.849 284.208C631.638 283.901 631.423 283.594 631.199 283.295C630.989 283.012 630.772 282.734 630.549 282.458C630.338 282.194 630.122 281.934 629.9 281.677C629.687 281.43 629.471 281.185 629.25 280.945C629.038 280.713 628.821 280.484 628.601 280.258C628.388 280.04 628.172 279.825 627.951 279.612C627.737 279.406 627.521 279.203 627.301 279.001C627.087 278.807 626.871 278.615 626.652 278.425C626.438 278.239 626.221 278.055 626.002 277.876C625.788 277.699 625.572 277.526 625.352 277.353C625.137 277.185 624.921 277.019 624.703 276.855C624.487 276.695 624.271 276.538 624.053 276.381C623.838 276.229 623.621 276.077 623.402 275.928C623.188 275.782 622.972 275.637 622.754 275.495C622.538 275.354 622.322 275.217 622.103 275.08C621.889 274.948 621.672 274.815 621.454 274.684C621.239 274.557 621.023 274.43 620.803 274.306C620.589 274.183 620.373 274.063 620.154 273.943C619.94 273.826 619.723 273.71 619.504 273.597C619.289 273.484 619.072 273.374 618.854 273.263C618.639 273.156 618.423 273.048 618.205 272.943C617.989 272.839 617.773 272.737 617.555 272.636C617.34 272.535 617.123 272.439 616.905 272.343C616.69 272.248 616.474 272.154 616.256 272.062C616.04 271.971 615.824 271.881 615.606 271.792C615.389 271.705 615.174 271.617 614.956 271.532C614.741 271.448 614.525 271.366 614.307 271.284C614.092 271.204 613.874 271.127 613.657 271.048C613.442 270.972 613.225 270.897 613.007 270.822C612.791 270.749 612.576 270.676 612.358 270.604C612.141 270.534 611.926 270.465 611.708 270.396C611.493 270.33 611.275 270.263 611.058 270.2L610.407 270.01C610.192 269.949 609.976 269.887 609.759 269.829C609.543 269.771 609.326 269.714 609.108 269.659C608.893 269.603 608.676 269.55 608.458 269.497C608.243 269.444 608.027 269.392 607.809 269.341C607.594 269.291 607.377 269.243 607.159 269.194C606.944 269.148 606.727 269.102 606.509 269.057C606.294 269.012 606.078 268.967 605.86 268.926L605.21 268.801L604.56 268.687C604.345 268.65 604.129 268.612 603.911 268.577L603.261 268.476C603.046 268.443 602.828 268.412 602.612 268.382L601.962 268.295L601.312 268.214L600.663 268.141L600.013 268.073L599.363 268.012L598.714 267.959L598.114 267.913L598.112 267.141L598.714 267.048L599.363 266.942C599.58 266.905 599.798 266.869 600.013 266.829L600.663 266.705C600.88 266.662 601.097 266.618 601.312 266.572L601.962 266.433C602.178 266.383 602.396 266.335 602.612 266.284C602.829 266.232 603.046 266.177 603.261 266.123C603.479 266.068 603.696 266.01 603.911 265.952C604.129 265.892 604.345 265.833 604.56 265.772C604.778 265.71 604.995 265.647 605.21 265.582C605.428 265.517 605.646 265.45 605.86 265.382C606.078 265.312 606.294 265.241 606.509 265.168C606.729 265.095 606.944 265.021 607.159 264.945C607.378 264.868 607.594 264.789 607.809 264.709C608.027 264.628 608.245 264.546 608.458 264.462C608.678 264.377 608.894 264.29 609.108 264.201C609.327 264.112 609.544 264.021 609.759 263.928C609.977 263.834 610.194 263.738 610.407 263.64C610.627 263.541 610.843 263.44 611.058 263.337C611.276 263.233 611.493 263.127 611.708 263.019C611.926 262.91 612.143 262.799 612.358 262.686C612.576 262.571 612.794 262.454 613.007 262.337C613.225 262.215 613.442 262.092 613.657 261.97C613.875 261.843 614.093 261.713 614.307 261.583C614.526 261.451 614.741 261.316 614.956 261.179C615.176 261.04 615.392 260.897 615.606 260.753C615.825 260.607 616.042 260.458 616.256 260.306C616.475 260.152 616.692 259.994 616.905 259.836C617.125 259.673 617.341 259.509 617.555 259.342C617.774 259.17 617.992 258.996 618.205 258.821C618.424 258.639 618.641 258.454 618.854 258.269C619.075 258.076 619.292 257.88 619.504 257.684C619.725 257.48 619.941 257.274 620.154 257.066C620.374 256.85 620.591 256.632 620.803 256.411C621.025 256.181 621.242 255.948 621.454 255.712C621.675 255.466 621.892 255.217 622.103 254.964C622.325 254.701 622.543 254.434 622.754 254.164C622.976 253.88 623.192 253.592 623.402 253.299C623.625 252.99 623.842 252.677 624.053 252.361C624.276 252.023 624.493 251.683 624.703 251.337C624.927 250.963 625.144 250.583 625.352 250.201C625.58 249.779 625.796 249.353 626.002 248.923C626.232 248.437 626.449 247.945 626.652 247.448C626.887 246.869 627.104 246.283 627.301 245.688C627.548 244.941 627.766 244.181 627.951 243.412C628.25 242.164 628.467 240.89 628.601 239.594C628.707 238.572 628.761 237.535 628.761 236.49C628.761 235.383 628.705 234.306 628.601 233.257C628.467 231.913 628.249 230.617 627.951 229.364C627.765 228.582 627.548 227.818 627.301 227.072C627.103 226.476 626.886 225.891 626.652 225.317C626.449 224.822 626.232 224.337 626.002 223.861C625.795 223.436 625.578 223.017 625.352 222.606C625.144 222.229 624.927 221.858 624.703 221.494C624.493 221.154 624.276 220.819 624.053 220.491C623.842 220.182 623.625 219.879 623.402 219.579C623.192 219.297 622.976 219.018 622.754 218.742C622.541 218.48 622.326 218.219 622.103 217.964C621.892 217.72 621.675 217.481 621.454 217.246C621.242 217.018 621.024 216.793 620.803 216.571C620.591 216.357 620.374 216.148 620.154 215.939C619.941 215.738 619.725 215.539 619.504 215.343C619.292 215.154 619.074 214.967 618.854 214.782C618.641 214.601 618.424 214.425 618.205 214.25C617.991 214.08 617.774 213.912 617.555 213.746C617.341 213.586 617.125 213.428 616.905 213.27C616.692 213.117 616.475 212.967 616.256 212.818C616.04 212.672 615.825 212.53 615.606 212.388C615.392 212.248 615.174 212.112 614.956 211.977C614.741 211.846 614.525 211.716 614.307 211.588C614.092 211.461 613.875 211.338 613.657 211.215C613.442 211.095 613.225 210.977 613.007 210.859C612.792 210.745 612.576 210.633 612.358 210.521C612.143 210.411 611.926 210.303 611.708 210.197C611.493 210.092 611.276 209.989 611.058 209.887C610.843 209.788 610.625 209.688 610.407 209.593C610.194 209.498 609.977 209.406 609.759 209.313C609.544 209.222 609.326 209.134 609.108 209.046C608.894 208.959 608.676 208.873 608.458 208.789C608.243 208.706 608.027 208.625 607.809 208.545C607.594 208.465 607.378 208.388 607.159 208.312C606.944 208.236 606.727 208.163 606.509 208.09C606.294 208.018 606.078 207.949 605.86 207.88C605.645 207.811 605.428 207.743 605.21 207.679C604.995 207.614 604.778 207.548 604.56 207.486C604.345 207.423 604.129 207.364 603.911 207.306C603.696 207.247 603.479 207.19 603.261 207.135L602.612 206.971C602.395 206.917 602.18 206.866 601.962 206.815C601.747 206.766 601.53 206.717 601.312 206.67L600.663 206.534C600.446 206.49 600.231 206.444 600.013 206.403C599.798 206.361 599.58 206.323 599.363 206.283L598.714 206.17C598.497 206.134 598.282 206.097 598.064 206.062L597.414 205.964L596.763 205.874L596.115 205.789L595.464 205.712L594.816 205.643L594.165 205.578L593.515 205.521L592.865 205.472L592.216 205.426L591.566 205.389L591.308 205.374L590.916 205.35L590.267 205.313L589.617 205.277L588.967 205.243L588.318 205.212L587.668 205.185L587.018 205.161L586.369 205.141L585.719 205.127L585.068 205.119L584.711 205.117H584.42H583.769H583.119H582.469H581.82H581.17H580.52H579.871H579.221H578.572H577.922H577.272H576.623H575.973H575.323H574.674H574.024H573.374H572.725H572.075H571.424H570.776H570.125H569.475H568.825H568.176H567.526H566.876H566.227H565.577H564.927H564.278H563.628H562.978H562.329H561.679H561.029H560.38H559.729H559.081H558.429H557.781H557.13H556.481H555.831H555.181H554.532H553.882H553.232H552.583H551.933H551.283H550.634H549.984H549.334H548.685H548.035H547.385H546.736H546.086H545.436H544.785H544.136H543.486H542.836H542.187H541.537H540.887H540.238H539.588H538.938H538.289H537.639H536.989H536.34H535.69H535.041H534.389H533.741H533.09H532.442H531.791H531.143H530.492H529.842H529.192H528.543H527.893H527.243H526.594H525.944H525.294H524.645H523.995H523.345H522.696H522.046H521.396H520.747H520.097H519.446H518.796H518.147H517.497H516.847H516.198H515.548H514.898H514.249H513.599H512.949H512.3H511.65H511H510.351H509.701H509.052H508.402H507.751H507.103H506.452H505.803H505.152H504.503H503.853H503.203H502.554H501.904H501.254H500.605H499.955H499.305H498.656H498.006H497.356H496.707H496.057H495.407H494.758H494.108H493.457H492.807H492.158H491.508H490.858H489.457V135.777C489.457 131.113 489.941 126.56 490.858 122.165C491.056 121.224 491.272 120.291 491.508 119.365C491.711 118.573 491.929 117.787 492.158 117.006C492.363 116.309 492.58 115.617 492.807 114.93C493.016 114.302 493.231 113.677 493.457 113.057C493.667 112.482 493.882 111.911 494.108 111.343C494.318 110.813 494.534 110.286 494.758 109.763C494.969 109.27 495.184 108.778 495.407 108.291C495.618 107.827 495.835 107.368 496.057 106.91C496.268 106.474 496.486 106.041 496.707 105.61C496.918 105.195 497.136 104.784 497.356 104.374C497.569 103.979 497.785 103.587 498.006 103.197C498.218 102.819 498.435 102.444 498.656 102.071C498.869 101.709 499.085 101.348 499.305 100.991C499.519 100.644 499.736 100.3 499.955 99.9577C500.167 99.6259 500.385 99.2975 500.605 98.9701C500.818 98.6495 501.035 98.3301 501.254 98.0134C501.469 97.703 501.683 97.3927 501.904 97.0861C502.118 96.7891 502.336 96.4959 502.554 96.2026C502.767 95.9141 502.985 95.6279 503.203 95.3432C503.42 95.0626 503.634 94.7811 503.853 94.5044C504.067 94.2353 504.286 93.9703 504.503 93.7043C504.718 93.4421 504.934 93.1819 505.152 92.9233C505.367 92.668 505.584 92.4127 505.803 92.1606C506.017 91.9149 506.235 91.6734 506.452 91.4309C506.668 91.1906 506.883 90.9497 507.103 90.7124C507.316 90.4801 507.534 90.2499 507.751 90.0203C507.966 89.7938 508.184 89.5688 508.402 89.3451C508.617 89.1244 508.832 88.9039 509.052 88.6859C509.265 88.4717 509.483 88.2607 509.701 88.0497C509.916 87.8397 510.132 87.6277 510.351 87.421C510.565 87.2185 510.783 87.021 511 86.8211C511.216 86.6225 511.432 86.4232 511.65 86.2272C511.865 86.0343 512.083 85.8452 512.3 85.6556C512.515 85.467 512.732 85.2785 512.949 85.0926C513.165 84.9094 513.381 84.7288 513.599 84.5483C513.816 84.3694 514.031 84.1909 514.249 84.0146C514.464 83.84 514.68 83.6674 514.898 83.496L515.548 82.9891L516.198 82.4956C516.414 82.3337 516.631 82.1728 516.847 82.0137C517.064 81.8561 517.279 81.699 517.497 81.5436L518.147 81.0859C518.363 80.9357 518.58 80.7868 518.796 80.6393L519.446 80.2029L520.097 79.7782C520.312 79.6389 520.529 79.5 520.747 79.3632L521.396 78.9604C521.613 78.8274 521.828 78.6945 522.046 78.5641C522.261 78.4349 522.479 78.3094 522.696 78.1828C522.912 78.0561 523.127 77.9284 523.345 77.8046C523.559 77.6822 523.778 77.5641 523.995 77.444C524.212 77.3239 524.427 77.2015 524.645 77.084C524.86 76.968 525.078 76.8559 525.294 76.7421C525.511 76.6283 525.726 76.5141 525.944 76.4023C526.159 76.2919 526.377 76.1844 526.594 76.0766C526.81 75.9691 527.027 75.8612 527.243 75.756L527.893 75.4447C528.109 75.3426 528.326 75.2433 528.543 75.1433C528.759 75.044 528.974 74.943 529.192 74.8458C529.407 74.7497 529.625 74.6578 529.842 74.5639C530.058 74.4698 530.275 74.3742 530.492 74.2823C530.707 74.1914 530.926 74.105 531.143 74.0163C531.358 73.9281 531.574 73.8389 531.791 73.753L532.442 73.4992L533.09 73.2541C533.308 73.1728 533.523 73.0906 533.741 73.012C533.956 72.9341 534.174 72.861 534.389 72.7851C534.607 72.7092 534.823 72.6317 535.041 72.5581C535.256 72.4848 535.474 72.416 535.69 72.345L536.34 72.136C536.556 72.0677 536.772 71.9988 536.989 71.9325C537.205 71.8669 537.423 71.8048 537.639 71.7412C537.856 71.6772 538.071 71.611 538.289 71.5495C538.504 71.4887 538.722 71.432 538.938 71.3732C539.155 71.3145 539.37 71.2552 539.588 71.1986L540.238 71.032C540.454 70.9779 540.671 70.9268 540.887 70.8749C541.104 70.823 541.319 70.7676 541.537 70.7178C541.752 70.6687 541.97 70.6239 542.187 70.5763L542.836 70.4359L543.486 70.3028C543.703 70.2601 543.919 70.22 544.136 70.1794C544.354 70.1383 544.569 70.0945 544.785 70.0554C545.002 70.0166 545.22 69.9834 545.436 69.947L546.086 69.8403C546.301 69.8061 546.518 69.7708 546.736 69.7388C546.951 69.7068 547.169 69.6783 547.385 69.6484C547.602 69.6186 547.817 69.5859 548.035 69.5582C548.25 69.5305 548.468 69.5058 548.685 69.4803L549.334 69.4065C549.551 69.383 549.766 69.3568 549.984 69.3355C550.199 69.3141 550.417 69.2975 550.634 69.2783L551.283 69.2211L551.933 69.1725C552.149 69.1571 552.366 69.1447 552.583 69.1314C552.799 69.1186 553.014 69.1021 553.232 69.0908C553.449 69.0796 553.665 69.0732 553.882 69.0641L554.532 69.04C554.749 69.0331 554.965 69.024 555.181 69.0192C555.398 69.0145 555.614 69.0139 555.831 69.0106C556.047 69.0074 556.264 69.0037 556.481 69.0026L556.645 69.0006H557.13H557.781H558.429H559.081H559.729H560.38H561.029H561.679H562.329H562.978H563.628H564.278H564.927H565.577H566.227H566.876H567.526H568.176H568.825H569.475H570.125H570.776H571.424H572.075H572.725H573.374H574.024H574.674H575.323H575.973H576.623H577.272H577.922H578.572H579.221H579.871H580.52H581.17H581.82H582.469H583.119H583.769H584.42H585.068H585.719H586.369H587.018H587.668H588.318H588.967H589.617H590.267H590.916H591.566H592.216H592.865H593.515H594.165H594.816H595.464H596.115H596.763H597.414H598.064H598.714H599.363H600.013H600.663H601.312H601.962H602.612H603.261H603.911H604.56H605.21H605.86H606.509H607.159H607.809H608.458H609.108H609.759H610.407H611.058H611.708H612.358H613.007H613.657H614.307H614.956H615.606H616.256H616.905H617.555H618.205H618.854H619.504H620.154H620.803H621.454H622.103H622.754H623.402H624.053H624.703H625.352H626.002H626.652H627.301H627.951H628.601H629.25H629.9H630.549H631.199H631.849H632.498H633.148H633.798H634.447H635.097H635.747H636.398H637.047H637.697H638.347H638.996H639.646H640.296H640.945H641.595H642.245H642.894H643.544H644.194H644.843H645.493H646.144H646.794H647.443H648.093H648.743H649.392H650.042H650.692H651.341H651.991H652.641H653.29H653.94H654.589L655.239 69Z" fill="#54B230"/>
<path fill-rule="evenodd" clip-rule="evenodd" d="M117 300.681V135.777C117 131.125 117.48 126.585 118.393 122.202C118.589 121.261 118.807 120.328 119.042 119.402C119.243 118.608 119.46 117.822 119.69 117.04C119.896 116.344 120.112 115.652 120.339 114.965C120.547 114.337 120.761 113.711 120.988 113.09C121.197 112.516 121.411 111.945 121.636 111.378C121.846 110.848 122.062 110.32 122.285 109.796C122.495 109.303 122.711 108.812 122.933 108.325C123.144 107.862 123.361 107.403 123.582 106.946C123.793 106.509 124.01 106.075 124.23 105.643C124.442 105.229 124.659 104.818 124.879 104.408C125.091 104.014 125.307 103.622 125.527 103.232C125.74 102.854 125.956 102.478 126.176 102.106C126.389 101.743 126.604 101.382 126.824 101.024C127.038 100.678 127.254 100.335 127.473 99.993C127.686 99.6618 127.904 99.3327 128.122 99.0052C128.335 98.6848 128.551 98.3654 128.77 98.0486C128.986 97.7378 129.199 97.4274 129.419 97.1203C129.632 96.8239 129.85 96.531 130.067 96.2378C130.282 95.9494 130.498 95.663 130.716 95.3783C130.931 95.0985 131.145 94.8164 131.364 94.5397C131.578 94.271 131.796 94.0066 132.012 93.7411C132.228 93.4789 132.443 93.2177 132.662 92.9586C132.877 92.7039 133.091 92.4495 133.31 92.1979C133.524 91.9517 133.742 91.7098 133.959 91.4668C134.174 91.2258 134.389 90.9854 134.607 90.7483C134.821 90.5159 135.039 90.2868 135.255 90.0577C135.47 89.8306 135.687 89.6057 135.905 89.3819C136.12 89.1612 136.335 88.9407 136.553 88.7228C136.767 88.5086 136.985 88.2975 137.201 88.0866C137.418 87.8767 137.632 87.6651 137.85 87.4583C138.063 87.256 138.283 87.0583 138.499 86.8585C138.714 86.6593 138.928 86.4594 139.148 86.2634C139.361 86.0712 139.579 85.8826 139.796 85.693C140.012 85.5044 140.226 85.3153 140.444 85.1295C140.659 84.9462 140.876 84.7662 141.094 84.5857C141.308 84.4068 141.524 84.2279 141.742 84.0516C141.956 83.8774 142.174 83.7048 142.39 83.5328C142.606 83.3625 142.821 83.1937 143.039 83.0259C143.254 82.8599 143.47 82.6959 143.688 82.5324C143.903 82.3705 144.119 82.2092 144.337 82.0501L144.985 81.5811C145.2 81.4266 145.415 81.2734 145.633 81.1217C145.848 80.9716 146.065 80.823 146.281 80.6756C146.497 80.5287 146.713 80.3829 146.93 80.2388C147.145 80.0961 147.361 79.9556 147.579 79.8152C147.794 79.6757 148.01 79.5352 148.228 79.3979C148.443 79.2622 148.659 79.1298 148.876 78.9963C149.092 78.8632 149.308 78.7287 149.524 78.5983C149.739 78.4695 149.956 78.3446 150.172 78.2179C150.389 78.0915 150.604 77.9626 150.822 77.8382C151.036 77.7159 151.254 77.5989 151.47 77.4788C151.687 77.3585 151.902 77.2367 152.119 77.1186C152.334 77.0022 152.55 76.8901 152.767 76.7763C152.983 76.6625 153.199 76.5481 153.415 76.4366C153.632 76.3259 153.848 76.2175 154.065 76.1091L154.713 75.7897C154.928 75.6844 155.145 75.5792 155.361 75.4767C155.578 75.3746 155.793 75.2759 156.01 75.176C156.226 75.076 156.441 74.9741 156.658 74.8768C156.873 74.7801 157.091 74.6894 157.308 74.5953C157.523 74.5012 157.739 74.4057 157.956 74.3138C158.171 74.223 158.388 74.1354 158.604 74.0468L159.252 73.7839L159.902 73.5286L160.55 73.284C160.767 73.2028 160.981 73.1189 161.199 73.0399C161.414 72.9618 161.632 72.8892 161.848 72.8134C162.063 72.7375 162.279 72.6605 162.497 72.5869L163.145 72.3716L163.793 72.1628C164.01 72.0943 164.225 72.0244 164.441 71.9582C164.657 71.8924 164.874 71.8299 165.09 71.7663C165.306 71.7023 165.521 71.6371 165.739 71.5752C165.954 71.5138 166.171 71.4566 166.388 71.3972L167.036 71.2226C167.252 71.1661 167.468 71.1083 167.684 71.0538C167.899 70.9993 168.117 70.9497 168.332 70.8974C168.549 70.845 168.764 70.7905 168.982 70.7403C169.197 70.6906 169.414 70.6441 169.63 70.5965L170.279 70.4567C170.495 70.4108 170.71 70.3643 170.927 70.321C171.142 70.2782 171.36 70.2388 171.575 70.1975C171.792 70.1564 172.007 70.1137 172.225 70.0748C172.44 70.0357 172.657 70.0004 172.873 69.9636L173.521 69.8568C173.738 69.8226 173.953 69.7858 174.17 69.7531C174.386 69.7205 174.603 69.6934 174.818 69.6629C175.034 69.633 175.251 69.601 175.468 69.5726L176.116 69.492L176.764 69.4188C176.981 69.3948 177.196 69.367 177.412 69.3451C177.629 69.3232 177.846 69.3072 178.061 69.2873L178.71 69.2308C178.927 69.2125 179.142 69.195 179.359 69.1794C179.575 69.164 179.792 69.1517 180.007 69.1383C180.223 69.125 180.44 69.1095 180.657 69.0978C180.872 69.0859 181.088 69.0779 181.305 69.0684L181.953 69.0439C182.17 69.0363 182.385 69.0251 182.601 69.0197C182.817 69.0145 183.034 69.0149 183.25 69.0117C183.466 69.0086 183.683 69.0048 183.899 69.0037L184.548 69H185.196H185.844H186.492H187.142H187.79H188.439H189.087H189.735H190.385H191.033H191.681H192.33H192.978H193.628H194.276H194.924H195.572H196.221H196.87H197.519H198.167H198.815H199.465H200.113H200.761H201.41H202.059H202.708H203.356H204.004H204.654H205.302H205.95H206.599H207.247H207.895H208.545H209.193H209.841H210.49H211.138H211.788H212.436H213.084H213.732H214.381H215.03H215.679H216.327H216.975H217.623H218.273H218.921H219.57H220.218H220.868H221.516H222.164H222.812H223.462H224.11H224.759H225.407H226.057H226.705H227.353H228.001H228.65H229.298H229.948H230.596H231.244H231.892H232.541H233.19H233.839H234.487H235.135H235.783H236.433H237.081H237.73H238.378H239.028H239.676H240.324H240.972H241.622H242.27H242.919H243.567H244.217H244.865H245.513H246.161H246.81H247.459H248.108H248.756H249.404H250.052H250.701H251.35H251.999H252.647H253.295H253.945H254.593H255.241H255.89H256.538H257.186H257.836H258.484H259.132H259.781H260.43H261.079H261.727H262.375H263.025H263.673H264.321H264.97H265.619H266.268H266.916H267.564H268.212H268.861H269.51H270.159H270.807H271.455H272.103H272.753H273.401H274.05H274.698H275.346H275.996H276.644H277.292H277.941H278.589H279.239H279.887H280.535H281.183H281.833H282.481H283.032V402.859C283.032 405.764 282.844 408.625 282.481 411.43C282.308 412.782 282.087 414.12 281.833 415.444C281.639 416.451 281.423 417.451 281.183 418.443C280.982 419.277 280.767 420.106 280.535 420.928C280.331 421.651 280.114 422.367 279.887 423.077C279.68 423.721 279.463 424.361 279.239 424.997C279.03 425.585 278.814 426.17 278.589 426.75C278.381 427.292 278.164 427.832 277.941 428.367C277.731 428.87 277.514 429.372 277.292 429.869C277.081 430.341 276.865 430.81 276.644 431.277C276.433 431.723 276.217 432.164 275.996 432.603C275.783 433.025 275.567 433.444 275.346 433.861C275.135 434.262 274.919 434.662 274.698 435.058C274.486 435.441 274.27 435.823 274.05 436.201C273.837 436.567 273.621 436.931 273.401 437.292C273.189 437.641 272.971 437.986 272.753 438.332C272.539 438.669 272.323 439.004 272.103 439.337C271.89 439.662 271.676 439.986 271.455 440.308C271.243 440.619 271.025 440.928 270.807 441.236C270.594 441.537 270.377 441.834 270.159 442.132C269.943 442.425 269.728 442.716 269.51 443.004C269.297 443.286 269.08 443.566 268.861 443.844C268.647 444.116 268.43 444.385 268.212 444.654C267.997 444.92 267.783 445.185 267.564 445.447C267.35 445.702 267.132 445.956 266.916 446.208C266.701 446.457 266.486 446.703 266.268 446.949C266.051 447.192 265.837 447.436 265.619 447.674C265.406 447.909 265.186 448.138 264.97 448.37C264.754 448.599 264.541 448.829 264.321 449.054C264.108 449.276 263.89 449.495 263.673 449.713C263.458 449.93 263.243 450.145 263.025 450.359C262.81 450.57 262.593 450.779 262.375 450.988C262.161 451.192 261.943 451.393 261.727 451.596C261.512 451.796 261.297 451.997 261.079 452.194C260.865 452.388 260.647 452.578 260.43 452.77C260.214 452.96 260 453.153 259.781 453.339C259.567 453.524 259.349 453.702 259.132 453.884C258.917 454.065 258.702 454.248 258.484 454.426C258.27 454.601 258.052 454.774 257.836 454.945C257.619 455.117 257.406 455.291 257.186 455.461C256.972 455.626 256.754 455.789 256.538 455.953C256.323 456.117 256.108 456.281 255.89 456.441C255.676 456.6 255.458 456.754 255.241 456.912C255.025 457.066 254.811 457.223 254.593 457.377C254.378 457.528 254.161 457.676 253.945 457.823C253.728 457.971 253.513 458.121 253.295 458.268C253.081 458.411 252.863 458.55 252.647 458.691C252.43 458.832 252.217 458.977 251.999 459.114C251.783 459.251 251.566 459.382 251.35 459.516C251.134 459.65 250.919 459.786 250.701 459.917C250.487 460.047 250.269 460.174 250.052 460.301C249.837 460.428 249.622 460.556 249.404 460.681C249.189 460.804 248.972 460.926 248.756 461.047C248.541 461.167 248.324 461.288 248.108 461.406C247.892 461.523 247.676 461.64 247.459 461.754L246.81 462.094C246.594 462.205 246.378 462.317 246.161 462.428C245.946 462.535 245.73 462.641 245.513 462.748C245.297 462.852 245.081 462.961 244.865 463.065C244.65 463.168 244.432 463.266 244.217 463.366C244 463.466 243.785 463.568 243.567 463.666C243.352 463.764 243.135 463.857 242.919 463.952L242.27 464.233L241.622 464.506C241.406 464.596 241.189 464.683 240.972 464.77C240.757 464.857 240.541 464.945 240.324 465.03C240.109 465.114 239.892 465.193 239.676 465.274C239.459 465.356 239.244 465.439 239.028 465.519C238.811 465.597 238.594 465.673 238.378 465.75L237.73 465.977L237.081 466.197C236.866 466.269 236.648 466.337 236.433 466.406C236.217 466.476 236.001 466.548 235.783 466.615C235.57 466.681 235.352 466.743 235.135 466.808L234.487 466.999L233.839 467.182C233.623 467.241 233.407 467.299 233.19 467.356C232.974 467.414 232.759 467.474 232.541 467.53C232.327 467.585 232.108 467.634 231.892 467.687C231.677 467.739 231.461 467.793 231.244 467.844L230.596 467.992L229.948 468.132C229.731 468.179 229.516 468.229 229.298 468.273C229.083 468.317 228.866 468.354 228.65 468.396C228.434 468.437 228.218 468.48 228.001 468.519L227.353 468.634C227.138 468.673 226.921 468.706 226.705 468.742C226.488 468.777 226.273 468.815 226.057 468.848C225.84 468.881 225.623 468.909 225.407 468.941L224.759 469.03C224.543 469.059 224.327 469.088 224.11 469.116C223.894 469.142 223.677 469.164 223.462 469.189C223.246 469.214 223.029 469.24 222.812 469.262C222.597 469.286 222.381 469.305 222.164 469.324L221.516 469.382C221.299 469.4 221.084 469.422 220.868 469.439C220.651 469.455 220.434 469.465 220.218 469.479L219.57 469.52L218.921 469.554C218.706 469.564 218.488 469.571 218.273 469.578C218.057 469.586 217.84 469.597 217.623 469.603C217.408 469.608 217.192 469.611 216.975 469.615L216.327 469.623C216.127 469.625 215.927 469.63 215.726 469.63H215.03H214.381H213.732H213.084H212.436H211.788H211.138H210.49H209.841H209.193H208.545H207.895H207.247H206.599H205.95H205.302H204.654H204.004H203.356H202.708H202.059H201.41H200.761H200.113H199.465H198.815H198.167H197.519H196.87H196.221H195.572H194.924H194.276H193.628H192.978H192.33H191.681H191.033H190.385H189.735H189.087H188.439H187.79H187.142H186.492H185.844H185.196H184.548H183.899H183.25H182.601H181.953H181.305H180.657H180.007H179.359H178.71H178.061H177.412H176.764H176.116H175.468H174.818H174.17H173.521H172.873H172.225H171.575H170.927H170.279H169.63H168.982H168.332H167.684H167.036H166.388H165.739H165.09H164.441H163.793H163.145H162.497H161.848H161.199H160.55H159.902H159.252H158.604H157.956H157.308H156.658H156.01H155.361H154.713H154.065H153.415H152.767H152.119H151.47H150.822H150.172H149.524H148.876H148.228H147.579H146.93H146.281H145.633H144.985H144.337H143.688H143.039H142.39H141.742H141.094H140.444H139.796H139.148H138.499H137.85H137.201H136.553H135.905H135.255H134.607H133.959H133.31H132.662H132.012H131.364H130.716H130.067H129.419H128.77H128.122H127.473H126.824H126.176H125.527H124.879H124.23H123.582H122.933H122.285H121.636H120.988H120.339H119.69H119.042H118.393H117V328.913C117 328.913 117.479 329.043 118.393 329.272L119.042 329.433L119.69 329.59L120.339 329.745L120.988 329.897L121.636 330.046L122.285 330.193L122.933 330.339L123.582 330.481L124.23 330.623L124.879 330.763L125.527 330.899L126.176 331.036L126.824 331.17L127.473 331.301L128.122 331.432L128.77 331.56L129.419 331.687L130.067 331.812L130.716 331.937L131.364 332.059L132.012 332.179L132.662 332.298L133.31 332.415L133.959 332.531L134.607 332.647L135.255 332.759L135.905 332.87L136.553 332.981L137.201 333.088L137.85 333.196L138.499 333.301L139.148 333.406L139.796 333.508L140.444 333.61L141.094 333.709L141.742 333.808L142.39 333.905L143.039 334L143.688 334.094L144.337 334.188L144.985 334.279L145.633 334.37L146.281 334.457L146.93 334.545L147.579 334.63L148.228 334.714L148.876 334.797L149.524 334.879L150.172 334.96L150.822 335.039L151.47 335.116L152.119 335.192L152.767 335.266L153.415 335.339L154.065 335.412L154.713 335.483L155.361 335.552L156.01 335.619L156.658 335.686L157.308 335.752L157.956 335.814L158.604 335.877L159.252 335.938L159.902 335.997L160.55 336.057L161.199 336.112L161.848 336.167L162.497 336.222L163.145 336.273L163.793 336.326L164.441 336.374L165.09 336.423L165.739 336.47L166.388 336.516L167.036 336.56L167.684 336.601L168.332 336.643L168.982 336.684L169.63 336.721L170.279 336.76L170.927 336.794L171.575 336.828L172.225 336.861L172.873 336.892L173.521 336.923L174.17 336.95L174.818 336.977L175.468 337.004L176.116 337.026L176.764 337.048L177.412 337.07L178.061 337.088L178.71 337.108L179.359 337.124L180.007 337.138L180.657 337.153L181.305 337.164L181.953 337.175L182.601 337.185L183.25 337.19L183.899 337.197L184.548 337.203L185.196 337.204L185.844 337.207L186.492 337.206L187.142 337.201L187.79 337.197L188.439 337.193L189.087 337.19L189.735 337.178L190.385 337.167L191.033 337.154L191.681 337.143L192.33 337.127L192.978 337.106L193.628 337.087L194.276 337.068L194.924 337.046L195.572 337.018L196.221 336.989L196.87 336.96L197.519 336.932L198.167 336.897L198.815 336.859L199.465 336.822L200.113 336.785L200.761 336.742L201.41 336.695L202.059 336.65L202.708 336.603L203.356 336.552L204.004 336.497L204.654 336.44L205.302 336.385L205.95 336.324L206.599 336.258L207.247 336.193L207.895 336.127L208.545 336.055L209.193 335.981L209.841 335.905L210.49 335.829L211.138 335.745L211.788 335.659L212.436 335.574L213.084 335.486C213.303 335.455 213.516 335.421 213.732 335.389L214.381 335.292L215.03 335.196L215.679 335.094C215.897 335.058 216.11 335.021 216.327 334.985L216.975 334.877C217.19 334.84 217.411 334.806 217.623 334.768C217.843 334.73 218.055 334.688 218.273 334.65L218.921 334.53L219.57 334.41L220.218 334.283C220.437 334.24 220.651 334.194 220.868 334.15L221.516 334.018L222.164 333.883C222.383 333.837 222.596 333.786 222.812 333.739L223.462 333.593C223.676 333.545 223.897 333.498 224.11 333.448C224.33 333.397 224.542 333.343 224.759 333.291L225.407 333.132C225.622 333.08 225.843 333.029 226.057 332.975C226.274 332.92 226.488 332.862 226.705 332.806L227.353 332.634C227.568 332.577 227.788 332.52 228.001 332.462C228.219 332.403 228.434 332.341 228.65 332.28L229.298 332.092C229.514 332.03 229.734 331.97 229.948 331.906L230.596 331.709L231.244 331.508C231.459 331.44 231.68 331.374 231.892 331.305L232.541 331.091L233.19 330.873C233.406 330.8 233.626 330.73 233.839 330.655C234.058 330.578 234.27 330.499 234.487 330.422L235.135 330.188C235.352 330.108 235.57 330.029 235.783 329.949C236.003 329.866 236.217 329.781 236.433 329.697C236.65 329.614 236.868 329.53 237.081 329.446L237.73 329.183L238.378 328.913C238.594 328.823 238.814 328.735 239.028 328.643C239.247 328.549 239.459 328.45 239.676 328.354L240.324 328.065L240.972 327.766C241.19 327.663 241.406 327.56 241.622 327.457C241.837 327.352 242.057 327.25 242.27 327.145C242.49 327.036 242.702 326.923 242.919 326.814C243.135 326.703 243.353 326.594 243.567 326.483C243.786 326.368 244 326.251 244.217 326.135C244.433 326.018 244.65 325.901 244.865 325.782C245.083 325.661 245.298 325.539 245.513 325.417C245.731 325.292 245.946 325.166 246.161 325.04C246.378 324.912 246.596 324.783 246.81 324.655C247.029 324.521 247.243 324.388 247.459 324.252C247.676 324.117 247.894 323.982 248.108 323.846C248.327 323.703 248.541 323.559 248.756 323.417C248.972 323.272 249.192 323.128 249.404 322.982C249.623 322.832 249.837 322.677 250.052 322.526C250.27 322.371 250.488 322.217 250.701 322.061C250.921 321.901 251.135 321.737 251.35 321.574C251.568 321.41 251.785 321.243 251.999 321.076C252.217 320.905 252.433 320.731 252.647 320.557C252.866 320.379 253.081 320.199 253.295 320.019C253.513 319.834 253.732 319.652 253.945 319.466C254.164 319.273 254.378 319.077 254.593 318.883C254.811 318.686 255.029 318.488 255.241 318.288C255.462 318.08 255.676 317.87 255.89 317.659C256.109 317.444 256.326 317.226 256.538 317.007C256.757 316.783 256.975 316.561 257.186 316.335C257.408 316.098 257.622 315.859 257.836 315.619C258.057 315.374 258.272 315.126 258.484 314.876C258.703 314.618 258.921 314.361 259.132 314.101C259.353 313.829 259.57 313.559 259.781 313.284C260.003 312.997 260.217 312.709 260.43 312.418C260.651 312.116 260.866 311.811 261.079 311.505C261.299 311.185 261.516 310.863 261.727 310.538C261.949 310.199 262.164 309.857 262.375 309.512C262.597 309.148 262.814 308.781 263.025 308.411C263.247 308.019 263.463 307.626 263.673 307.229C263.897 306.803 264.113 306.375 264.321 305.945C264.546 305.48 264.761 305.012 264.97 304.542C265.196 304.03 265.412 303.516 265.619 302.996C265.846 302.422 266.063 301.844 266.268 301.262C266.499 300.6 266.713 299.932 266.916 299.259C267.152 298.472 267.367 297.676 267.564 296.873C267.808 295.877 268.026 294.869 268.212 293.851C268.491 292.334 268.705 290.794 268.861 289.233C269.079 287.057 269.185 284.841 269.185 282.59V205.117H268.212H267.564H266.916H266.268H265.619H264.97H264.321H263.673H263.025H262.375H261.727H261.079H260.43H259.781H259.132H258.484H257.836H257.186H256.538H255.89H255.241H254.593H253.945H253.295H252.647H251.999H251.35H250.701H250.052H249.404H248.756H248.108H247.459H246.81H246.161H245.513H244.865H244.217H243.567H242.919H242.27H241.622H240.972H240.324H239.676H239.028H238.378H237.73H237.081H236.433H235.783H235.135H234.487H233.839H233.19H232.541H231.892H231.244H230.596H229.948H229.298H228.65H228.001H227.353H226.705H226.057H225.407H224.759H224.11H223.462H222.812H222.164H221.516H220.868H220.218H219.57H218.921H218.273H217.623H216.975H216.327H215.679H215.03H214.381H213.732H213.084H212.436H211.788L211.295 282.59C211.295 283.803 211.243 284.996 211.138 286.167C211.006 287.658 210.789 289.11 210.49 290.524C210.305 291.397 210.088 292.254 209.841 293.095C209.644 293.764 209.429 294.423 209.193 295.072C208.992 295.623 208.774 296.166 208.545 296.701C208.339 297.179 208.123 297.648 207.895 298.112C207.688 298.534 207.473 298.952 207.247 299.361C207.039 299.738 206.822 300.108 206.599 300.474C206.389 300.819 206.174 301.159 205.95 301.494C205.739 301.808 205.523 302.119 205.302 302.423C205.091 302.714 204.876 303.004 204.654 303.287C204.443 303.557 204.225 303.821 204.004 304.083C203.793 304.332 203.577 304.579 203.356 304.823C203.143 305.058 202.928 305.291 202.708 305.519C202.494 305.739 202.279 305.957 202.059 306.171C201.846 306.378 201.63 306.583 201.41 306.783C201.197 306.978 200.981 307.17 200.761 307.359C200.549 307.542 200.332 307.723 200.113 307.901C199.899 308.073 199.683 308.244 199.465 308.412C199.251 308.575 199.034 308.737 198.815 308.897C198.601 309.051 198.386 309.204 198.167 309.353C197.953 309.501 197.738 309.646 197.519 309.788C197.305 309.927 197.088 310.063 196.87 310.197C196.657 310.33 196.44 310.458 196.221 310.586C196.007 310.71 195.792 310.832 195.572 310.953C195.359 311.07 195.142 311.185 194.924 311.299C194.71 311.412 194.494 311.521 194.276 311.629C194.062 311.735 193.846 311.839 193.628 311.942C193.412 312.043 193.197 312.142 192.978 312.239C192.764 312.334 192.548 312.428 192.33 312.519C192.116 312.608 191.899 312.695 191.681 312.782C191.468 312.866 191.251 312.949 191.033 313.03C190.818 313.11 190.603 313.189 190.385 313.266C190.17 313.342 189.953 313.417 189.735 313.49C189.521 313.56 189.305 313.63 189.087 313.698C188.873 313.764 188.657 313.829 188.439 313.892C188.223 313.954 188.007 314.017 187.79 314.076C187.575 314.135 187.359 314.194 187.142 314.25C186.927 314.305 186.71 314.357 186.492 314.41C186.279 314.461 186.062 314.51 185.844 314.559C185.629 314.606 185.414 314.652 185.196 314.698C184.981 314.742 184.766 314.785 184.548 314.826C184.332 314.866 184.116 314.905 183.899 314.942C183.683 314.981 183.468 315.018 183.25 315.052L182.601 315.15C182.386 315.182 182.17 315.21 181.953 315.239C181.738 315.266 181.523 315.294 181.305 315.319L180.657 315.39C180.441 315.412 180.225 315.432 180.007 315.452C179.792 315.47 179.577 315.491 179.359 315.508C179.143 315.524 178.927 315.538 178.71 315.552C178.495 315.566 178.279 315.578 178.061 315.589C177.846 315.6 177.63 315.611 177.412 315.619C177.199 315.629 176.981 315.633 176.764 315.64L176.116 315.655C175.901 315.658 175.684 315.659 175.468 315.661L174.818 315.662L174.17 315.658L173.521 315.648L172.873 315.634L172.225 315.618L171.575 315.597L170.927 315.571L170.279 315.541L169.63 315.509L168.982 315.47L168.332 315.428L167.684 315.383L167.036 315.332L166.388 315.279L165.739 315.221L165.09 315.16L164.441 315.094L163.793 315.023L163.145 314.95L162.497 314.873L161.848 314.79L161.199 314.706L160.55 314.617L159.902 314.523L159.252 314.428L158.604 314.327L157.956 314.222L157.308 314.114L156.658 314.003L156.01 313.886L155.361 313.767L154.713 313.644L154.065 313.517L153.415 313.386L152.767 313.252L152.119 313.116L151.47 312.974L150.822 312.829L150.172 312.68L149.524 312.528L148.876 312.372L148.228 312.214L147.579 312.051L146.93 311.884L146.281 311.713L145.633 311.541L144.985 311.364L144.337 311.185L143.688 311L143.039 310.814L142.39 310.623L141.742 310.429L141.094 310.233L140.444 310.032L139.796 309.828L139.148 309.621L138.499 309.411L137.85 309.197L137.201 308.979L136.553 308.759L135.905 308.537L135.255 308.309L134.607 308.079L133.959 307.847L133.31 307.61L132.662 307.371L132.012 307.128L131.364 306.883L130.716 306.634L130.067 306.383L129.419 306.128L128.77 305.87L128.122 305.61L127.473 305.345L126.824 305.079L126.176 304.808L125.527 304.535L124.879 304.261L124.23 303.982L123.582 303.699L122.933 303.415L122.285 303.128L121.636 302.839L120.988 302.545L120.339 302.248L119.69 301.95L119.042 301.648L118.393 301.345C117.928 301.126 117.464 300.905 117 300.681Z" fill="#006CB9"/>
<path fill-rule="evenodd" clip-rule="evenodd" d="M304.626 222.046C304.154 222.425 303.688 222.807 303.234 223.194V135.777C303.234 131.128 303.714 126.59 304.626 122.209C304.822 121.268 305.04 120.336 305.274 119.41C305.477 118.616 305.694 117.828 305.924 117.045C306.13 116.348 306.346 115.656 306.572 114.969C306.781 114.34 306.996 113.715 307.221 113.096C307.43 112.522 307.645 111.95 307.87 111.383C308.08 110.854 308.295 110.326 308.518 109.803C308.728 109.309 308.945 108.819 309.167 108.331C309.378 107.868 309.594 107.408 309.815 106.951C310.026 106.514 310.244 106.081 310.463 105.65C310.676 105.235 310.892 104.824 311.113 104.414C311.325 104.019 311.542 103.627 311.761 103.237C311.974 102.86 312.19 102.484 312.41 102.111C312.623 101.749 312.839 101.388 313.058 101.03C313.272 100.685 313.488 100.341 313.706 99.9999C313.92 99.6676 314.136 99.3392 314.356 99.0112C314.57 98.6902 314.785 98.3713 315.004 98.0545C315.219 97.7436 315.433 97.4327 315.652 97.1261C315.866 96.8291 316.084 96.537 316.302 96.2443C316.516 95.9557 316.731 95.669 316.95 95.3843C317.165 95.1039 317.379 94.8229 317.598 94.5462C317.811 94.2775 318.03 94.0125 318.247 93.747C318.462 93.4848 318.677 93.2236 318.896 92.965C319.11 92.7097 319.325 92.4554 319.545 92.2039C319.758 91.9582 319.976 91.7156 320.193 91.4731C320.408 91.2327 320.623 90.9913 320.841 90.7537C321.055 90.5212 321.273 90.2916 321.49 90.0623C321.705 89.8359 321.92 89.611 322.138 89.3872C322.353 89.1666 322.57 88.9461 322.787 88.7281C323.001 88.5145 323.218 88.3034 323.436 88.0924C323.651 87.8825 323.866 87.671 324.084 87.4637C324.298 87.2612 324.516 87.0636 324.732 86.8639C324.947 86.6647 325.163 86.4648 325.382 86.2688C325.596 86.0765 325.814 85.8874 326.03 85.6978C326.245 85.5087 326.461 85.3201 326.679 85.1342C326.894 84.951 327.11 84.771 327.327 84.5905C327.542 84.4116 327.759 84.2325 327.976 84.0559C328.19 83.8817 328.407 83.7091 328.625 83.5377C328.84 83.3673 329.055 83.1979 329.273 83.0302C329.488 82.8647 329.705 82.7007 329.921 82.5372C330.136 82.3753 330.353 82.2141 330.57 82.0549C330.785 81.8967 331.001 81.7407 331.219 81.5854C331.434 81.4314 331.65 81.2777 331.867 81.1259C332.083 80.9759 332.299 80.8279 332.516 80.6799C332.731 80.533 332.947 80.3866 333.164 80.2425C333.379 80.0999 333.596 79.9593 333.814 79.8189C334.029 79.6789 334.244 79.5389 334.462 79.4017C334.677 79.2659 334.894 79.1335 335.11 79C335.327 78.867 335.542 78.7324 335.759 78.6021C335.974 78.4728 336.192 78.3477 336.408 78.2212C336.625 78.0946 336.838 77.9654 337.056 77.8414C337.27 77.719 337.49 77.6015 337.705 77.4814C337.921 77.3612 338.136 77.24 338.353 77.1225C338.568 77.0059 338.785 76.8938 339.001 76.7795C339.218 76.6657 339.433 76.5514 339.651 76.4397L340.299 76.1123L340.947 75.7924C341.164 75.6877 341.379 75.5819 341.596 75.4793C341.812 75.3774 342.029 75.2785 342.245 75.1786C342.462 75.0793 342.676 74.9767 342.894 74.8794C343.109 74.7828 343.325 74.692 343.542 74.5979C343.759 74.504 343.974 74.4084 344.19 74.3164C344.407 74.2257 344.623 74.1375 344.84 74.0488L345.488 73.7861C345.705 73.7 345.92 73.6141 346.136 73.5302C346.352 73.4469 346.57 73.3668 346.785 73.2855C347.001 73.2044 347.216 73.1206 347.434 73.0414C347.648 72.9635 347.866 72.8908 348.083 72.8149C348.299 72.7392 348.514 72.6622 348.731 72.5884C348.946 72.5148 349.164 72.4443 349.379 72.3732L350.029 72.1644C350.244 72.096 350.461 72.0261 350.677 71.9592C350.892 71.8935 351.11 71.8316 351.325 71.768C351.542 71.7039 351.757 71.6382 351.975 71.5763C352.19 71.5148 352.407 71.4577 352.623 71.3983L353.272 71.2237C353.488 71.167 353.703 71.1094 353.92 71.0549C354.135 71.001 354.353 70.9502 354.568 70.8979C354.785 70.8455 355 70.791 355.218 70.7408C355.433 70.6912 355.65 70.6447 355.866 70.5971L356.514 70.4572C356.731 70.4117 356.946 70.3648 357.163 70.3215C357.378 70.2782 357.596 70.2393 357.812 70.1981C358.027 70.157 358.243 70.1137 358.461 70.0748L359.109 69.9636L359.757 69.8574C359.974 69.8226 360.189 69.7858 360.407 69.7531C360.622 69.7205 360.839 69.6934 361.055 69.6629C361.27 69.633 361.487 69.6015 361.703 69.5731L362.352 69.4925L363 69.4188C363.216 69.3948 363.432 69.367 363.65 69.3451C363.865 69.3232 364.081 69.3072 364.298 69.2873L364.946 69.2308C365.163 69.2125 365.378 69.195 365.594 69.1794C365.811 69.164 366.027 69.1517 366.243 69.1383C366.459 69.125 366.674 69.1095 366.892 69.0978C367.107 69.0859 367.324 69.0779 367.541 69.0684L368.189 69.0439C368.405 69.0363 368.621 69.0251 368.839 69.0197C369.054 69.0145 369.27 69.0149 369.487 69.0117C369.703 69.0086 369.919 69.0048 370.135 69.0037L370.422 69H370.783H371.433H372.081H372.73H373.378H374.026H374.676H375.324H375.972H376.621H377.27H377.919H378.567H379.215H379.863H380.513H381.161H381.81H382.458H383.107H383.756H384.404H385.054H385.702H386.35H386.998H387.648H388.296H388.945H389.593H390.243H390.891H391.539H392.187H392.837H393.485H394.134H394.782H395.43H396.08H396.728H397.376H398.025H398.674H399.323H399.971H400.619H401.267H401.917H402.565H403.214H403.862H404.512H405.16H405.808H406.456H407.106H407.754H408.403H409.051H409.701H410.349H410.997H411.645H412.294H412.943H413.592H414.24H414.888H415.538H416.186H416.834H417.483H418.132H418.781H419.429H420.077H420.727H421.375H422.023H422.672H423.321H423.97H424.618H425.266H425.916H426.564H427.212H427.861H428.51H429.159H429.807H430.455H431.105H431.753H432.401H433.05H433.698H434.347H434.996H435.644H436.292H436.942H437.59H438.239H438.887H439.535H440.185H440.833H441.481H442.13H442.779H443.427H444.076H444.724H445.372H446.022H446.67H447.318H447.968H448.616H449.265H449.913H450.561H451.211H451.859H452.507H453.156H453.805H454.454H455.102H455.75H456.4H457.048H457.696H458.345H458.994H459.643H460.291H460.939H461.589H462.237H462.885H463.534H464.183H464.832H465.48H466.128H466.776H467.426H468.074H468.723H469.273V402.859C469.273 405.763 469.085 408.621 468.723 411.426C468.549 412.778 468.33 414.114 468.074 415.439C467.881 416.446 467.665 417.447 467.426 418.439C467.225 419.273 467.01 420.102 466.776 420.926C466.572 421.647 466.356 422.363 466.128 423.074C465.923 423.719 465.705 424.357 465.48 424.993C465.272 425.581 465.055 426.167 464.832 426.748C464.622 427.288 464.407 427.826 464.183 428.361C463.972 428.866 463.756 429.367 463.534 429.865C463.323 430.338 463.107 430.806 462.885 431.272C462.674 431.717 462.458 432.16 462.237 432.6C462.025 433.022 461.808 433.441 461.589 433.858C461.375 434.259 461.16 434.658 460.939 435.055C460.727 435.439 460.512 435.821 460.291 436.2C460.079 436.564 459.862 436.927 459.643 437.287C459.43 437.637 459.212 437.983 458.994 438.328C458.781 438.665 458.564 439 458.345 439.332C458.131 439.658 457.917 439.983 457.696 440.305C457.483 440.615 457.266 440.924 457.048 441.232C456.834 441.532 456.618 441.83 456.4 442.128C456.185 442.421 455.97 442.712 455.75 443.001C455.536 443.283 455.321 443.561 455.102 443.84C454.888 444.112 454.672 444.382 454.454 444.65C454.238 444.916 454.025 445.181 453.805 445.443C453.592 445.699 453.374 445.952 453.156 446.204C452.942 446.454 452.727 446.699 452.507 446.946C452.292 447.188 452.077 447.432 451.859 447.67C451.645 447.905 451.427 448.135 451.211 448.366C450.996 448.594 450.781 448.825 450.561 449.052C450.347 449.273 450.131 449.491 449.913 449.71C449.699 449.926 449.483 450.141 449.265 450.354C449.051 450.566 448.834 450.775 448.616 450.983C448.401 451.188 448.185 451.39 447.968 451.592C447.752 451.792 447.536 451.994 447.318 452.192C447.105 452.385 446.887 452.575 446.67 452.767C446.454 452.957 446.24 453.15 446.022 453.338C445.807 453.521 445.589 453.701 445.372 453.883C445.157 454.063 444.942 454.245 444.724 454.423C444.51 454.599 444.292 454.77 444.076 454.942C443.861 455.114 443.645 455.287 443.427 455.457C443.212 455.623 442.996 455.786 442.779 455.95C442.563 456.113 442.347 456.277 442.13 456.439C441.916 456.597 441.698 456.753 441.481 456.909C441.266 457.065 441.051 457.222 440.833 457.375C440.618 457.526 440.401 457.672 440.185 457.821C439.968 457.97 439.753 458.119 439.535 458.265C439.321 458.408 439.103 458.548 438.887 458.688C438.672 458.829 438.456 458.974 438.239 459.112C438.023 459.248 437.805 459.379 437.59 459.514C437.374 459.648 437.158 459.783 436.942 459.914C436.727 460.044 436.509 460.17 436.292 460.298C436.077 460.425 435.862 460.553 435.644 460.679C435.429 460.801 435.212 460.923 434.996 461.044L434.347 461.404L433.698 461.753L433.05 462.091C432.834 462.203 432.618 462.316 432.401 462.425C432.186 462.534 431.97 462.639 431.753 462.745C431.536 462.851 431.321 462.96 431.105 463.063C430.89 463.165 430.672 463.263 430.455 463.364C430.24 463.465 430.023 463.567 429.807 463.665C429.592 463.761 429.374 463.855 429.159 463.95L428.51 464.232L427.861 464.505L427.212 464.768C426.996 464.855 426.781 464.943 426.564 465.029C426.349 465.112 426.131 465.19 425.916 465.273C425.699 465.354 425.484 465.437 425.266 465.517C425.051 465.596 424.834 465.672 424.618 465.749L423.97 465.975L423.321 466.196C423.105 466.268 422.888 466.335 422.672 466.404C422.455 466.474 422.24 466.546 422.023 466.614C421.808 466.68 421.592 466.742 421.375 466.806L420.727 466.997L420.077 467.181C419.862 467.24 419.645 467.298 419.429 467.354C419.212 467.412 418.999 467.473 418.781 467.528C418.565 467.583 418.347 467.633 418.132 467.686C417.916 467.739 417.699 467.792 417.483 467.843L416.834 467.992L416.186 468.131C415.97 468.178 415.754 468.228 415.538 468.272C415.323 468.314 415.105 468.353 414.888 468.396L414.24 468.519L413.592 468.634C413.376 468.672 413.16 468.706 412.943 468.741C412.727 468.777 412.512 468.814 412.294 468.847C412.079 468.88 411.862 468.909 411.645 468.939L410.997 469.03C410.781 469.059 410.565 469.088 410.349 469.114C410.134 469.142 409.916 469.164 409.701 469.189C409.484 469.212 409.269 469.24 409.051 469.262C408.836 469.284 408.619 469.303 408.403 469.324L407.754 469.382C407.538 469.4 407.323 469.422 407.106 469.437C406.891 469.454 406.673 469.465 406.456 469.479L405.808 469.52L405.16 469.554C404.945 469.564 404.727 469.57 404.512 469.578C404.295 469.586 404.079 469.596 403.862 469.603C403.647 469.608 403.43 469.611 403.214 469.615L402.565 469.623C402.363 469.625 402.163 469.63 401.96 469.63H401.917H401.267H400.619H399.971H399.323H398.674H398.025H397.376H396.728H396.08H395.43H394.782H394.134H393.485H392.837H392.187H391.539H390.891H390.243H389.593H388.945H388.296H387.648H386.998H386.35H385.702H385.054H384.404H383.756H383.107H382.458H381.81H381.161H380.513H379.863H379.215H378.567H377.919H377.27H376.621H375.972H375.324H374.676H374.026H373.378H372.73H372.081H371.433H370.783H370.135H369.487H368.839H368.189H367.541H366.892H366.243H365.594H364.946H364.298H363.65H363H362.352H361.703H361.055H360.407H359.757H359.109H358.461H357.812H357.163H356.514H355.866H355.218H354.568H353.92H353.272H352.623H351.975H351.325H350.677H350.029H349.379H348.731H348.083H347.434H346.785H346.136H345.488H344.84H344.19H343.542H342.894H342.245H341.596H340.947H340.299H339.651H339.001H338.353H337.705H337.056H336.408H335.759H335.11H334.462H333.814H333.164H332.516H331.867H331.219H330.57H329.921H329.273H328.625H327.976H327.327H326.679H326.03H325.382H324.732H324.084H323.436H322.787H322.138H321.49H320.841H320.193H319.545H318.896H318.247H317.598H316.95H316.302H315.652H315.004H314.356H313.706H313.058H312.41H311.761H311.113H310.463H309.815H309.167H308.518H307.87H307.221H306.572H305.924H305.274H304.626H303.234V315.463C303.688 315.85 304.154 316.232 304.626 316.611C304.841 316.783 305.058 316.953 305.274 317.124C305.49 317.291 305.706 317.458 305.924 317.625C306.139 317.788 306.354 317.952 306.572 318.114C306.786 318.273 307.004 318.429 307.221 318.586C307.436 318.741 307.652 318.895 307.87 319.048C308.085 319.2 308.301 319.352 308.518 319.501L309.167 319.942C309.381 320.086 309.599 320.228 309.815 320.37L310.463 320.79C310.679 320.928 310.895 321.065 311.113 321.201C311.327 321.335 311.545 321.468 311.761 321.6L312.41 321.992C312.626 322.12 312.841 322.248 313.058 322.374C313.273 322.499 313.49 322.622 313.706 322.746L314.356 323.112L315.004 323.468L315.652 323.817C315.869 323.931 316.083 324.046 316.302 324.159C316.516 324.27 316.734 324.381 316.95 324.49L317.598 324.817L318.247 325.137L318.896 325.448C319.112 325.55 319.327 325.654 319.545 325.756L320.193 326.052L320.841 326.348L321.49 326.632L322.138 326.913L322.787 327.188L323.436 327.455L324.084 327.719L324.732 327.975L325.382 328.23L326.03 328.474C326.245 328.556 326.461 328.639 326.679 328.719L327.327 328.953C327.543 329.03 327.759 329.11 327.976 329.188C328.19 329.263 328.408 329.337 328.625 329.411L329.273 329.636L329.921 329.851C330.138 329.923 330.352 329.996 330.57 330.066C330.785 330.135 331.003 330.203 331.219 330.272L331.867 330.479L332.516 330.676L333.164 330.873L333.814 331.062L334.462 331.251L335.11 331.433L335.759 331.614L336.408 331.789L337.056 331.96L337.705 332.128L338.353 332.292L339.001 332.454L339.651 332.61L340.299 332.766L340.947 332.914L341.596 333.062L342.245 333.206L342.894 333.346L343.542 333.484L344.19 333.617L344.84 333.749L345.488 333.876L346.136 334.001L346.785 334.123L347.434 334.241L348.083 334.359L348.731 334.47L349.379 334.582L350.029 334.688L350.677 334.793L351.325 334.897L351.975 334.994L352.623 335.094L353.272 335.188L353.92 335.279L354.568 335.37L355.218 335.454L355.866 335.539L356.514 335.622L357.163 335.701L357.812 335.779L358.461 335.852L359.109 335.926L359.757 335.997L360.407 336.063L361.055 336.13L361.703 336.193L362.352 336.254L363 336.314L363.65 336.371L364.298 336.425L364.946 336.48L365.594 336.53L366.243 336.578L366.892 336.628L367.541 336.67L368.189 336.714L368.839 336.757L369.487 336.794L370.135 336.832L370.783 336.869L371.433 336.899L372.081 336.932L372.73 336.963L373.378 336.989L374.026 337.017L374.676 337.041L375.324 337.063L375.972 337.084L376.621 337.105L377.27 337.121L377.919 337.138L378.567 337.153L379.215 337.164L379.863 337.175L380.513 337.186L381.161 337.193L381.81 337.199L382.458 337.204L383.107 337.207L383.756 337.208L384.404 337.21L385.054 337.208L385.702 337.204L386.35 337.2L386.998 337.196L387.648 337.186L388.296 337.178L388.945 337.17L389.593 337.156L390.243 337.143L390.891 337.13L391.539 337.113L392.187 337.095L392.837 337.077L393.485 337.058L394.134 337.036L394.782 337.014L395.43 336.992L396.08 336.966L396.728 336.938L397.376 336.912L397.694 336.898L398.025 336.883L398.674 336.851L399.323 336.817L399.971 336.782L400.619 336.743L401.267 336.703L401.917 336.659L402.565 336.617L403.214 336.568L403.862 336.52L404.512 336.469L405.16 336.417L405.808 336.361L406.456 336.305L407.106 336.247L407.754 336.186L408.403 336.124L409.051 336.061L409.701 335.996L410.349 335.927L410.997 335.858L411.645 335.788L412.294 335.714L412.943 335.64L413.592 335.564L414.24 335.487L414.888 335.408L415.538 335.327L416.186 335.246L416.834 335.163L417.483 335.076L418.132 334.99L418.781 334.902L419.429 334.812L420.077 334.721L420.727 334.628L421.375 334.535L422.023 334.439L422.672 334.342L423.321 334.244L423.97 334.143L424.618 334.043L425.266 333.941L425.916 333.837L426.564 333.732L427.212 333.626L427.861 333.519L428.51 333.41L429.159 333.299L429.807 333.188L430.455 333.076L431.105 332.961L431.753 332.846L432.401 332.73L433.05 332.611L433.698 332.492L434.347 332.372L434.996 332.25L435.644 332.127L436.292 332.003L436.942 331.877L437.59 331.752L438.239 331.623L438.887 331.494L439.535 331.364L440.185 331.232L440.833 331.098L441.481 330.964L442.13 330.829L442.779 330.691L443.427 330.553L444.076 330.414L444.724 330.273L445.372 330.13L446.022 329.986L446.67 329.84L447.318 329.692L447.968 329.543L448.616 329.393L449.265 329.24L449.913 329.086L450.559 328.927V300.681L449.913 301L449.265 301.317L448.616 301.633L447.968 301.945L447.318 302.254L446.67 302.56L446.022 302.862L445.372 303.163L444.724 303.459L444.076 303.753L443.427 304.043L442.779 304.331L442.13 304.614L441.481 304.894L440.833 305.171L440.185 305.444L439.535 305.714L438.887 305.982L438.239 306.244L437.59 306.503L436.942 306.76L436.292 307.014L435.644 307.262L434.996 307.508L434.347 307.749L433.698 307.988L433.05 308.222L432.401 308.454L431.753 308.681L431.105 308.905L430.455 309.124L429.807 309.341L429.159 309.553L428.51 309.763L427.861 309.968L427.212 310.17L426.564 310.368L425.916 310.561L425.266 310.753L424.618 310.941L423.97 311.124L423.321 311.303L422.672 311.479L422.023 311.652L421.375 311.821L420.727 311.986L420.077 312.148L419.429 312.305L418.781 312.459L418.132 312.61L417.483 312.756L416.834 312.901L416.186 313.04L415.538 313.177L414.888 313.308L414.24 313.437L413.592 313.564L412.943 313.684L412.294 313.803L411.645 313.917L410.997 314.029L410.349 314.137L409.701 314.24L409.051 314.342L408.403 314.439L407.754 314.532L407.106 314.622L406.456 314.709L405.808 314.792L405.16 314.872L404.512 314.949L403.862 315.022L403.214 315.091L402.565 315.159L401.917 315.219L401.267 315.28L400.619 315.337L399.971 315.389L399.578 315.419L399.323 315.437L398.674 315.48L398.025 315.523L397.376 315.557L396.728 315.59L396.08 315.619L395.43 315.641L394.782 315.662L394.134 315.676L393.485 315.686L392.837 315.694C392.619 315.694 392.404 315.691 392.187 315.691L391.539 315.688L390.891 315.679L390.243 315.665L389.593 315.648C389.375 315.641 389.161 315.632 388.945 315.622C388.728 315.614 388.512 315.607 388.296 315.596L387.648 315.561L386.998 315.523L386.35 315.477L385.702 315.426C385.485 315.41 385.267 315.394 385.054 315.374C384.836 315.354 384.621 315.331 384.404 315.31L383.756 315.246L383.107 315.17L382.458 315.092L381.81 315.007L381.161 314.916C380.945 314.884 380.728 314.854 380.513 314.821C380.295 314.786 380.08 314.75 379.863 314.714C379.648 314.679 379.43 314.646 379.215 314.607C378.997 314.568 378.783 314.527 378.567 314.487C378.35 314.447 378.132 314.408 377.919 314.367C377.701 314.324 377.487 314.277 377.27 314.232C377.054 314.186 376.836 314.143 376.621 314.097C376.404 314.05 376.189 313.999 375.972 313.949L375.324 313.797C375.106 313.745 374.891 313.69 374.676 313.634C374.458 313.581 374.241 313.526 374.026 313.469C373.81 313.411 373.593 313.35 373.378 313.291C373.161 313.23 372.945 313.17 372.73 313.106C372.512 313.043 372.296 312.978 372.081 312.912C371.863 312.846 371.648 312.779 371.433 312.71C371.215 312.641 370.998 312.57 370.783 312.498C370.567 312.426 370.35 312.354 370.135 312.28C369.917 312.204 369.702 312.126 369.487 312.048C369.27 311.97 369.052 311.892 368.839 311.811C368.621 311.73 368.405 311.644 368.189 311.559C367.972 311.474 367.756 311.39 367.541 311.303C367.323 311.214 367.107 311.12 366.892 311.029C366.674 310.937 366.458 310.844 366.243 310.749C366.025 310.652 365.81 310.553 365.594 310.452C365.378 310.353 365.161 310.252 364.946 310.15C364.728 310.046 364.513 309.939 364.298 309.832C364.08 309.723 363.863 309.612 363.65 309.501C363.432 309.388 363.214 309.276 363 309.16C362.782 309.041 362.567 308.92 362.352 308.799C362.135 308.676 361.917 308.554 361.703 308.429C361.485 308.302 361.269 308.171 361.055 308.041C360.837 307.909 360.621 307.772 360.407 307.637C360.189 307.499 359.971 307.363 359.757 307.222C359.538 307.079 359.324 306.93 359.109 306.781C358.891 306.632 358.674 306.48 358.461 306.327C358.243 306.171 358.025 306.015 357.812 305.857C357.593 305.694 357.378 305.526 357.163 305.359C356.945 305.189 356.728 305.018 356.514 304.844C356.296 304.668 356.079 304.492 355.866 304.31C355.647 304.126 355.432 303.935 355.218 303.745C354.998 303.552 354.783 303.354 354.568 303.156C354.35 302.953 354.134 302.749 353.92 302.542C353.702 302.331 353.484 302.12 353.272 301.903C353.051 301.68 352.837 301.452 352.623 301.223C352.403 300.989 352.187 300.752 351.975 300.512C351.754 300.265 351.538 300.015 351.325 299.763C351.106 299.503 350.89 299.241 350.677 298.975C350.458 298.701 350.24 298.423 350.029 298.142C349.808 297.852 349.592 297.559 349.379 297.261C349.16 296.952 348.942 296.639 348.731 296.323C348.51 295.992 348.294 295.658 348.083 295.319C347.861 294.964 347.645 294.606 347.434 294.243C347.211 293.861 346.996 293.473 346.785 293.081C346.561 292.666 346.346 292.246 346.136 291.821C345.913 291.367 345.696 290.908 345.488 290.444C345.265 289.943 345.045 289.44 344.84 288.927C344.611 288.36 344.397 287.782 344.19 287.199C343.963 286.552 343.745 285.898 343.542 285.23C343.309 284.458 343.091 283.672 342.894 282.873C342.648 281.879 342.434 280.863 342.245 279.829C341.965 278.297 341.749 276.72 341.596 275.102C341.422 273.233 341.332 271.308 341.332 269.326C341.332 267.343 341.422 265.417 341.596 263.546C341.749 261.927 341.965 260.352 342.245 258.817C342.434 257.783 342.648 256.766 342.894 255.771C343.091 254.972 343.309 254.186 343.542 253.412C343.745 252.746 343.963 252.091 344.19 251.443C344.397 250.859 344.611 250.281 344.84 249.714C345.045 249.201 345.265 248.697 345.488 248.197C345.696 247.732 345.913 247.273 346.136 246.821C346.346 246.394 346.561 245.974 346.785 245.559C346.996 245.167 347.211 244.779 347.434 244.396C347.645 244.033 347.861 243.673 348.083 243.319C348.294 242.981 348.51 242.646 348.731 242.316C348.942 241.999 349.16 241.686 349.379 241.377C349.592 241.079 349.808 240.785 350.029 240.494C350.24 240.214 350.458 239.937 350.677 239.661C350.89 239.396 351.106 239.134 351.325 238.873C351.538 238.621 351.754 238.371 351.975 238.124C352.187 237.886 352.403 237.646 352.623 237.411C352.837 237.183 353.051 236.954 353.272 236.731C353.484 236.516 353.702 236.303 353.92 236.092C354.134 235.886 354.35 235.681 354.568 235.479C354.783 235.28 354.998 235.083 355.218 234.888C355.432 234.699 355.647 234.509 355.866 234.323C356.079 234.142 356.296 233.967 356.514 233.789C356.728 233.617 356.945 233.444 357.163 233.274C357.378 233.108 357.593 232.939 357.812 232.777C358.025 232.617 358.243 232.462 358.461 232.306C358.674 232.152 358.891 232.001 359.109 231.851C359.324 231.703 359.538 231.554 359.757 231.411C359.971 231.269 360.189 231.132 360.407 230.996C360.621 230.859 360.837 230.724 361.055 230.592C361.269 230.461 361.485 230.331 361.703 230.203C361.917 230.077 362.135 229.956 362.352 229.833C362.567 229.712 362.782 229.59 363 229.473C363.214 229.357 363.432 229.244 363.65 229.131C363.863 229.021 364.08 228.909 364.298 228.8C364.513 228.694 364.728 228.586 364.946 228.483C365.161 228.379 365.378 228.279 365.594 228.178C365.81 228.079 366.025 227.978 366.243 227.881C366.458 227.786 366.674 227.695 366.892 227.603C367.107 227.51 367.323 227.418 367.541 227.328C367.756 227.241 367.972 227.157 368.189 227.072C368.405 226.988 368.621 226.902 368.839 226.819C369.052 226.739 369.27 226.661 369.487 226.582C369.702 226.505 369.917 226.426 370.135 226.35C370.35 226.276 370.567 226.204 370.783 226.132C370.998 226.061 371.215 225.989 371.433 225.919C371.648 225.851 371.863 225.785 372.081 225.719C372.296 225.652 372.512 225.588 372.73 225.524L373.378 225.341C373.593 225.28 373.81 225.219 374.026 225.161C374.241 225.105 374.458 225.05 374.676 224.994C374.891 224.941 375.106 224.886 375.324 224.833L375.972 224.681C376.189 224.632 376.404 224.581 376.621 224.534C376.836 224.487 377.054 224.443 377.27 224.399C377.487 224.353 377.701 224.306 377.919 224.263C378.132 224.221 378.35 224.183 378.567 224.143C378.783 224.103 378.997 224.061 379.215 224.022C379.43 223.985 379.648 223.952 379.863 223.916C380.08 223.88 380.295 223.843 380.513 223.81L381.161 223.713L381.81 223.622L382.458 223.537L383.107 223.459L383.756 223.385L384.404 223.32C384.621 223.298 384.836 223.274 385.054 223.255C385.267 223.234 385.485 223.221 385.702 223.203L386.35 223.152L386.998 223.108L387.648 223.069L388.296 223.033C388.512 223.022 388.728 223.015 388.945 223.007C389.161 222.999 389.375 222.988 389.593 222.981L390.243 222.964L390.891 222.95L391.539 222.941L392.187 222.938C392.404 222.938 392.619 222.935 392.837 222.937L393.485 222.943L394.134 222.953L394.782 222.967L395.43 222.989L396.08 223.01L396.728 223.039L397.376 223.072L398.025 223.106L398.674 223.149L399.323 223.192L399.578 223.21L399.971 223.24L400.619 223.292L401.267 223.348L401.917 223.406L402.565 223.468L403.214 223.534L403.862 223.603L404.512 223.673L405.16 223.749L405.808 223.828L406.456 223.91L407.106 223.996L407.754 224.086L408.403 224.177L409.051 224.273L409.701 224.372L410.349 224.476L410.997 224.581L411.645 224.692L412.294 224.806L412.943 224.923L413.592 225.043L414.24 225.167L414.888 225.295L415.538 225.426L416.186 225.561L416.834 225.701L417.483 225.843L418.132 225.988L418.781 226.138L419.429 226.291L420.077 226.448L420.727 226.608L421.375 226.774L422.023 226.942L422.672 227.113L423.321 227.288L423.97 227.469L424.618 227.651L425.266 227.839L425.916 228.029L426.564 228.223L427.212 228.421L427.861 228.622L428.51 228.828L429.159 229.037L429.807 229.25L430.455 229.468L431.105 229.687L431.753 229.91L432.401 230.139L433.05 230.371L433.698 230.607L434.347 230.846L434.996 231.088L435.644 231.335L436.292 231.586L436.942 231.84L437.59 232.097L438.239 232.359L438.887 232.623L439.535 232.891L440.185 233.164L440.833 233.439L441.481 233.719L442.13 234L442.779 234.286L443.427 234.575L444.076 234.868L444.724 235.164L445.372 235.463L446.022 235.766L446.67 236.072L447.318 236.381L447.968 236.692L448.616 237.007L449.265 237.326L449.913 237.646L450.559 237.968V209.702L449.913 209.543L449.265 209.389L448.616 209.236L447.968 209.086L447.318 208.937L446.67 208.789L446.022 208.644L445.372 208.499L444.724 208.357L444.076 208.215L443.427 208.076L442.779 207.938L442.13 207.8L441.481 207.665L440.833 207.531L440.185 207.399L439.535 207.266L438.887 207.137L438.239 207.007L437.59 206.879L436.942 206.753L436.292 206.628L435.644 206.503L434.996 206.381L434.347 206.259L433.698 206.139L433.05 206.019L432.401 205.902L431.753 205.786L431.105 205.67L430.455 205.557L429.807 205.444L429.159 205.332L428.51 205.222L427.861 205.113L427.212 205.007L426.564 204.901L425.916 204.796L425.266 204.692L424.618 204.59L423.97 204.49L423.321 204.389L422.672 204.291L422.023 204.194L421.375 204.099L420.727 204.006L420.077 203.913L419.429 203.822L418.781 203.734L418.132 203.646L417.483 203.559L416.834 203.473L416.186 203.39L415.538 203.309L414.888 203.228L414.24 203.149L413.592 203.072L412.943 202.996L412.294 202.923L411.645 202.85L410.997 202.779L410.349 202.71L409.701 202.643L409.051 202.578L408.403 202.514L407.754 202.452L407.106 202.392L406.456 202.334L405.808 202.277L405.16 202.223L404.512 202.171L403.862 202.12L403.214 202.072L402.565 202.025L401.917 201.982L401.267 201.938L400.619 201.899L399.971 201.861L399.323 201.825L398.674 201.792L398.025 201.761L397.694 201.745L397.376 201.732L396.728 201.705L396.08 201.679L395.43 201.652L394.782 201.629L394.134 201.607L393.485 201.585L392.837 201.566L392.187 201.548L391.539 201.53L390.891 201.513L390.243 201.501L389.593 201.487L388.945 201.474L388.296 201.465L387.648 201.457L386.998 201.448L386.35 201.443L385.702 201.44L385.054 201.436L384.404 201.434L383.756 201.436L383.107 201.437L382.458 201.439L381.81 201.444L381.161 201.451L380.513 201.458L379.863 201.469L379.215 201.48L378.567 201.491L377.919 201.506L377.27 201.523L376.621 201.539L375.972 201.56L375.324 201.581L374.676 201.603L374.026 201.629L373.378 201.655L372.73 201.681L372.081 201.713L371.433 201.745L370.783 201.777L370.135 201.814L369.487 201.851L368.839 201.888L368.189 201.931L367.541 201.974L366.892 202.018L366.243 202.066L365.594 202.114L364.946 202.166L364.298 202.219L363.65 202.273L363 202.331L362.352 202.392L361.703 202.451L361.055 202.516L360.407 202.582L359.757 202.648L359.109 202.721L358.461 202.793L357.812 202.866L357.163 202.946L356.514 203.025L355.866 203.108L355.218 203.192L354.568 203.277L353.92 203.368L353.272 203.459L352.623 203.553L351.975 203.651L351.325 203.749L350.677 203.852L350.029 203.957L349.379 204.065L348.731 204.177L348.083 204.288L347.434 204.406L346.785 204.524L346.136 204.647L345.488 204.772L344.84 204.898L344.19 205.03L343.542 205.164L342.894 205.302L342.245 205.443L341.596 205.585L340.947 205.734L340.299 205.881L339.651 206.037L339.001 206.194L338.353 206.356L337.705 206.52L337.056 206.688L336.408 206.861L335.759 207.036L335.11 207.215L334.462 207.399L333.814 207.588L333.164 207.777L332.516 207.974L331.867 208.172L331.219 208.378C331.003 208.447 330.785 208.514 330.57 208.585L329.921 208.8C329.706 208.872 329.488 208.942 329.273 209.015L328.625 209.239L327.976 209.463C327.759 209.541 327.543 209.619 327.327 209.698C327.11 209.777 326.894 209.852 326.679 209.932L326.03 210.177C325.814 210.258 325.596 210.338 325.382 210.421L324.732 210.676L324.084 210.932L323.436 211.196L322.787 211.465L322.138 211.739L321.49 212.019L320.841 212.305L320.193 212.6L319.545 212.897C319.327 212.999 319.112 213.102 318.896 213.204L318.247 213.516L317.598 213.836L316.95 214.163C316.734 214.273 316.516 214.382 316.302 214.494C316.083 214.607 315.869 214.723 315.652 214.837L315.004 215.186L314.356 215.542C314.138 215.663 313.923 215.786 313.706 215.909C313.49 216.032 313.273 216.154 313.058 216.28C312.841 216.407 312.626 216.535 312.41 216.663C312.192 216.793 311.976 216.924 311.761 217.055C311.545 217.188 311.327 217.32 311.113 217.454C310.895 217.589 310.679 217.727 310.463 217.865L309.815 218.286C309.599 218.428 309.381 218.57 309.167 218.713L308.518 219.154C308.301 219.305 308.085 219.457 307.87 219.607C307.652 219.76 307.436 219.914 307.221 220.07C307.004 220.228 306.786 220.383 306.572 220.542C306.354 220.705 306.139 220.868 305.924 221.032C305.706 221.199 305.49 221.366 305.274 221.534C305.058 221.703 304.841 221.874 304.626 222.046Z" fill="#E10238"/>
</g>
<defs>
<clipPath id="clip0_6969_186">
<rect width="772" height="538" fill="white"/>
</clipPath>
</defs>
</svg>
