<svg width="2500" height="2500" viewBox="0 0 2500 2500" fill="none" xmlns="http://www.w3.org/2000/svg">
<path d="M819.099 1492.3C1124.46 1492.3 1372 1244.36 1372 938.5C1372 632.645 1124.46 384.7 819.099 384.7C513.741 384.7 266.199 632.645 266.199 938.5C266.199 1244.36 513.741 1492.3 819.099 1492.3Z" fill="#FF0202"/>
<path d="M1597.4 2116.1C1902.76 2116.1 2150.3 1868.16 2150.3 1562.3C2150.3 1256.44 1902.76 1008.5 1597.4 1008.5C1292.04 1008.5 1044.5 1256.44 1044.5 1562.3C1044.5 1868.16 1292.04 2116.1 1597.4 2116.1Z" fill="#00D4BE"/>
<path d="M1737.3 1187.3C1739.4 1185.5 1742.3 1183.2 1746 1181C1747.8 1179.9 1753.7 1176.4 1762.4 1173.7C1771.6 1170.9 1778.9 1170.6 1784.9 1170.3C1790.3 1170.1 1798.7 1169.7 1808.2 1171.7C1829.6 1176.1 1843.5 1189.4 1848.1 1194C1854.7 1200.5 1863.1 1210.9 1868.4 1225.7C1875.7 1245.8 1873.3 1263 1872.4 1268.4C1869 1288.4 1859.1 1301.4 1854.7 1307.1C1850.2 1312.8 1841.1 1324.3 1824.7 1332.1C1806.4 1340.8 1789.8 1339.9 1783 1339.4C1760.7 1337.9 1745.5 1328.3 1741.7 1325.7C1728 1316.6 1720.2 1305.6 1716.4 1299.4C1714.3 1296 1705.8 1281.4 1704.4 1260.4C1703.1 1241.8 1708.1 1228 1709.4 1224.4C1714.8 1210.1 1722.8 1200.9 1726.1 1197.4C1730.2 1192.8 1734.2 1189.6 1737.3 1187.3Z" fill="white"/>
<path d="M2301.08 962.562C2297.24 930.175 2281.69 905.033 2254.42 887.135C2227.15 869.238 2193.69 860.289 2154.06 860.289C2125.09 860.289 2099.73 864.976 2078 874.351C2056.48 883.726 2039.65 896.617 2027.5 913.023C2015.57 929.429 2009.6 948.073 2009.6 968.954C2009.6 986.425 2013.76 1001.45 2022.07 1014.02C2030.59 1026.38 2041.46 1036.71 2054.67 1045.02C2067.88 1053.12 2081.73 1059.83 2096.22 1065.15C2110.7 1070.27 2124.02 1074.42 2136.17 1077.62L2202.64 1095.52C2219.69 1099.99 2238.65 1106.17 2259.53 1114.05C2280.63 1121.94 2300.76 1132.7 2319.94 1146.33C2339.33 1159.76 2355.31 1177.01 2367.88 1198.11C2380.45 1219.2 2386.73 1245.09 2386.73 1275.77C2386.73 1311.14 2377.47 1343.1 2358.93 1371.65C2340.6 1400.2 2313.76 1422.9 2278.39 1439.73C2243.23 1456.56 2200.51 1464.98 2150.23 1464.98C2103.35 1464.98 2062.76 1457.41 2028.46 1442.28C1994.37 1427.16 1967.52 1406.06 1947.92 1379C1928.53 1351.94 1917.56 1320.52 1915 1284.72H1996.82C1998.95 1309.44 2007.26 1329.89 2021.75 1346.08C2036.45 1362.06 2054.99 1374 2077.36 1381.88C2099.94 1389.55 2124.23 1393.39 2150.23 1393.39C2180.48 1393.39 2207.65 1388.48 2231.73 1378.68C2255.8 1368.67 2274.87 1354.82 2288.94 1337.14C2303 1319.24 2310.03 1298.36 2310.03 1274.49C2310.03 1252.76 2303.96 1235.08 2291.81 1221.44C2279.67 1207.8 2263.69 1196.72 2243.87 1188.2C2224.06 1179.68 2202.64 1172.22 2179.63 1165.83L2099.09 1142.82C2047.96 1128.12 2007.47 1107.13 1977.64 1079.86C1947.81 1052.58 1932.9 1016.89 1932.9 972.789C1932.9 936.141 1942.81 904.181 1962.62 876.908C1982.65 849.422 2009.5 828.116 2043.16 812.988C2077.04 797.647 2114.86 789.976 2156.62 789.976C2198.81 789.976 2236.31 797.54 2269.12 812.668C2301.93 827.583 2327.93 848.037 2347.1 874.032C2366.49 900.026 2376.72 929.536 2377.78 962.562H2301.08Z" fill="#000105"/>
<path d="M312.863 1454.47H133.318V872.653H320.818C377.257 872.653 425.553 884.3 465.704 907.596C505.856 930.702 536.632 963.94 558.034 1007.31C579.435 1050.49 590.136 1102.2 590.136 1162.43C590.136 1223.03 579.341 1275.21 557.75 1318.96C536.159 1362.52 504.719 1396.04 463.431 1419.53C422.144 1442.82 371.954 1454.47 312.863 1454.47ZM203.772 1391.97H308.318C356.424 1391.97 396.291 1382.69 427.92 1364.13C459.549 1345.57 483.128 1319.15 498.659 1284.87C514.189 1250.59 521.954 1209.77 521.954 1162.43C521.954 1115.46 514.284 1075.02 498.943 1041.12C483.602 1007.03 460.685 980.891 430.193 962.709C399.7 944.338 361.727 935.153 316.272 935.153H203.772V1391.97ZM826.181 1463.56C784.136 1463.56 747.867 1454.28 717.375 1435.72C687.072 1416.97 663.681 1390.83 647.204 1357.31C630.916 1323.6 622.772 1284.39 622.772 1239.7C622.772 1195 630.916 1155.61 647.204 1121.52C663.681 1087.24 686.598 1060.53 715.954 1041.4C745.5 1022.08 779.969 1012.43 819.363 1012.43C842.091 1012.43 864.534 1016.21 886.693 1023.79C908.852 1031.36 929.022 1043.68 947.204 1060.72C965.386 1077.58 979.875 1099.93 990.67 1127.77C1001.47 1155.61 1006.86 1189.89 1006.86 1230.61V1259.02H670.5V1201.06H938.681C938.681 1176.44 933.757 1154.47 923.909 1135.15C914.25 1115.83 900.424 1100.59 882.431 1089.41C864.628 1078.24 843.606 1072.65 819.363 1072.65C792.659 1072.65 769.553 1079.28 750.045 1092.54C730.727 1105.61 715.859 1122.65 705.443 1143.68C695.026 1164.7 689.818 1187.24 689.818 1211.29V1249.93C689.818 1282.88 695.5 1310.82 706.863 1333.73C718.416 1356.46 734.42 1373.79 754.875 1385.72C775.329 1397.46 799.098 1403.33 826.181 1403.33C843.795 1403.33 859.704 1400.87 873.909 1395.95C888.303 1390.83 900.708 1383.26 911.125 1373.22C921.541 1362.99 929.591 1350.3 935.272 1335.15L1000.05 1353.33C993.227 1375.3 981.769 1394.62 965.67 1411.29C949.572 1427.77 929.685 1440.64 906.011 1449.93C882.337 1459.02 855.727 1463.56 826.181 1463.56ZM1119.9 1191.97V1454.47H1052.85V1018.11H1117.62V1086.29H1123.31C1133.53 1064.13 1149.06 1046.33 1169.9 1032.88C1190.73 1019.24 1217.62 1012.43 1250.58 1012.43C1280.12 1012.43 1305.98 1018.49 1328.14 1030.61C1350.3 1042.54 1367.53 1060.72 1379.84 1085.15C1392.15 1109.39 1398.31 1140.08 1398.31 1177.2V1454.47H1331.26V1181.74C1331.26 1147.46 1322.36 1120.76 1304.56 1101.63C1286.75 1082.31 1262.32 1072.65 1231.26 1072.65C1209.86 1072.65 1190.73 1077.29 1173.87 1086.57C1157.21 1095.85 1144.05 1109.39 1134.39 1127.2C1124.73 1145 1119.9 1166.59 1119.9 1191.97ZM1654.59 1018.11V1074.93H1428.46V1018.11H1654.59ZM1494.37 913.562H1561.41V1329.47C1561.41 1348.41 1564.16 1362.61 1569.65 1372.08C1575.33 1381.36 1582.53 1387.61 1591.24 1390.83C1600.14 1393.86 1609.52 1395.38 1619.37 1395.38C1626.75 1395.38 1632.81 1395 1637.55 1394.24C1642.28 1393.3 1646.07 1392.54 1648.91 1391.97L1662.55 1452.2C1658 1453.9 1651.66 1455.61 1643.51 1457.31C1635.37 1459.21 1625.05 1460.15 1612.55 1460.15C1593.61 1460.15 1575.05 1456.08 1556.87 1447.94C1538.87 1439.79 1523.91 1427.39 1511.98 1410.72C1500.24 1394.05 1494.37 1373.03 1494.37 1347.65V913.562Z" fill="black"/>
<path d="M178 1654H138.5V1526H179.75C192.167 1526 202.792 1528.56 211.625 1533.69C220.458 1538.77 227.229 1546.08 231.937 1555.62C236.646 1565.12 239 1576.5 239 1589.75C239 1603.08 236.625 1614.56 231.875 1624.19C227.125 1633.77 220.208 1641.15 211.125 1646.31C202.042 1651.44 191 1654 178 1654ZM154 1640.25H177C187.583 1640.25 196.354 1638.21 203.313 1634.12C210.271 1630.04 215.458 1624.23 218.875 1616.69C222.292 1609.15 224 1600.17 224 1589.75C224 1579.42 222.312 1570.52 218.938 1563.06C215.563 1555.56 210.521 1549.81 203.813 1545.81C197.104 1541.77 188.75 1539.75 178.75 1539.75H154V1640.25ZM322.61 1656C313.36 1656 305.381 1653.96 298.673 1649.88C292.006 1645.75 286.86 1640 283.235 1632.62C279.652 1625.21 277.86 1616.58 277.86 1606.75C277.86 1596.92 279.652 1588.25 283.235 1580.75C286.86 1573.21 291.902 1567.33 298.36 1563.12C304.86 1558.87 312.443 1556.75 321.11 1556.75C326.11 1556.75 331.048 1557.58 335.923 1559.25C340.798 1560.92 345.235 1563.62 349.235 1567.38C353.235 1571.08 356.423 1576 358.798 1582.12C361.173 1588.25 362.36 1595.79 362.36 1604.75V1611H288.36V1598.25H347.36C347.36 1592.83 346.277 1588 344.11 1583.75C341.985 1579.5 338.943 1576.15 334.985 1573.69C331.068 1571.23 326.443 1570 321.11 1570C315.235 1570 310.152 1571.46 305.86 1574.37C301.61 1577.25 298.339 1581 296.048 1585.62C293.756 1590.25 292.61 1595.21 292.61 1600.5V1609C292.61 1616.25 293.86 1622.4 296.36 1627.44C298.902 1632.44 302.423 1636.25 306.923 1638.88C311.423 1641.46 316.652 1642.75 322.61 1642.75C326.485 1642.75 329.985 1642.21 333.11 1641.12C336.277 1640 339.006 1638.33 341.298 1636.12C343.589 1633.87 345.36 1631.08 346.61 1627.75L360.86 1631.75C359.36 1636.58 356.839 1640.83 353.298 1644.5C349.756 1648.12 345.381 1650.96 340.173 1653C334.964 1655 329.11 1656 322.61 1656ZM418.908 1596.25V1654H404.158V1558H418.408V1573H419.658C421.908 1568.13 425.324 1564.21 429.908 1561.25C434.491 1558.25 440.408 1556.75 447.658 1556.75C454.158 1556.75 459.845 1558.08 464.72 1560.75C469.595 1563.38 473.387 1567.38 476.095 1572.75C478.803 1578.08 480.158 1584.83 480.158 1593V1654H465.408V1594C465.408 1586.46 463.449 1580.58 459.533 1576.37C455.616 1572.12 450.241 1570 443.408 1570C438.699 1570 434.491 1571.02 430.783 1573.06C427.116 1575.1 424.22 1578.08 422.095 1582C419.97 1585.92 418.908 1590.67 418.908 1596.25ZM568.221 1558V1570.5H518.471V1558H568.221ZM532.971 1535H547.721V1626.5C547.721 1630.67 548.325 1633.79 549.533 1635.87C550.783 1637.92 552.366 1639.29 554.283 1640C556.241 1640.67 558.304 1641 560.471 1641C562.096 1641 563.429 1640.92 564.471 1640.75C565.512 1640.54 566.346 1640.37 566.971 1640.25L569.971 1653.5C568.971 1653.87 567.575 1654.25 565.783 1654.63C563.991 1655.04 561.721 1655.25 558.971 1655.25C554.804 1655.25 550.721 1654.35 546.721 1652.56C542.762 1650.77 539.471 1648.04 536.846 1644.38C534.262 1640.71 532.971 1636.08 532.971 1630.5V1535ZM638.018 1656.25C631.935 1656.25 626.414 1655.1 621.456 1652.81C616.497 1650.48 612.56 1647.12 609.643 1642.75C606.726 1638.33 605.268 1633 605.268 1626.75C605.268 1621.25 606.351 1616.79 608.518 1613.37C610.685 1609.92 613.581 1607.21 617.206 1605.25C620.831 1603.29 624.831 1601.83 629.206 1600.87C633.622 1599.88 638.06 1599.08 642.518 1598.5C648.351 1597.75 653.081 1597.19 656.706 1596.81C660.372 1596.4 663.039 1595.71 664.706 1594.75C666.414 1593.79 667.268 1592.12 667.268 1589.75V1589.25C667.268 1583.08 665.581 1578.29 662.206 1574.87C658.872 1571.46 653.81 1569.75 647.018 1569.75C639.976 1569.75 634.456 1571.29 630.456 1574.37C626.456 1577.46 623.643 1580.75 622.018 1584.25L608.018 1579.25C610.518 1573.42 613.851 1568.87 618.018 1565.62C622.226 1562.33 626.81 1560.04 631.768 1558.75C636.768 1557.42 641.685 1556.75 646.518 1556.75C649.601 1556.75 653.143 1557.12 657.143 1557.87C661.185 1558.58 665.081 1560.06 668.831 1562.31C672.622 1564.56 675.768 1567.96 678.268 1572.5C680.768 1577.04 682.018 1583.12 682.018 1590.75V1654H667.268V1641H666.518C665.518 1643.08 663.851 1645.31 661.518 1647.69C659.185 1650.06 656.081 1652.08 652.206 1653.75C648.331 1655.42 643.601 1656.25 638.018 1656.25ZM640.268 1643C646.101 1643 651.018 1641.85 655.018 1639.56C659.06 1637.27 662.101 1634.31 664.143 1630.69C666.226 1627.06 667.268 1623.25 667.268 1619.25V1605.75C666.643 1606.5 665.268 1607.19 663.143 1607.81C661.06 1608.4 658.643 1608.92 655.893 1609.37C653.185 1609.79 650.539 1610.17 647.956 1610.5C645.414 1610.79 643.351 1611.04 641.768 1611.25C637.935 1611.75 634.351 1612.56 631.018 1613.69C627.726 1614.77 625.06 1616.42 623.018 1618.62C621.018 1620.79 620.018 1623.75 620.018 1627.5C620.018 1632.62 621.914 1636.5 625.706 1639.12C629.539 1641.71 634.393 1643 640.268 1643ZM743.05 1526V1654H728.3V1526H743.05ZM1031.87 1590C1031.87 1603.5 1029.43 1615.17 1024.55 1625C1019.68 1634.83 1012.99 1642.42 1004.49 1647.75C995.991 1653.08 986.282 1655.75 975.366 1655.75C964.449 1655.75 954.741 1653.08 946.241 1647.75C937.741 1642.42 931.053 1634.83 926.178 1625C921.303 1615.17 918.866 1603.5 918.866 1590C918.866 1576.5 921.303 1564.83 926.178 1555C931.053 1545.17 937.741 1537.58 946.241 1532.25C954.741 1526.92 964.449 1524.25 975.366 1524.25C986.282 1524.25 995.991 1526.92 1004.49 1532.25C1012.99 1537.58 1019.68 1545.17 1024.55 1555C1029.43 1564.83 1031.87 1576.5 1031.87 1590ZM1016.87 1590C1016.87 1578.92 1015.01 1569.56 1011.3 1561.94C1007.64 1554.31 1002.66 1548.54 996.366 1544.62C990.116 1540.71 983.116 1538.75 975.366 1538.75C967.616 1538.75 960.595 1540.71 954.303 1544.62C948.053 1548.54 943.074 1554.31 939.366 1561.94C935.699 1569.56 933.866 1578.92 933.866 1590C933.866 1601.08 935.699 1610.44 939.366 1618.06C943.074 1625.69 948.053 1631.46 954.303 1635.37C960.595 1639.29 967.616 1641.25 975.366 1641.25C983.116 1641.25 990.116 1639.29 996.366 1635.37C1002.66 1631.46 1007.64 1625.69 1011.3 1618.06C1015.01 1610.44 1016.87 1601.08 1016.87 1590ZM1090.04 1596.25V1654H1075.29V1558H1089.54V1573H1090.79C1093.04 1568.13 1096.45 1564.21 1101.04 1561.25C1105.62 1558.25 1111.54 1556.75 1118.79 1556.75C1125.29 1556.75 1130.98 1558.08 1135.85 1560.75C1140.73 1563.38 1144.52 1567.38 1147.23 1572.75C1149.93 1578.08 1151.29 1584.83 1151.29 1593V1654H1136.54V1594C1136.54 1586.46 1134.58 1580.58 1130.66 1576.37C1126.75 1572.12 1121.37 1570 1114.54 1570C1109.83 1570 1105.62 1571.02 1101.91 1573.06C1098.25 1575.1 1095.35 1578.08 1093.23 1582C1091.1 1585.92 1090.04 1590.67 1090.04 1596.25ZM1212.35 1526V1654H1197.6V1526H1212.35ZM1258.73 1654V1558H1273.48V1654H1258.73ZM1266.23 1542C1263.35 1542 1260.87 1541.02 1258.79 1539.06C1256.75 1537.1 1255.73 1534.75 1255.73 1532C1255.73 1529.25 1256.75 1526.9 1258.79 1524.94C1260.87 1522.98 1263.35 1522 1266.23 1522C1269.1 1522 1271.56 1522.98 1273.6 1524.94C1275.69 1526.9 1276.73 1529.25 1276.73 1532C1276.73 1534.75 1275.69 1537.1 1273.6 1539.06C1271.56 1541.02 1269.1 1542 1266.23 1542ZM1334.6 1596.25V1654H1319.85V1558H1334.1V1573H1335.35C1337.6 1568.13 1341.02 1564.21 1345.6 1561.25C1350.19 1558.25 1356.1 1556.75 1363.35 1556.75C1369.85 1556.75 1375.54 1558.08 1380.42 1560.75C1385.29 1563.38 1389.08 1567.38 1391.79 1572.75C1394.5 1578.08 1395.85 1584.83 1395.85 1593V1654H1381.1V1594C1381.1 1586.46 1379.14 1580.58 1375.23 1576.37C1371.31 1572.12 1365.94 1570 1359.1 1570C1354.39 1570 1350.19 1571.02 1346.48 1573.06C1342.81 1575.1 1339.92 1578.08 1337.79 1582C1335.67 1585.92 1334.6 1590.67 1334.6 1596.25ZM1482.42 1656C1473.17 1656 1465.19 1653.96 1458.48 1649.88C1451.81 1645.75 1446.67 1640 1443.04 1632.62C1439.46 1625.21 1437.67 1616.58 1437.67 1606.75C1437.67 1596.92 1439.46 1588.25 1443.04 1580.75C1446.67 1573.21 1451.71 1567.33 1458.17 1563.12C1464.67 1558.87 1472.25 1556.75 1480.92 1556.75C1485.92 1556.75 1490.85 1557.58 1495.73 1559.25C1500.6 1560.92 1505.04 1563.62 1509.04 1567.38C1513.04 1571.08 1516.23 1576 1518.6 1582.12C1520.98 1588.25 1522.17 1595.79 1522.17 1604.75V1611H1448.17V1598.25H1507.17C1507.17 1592.83 1506.08 1588 1503.92 1583.75C1501.79 1579.5 1498.75 1576.15 1494.79 1573.69C1490.87 1571.23 1486.25 1570 1480.92 1570C1475.04 1570 1469.96 1571.46 1465.67 1574.37C1461.42 1577.25 1458.14 1581 1455.85 1585.62C1453.56 1590.25 1452.42 1595.21 1452.42 1600.5V1609C1452.42 1616.25 1453.67 1622.4 1456.17 1627.44C1458.71 1632.44 1462.23 1636.25 1466.73 1638.88C1471.23 1641.46 1476.46 1642.75 1482.42 1642.75C1486.29 1642.75 1489.79 1642.21 1492.92 1641.12C1496.08 1640 1498.81 1638.33 1501.1 1636.12C1503.39 1633.87 1505.17 1631.08 1506.42 1627.75L1520.67 1631.75C1519.17 1636.58 1516.64 1640.83 1513.1 1644.5C1509.56 1648.12 1505.19 1650.96 1499.98 1653C1494.77 1655 1488.92 1656 1482.42 1656ZM1704.82 1558C1704.07 1551.67 1701.03 1546.75 1695.7 1543.25C1690.36 1539.75 1683.82 1538 1676.07 1538C1670.41 1538 1665.45 1538.92 1661.2 1540.75C1656.99 1542.58 1653.7 1545.1 1651.32 1548.31C1648.99 1551.52 1647.82 1555.17 1647.82 1559.25C1647.82 1562.67 1648.64 1565.6 1650.26 1568.06C1651.93 1570.48 1654.05 1572.5 1656.64 1574.12C1659.22 1575.71 1661.93 1577.02 1664.76 1578.06C1667.59 1579.06 1670.2 1579.87 1672.57 1580.5L1685.57 1584C1688.91 1584.87 1692.61 1586.08 1696.7 1587.62C1700.82 1589.17 1704.76 1591.27 1708.51 1593.94C1712.3 1596.56 1715.43 1599.94 1717.89 1604.06C1720.34 1608.19 1721.57 1613.25 1721.57 1619.25C1721.57 1626.17 1719.76 1632.42 1716.14 1638C1712.55 1643.58 1707.3 1648.02 1700.39 1651.31C1693.51 1654.6 1685.16 1656.25 1675.32 1656.25C1666.16 1656.25 1658.22 1654.77 1651.51 1651.81C1644.84 1648.85 1639.59 1644.73 1635.76 1639.44C1631.97 1634.15 1629.82 1628 1629.32 1621H1645.32C1645.74 1625.83 1647.36 1629.83 1650.2 1633C1653.07 1636.12 1656.7 1638.46 1661.07 1640C1665.49 1641.5 1670.24 1642.25 1675.32 1642.25C1681.24 1642.25 1686.55 1641.29 1691.26 1639.37C1695.97 1637.42 1699.7 1634.71 1702.45 1631.25C1705.2 1627.75 1706.57 1623.67 1706.57 1619C1706.57 1614.75 1705.39 1611.29 1703.01 1608.62C1700.64 1605.96 1697.51 1603.79 1693.64 1602.13C1689.76 1600.46 1685.57 1599 1681.07 1597.75L1665.32 1593.25C1655.32 1590.37 1647.41 1586.27 1641.57 1580.94C1635.74 1575.6 1632.82 1568.62 1632.82 1560C1632.82 1552.83 1634.76 1546.58 1638.64 1541.25C1642.55 1535.87 1647.8 1531.71 1654.39 1528.75C1661.01 1525.75 1668.41 1524.25 1676.57 1524.25C1684.82 1524.25 1692.16 1525.73 1698.57 1528.69C1704.99 1531.6 1710.07 1535.6 1713.82 1540.69C1717.61 1545.77 1719.61 1551.54 1719.82 1558H1704.82ZM1803.42 1656C1794.42 1656 1786.67 1653.88 1780.17 1649.62C1773.67 1645.37 1768.67 1639.52 1765.17 1632.06C1761.67 1624.6 1759.92 1616.08 1759.92 1606.5C1759.92 1596.75 1761.71 1588.15 1765.29 1580.69C1768.92 1573.19 1773.96 1567.33 1780.42 1563.12C1786.92 1558.87 1794.5 1556.75 1803.17 1556.75C1809.92 1556.75 1816 1558 1821.42 1560.5C1826.83 1563 1831.27 1566.5 1834.73 1571C1838.19 1575.5 1840.33 1580.75 1841.17 1586.75H1826.42C1825.29 1582.37 1822.79 1578.5 1818.92 1575.12C1815.08 1571.71 1809.92 1570 1803.42 1570C1797.67 1570 1792.63 1571.5 1788.29 1574.5C1784 1577.46 1780.65 1581.65 1778.23 1587.06C1775.85 1592.44 1774.67 1598.75 1774.67 1606C1774.67 1613.42 1775.83 1619.87 1778.17 1625.37C1780.54 1630.87 1783.88 1635.15 1788.17 1638.19C1792.5 1641.23 1797.58 1642.75 1803.42 1642.75C1807.25 1642.75 1810.73 1642.08 1813.85 1640.75C1816.98 1639.42 1819.63 1637.5 1821.79 1635C1823.96 1632.5 1825.5 1629.5 1826.42 1626H1841.17C1840.33 1631.67 1838.27 1636.77 1834.98 1641.31C1831.73 1645.81 1827.42 1649.4 1822.04 1652.06C1816.71 1654.69 1810.5 1656 1803.42 1656ZM1896.84 1596.25V1654H1882.09V1526H1896.84V1573H1898.09C1900.34 1568.04 1903.71 1564.1 1908.21 1561.19C1912.76 1558.23 1918.8 1556.75 1926.34 1556.75C1932.88 1556.75 1938.61 1558.06 1943.53 1560.69C1948.44 1563.27 1952.26 1567.25 1954.96 1572.62C1957.71 1577.96 1959.09 1584.75 1959.09 1593V1654H1944.34V1594C1944.34 1586.37 1942.36 1580.48 1938.4 1576.31C1934.49 1572.1 1929.05 1570 1922.09 1570C1917.26 1570 1912.92 1571.02 1909.09 1573.06C1905.3 1575.1 1902.3 1578.08 1900.09 1582C1897.92 1585.92 1896.84 1590.67 1896.84 1596.25ZM2044.43 1656C2035.77 1656 2028.16 1653.94 2021.62 1649.81C2015.12 1645.69 2010.04 1639.92 2006.37 1632.5C2002.75 1625.08 2000.93 1616.42 2000.93 1606.5C2000.93 1596.5 2002.75 1587.77 2006.37 1580.31C2010.04 1572.85 2015.12 1567.06 2021.62 1562.94C2028.16 1558.81 2035.77 1556.75 2044.43 1556.75C2053.1 1556.75 2060.68 1558.81 2067.18 1562.94C2073.73 1567.06 2078.81 1572.85 2082.43 1580.31C2086.1 1587.77 2087.93 1596.5 2087.93 1606.5C2087.93 1616.42 2086.1 1625.08 2082.43 1632.5C2078.81 1639.92 2073.73 1645.69 2067.18 1649.81C2060.68 1653.94 2053.1 1656 2044.43 1656ZM2044.43 1642.75C2051.02 1642.75 2056.43 1641.06 2060.68 1637.69C2064.93 1634.31 2068.08 1629.87 2070.12 1624.37C2072.16 1618.87 2073.18 1612.92 2073.18 1606.5C2073.18 1600.08 2072.16 1594.1 2070.12 1588.56C2068.08 1583.02 2064.93 1578.54 2060.68 1575.12C2056.43 1571.71 2051.02 1570 2044.43 1570C2037.85 1570 2032.43 1571.71 2028.18 1575.12C2023.93 1578.54 2020.79 1583.02 2018.75 1588.56C2016.71 1594.1 2015.68 1600.08 2015.68 1606.5C2015.68 1612.92 2016.71 1618.87 2018.75 1624.37C2020.79 1629.87 2023.93 1634.31 2028.18 1637.69C2032.43 1641.06 2037.85 1642.75 2044.43 1642.75ZM2168.81 1656C2160.14 1656 2152.54 1653.94 2146 1649.81C2139.5 1645.69 2134.41 1639.92 2130.75 1632.5C2127.12 1625.08 2125.31 1616.42 2125.31 1606.5C2125.31 1596.5 2127.12 1587.77 2130.75 1580.31C2134.41 1572.85 2139.5 1567.06 2146 1562.94C2152.54 1558.81 2160.14 1556.75 2168.81 1556.75C2177.48 1556.75 2185.06 1558.81 2191.56 1562.94C2198.1 1567.06 2203.19 1572.85 2206.81 1580.31C2210.48 1587.77 2212.31 1596.5 2212.31 1606.5C2212.31 1616.42 2210.48 1625.08 2206.81 1632.5C2203.19 1639.92 2198.1 1645.69 2191.56 1649.81C2185.06 1653.94 2177.48 1656 2168.81 1656ZM2168.81 1642.75C2175.39 1642.75 2180.81 1641.06 2185.06 1637.69C2189.31 1634.31 2192.46 1629.87 2194.5 1624.37C2196.54 1618.87 2197.56 1612.92 2197.56 1606.5C2197.56 1600.08 2196.54 1594.1 2194.5 1588.56C2192.46 1583.02 2189.31 1578.54 2185.06 1575.12C2180.81 1571.71 2175.39 1570 2168.81 1570C2162.23 1570 2156.81 1571.71 2152.56 1575.12C2148.31 1578.54 2145.16 1583.02 2143.12 1588.56C2141.08 1594.1 2140.06 1600.08 2140.06 1606.5C2140.06 1612.92 2141.08 1618.87 2143.12 1624.37C2145.16 1629.87 2148.31 1634.31 2152.56 1637.69C2156.81 1641.06 2162.23 1642.75 2168.81 1642.75ZM2268.94 1526V1654H2254.19V1526H2268.94Z" fill="black"/>
</svg>
