<svg width="2500" height="2500" viewBox="0 0 2500 2500" fill="none" xmlns="http://www.w3.org/2000/svg">
<g clip-path="url(#clip0_8661_289)">
<path d="M806.103 1491.3C1111.46 1491.3 1359 1243.36 1359 937.5C1359 631.645 1111.46 383.7 806.103 383.7C500.745 383.7 253.203 631.645 253.203 937.5C253.203 1243.36 500.745 1491.3 806.103 1491.3Z" fill="#FF0202"/>
<path d="M1584.4 2115.1C1889.76 2115.1 2137.3 1867.16 2137.3 1561.3C2137.3 1255.44 1889.76 1007.5 1584.4 1007.5C1279.04 1007.5 1031.5 1255.44 1031.5 1561.3C1031.5 1867.16 1279.04 2115.1 1584.4 2115.1Z" fill="#79CEE7"/>
<path d="M1692.3 1181.3C1694.4 1179.5 1697.3 1177.2 1701 1175C1702.8 1173.9 1708.7 1170.4 1717.4 1167.7C1726.6 1164.9 1733.9 1164.6 1739.9 1164.3C1745.3 1164.1 1753.7 1163.7 1763.2 1165.7C1784.6 1170.1 1798.5 1183.4 1803.1 1188C1809.7 1194.5 1818.1 1204.9 1823.4 1219.7C1830.7 1239.8 1828.3 1257 1827.4 1262.4C1824 1282.4 1814.1 1295.4 1809.7 1301.1C1805.2 1306.8 1796.1 1318.3 1779.7 1326.1C1761.4 1334.8 1744.8 1333.9 1738 1333.4C1715.7 1331.9 1700.5 1322.3 1696.7 1319.7C1683 1310.6 1675.2 1299.6 1671.4 1293.4C1669.3 1290 1660.8 1275.4 1659.4 1254.4C1658.1 1235.8 1663.1 1222 1664.4 1218.4C1669.8 1204.1 1677.8 1194.9 1681.1 1191.4C1685.2 1186.8 1689.2 1183.6 1692.3 1181.3Z" fill="white"/>
<path d="M2363.57 1002.47C2356.54 980.951 2347.27 961.668 2335.77 944.623C2324.47 927.364 2310.94 912.662 2295.18 900.518C2279.62 888.373 2261.94 879.104 2242.12 872.712C2222.31 866.32 2200.57 863.124 2176.92 863.124C2138.15 863.124 2102.88 873.138 2071.14 893.167C2039.39 913.195 2014.14 942.705 1995.39 981.697C1976.64 1020.69 1967.26 1068.52 1967.26 1125.2C1967.26 1181.87 1976.75 1229.71 1995.71 1268.7C2014.67 1307.69 2040.35 1337.2 2072.73 1357.23C2105.12 1377.26 2141.55 1387.27 2182.04 1387.27C2219.54 1387.27 2252.56 1379.28 2281.11 1363.3C2309.88 1347.11 2332.25 1324.31 2348.23 1294.91C2364.42 1265.29 2372.52 1230.45 2372.52 1190.4L2396.81 1195.51H2199.94V1125.2H2449.23V1195.51C2449.23 1249.42 2437.72 1296.29 2414.71 1336.14C2391.91 1375.98 2360.38 1406.87 2320.11 1428.82C2280.05 1450.55 2234.03 1461.42 2182.04 1461.42C2124.08 1461.42 2073.16 1447.78 2029.27 1420.51C1985.59 1393.24 1951.5 1354.46 1927 1304.18C1902.71 1253.89 1890.56 1194.23 1890.56 1125.2C1890.56 1073.42 1897.49 1026.87 1911.33 985.532C1925.4 943.983 1945.21 908.614 1970.78 879.424C1996.35 850.233 2026.6 827.861 2061.55 812.307C2096.49 796.753 2134.95 788.976 2176.92 788.976C2211.44 788.976 2243.61 794.197 2273.44 804.637C2303.49 814.864 2330.23 829.459 2353.66 848.422C2377.31 867.172 2397.02 889.651 2412.79 915.858C2428.56 941.853 2439.42 970.724 2445.39 1002.47H2363.57Z" fill="#000105"/>
<path d="M64.3217 872.653H148.413L346.14 1355.61H352.958L550.685 872.653H634.776V1454.47H568.867V1012.43H563.185L381.367 1454.47H317.731L135.913 1012.43H130.231V1454.47H64.3217V872.653ZM949.904 1463.56C907.859 1463.56 871.59 1454.28 841.097 1435.72C810.794 1416.97 787.404 1390.83 770.927 1357.31C754.639 1323.6 746.495 1284.39 746.495 1239.7C746.495 1195 754.639 1155.61 770.927 1121.52C787.404 1087.24 810.321 1060.53 839.677 1041.4C869.222 1022.08 903.692 1012.43 943.086 1012.43C965.813 1012.43 988.256 1016.21 1010.42 1023.79C1032.57 1031.36 1052.75 1043.68 1070.93 1060.72C1089.11 1077.58 1103.6 1099.93 1114.39 1127.77C1125.19 1155.61 1130.59 1189.89 1130.59 1230.61V1259.02H794.222V1201.06H1062.4C1062.4 1176.44 1057.48 1154.47 1047.63 1135.15C1037.97 1115.83 1024.15 1100.59 1006.15 1089.41C988.351 1078.24 967.328 1072.65 943.086 1072.65C916.381 1072.65 893.275 1079.28 873.768 1092.54C854.45 1105.61 839.582 1122.65 829.165 1143.68C818.749 1164.7 813.54 1187.24 813.54 1211.29V1249.93C813.54 1282.88 819.222 1310.82 830.586 1333.73C842.139 1356.46 858.143 1373.79 878.597 1385.72C899.052 1397.46 922.821 1403.33 949.904 1403.33C967.518 1403.33 983.427 1400.87 997.631 1395.95C1012.03 1390.83 1024.43 1383.26 1034.85 1373.22C1045.26 1362.99 1053.31 1350.3 1059 1335.15L1123.77 1353.33C1116.95 1375.3 1105.49 1394.62 1089.39 1411.29C1073.29 1427.77 1053.41 1440.64 1029.73 1449.93C1006.06 1459.02 979.45 1463.56 949.904 1463.56ZM1397.35 1463.56C1360.98 1463.56 1328.88 1454.38 1301.04 1436C1273.2 1417.44 1251.42 1391.31 1235.7 1357.6C1219.98 1323.69 1212.12 1283.64 1212.12 1237.43C1212.12 1191.59 1219.98 1151.82 1235.7 1118.11C1251.42 1084.39 1273.29 1058.35 1301.32 1039.98C1329.35 1021.61 1361.74 1012.43 1398.48 1012.43C1426.89 1012.43 1449.34 1017.16 1465.81 1026.63C1482.48 1035.91 1495.17 1046.52 1503.88 1058.45C1512.78 1070.19 1519.7 1079.85 1524.62 1087.43H1530.3V872.653H1597.35V1454.47H1532.57V1387.43H1524.62C1519.7 1395.38 1512.69 1405.42 1503.6 1417.54C1494.51 1429.47 1481.53 1440.17 1464.68 1449.64C1447.82 1458.92 1425.38 1463.56 1397.35 1463.56ZM1406.44 1403.33C1433.33 1403.33 1456.06 1396.33 1474.62 1382.31C1493.18 1368.11 1507.29 1348.5 1516.95 1323.5C1526.61 1298.32 1531.44 1269.24 1531.44 1236.29C1531.44 1203.71 1526.7 1175.21 1517.23 1150.78C1507.76 1126.16 1493.75 1107.03 1475.19 1093.39C1456.63 1079.57 1433.71 1072.65 1406.44 1072.65C1378.03 1072.65 1354.35 1079.94 1335.42 1094.53C1316.67 1108.92 1302.56 1128.52 1293.09 1153.33C1283.81 1177.96 1279.17 1205.61 1279.17 1236.29C1279.17 1267.35 1283.9 1295.57 1293.37 1320.95C1303.03 1346.14 1317.23 1366.21 1335.98 1381.18C1354.92 1395.95 1378.41 1403.33 1406.44 1403.33Z" fill="#000105"/>
<path d="M484.5 1591C484.5 1604.5 482.063 1616.17 477.188 1626C472.313 1635.83 465.625 1643.42 457.125 1648.75C448.625 1654.08 438.917 1656.75 428 1656.75C417.083 1656.75 407.375 1654.08 398.875 1648.75C390.375 1643.42 383.688 1635.83 378.813 1626C373.938 1616.17 371.5 1604.5 371.5 1591C371.5 1577.5 373.938 1565.83 378.813 1556C383.688 1546.17 390.375 1538.58 398.875 1533.25C407.375 1527.92 417.083 1525.25 428 1525.25C438.917 1525.25 448.625 1527.92 457.125 1533.25C465.625 1538.58 472.313 1546.17 477.188 1556C482.063 1565.83 484.5 1577.5 484.5 1591ZM469.5 1591C469.5 1579.92 467.646 1570.56 463.938 1562.94C460.271 1555.31 455.292 1549.54 449 1545.62C442.75 1541.71 435.75 1539.75 428 1539.75C420.25 1539.75 413.229 1541.71 406.938 1545.62C400.688 1549.54 395.708 1555.31 392 1562.94C388.333 1570.56 386.5 1579.92 386.5 1591C386.5 1602.08 388.333 1611.44 392 1619.06C395.708 1626.69 400.688 1632.46 406.938 1636.37C413.229 1640.29 420.25 1642.25 428 1642.25C435.75 1642.25 442.75 1640.29 449 1636.37C455.292 1632.46 460.271 1626.69 463.938 1619.06C467.646 1611.44 469.5 1602.08 469.5 1591ZM523.313 1597.25V1655H508.563V1559H522.812V1574H524.063C526.313 1569.13 529.729 1565.21 534.313 1562.25C538.896 1559.25 544.813 1557.75 552.063 1557.75C558.563 1557.75 564.25 1559.08 569.125 1561.75C574 1564.38 577.792 1568.38 580.5 1573.75C583.208 1579.08 584.563 1585.83 584.563 1594V1655H569.813V1595C569.813 1587.46 567.854 1581.58 563.938 1577.37C560.021 1573.12 554.646 1571 547.812 1571C543.104 1571 538.896 1572.02 535.188 1574.06C531.521 1576.1 528.625 1579.08 526.5 1583C524.375 1586.92 523.313 1591.67 523.313 1597.25ZM626.266 1527V1655H611.516V1527H626.266ZM653.281 1655V1559H668.031V1655H653.281ZM660.781 1543C657.906 1543 655.427 1542.02 653.344 1540.06C651.302 1538.1 650.281 1535.75 650.281 1533C650.281 1530.25 651.302 1527.9 653.344 1525.94C655.427 1523.98 657.906 1523 660.781 1523C663.656 1523 666.115 1523.98 668.156 1525.94C670.24 1527.9 671.281 1530.25 671.281 1533C671.281 1535.75 670.24 1538.1 668.156 1540.06C666.115 1542.02 663.656 1543 660.781 1543ZM709.797 1597.25V1655H695.047V1559H709.297V1574H710.547C712.797 1569.13 716.214 1565.21 720.797 1562.25C725.38 1559.25 731.297 1557.75 738.547 1557.75C745.047 1557.75 750.734 1559.08 755.609 1561.75C760.484 1564.38 764.276 1568.38 766.984 1573.75C769.693 1579.08 771.047 1585.83 771.047 1594V1655H756.297V1595C756.297 1587.46 754.339 1581.58 750.422 1577.37C746.505 1573.12 741.13 1571 734.297 1571C729.589 1571 725.38 1572.02 721.672 1574.06C718.005 1576.1 715.109 1579.08 712.984 1583C710.859 1586.92 709.797 1591.67 709.797 1597.25ZM838.25 1657C829 1657 821.021 1654.96 814.312 1650.88C807.646 1646.75 802.5 1641 798.875 1633.62C795.292 1626.21 793.5 1617.58 793.5 1607.75C793.5 1597.92 795.292 1589.25 798.875 1581.75C802.5 1574.21 807.542 1568.33 814 1564.12C820.5 1559.87 828.083 1557.75 836.75 1557.75C841.75 1557.75 846.688 1558.58 851.563 1560.25C856.438 1561.92 860.875 1564.62 864.875 1568.38C868.875 1572.08 872.063 1577 874.438 1583.12C876.813 1589.25 878 1596.79 878 1605.75V1612H804V1599.25H863C863 1593.83 861.917 1589 859.75 1584.75C857.625 1580.5 854.583 1577.15 850.625 1574.69C846.708 1572.23 842.083 1571 836.75 1571C830.875 1571 825.792 1572.46 821.5 1575.37C817.25 1578.25 813.979 1582 811.688 1586.62C809.396 1591.25 808.25 1596.21 808.25 1601.5V1610C808.25 1617.25 809.5 1623.4 812 1628.44C814.542 1633.44 818.063 1637.25 822.563 1639.88C827.063 1642.46 832.292 1643.75 838.25 1643.75C842.125 1643.75 845.625 1643.21 848.75 1642.12C851.917 1641 854.646 1639.33 856.938 1637.12C859.229 1634.87 861 1632.08 862.25 1628.75L876.5 1632.75C875 1637.58 872.479 1641.83 868.938 1645.5C865.396 1649.12 861.021 1651.96 855.812 1654C850.604 1656 844.75 1657 838.25 1657ZM951.938 1527H970.438L1013.94 1633.25H1015.44L1058.94 1527H1077.44V1655H1062.94V1557.75H1061.69L1021.69 1655H1007.69L967.688 1557.75H966.438V1655H951.938V1527ZM1146.77 1657C1137.52 1657 1129.54 1654.96 1122.83 1650.88C1116.16 1646.75 1111.02 1641 1107.39 1633.62C1103.81 1626.21 1102.02 1617.58 1102.02 1607.75C1102.02 1597.92 1103.81 1589.25 1107.39 1581.75C1111.02 1574.21 1116.06 1568.33 1122.52 1564.12C1129.02 1559.87 1136.6 1557.75 1145.27 1557.75C1150.27 1557.75 1155.2 1558.58 1160.08 1560.25C1164.95 1561.92 1169.39 1564.62 1173.39 1568.38C1177.39 1572.08 1180.58 1577 1182.95 1583.12C1185.33 1589.25 1186.52 1596.79 1186.52 1605.75V1612H1112.52V1599.25H1171.52C1171.52 1593.83 1170.43 1589 1168.27 1584.75C1166.14 1580.5 1163.1 1577.15 1159.14 1574.69C1155.22 1572.23 1150.6 1571 1145.27 1571C1139.39 1571 1134.31 1572.46 1130.02 1575.37C1125.77 1578.25 1122.49 1582 1120.2 1586.62C1117.91 1591.25 1116.77 1596.21 1116.77 1601.5V1610C1116.77 1617.25 1118.02 1623.4 1120.52 1628.44C1123.06 1633.44 1126.58 1637.25 1131.08 1639.88C1135.58 1642.46 1140.81 1643.75 1146.77 1643.75C1150.64 1643.75 1154.14 1643.21 1157.27 1642.12C1160.43 1641 1163.16 1639.33 1165.45 1637.12C1167.74 1634.87 1169.52 1632.08 1170.77 1628.75L1185.02 1632.75C1183.52 1637.58 1180.99 1641.83 1177.45 1645.5C1173.91 1649.12 1169.54 1651.96 1164.33 1654C1159.12 1656 1153.27 1657 1146.77 1657ZM1245.2 1657C1237.2 1657 1230.14 1654.98 1224.02 1650.94C1217.89 1646.85 1213.1 1641.1 1209.64 1633.69C1206.18 1626.23 1204.45 1617.42 1204.45 1607.25C1204.45 1597.17 1206.18 1588.42 1209.64 1581C1213.1 1573.58 1217.91 1567.85 1224.08 1563.81C1230.24 1559.77 1237.37 1557.75 1245.45 1557.75C1251.7 1557.75 1256.64 1558.79 1260.27 1560.88C1263.93 1562.92 1266.72 1565.25 1268.64 1567.87C1270.6 1570.46 1272.12 1572.58 1273.2 1574.25H1274.45V1527H1289.2V1655H1274.95V1640.25H1273.2C1272.12 1642 1270.58 1644.21 1268.58 1646.87C1266.58 1649.5 1263.72 1651.85 1260.02 1653.94C1256.31 1655.98 1251.37 1657 1245.2 1657ZM1247.2 1643.75C1253.12 1643.75 1258.12 1642.21 1262.2 1639.12C1266.29 1636 1269.39 1631.69 1271.52 1626.19C1273.64 1620.65 1274.7 1614.25 1274.7 1607C1274.7 1599.83 1273.66 1593.56 1271.58 1588.19C1269.49 1582.77 1266.41 1578.56 1262.33 1575.56C1258.24 1572.52 1253.2 1571 1247.2 1571C1240.95 1571 1235.74 1572.6 1231.58 1575.81C1227.45 1578.98 1224.35 1583.29 1222.27 1588.75C1220.22 1594.17 1219.2 1600.25 1219.2 1607C1219.2 1613.83 1220.24 1620.04 1222.33 1625.62C1224.45 1631.17 1227.58 1635.58 1231.7 1638.87C1235.87 1642.13 1241.04 1643.75 1247.2 1643.75ZM1318.27 1655V1559H1333.02V1655H1318.27ZM1325.77 1543C1322.89 1543 1320.41 1542.02 1318.33 1540.06C1316.29 1538.1 1315.27 1535.75 1315.27 1533C1315.27 1530.25 1316.29 1527.9 1318.33 1525.94C1320.41 1523.98 1322.89 1523 1325.77 1523C1328.64 1523 1331.1 1523.98 1333.14 1525.94C1335.22 1527.9 1336.27 1530.25 1336.27 1533C1336.27 1535.75 1335.22 1538.1 1333.14 1540.06C1331.1 1542.02 1328.64 1543 1325.77 1543ZM1399.03 1657C1390.03 1657 1382.28 1654.88 1375.78 1650.62C1369.28 1646.37 1364.28 1640.52 1360.78 1633.06C1357.28 1625.6 1355.53 1617.08 1355.53 1607.5C1355.53 1597.75 1357.32 1589.15 1360.91 1581.69C1364.53 1574.19 1369.57 1568.33 1376.03 1564.12C1382.53 1559.87 1390.11 1557.75 1398.78 1557.75C1405.53 1557.75 1411.61 1559 1417.03 1561.5C1422.45 1564 1426.89 1567.5 1430.34 1572C1433.8 1576.5 1435.95 1581.75 1436.78 1587.75H1422.03C1420.91 1583.37 1418.41 1579.5 1414.53 1576.12C1410.7 1572.71 1405.53 1571 1399.03 1571C1393.28 1571 1388.24 1572.5 1383.91 1575.5C1379.61 1578.46 1376.26 1582.65 1373.84 1588.06C1371.47 1593.44 1370.28 1599.75 1370.28 1607C1370.28 1614.42 1371.45 1620.87 1373.78 1626.37C1376.16 1631.87 1379.49 1636.15 1383.78 1639.19C1388.11 1642.23 1393.2 1643.75 1399.03 1643.75C1402.86 1643.75 1406.34 1643.08 1409.47 1641.75C1412.59 1640.42 1415.24 1638.5 1417.41 1636C1419.57 1633.5 1421.11 1630.5 1422.03 1627H1436.78C1435.95 1632.67 1433.89 1637.77 1430.59 1642.31C1427.34 1646.81 1423.03 1650.4 1417.66 1653.06C1412.32 1655.69 1406.11 1657 1399.03 1657ZM1486.59 1657.25C1480.51 1657.25 1474.99 1656.1 1470.03 1653.81C1465.07 1651.48 1461.14 1648.12 1458.22 1643.75C1455.3 1639.33 1453.84 1634 1453.84 1627.75C1453.84 1622.25 1454.93 1617.79 1457.09 1614.37C1459.26 1610.92 1462.16 1608.21 1465.78 1606.25C1469.41 1604.29 1473.41 1602.83 1477.78 1601.87C1482.2 1600.88 1486.64 1600.08 1491.09 1599.5C1496.93 1598.75 1501.66 1598.19 1505.28 1597.81C1508.95 1597.4 1511.61 1596.71 1513.28 1595.75C1514.99 1594.79 1515.84 1593.12 1515.84 1590.75V1590.25C1515.84 1584.08 1514.16 1579.29 1510.78 1575.87C1507.45 1572.46 1502.39 1570.75 1495.59 1570.75C1488.55 1570.75 1483.03 1572.29 1479.03 1575.37C1475.03 1578.46 1472.22 1581.75 1470.59 1585.25L1456.59 1580.25C1459.09 1574.42 1462.43 1569.87 1466.59 1566.62C1470.8 1563.33 1475.39 1561.04 1480.34 1559.75C1485.34 1558.42 1490.26 1557.75 1495.09 1557.75C1498.18 1557.75 1501.72 1558.12 1505.72 1558.87C1509.76 1559.58 1513.66 1561.06 1517.41 1563.31C1521.2 1565.56 1524.34 1568.96 1526.84 1573.5C1529.34 1578.04 1530.59 1584.12 1530.59 1591.75V1655H1515.84V1642H1515.09C1514.09 1644.08 1512.43 1646.31 1510.09 1648.69C1507.76 1651.06 1504.66 1653.08 1500.78 1654.75C1496.91 1656.42 1492.18 1657.25 1486.59 1657.25ZM1488.84 1644C1494.68 1644 1499.59 1642.85 1503.59 1640.56C1507.64 1638.27 1510.68 1635.31 1512.72 1631.69C1514.8 1628.06 1515.84 1624.25 1515.84 1620.25V1606.75C1515.22 1607.5 1513.84 1608.19 1511.72 1608.81C1509.64 1609.4 1507.22 1609.92 1504.47 1610.37C1501.76 1610.79 1499.11 1611.17 1496.53 1611.5C1493.99 1611.79 1491.93 1612.04 1490.34 1612.25C1486.51 1612.75 1482.93 1613.56 1479.59 1614.69C1476.3 1615.77 1473.64 1617.42 1471.59 1619.62C1469.59 1621.79 1468.59 1624.75 1468.59 1628.5C1468.59 1633.62 1470.49 1637.5 1474.28 1640.12C1478.11 1642.71 1482.97 1644 1488.84 1644ZM1572.27 1527V1655H1557.52V1527H1572.27ZM1738.28 1567C1736.91 1562.79 1735.09 1559.02 1732.84 1555.69C1730.64 1552.31 1727.99 1549.44 1724.91 1547.06C1721.86 1544.69 1718.41 1542.87 1714.53 1541.62C1710.66 1540.37 1706.41 1539.75 1701.78 1539.75C1694.2 1539.75 1687.3 1541.71 1681.09 1545.62C1674.89 1549.54 1669.95 1555.31 1666.28 1562.94C1662.61 1570.56 1660.78 1579.92 1660.78 1591C1660.78 1602.08 1662.64 1611.44 1666.34 1619.06C1670.05 1626.69 1675.07 1632.46 1681.41 1636.37C1687.74 1640.29 1694.86 1642.25 1702.78 1642.25C1710.11 1642.25 1716.57 1640.69 1722.16 1637.56C1727.78 1634.4 1732.16 1629.94 1735.28 1624.19C1738.45 1618.4 1740.03 1611.58 1740.03 1603.75L1744.78 1604.75H1706.28V1591H1755.03V1604.75C1755.03 1615.29 1752.78 1624.46 1748.28 1632.25C1743.82 1640.04 1737.66 1646.08 1729.78 1650.37C1721.95 1654.62 1712.95 1656.75 1702.78 1656.75C1691.45 1656.75 1681.49 1654.08 1672.91 1648.75C1664.36 1643.42 1657.7 1635.83 1652.91 1626C1648.16 1616.17 1645.78 1604.5 1645.78 1591C1645.78 1580.87 1647.14 1571.77 1649.84 1563.69C1652.59 1555.56 1656.47 1548.65 1661.47 1542.94C1666.47 1537.23 1672.39 1532.85 1679.22 1529.81C1686.05 1526.77 1693.57 1525.25 1701.78 1525.25C1708.53 1525.25 1714.82 1526.27 1720.66 1528.31C1726.53 1530.31 1731.76 1533.17 1736.34 1536.87C1740.97 1540.54 1744.82 1544.94 1747.91 1550.06C1750.99 1555.15 1753.11 1560.79 1754.28 1567H1738.28ZM1779.58 1655V1559H1793.83V1573.5H1794.83C1796.58 1568.75 1799.74 1564.9 1804.33 1561.94C1808.91 1558.98 1814.08 1557.5 1819.83 1557.5C1820.91 1557.5 1822.27 1557.52 1823.89 1557.56C1825.52 1557.6 1826.74 1557.67 1827.58 1557.75V1572.75C1827.08 1572.62 1825.93 1572.44 1824.14 1572.19C1822.39 1571.9 1820.54 1571.75 1818.58 1571.75C1813.91 1571.75 1809.74 1572.73 1806.08 1574.69C1802.45 1576.6 1799.58 1579.27 1797.45 1582.69C1795.37 1586.06 1794.33 1589.92 1794.33 1594.25V1655H1779.58ZM1881.14 1657C1872.47 1657 1864.87 1654.94 1858.33 1650.81C1851.83 1646.69 1846.74 1640.92 1843.08 1633.5C1839.45 1626.08 1837.64 1617.42 1837.64 1607.5C1837.64 1597.5 1839.45 1588.77 1843.08 1581.31C1846.74 1573.85 1851.83 1568.06 1858.33 1563.94C1864.87 1559.81 1872.47 1557.75 1881.14 1557.75C1889.81 1557.75 1897.39 1559.81 1903.89 1563.94C1910.43 1568.06 1915.52 1573.85 1919.14 1581.31C1922.81 1588.77 1924.64 1597.5 1924.64 1607.5C1924.64 1617.42 1922.81 1626.08 1919.14 1633.5C1915.52 1640.92 1910.43 1646.69 1903.89 1650.81C1897.39 1654.94 1889.81 1657 1881.14 1657ZM1881.14 1643.75C1887.72 1643.75 1893.14 1642.06 1897.39 1638.69C1901.64 1635.31 1904.79 1630.87 1906.83 1625.37C1908.87 1619.87 1909.89 1613.92 1909.89 1607.5C1909.89 1601.08 1908.87 1595.1 1906.83 1589.56C1904.79 1584.02 1901.64 1579.54 1897.39 1576.12C1893.14 1572.71 1887.72 1571 1881.14 1571C1874.56 1571 1869.14 1572.71 1864.89 1576.12C1860.64 1579.54 1857.49 1584.02 1855.45 1589.56C1853.41 1595.1 1852.39 1601.08 1852.39 1607.5C1852.39 1613.92 1853.41 1619.87 1855.45 1625.37C1857.49 1630.87 1860.64 1635.31 1864.89 1638.69C1869.14 1642.06 1874.56 1643.75 1881.14 1643.75ZM2007.66 1615.75V1559H2022.41V1655H2007.66V1638.75H2006.66C2004.41 1643.62 2000.91 1647.77 1996.16 1651.19C1991.41 1654.56 1985.41 1656.25 1978.16 1656.25C1972.16 1656.25 1966.82 1654.94 1962.16 1652.31C1957.49 1649.65 1953.82 1645.65 1951.16 1640.31C1948.49 1634.94 1947.16 1628.17 1947.16 1620V1559H1961.91V1619C1961.91 1626 1963.86 1631.58 1967.78 1635.75C1971.74 1639.92 1976.78 1642 1982.91 1642C1986.57 1642 1990.3 1641.06 1994.09 1639.19C1997.93 1637.31 2001.14 1634.44 2003.72 1630.56C2006.34 1626.69 2007.66 1621.75 2007.66 1615.75ZM2049.42 1691V1559H2063.67V1574.25H2065.42C2066.51 1572.58 2068.01 1570.46 2069.92 1567.87C2071.88 1565.25 2074.67 1562.92 2078.3 1560.88C2081.96 1558.79 2086.92 1557.75 2093.17 1557.75C2101.26 1557.75 2108.38 1559.77 2114.55 1563.81C2120.71 1567.85 2125.53 1573.58 2128.98 1581C2132.44 1588.42 2134.17 1597.17 2134.17 1607.25C2134.17 1617.42 2132.44 1626.23 2128.98 1633.69C2125.53 1641.1 2120.73 1646.85 2114.61 1650.94C2108.48 1654.98 2101.42 1657 2093.42 1657C2087.26 1657 2082.32 1655.98 2078.61 1653.94C2074.9 1651.85 2072.05 1649.5 2070.05 1646.87C2068.05 1644.21 2066.51 1642 2065.42 1640.25H2064.17V1691H2049.42ZM2063.92 1607C2063.92 1614.25 2064.98 1620.65 2067.11 1626.19C2069.23 1631.69 2072.34 1636 2076.42 1639.12C2080.51 1642.21 2085.51 1643.75 2091.42 1643.75C2097.59 1643.75 2102.73 1642.13 2106.86 1638.87C2111.03 1635.58 2114.15 1631.17 2116.23 1625.62C2118.36 1620.04 2119.42 1613.83 2119.42 1607C2119.42 1600.25 2118.38 1594.17 2116.3 1588.75C2114.26 1583.29 2111.15 1578.98 2106.98 1575.81C2102.86 1572.6 2097.67 1571 2091.42 1571C2085.42 1571 2080.38 1572.52 2076.3 1575.56C2072.21 1578.56 2069.13 1582.77 2067.05 1588.19C2064.96 1593.56 2063.92 1599.83 2063.92 1607Z" fill="#000105"/>
</g>
<defs>
<clipPath id="clip0_8661_289">
<rect width="2500" height="2500" fill="white"/>
</clipPath>
</defs>
</svg>
