<svg width="2500" height="2500" viewBox="0 0 2500 2500" fill="none" xmlns="http://www.w3.org/2000/svg">
<g clip-path="url(#clip0_9732_251)">
<path d="M1250 2500C1940.36 2500 2500 1940.36 2500 1250C2500 559.644 1940.36 0 1250 0C559.644 0 0 559.644 0 1250C0 1940.36 559.644 2500 1250 2500Z" fill="#7FDFD5"/>
<path d="M137.034 1431V1067.36H259.903C288.431 1067.36 311.75 1072.51 329.861 1082.81C348.09 1092.99 361.584 1106.78 370.344 1124.18C379.103 1141.58 383.483 1161 383.483 1182.42C383.483 1203.85 379.103 1223.32 370.344 1240.84C361.703 1258.36 348.327 1272.32 330.216 1282.74C312.105 1293.04 288.904 1298.19 260.614 1298.19H172.545V1259.12H259.193C278.724 1259.12 294.409 1255.75 306.246 1249C318.083 1242.26 326.665 1233.14 331.991 1221.66C337.437 1210.06 340.159 1196.98 340.159 1182.42C340.159 1167.86 337.437 1154.84 331.991 1143.36C326.665 1131.88 318.024 1122.88 306.068 1116.37C294.113 1109.74 278.251 1106.43 258.483 1106.43H181.068V1431H137.034ZM454.417 1431V1067.36H577.286C605.695 1067.36 629.014 1072.22 647.244 1081.92C665.473 1091.51 678.967 1104.71 687.727 1121.52C696.486 1138.33 700.866 1157.44 700.866 1178.87C700.866 1200.29 696.486 1219.29 687.727 1235.87C678.967 1252.44 665.532 1265.46 647.421 1274.93C629.31 1284.28 606.169 1288.95 577.996 1288.95H478.565V1249.18H576.576C595.989 1249.18 611.614 1246.34 623.451 1240.66C635.406 1234.98 644.048 1226.93 649.374 1216.51C654.819 1205.98 657.542 1193.43 657.542 1178.87C657.542 1164.31 654.819 1151.58 649.374 1140.69C643.929 1129.8 635.229 1121.4 623.273 1115.48C611.318 1109.44 595.515 1106.43 575.866 1106.43H498.451V1431H454.417ZM625.582 1267.65L715.07 1431H663.934L575.866 1267.65H625.582ZM774.241 1431V1067.36H993.701V1106.43H818.275V1229.3H982.338V1268.36H818.275V1391.94H996.542V1431H774.241ZM1073.07 1431V1067.36H1195.94C1224.47 1067.36 1247.79 1072.51 1265.9 1082.81C1284.13 1092.99 1297.62 1106.78 1306.38 1124.18C1315.14 1141.58 1319.52 1161 1319.52 1182.42C1319.52 1203.85 1315.14 1223.32 1306.38 1240.84C1297.74 1258.36 1284.36 1272.32 1266.25 1282.74C1248.14 1293.04 1224.94 1298.19 1196.65 1298.19H1108.58V1259.12H1195.23C1214.76 1259.12 1230.44 1255.75 1242.28 1249C1254.12 1242.26 1262.7 1233.14 1268.03 1221.66C1273.47 1210.06 1276.19 1196.98 1276.19 1182.42C1276.19 1167.86 1273.47 1154.84 1268.03 1143.36C1262.7 1131.88 1254.06 1122.88 1242.1 1116.37C1230.15 1109.74 1214.29 1106.43 1194.52 1106.43H1117.1V1431H1073.07ZM1390.45 1431V1067.36H1513.32C1541.73 1067.36 1565.05 1072.22 1583.28 1081.92C1601.51 1091.51 1615 1104.71 1623.76 1121.52C1632.52 1138.33 1636.9 1157.44 1636.9 1178.87C1636.9 1200.29 1632.52 1219.29 1623.76 1235.87C1615 1252.44 1601.57 1265.46 1583.46 1274.93C1565.35 1284.28 1542.2 1288.95 1514.03 1288.95H1414.6V1249.18H1512.61C1532.02 1249.18 1547.65 1246.34 1559.49 1240.66C1571.44 1234.98 1580.08 1226.93 1585.41 1216.51C1590.85 1205.98 1593.58 1193.43 1593.58 1178.87C1593.58 1164.31 1590.85 1151.58 1585.41 1140.69C1579.96 1129.8 1571.26 1121.4 1559.31 1115.48C1547.35 1109.44 1531.55 1106.43 1511.9 1106.43H1434.49V1431H1390.45ZM1561.62 1267.65L1651.11 1431H1599.97L1511.9 1267.65H1561.62ZM2017.09 1249.18C2017.09 1287.53 2010.17 1320.68 1996.32 1348.61C1982.47 1376.55 1963.47 1398.09 1939.32 1413.24C1915.18 1428.4 1887.6 1435.97 1856.58 1435.97C1825.57 1435.97 1797.99 1428.4 1773.84 1413.24C1749.69 1398.09 1730.7 1376.55 1716.85 1348.61C1703 1320.68 1696.07 1287.53 1696.07 1249.18C1696.07 1210.83 1703 1177.69 1716.85 1149.75C1730.7 1121.81 1749.69 1100.27 1773.84 1085.12C1797.99 1069.97 1825.57 1062.39 1856.58 1062.39C1887.6 1062.39 1915.18 1069.97 1939.32 1085.12C1963.47 1100.27 1982.47 1121.81 1996.32 1149.75C2010.17 1177.69 2017.09 1210.83 2017.09 1249.18ZM1974.48 1249.18C1974.48 1217.7 1969.21 1191.12 1958.68 1169.46C1948.26 1147.8 1934.12 1131.4 1916.24 1120.28C1898.49 1109.15 1878.6 1103.59 1856.58 1103.59C1834.57 1103.59 1814.62 1109.15 1796.75 1120.28C1778.99 1131.4 1764.85 1147.8 1754.31 1169.46C1743.89 1191.12 1738.69 1217.7 1738.69 1249.18C1738.69 1280.67 1743.89 1307.24 1754.31 1328.9C1764.85 1350.57 1778.99 1366.96 1796.75 1378.09C1814.62 1389.21 1834.57 1394.78 1856.58 1394.78C1878.6 1394.78 1898.49 1389.21 1916.24 1378.09C1934.12 1366.96 1948.26 1350.57 1958.68 1328.9C1969.21 1307.24 1974.48 1280.67 1974.48 1249.18ZM2203.35 1431H2091.14V1067.36H2208.32C2243.6 1067.36 2273.78 1074.64 2298.88 1089.2C2323.97 1103.64 2343.21 1124.42 2356.58 1151.53C2369.96 1178.51 2376.65 1210.83 2376.65 1248.47C2376.65 1286.35 2369.9 1318.96 2356.41 1346.31C2342.91 1373.53 2323.26 1394.48 2297.46 1409.16C2271.65 1423.72 2240.28 1431 2203.35 1431ZM2135.17 1391.94H2200.51C2230.58 1391.94 2255.49 1386.14 2275.26 1374.54C2295.03 1362.94 2309.77 1346.42 2319.47 1325C2329.18 1303.57 2334.03 1278.06 2334.03 1248.47C2334.03 1219.12 2329.24 1193.84 2319.65 1172.65C2310.06 1151.35 2295.74 1135.01 2276.68 1123.65C2257.62 1112.17 2233.89 1106.43 2205.48 1106.43H2135.17V1391.94Z" fill="#000105"/>
</g>
<defs>
<clipPath id="clip0_9732_251">
<rect width="2500" height="2500" fill="white"/>
</clipPath>
</defs>
</svg>
