<svg width="772" height="538" viewBox="0 0 772 538" fill="none" xmlns="http://www.w3.org/2000/svg">
<g clip-path="url(#clip0_6969_166)">
<path d="M724.596 0H47.4035C21.2232 0 0 21.6166 0 48.2821V489.718C0 516.383 21.2232 538 47.4035 538H724.596C750.777 538 772 516.383 772 489.718V48.2821C772 21.6166 750.777 0 724.596 0Z" fill="white"/>
<path d="M305.286 217.365C299.119 213.125 291.071 211 281.143 211H242.707C239.664 211 237.982 212.523 237.663 215.563L222.049 313.576C221.886 314.539 222.127 315.419 222.769 316.219C223.407 317.021 224.21 317.42 225.171 317.42H243.428C246.63 317.42 248.39 315.901 248.713 312.856L253.036 286.433C253.194 285.153 253.757 284.111 254.718 283.31C255.679 282.509 256.88 281.986 258.321 281.746C259.763 281.508 261.122 281.388 262.405 281.388C263.685 281.388 265.206 281.469 266.97 281.628C268.73 281.788 269.852 281.866 270.333 281.866C284.105 281.866 294.915 277.985 302.764 270.216C310.609 262.45 314.535 251.68 314.535 237.905C314.535 228.458 311.45 221.611 305.286 217.365ZM285.468 246.794C284.665 252.401 282.585 256.082 279.222 257.844C275.859 259.609 271.054 260.486 264.809 260.486L256.882 260.726L260.966 235.022C261.285 233.262 262.325 232.381 264.088 232.381H268.654C275.057 232.381 279.704 233.304 282.587 235.142C285.468 236.985 286.429 240.871 285.468 246.794Z" fill="#003087"/>
<path d="M710.902 211H693.127C691.361 211 690.321 211.882 690.004 213.643L674.388 313.576L674.148 314.056C674.148 314.861 674.468 315.618 675.11 316.339C675.747 317.059 676.552 317.419 677.511 317.419H693.368C696.406 317.419 698.088 315.901 698.413 312.856L714.027 214.602V214.363C714.026 212.122 712.982 211 710.902 211Z" fill="#009CDE"/>
<path d="M496.144 249.676C496.144 248.877 495.821 248.115 495.185 247.395C494.542 246.675 493.82 246.313 493.022 246.313H474.525C472.759 246.313 471.319 247.118 470.2 248.715L444.737 286.192L434.168 250.157C433.364 247.596 431.603 246.313 428.883 246.313H410.864C410.061 246.313 409.34 246.674 408.703 247.395C408.061 248.115 407.742 248.878 407.742 249.676C407.742 249.999 409.304 254.721 412.426 263.849C415.548 272.979 418.912 282.829 422.516 293.4C426.12 303.968 427.999 309.577 428.161 310.213C415.028 328.151 408.463 337.761 408.463 339.04C408.463 341.124 409.503 342.163 411.585 342.163H430.083C431.845 342.163 433.285 341.364 434.407 339.762L495.665 251.357C495.983 251.039 496.144 250.481 496.144 249.676Z" fill="#003087"/>
<path d="M668.385 246.313H650.126C647.883 246.313 646.526 248.955 646.045 254.241C641.877 247.838 634.274 244.631 623.222 244.631C611.691 244.631 601.88 248.955 593.795 257.604C585.706 266.253 581.664 276.424 581.664 288.113C581.664 297.564 584.426 305.09 589.95 310.693C595.476 316.302 602.882 319.101 612.174 319.101C616.816 319.101 621.541 318.139 626.345 316.219C631.15 314.297 634.91 311.736 637.637 308.532C637.637 308.692 637.474 309.412 637.156 310.693C636.833 311.976 636.675 312.939 636.675 313.575C636.675 316.141 637.714 317.418 639.799 317.418H656.376C659.414 317.418 661.179 315.9 661.658 312.855L671.508 250.157C671.666 249.196 671.426 248.316 670.787 247.514C670.145 246.714 669.346 246.313 668.385 246.313ZM637.036 293.638C632.952 297.642 628.028 299.643 622.262 299.643C617.616 299.643 613.856 298.363 610.972 295.799C608.088 293.241 606.647 289.717 606.647 285.23C606.647 279.308 608.648 274.3 612.653 270.216C616.653 266.132 621.621 264.09 627.548 264.09C632.027 264.09 635.752 265.412 638.717 268.054C641.678 270.696 643.163 274.341 643.163 278.985C643.162 284.75 641.119 289.636 637.036 293.638Z" fill="#009CDE"/>
<path d="M395.492 246.313H377.235C374.99 246.313 373.632 248.955 373.151 254.241C368.827 247.838 361.219 244.631 350.329 244.631C338.798 244.631 328.987 248.955 320.901 257.604C312.812 266.253 308.77 276.424 308.77 288.113C308.77 297.564 311.533 305.09 317.059 310.693C322.584 316.302 329.989 319.101 339.279 319.101C343.761 319.101 348.408 318.139 353.212 316.219C358.016 314.297 361.86 311.736 364.743 308.532C364.1 310.453 363.781 312.135 363.781 313.575C363.781 316.141 364.822 317.418 366.904 317.418H383.48C386.52 317.418 388.284 315.9 388.765 312.855L398.614 250.157C398.771 249.196 398.531 248.316 397.893 247.514C397.252 246.714 396.453 246.313 395.492 246.313ZM364.143 293.757C360.058 297.685 355.051 299.643 349.129 299.643C344.482 299.643 340.758 298.363 337.958 295.799C335.154 293.241 333.754 289.717 333.754 285.23C333.754 279.308 335.754 274.3 339.76 270.216C343.761 266.132 348.726 264.09 354.654 264.09C359.136 264.09 362.859 265.412 365.825 268.054C368.785 270.696 370.269 274.341 370.269 278.985C370.269 284.911 368.227 289.837 364.143 293.757Z" fill="#003087"/>
<path d="M578.181 217.365C572.015 213.125 563.968 211 554.039 211H515.843C512.638 211 510.876 212.523 510.558 215.563L494.944 313.575C494.781 314.538 495.022 315.418 495.664 316.219C496.3 317.02 497.105 317.419 498.066 317.419H517.763C519.685 317.419 520.965 316.379 521.607 314.297L525.932 286.432C526.091 285.152 526.652 284.111 527.613 283.309C528.575 282.508 529.774 281.985 531.217 281.745C532.658 281.507 534.017 281.387 535.301 281.387C536.581 281.387 538.102 281.468 539.864 281.627C541.625 281.787 542.75 281.865 543.227 281.865C557.001 281.865 567.809 277.985 575.658 270.215C583.505 262.449 587.429 251.68 587.429 237.905C587.43 228.458 584.345 221.611 578.181 217.365ZM553.558 256.883C550.034 259.285 544.749 260.486 537.704 260.486L530.016 260.726L534.101 235.022C534.418 233.262 535.458 232.381 537.223 232.381H541.545C545.068 232.381 547.87 232.541 549.956 232.86C552.034 233.183 554.039 234.181 555.961 235.863C557.884 237.545 558.843 239.988 558.843 243.191C558.843 249.917 557.08 254.48 553.558 256.883Z" fill="#009CDE"/>
<path d="M161.636 206.058C154.921 198.319 142.783 195 127.255 195H82.1882C80.6514 195 79.1653 195.554 77.9969 196.563C76.8284 197.572 76.0543 198.97 75.8138 200.504L57.0487 320.856C56.6757 323.229 58.4929 325.378 60.8716 325.378H88.6948L95.6823 280.559L95.4655 281.962C95.9628 278.794 98.6421 276.457 101.815 276.457H115.036C141.01 276.457 161.348 265.789 167.288 234.928C167.465 234.015 167.617 233.127 167.749 232.258C166.999 231.857 166.999 231.857 167.749 232.258C169.519 220.852 167.738 213.087 161.636 206.058Z" fill="#27346A"/>
<path d="M106.328 228.149C107.089 227.783 107.921 227.593 108.763 227.594H144.095C148.279 227.594 152.181 227.87 155.747 228.45C156.745 228.61 157.737 228.802 158.724 229.026C160.122 229.337 161.503 229.72 162.864 230.17C164.617 230.761 166.249 231.451 167.75 232.258C169.519 220.847 167.738 213.087 161.636 206.058C154.917 198.319 142.783 195 127.255 195H82.1844C79.0107 195 76.3111 197.336 75.8138 200.504L57.0487 320.851C56.6757 323.228 58.4929 325.374 60.8677 325.374H88.6948L103.191 232.409C103.334 231.495 103.694 230.63 104.241 229.888C104.786 229.146 105.503 228.549 106.328 228.149Z" fill="#27346A"/>
<path d="M167.288 234.927C161.347 265.784 141.01 276.458 115.036 276.458H101.811C98.638 276.458 95.9587 278.794 95.4652 281.962L86.7727 337.689C86.4479 339.766 88.0363 341.648 90.1142 341.648H113.568C114.912 341.648 116.211 341.163 117.233 340.281C118.253 339.398 118.93 338.176 119.14 336.834L119.368 335.625L123.789 307.294L124.074 305.729C124.284 304.387 124.96 303.165 125.982 302.283C127.003 301.4 128.302 300.914 129.645 300.914H133.155C155.876 300.914 173.666 291.58 178.864 264.585C181.035 253.303 179.912 243.884 174.172 237.268C172.43 235.265 170.268 233.61 167.749 232.259C167.613 233.131 167.465 234.015 167.288 234.927Z" fill="#2790C3"/>
<path d="M161.531 229.752C160.605 229.478 159.67 229.236 158.727 229.025C157.741 228.806 156.749 228.615 155.751 228.453C152.181 227.869 148.282 227.593 144.094 227.593H108.766C107.923 227.592 107.091 227.783 106.332 228.153C105.506 228.552 104.788 229.148 104.241 229.89C103.695 230.633 103.335 231.498 103.195 232.412L95.6856 280.558L95.4688 281.962C95.9622 278.793 98.6416 276.457 101.815 276.457H115.041C141.014 276.457 161.351 265.789 167.292 234.927C167.468 234.015 167.617 233.13 167.753 232.258C166.249 231.456 164.62 230.76 162.867 230.173C162.425 230.025 161.979 229.884 161.532 229.752" fill="#1F264F"/>
</g>
<defs>
<clipPath id="clip0_6969_166">
<rect width="772" height="538" fill="white"/>
</clipPath>
</defs>
</svg>
