<svg width="772" height="538" viewBox="0 0 772 538" fill="none" xmlns="http://www.w3.org/2000/svg">
<g clip-path="url(#clip0_6969_183)">
<path d="M710.464 0H61.5362C27.5507 0 0 28.187 0 62.9574V475.043C0 509.813 27.5507 538 61.5362 538H710.464C744.449 538 772 509.813 772 475.043V62.9574C772 28.187 744.449 0 710.464 0Z" fill="white"/>
<path fill-rule="evenodd" clip-rule="evenodd" d="M246.006 357.331H197.542L161.199 218.682C159.474 212.305 155.811 206.666 150.424 204.009C136.978 197.331 122.162 192.016 106 189.336V183.998H184.072C194.848 183.998 202.929 192.016 204.275 201.329L223.133 301.341L271.574 183.998H318.69L246.006 357.331ZM345.629 357.331H299.858L337.547 183.998H383.318L345.629 357.331ZM442.534 232.016C443.881 222.681 451.962 217.343 461.391 217.343C476.207 216.002 492.345 218.683 505.815 225.338L513.896 188.018C500.426 182.68 485.611 180 472.166 180C427.742 180 395.416 204.009 395.416 237.331C395.416 262.681 418.313 275.991 434.477 284.009C451.962 292.005 458.697 297.343 457.35 305.338C457.35 317.331 443.881 322.67 430.435 322.67C414.273 322.67 398.11 318.672 383.318 311.993L375.237 349.336C391.399 355.991 408.886 358.672 425.048 358.672C474.859 359.989 505.815 336.002 505.815 300C505.815 254.662 442.534 252.005 442.534 232.016ZM666 357.331L629.657 183.998H590.622C582.539 183.998 574.458 189.336 571.765 197.331L504.467 357.331H551.585L560.99 332.005H618.882L624.27 357.331H666ZM597.355 230.677L610.801 296.002H573.112L597.355 230.677Z" fill="#172B85"/>
</g>
<defs>
<clipPath id="clip0_6969_183">
<rect width="772" height="538" fill="white"/>
</clipPath>
</defs>
</svg>
