<svg viewBox="0 0 14 14" fill="none" xmlns="http://www.w3.org/2000/svg">
<path fill-rule="evenodd" clip-rule="evenodd" d="M7.80452 0.559533C7.60926 0.36427 7.29268 0.36427 7.09742 0.559533C6.90215 0.754795 6.90215 1.07138 7.09742 1.26664L12.3308 6.50004H1.36401C1.08787 6.50004 0.864014 6.7239 0.864014 7.00004C0.864014 7.27619 1.08787 7.50004 1.36401 7.50004H12.3308L7.09742 12.7334C6.90215 12.9287 6.90215 13.2453 7.09742 13.4406C7.29268 13.6358 7.60926 13.6358 7.80452 13.4406L13.891 7.35408L13.8915 7.3536M7.80452 0.559533L13.8912 6.64622L7.80452 0.559533ZM13.8915 6.64649C13.8922 6.6472 13.8929 6.64791 13.8936 6.64862L13.8915 6.64649ZM13.8936 6.64862C13.9387 6.69423 13.975 6.74848 14 6.80865C13.9759 6.75055 13.9405 6.69606 13.8936 6.64862Z" fill="currentColor"/>
</svg>
