<svg viewBox="0 0 23 27" fill="none" xmlns="http://www.w3.org/2000/svg">
<path fill-rule="evenodd" clip-rule="evenodd" d="M16.862 6.18957C16.862 9.26523 14.2375 11.7585 11 11.7585C7.76243 11.7585 5.1379 9.26523 5.1379 6.18957C5.1379 3.11392 7.76243 0.620605 11 0.620605C14.2375 0.620605 16.862 3.11392 16.862 6.18957ZM21.5488 20.3372L22.1379 23.9266L18.3508 25.9755C17.9398 26.057 17.533 26.158 17.1039 26.2645C15.7359 26.6042 14.1417 26.9999 11.4652 26.9999C9.1638 26.9999 7.84514 26.8706 5.61245 26.317C2.8582 25.634 0.448242 23.9266 0.448242 23.9266L1.1368 20.3372C1.1368 18.9949 1.67444 17.7075 2.63144 16.7582C3.58843 15.809 4.8864 15.2758 6.2398 15.2758H16.4458C17.7992 15.2758 19.0972 15.809 20.0542 16.7582C21.0112 17.7075 21.5488 18.9949 21.5488 20.3372Z" fill="currentColor"/>
</svg>
