<svg viewBox="0 0 61 55" fill="none" xmlns="http://www.w3.org/2000/svg">
<path fill-rule="evenodd" clip-rule="evenodd" d="M4 0.0488281C1.79086 0.0488281 0 1.83969 0 4.04883V42.3216C0 44.5307 1.79086 46.3216 4 46.3216H21.7273C23.4391 46.3216 25.0809 47.0016 26.2913 48.212C27.5018 49.4225 28.1818 51.0642 28.1818 52.7761C28.1818 53.8807 29.0772 54.7761 30.1818 54.7761C31.2864 54.7761 32.1818 53.8807 32.1818 52.7761C32.1818 51.0642 32.8618 49.4225 34.0723 48.212C35.2828 47.0016 36.9245 46.3216 38.6364 46.3216H56.3636C58.5728 46.3216 60.3636 44.5307 60.3636 42.3216V4.04883C60.3636 1.83969 58.5728 0.0488281 56.3636 0.0488281H41.4545C37.9344 0.0488281 34.5584 1.4472 32.0693 3.93632C31.3454 4.66028 30.7137 5.45925 30.1818 6.31498C29.65 5.45925 29.0183 4.66028 28.2943 3.93632C25.8052 1.4472 22.4292 0.0488281 18.9091 0.0488281H4ZM32.1818 44.5519C34.0135 43.1143 36.284 42.3216 38.6364 42.3216H56.3636V4.04883H41.4545C38.9953 4.04883 36.6367 5.02577 34.8977 6.76475C33.1588 8.50372 32.1818 10.8623 32.1818 13.3216V44.5519ZM28.1818 44.5519V13.3216C28.1818 10.8623 27.2049 8.50372 25.4659 6.76475C23.7269 5.02577 21.3684 4.04883 18.9091 4.04883L4 4.04883V42.3216H21.7273C24.0796 42.3216 26.3502 43.1143 28.1818 44.5519Z" fill="currentColor"/>
</svg>
