<svg viewBox="0 0 66 66" fill="none" xmlns="http://www.w3.org/2000/svg">
<circle cx="33" cy="33" r="32" transform="rotate(180 33 33)" stroke="currentColor" stroke-width="2"/>
<path fill-rule="evenodd" clip-rule="evenodd" d="M33.4572 16.7491C33.07 16.3553 32.4368 16.3499 32.043 16.7371C31.6492 17.1243 31.6438 17.7574 32.031 18.1513L46.1131 32.4747L16.9893 32.4747C16.437 32.4747 15.9893 32.9224 15.9893 33.4747C15.9893 34.027 16.437 34.4747 16.9893 34.4747L46.1139 34.4747L32.031 48.7989C31.6438 49.1928 31.6492 49.8259 32.043 50.2131C32.4368 50.6003 33.07 50.5949 33.4572 50.2011L49.2121 34.1762C49.3116 34.075 49.3852 33.9579 49.4329 33.8333C49.4757 33.7219 49.4991 33.6011 49.4991 33.4747C49.4991 33.1919 49.3817 32.9365 49.193 32.7546L33.4572 16.7491Z" fill="currentColor"/>
</svg>
