<svg viewBox="0 0 45 45" fill="none" xmlns="http://www.w3.org/2000/svg">
<circle cx="22.5" cy="22.5" r="22" stroke="currentColor"/>
<path fill-rule="evenodd" clip-rule="evenodd" d="M31.8522 13.8536C32.0475 13.6583 32.0475 13.3417 31.8522 13.1464C31.657 12.9512 31.3404 12.9512 31.1451 13.1464L22.4993 21.7922L13.8536 13.1464C13.6583 12.9512 13.3417 12.9512 13.1464 13.1464C12.9512 13.3417 12.9512 13.6583 13.1464 13.8536L21.7922 22.4993L13.1464 31.1451C12.9512 31.3404 12.9512 31.657 13.1464 31.8522C13.3417 32.0475 13.6583 32.0475 13.8536 31.8522L22.4993 23.2065L31.1451 31.8522C31.3404 32.0475 31.657 32.0475 31.8522 31.8522C32.0475 31.657 32.0475 31.3404 31.8522 31.1451L23.2065 22.4993L31.8522 13.8536Z" fill="currentColor"/>
</svg>
