<svg viewBox="0 0 34 34" fill="none" xmlns="http://www.w3.org/2000/svg">
<circle cx="17" cy="17" r="16" fill="#01433D" stroke="#01433D" stroke-width="2"/>
<path fill-rule="evenodd" clip-rule="evenodd" d="M22.862 13.1896C22.862 16.2652 20.2375 18.7585 17 18.7585C13.7624 18.7585 11.1379 16.2652 11.1379 13.1896C11.1379 10.1139 13.7624 7.62061 17 7.62061C20.2375 7.62061 22.862 10.1139 22.862 13.1896ZM27.5488 27.3372L28.1379 30.9266L24.3508 32.9755C23.9398 33.057 23.533 33.158 23.1039 33.2645C21.7359 33.6042 20.1417 33.9999 17.4652 33.9999C15.1638 33.9999 13.8451 33.8706 11.6124 33.317C8.8582 32.634 6.44824 30.9266 6.44824 30.9266L7.1368 27.3372C7.1368 25.9949 7.67444 24.7075 8.63144 23.7582C9.58843 22.809 10.8864 22.2758 12.2398 22.2758H22.4458C23.7992 22.2758 25.0972 22.809 26.0542 23.7582C27.0112 24.7075 27.5488 25.9949 27.5488 27.3372Z" fill="currentColor"/>
</svg>
