<svg viewBox="0 0 32 32" fill="none" xmlns="http://www.w3.org/2000/svg">
<path d="M31 15.3496C31.0057 17.5778 30.4917 19.7759 29.5 21.7648C28.324 24.148 26.5162 26.1526 24.279 27.554C22.0419 28.9554 19.4637 29.6982 16.8333 29.6992C14.6335 29.705 12.4635 29.1845 10.5 28.1799L1 31.3874L4.16666 21.7648C3.17488 19.7759 2.66093 17.5778 2.66666 15.3496C2.66768 12.6853 3.40102 10.0738 4.78453 7.80775C6.16804 5.54169 8.14708 3.71055 10.5 2.51942C12.4635 1.51483 14.6335 0.994239 16.8333 1.00005H17.6666C21.1405 1.19418 24.4217 2.67939 26.8819 5.17132C29.342 7.66325 30.8083 10.9868 31 14.5056V15.3496Z" fill='' stroke="currentColor" stroke-linecap="round" stroke-linejoin="round"/>
</svg>
