<svg viewBox="0 0 62 39" fill="none" xmlns="http://www.w3.org/2000/svg">
<path fill-rule="evenodd" clip-rule="evenodd" d="M2 0.0322266C3.10457 0.0322266 4 0.927657 4 2.03223V15.4343C6.43848 13.0195 9.79308 11.5282 13.496 11.5282C20.2701 11.5282 25.8784 16.5191 26.8448 23.0242H34.6355C35.6019 16.5191 41.2103 11.5282 47.9843 11.5282C51.6872 11.5282 55.0418 13.0195 57.4803 15.4343V2.03223C57.4803 0.927657 58.3757 0.0322266 59.4803 0.0322266C60.5849 0.0322266 61.4803 0.927657 61.4803 2.03223V25.0242C61.4803 32.4777 55.4378 38.5202 47.9843 38.5202C41.2103 38.5202 35.6018 33.5293 34.6354 27.0242H26.8448C25.8785 33.5293 20.2701 38.5202 13.496 38.5202C6.04235 38.5202 0 32.4777 0 25.0242V2.03223C0 0.927657 0.89543 0.0322266 2 0.0322266ZM4 25.0242C4 30.2686 8.25151 34.5202 13.496 34.5202C18.7405 34.5202 22.992 30.2686 22.992 25.0242C22.992 19.7798 18.7405 15.5282 13.496 15.5282C8.25151 15.5282 4 19.7798 4 25.0242ZM57.4803 25.0242C57.4803 19.7798 53.2287 15.5282 47.9843 15.5282C42.7399 15.5282 38.4883 19.7798 38.4883 25.0242C38.4883 30.2686 42.7399 34.5202 47.9843 34.5202C53.2287 34.5202 57.4803 30.2686 57.4803 25.0242Z" fill="currentColor"/>
</svg>
