<svg viewBox="0 0 58 53" fill="none" xmlns="http://www.w3.org/2000/svg">
<path fill-rule="evenodd" clip-rule="evenodd" d="M30.9337 2.53931C30.9337 1.43474 30.0383 0.539307 28.9337 0.539307C27.8291 0.539307 26.9337 1.43474 26.9337 2.53931V9.68213H17.9203C13.5901 9.68213 9.33537 10.5691 6.09548 12.25C2.93045 13.892 0.5 16.4581 0.5 19.6821C0.5 22.9062 2.93045 25.4723 6.09548 27.1143C9.33537 28.7951 13.5901 29.6821 17.9203 29.6821H26.9337V41.6821H2.5C1.39543 41.6821 0.5 42.5776 0.5 43.6821C0.5 44.7867 1.39543 45.6821 2.5 45.6821H26.9337V52.825C26.9337 53.9296 27.8291 54.825 28.9337 54.825C30.0383 54.825 30.9337 53.9296 30.9337 52.825V45.6821H39.9493C44.2795 45.6821 48.5342 44.7951 51.7741 43.1143C54.9392 41.4723 57.3696 38.9062 57.3696 35.6821C57.3696 32.4581 54.9392 29.892 51.7741 28.25C48.5342 26.5691 44.2795 25.6821 39.9493 25.6821H30.9337V13.6821H50.9638C52.0684 13.6821 52.9638 12.7867 52.9638 11.6821C52.9638 10.5776 52.0684 9.68213 50.9638 9.68213H30.9337V2.53931ZM26.9337 13.6821H17.9203C14.0711 13.6821 10.4814 14.4808 7.93753 15.8006C5.31882 17.1592 4.5 18.6627 4.5 19.6821C4.5 20.7016 5.31882 22.2051 7.93753 23.5637C10.4814 24.8834 14.0711 25.6821 17.9203 25.6821H26.9337V13.6821ZM30.9337 29.6821V41.6821H39.9493C43.7985 41.6821 47.3882 40.8834 49.9321 39.5637C52.5508 38.2051 53.3696 36.7016 53.3696 35.6821C53.3696 34.6627 52.5508 33.1592 49.9321 31.8006C47.3882 30.4808 43.7985 29.6821 39.9493 29.6821H30.9337Z" fill="currentColor"/>
</svg>
