<svg viewBox="0 0 59 58" fill="none" xmlns="http://www.w3.org/2000/svg">
<path fill-rule="evenodd" clip-rule="evenodd" d="M10.8655 4C7.34994 4 4.5 6.84994 4.5 10.3655C4.5 13.8811 7.34994 16.731 10.8655 16.731C14.3811 16.731 17.231 13.8811 17.231 10.3655C17.231 6.84994 14.3811 4 10.8655 4ZM0.5 10.3655C0.5 4.6408 5.1408 0 10.8655 0C16.5902 0 21.231 4.6408 21.231 10.3655C21.231 16.0902 16.5902 20.731 10.8655 20.731C5.1408 20.731 0.5 16.0902 0.5 10.3655ZM54.1075 3.93172C54.8885 4.71277 54.8885 5.97909 54.1075 6.76014L7.26062 53.607C6.47958 54.388 5.21325 54.388 4.4322 53.607C3.65115 52.8259 3.65115 51.5596 4.4322 50.7786L51.279 3.93172C52.0601 3.15067 53.3264 3.15067 54.1075 3.93172ZM41.3076 47.1739C41.3076 43.6583 44.1576 40.8083 47.6731 40.8083C51.1887 40.8083 54.0387 43.6583 54.0387 47.1739C54.0387 50.6894 51.1887 53.5394 47.6731 53.5394C44.1576 53.5394 41.3076 50.6894 41.3076 47.1739ZM47.6731 36.8083C41.9484 36.8083 37.3076 41.4491 37.3076 47.1739C37.3076 52.8986 41.9484 57.5394 47.6731 57.5394C53.3979 57.5394 58.0387 52.8986 58.0387 47.1739C58.0387 41.4491 53.3979 36.8083 47.6731 36.8083Z" fill="currentColor"/>
</svg>
