<svg viewBox="0 0 17 17" fill="none" xmlns="http://www.w3.org/2000/svg">
<g clip-path="url(#clip0_0_1)">
<path fill-rule="evenodd" clip-rule="evenodd" d="M1.84204 7.7829C1.84204 4.33838 4.63437 1.54605 8.07888 1.54605C11.5234 1.54605 14.3157 4.33838 14.3157 7.7829C14.3157 9.47384 13.6428 11.0076 12.5501 12.131C12.5266 12.1475 12.5042 12.1662 12.4832 12.1872C12.4622 12.2082 12.4435 12.2306 12.427 12.2541C11.3036 13.3468 9.76984 14.0197 8.07888 14.0197C4.63437 14.0197 1.84204 11.2274 1.84204 7.7829ZM12.8304 13.2415C11.5591 14.349 9.89734 15.0197 8.07888 15.0197C4.08208 15.0197 0.842041 11.7797 0.842041 7.7829C0.842041 3.7861 4.08208 0.546055 8.07888 0.546055C12.0757 0.546055 15.3157 3.7861 15.3157 7.7829C15.3157 9.60134 14.645 11.2631 13.5375 12.5344L16.8535 15.8504C17.0488 16.0457 17.0488 16.3622 16.8535 16.5575C16.6582 16.7528 16.3417 16.7528 16.1464 16.5575L12.8304 13.2415Z" fill="currentColor"/>
</g>
<defs>
<clipPath id="clip0_0_1">
<rect width="360" height="2353" fill="white" transform="translate(-258 -138)"/>
</clipPath>
</defs>
</svg>
