<svg width="3000" height="3000" viewBox="0 0 3000 3000" fill="none" xmlns="http://www.w3.org/2000/svg">
<g opacity="0.5">
<path d="M982.918 1790.76C1349.35 1790.76 1646.4 1493.23 1646.4 1126.2C1646.4 759.174 1349.35 461.641 982.918 461.641C616.489 461.641 319.438 759.174 319.438 1126.2C319.438 1493.23 616.489 1790.76 982.918 1790.76Z" fill="#FF0202"/>
<path d="M1916.88 2539.32C2283.31 2539.32 2580.36 2241.79 2580.36 1874.76C2580.36 1507.73 2283.31 1210.2 1916.88 1210.2C1550.45 1210.2 1253.4 1507.73 1253.4 1874.76C1253.4 2241.79 1550.45 2539.32 1916.88 2539.32Z" fill="#00D4BE"/>
<path d="M2084.76 1424.76C2087.28 1422.6 2090.76 1419.84 2095.2 1417.2C2097.36 1415.88 2104.44 1411.68 2114.88 1408.44C2125.92 1405.08 2134.68 1404.72 2141.88 1404.36C2148.36 1404.12 2158.44 1403.64 2169.84 1406.04C2195.52 1411.32 2212.2 1427.28 2217.72 1432.8C2225.64 1440.6 2235.72 1453.08 2242.08 1470.84C2250.84 1494.96 2247.96 1515.6 2246.88 1522.08C2242.8 1546.08 2230.92 1561.68 2225.64 1568.52C2220.24 1575.36 2209.32 1589.16 2189.64 1598.52C2167.68 1608.96 2147.76 1607.88 2139.6 1607.28C2112.84 1605.48 2094.6 1593.96 2090.04 1590.84C2073.6 1579.92 2064.24 1566.72 2059.68 1559.28C2057.16 1555.2 2046.96 1537.68 2045.28 1512.48C2043.72 1490.16 2049.72 1473.6 2051.28 1469.28C2057.76 1452.12 2067.36 1441.08 2071.32 1436.88C2076.24 1431.36 2081.04 1427.52 2084.76 1424.76Z" fill="white"/>
<path d="M2761.3 1154.67C2756.7 1115.81 2738.03 1085.64 2705.3 1064.16C2672.58 1042.69 2632.43 1031.95 2584.88 1031.95C2550.1 1031.95 2519.68 1037.57 2493.6 1048.82C2467.77 1060.07 2447.58 1075.54 2433 1095.23C2418.68 1114.92 2411.52 1137.29 2411.52 1162.34C2411.52 1183.31 2416.51 1201.34 2426.48 1216.42C2436.71 1231.25 2449.75 1243.65 2465.6 1253.62C2481.45 1263.34 2498.07 1271.39 2515.46 1277.78C2532.85 1283.92 2548.83 1288.91 2563.4 1292.74L2643.17 1314.22C2663.63 1319.59 2686.38 1327 2711.44 1336.46C2736.75 1345.92 2760.91 1358.84 2783.93 1375.2C2807.19 1391.31 2826.37 1412.02 2841.45 1437.33C2856.54 1462.64 2864.08 1493.71 2864.08 1530.53C2864.08 1572.97 2852.96 1611.32 2830.71 1645.58C2808.73 1679.84 2776.51 1707.07 2734.07 1727.27C2691.88 1747.47 2640.62 1757.57 2580.27 1757.57C2524.02 1757.57 2475.32 1748.49 2434.15 1730.34C2393.24 1712.19 2361.03 1686.88 2337.5 1654.4C2314.24 1621.93 2301.07 1584.22 2298 1541.26H2396.18C2398.74 1570.92 2408.71 1595.47 2426.1 1614.9C2443.74 1634.08 2465.98 1648.4 2492.83 1657.86C2519.93 1667.06 2549.08 1671.66 2580.27 1671.66C2616.58 1671.66 2649.18 1665.78 2678.07 1654.02C2706.96 1642 2729.85 1625.38 2746.72 1604.16C2763.6 1582.69 2772.04 1557.63 2772.04 1528.99C2772.04 1502.91 2764.75 1481.69 2750.18 1465.33C2735.6 1448.96 2716.43 1435.67 2692.65 1425.44C2668.87 1415.21 2643.17 1406.26 2615.56 1398.59L2518.91 1370.98C2457.55 1353.34 2408.97 1328.15 2373.17 1295.43C2337.38 1262.7 2319.48 1219.87 2319.48 1166.95C2319.48 1122.97 2331.37 1084.62 2355.15 1051.89C2379.18 1018.91 2411.4 993.338 2451.79 975.185C2492.45 956.776 2537.83 947.571 2587.95 947.571C2638.57 947.571 2683.57 956.648 2722.95 974.802C2762.32 992.699 2793.51 1017.24 2816.52 1048.44C2839.79 1079.63 2852.06 1115.04 2853.34 1154.67H2761.3Z" fill="#000105"/>
<path d="M375.437 1745.37H159.982V1047.18H384.982C452.709 1047.18 510.664 1061.16 558.846 1089.12C607.027 1116.84 643.959 1156.73 669.641 1208.77C695.323 1260.59 708.164 1322.64 708.164 1394.91C708.164 1467.64 695.209 1530.25 669.3 1582.75C643.391 1635.02 605.664 1675.25 556.118 1703.43C506.573 1731.39 446.346 1745.37 375.437 1745.37ZM244.527 1670.37H369.982C427.709 1670.37 475.55 1659.23 513.505 1636.96C551.459 1614.68 579.755 1582.98 598.391 1541.84C617.027 1500.71 626.346 1451.73 626.346 1394.91C626.346 1338.55 617.141 1290.02 598.732 1249.34C580.323 1208.43 552.823 1177.07 516.232 1155.25C479.641 1133.21 434.073 1122.18 379.527 1122.18H244.527V1670.37ZM991.418 1756.27C940.964 1756.27 897.441 1745.14 860.85 1722.87C824.487 1700.37 796.418 1669 776.646 1628.77C757.1 1588.32 747.327 1541.27 747.327 1487.64C747.327 1434 757.1 1386.73 776.646 1345.82C796.418 1304.68 823.918 1272.64 859.146 1249.68C894.6 1226.5 935.964 1214.91 983.237 1214.91C1010.51 1214.91 1037.44 1219.46 1064.03 1228.55C1090.62 1237.64 1114.83 1252.41 1136.65 1272.87C1158.46 1293.09 1175.85 1319.91 1188.8 1353.32C1201.76 1386.73 1208.24 1427.87 1208.24 1476.73V1510.82H804.6V1441.27H1126.42C1126.42 1411.73 1120.51 1385.37 1108.69 1362.18C1097.1 1339 1080.51 1320.71 1058.92 1307.3C1037.55 1293.89 1012.33 1287.18 983.237 1287.18C951.191 1287.18 923.464 1295.14 900.055 1311.05C876.873 1326.73 859.032 1347.18 846.532 1372.41C834.032 1397.64 827.782 1424.68 827.782 1453.55V1499.91C827.782 1539.46 834.6 1572.98 848.237 1600.48C862.1 1627.75 881.305 1648.55 905.85 1662.87C930.396 1676.96 958.918 1684 991.418 1684C1012.55 1684 1031.65 1681.05 1048.69 1675.14C1065.96 1669 1080.85 1659.91 1093.35 1647.87C1105.85 1635.59 1115.51 1620.37 1122.33 1602.18L1200.05 1624C1191.87 1650.37 1178.12 1673.55 1158.8 1693.55C1139.49 1713.32 1115.62 1728.77 1087.21 1739.91C1058.8 1750.82 1026.87 1756.27 991.418 1756.27ZM1343.88 1430.37V1745.37H1263.42V1221.73H1341.15V1303.55H1347.97C1360.24 1276.96 1378.88 1255.59 1403.88 1239.46C1428.88 1223.09 1461.15 1214.91 1500.7 1214.91C1536.15 1214.91 1567.17 1222.18 1593.76 1236.73C1620.35 1251.05 1641.04 1272.87 1655.81 1302.18C1670.58 1331.27 1677.97 1368.09 1677.97 1412.64V1745.37H1597.51V1418.09C1597.51 1376.96 1586.83 1344.91 1565.47 1321.96C1544.1 1298.77 1514.79 1287.18 1477.51 1287.18C1451.83 1287.18 1428.88 1292.75 1408.65 1303.89C1388.65 1315.02 1372.85 1331.27 1361.26 1352.64C1349.67 1374 1343.88 1399.91 1343.88 1430.37ZM1985.51 1221.73V1289.91H1714.15V1221.73H1985.51ZM1793.24 1096.27H1873.69V1595.37C1873.69 1618.09 1876.99 1635.14 1883.58 1646.5C1890.4 1657.64 1899.04 1665.14 1909.49 1669C1920.17 1672.64 1931.42 1674.46 1943.24 1674.46C1952.1 1674.46 1959.38 1674 1965.06 1673.09C1970.74 1671.96 1975.29 1671.05 1978.69 1670.37L1995.06 1742.64C1989.6 1744.68 1981.99 1746.73 1972.22 1748.77C1962.44 1751.05 1950.06 1752.18 1935.06 1752.18C1912.33 1752.18 1890.06 1747.3 1868.24 1737.52C1846.65 1727.75 1828.69 1712.87 1814.38 1692.87C1800.29 1672.87 1793.24 1647.64 1793.24 1617.18V1096.27Z" fill="black"/>
<path d="M213.6 1984.6H166.2V1831H215.7C230.6 1831 243.35 1834.07 253.95 1840.22C264.55 1846.32 272.675 1855.1 278.325 1866.55C283.975 1877.95 286.8 1891.6 286.8 1907.5C286.8 1923.5 283.95 1937.27 278.25 1948.82C272.55 1960.32 264.25 1969.17 253.35 1975.37C242.45 1981.52 229.2 1984.6 213.6 1984.6ZM184.8 1968.1H212.4C225.1 1968.1 235.625 1965.65 243.975 1960.75C252.325 1955.85 258.55 1948.87 262.65 1939.82C266.75 1930.77 268.8 1920 268.8 1907.5C268.8 1895.1 266.775 1884.42 262.725 1875.47C258.675 1866.47 252.625 1859.57 244.575 1854.77C236.525 1849.92 226.5 1847.5 214.5 1847.5H184.8V1968.1ZM387.132 1987C376.032 1987 366.457 1984.55 358.407 1979.65C350.407 1974.7 344.232 1967.8 339.882 1958.95C335.582 1950.05 333.432 1939.7 333.432 1927.9C333.432 1916.1 335.582 1905.7 339.882 1896.7C344.232 1887.65 350.282 1880.6 358.032 1875.55C365.832 1870.45 374.932 1867.9 385.332 1867.9C391.332 1867.9 397.257 1868.9 403.107 1870.9C408.957 1872.9 414.282 1876.15 419.082 1880.65C423.882 1885.1 427.707 1891 430.557 1898.35C433.407 1905.7 434.832 1914.75 434.832 1925.5V1933H346.032V1917.7H416.832C416.832 1911.2 415.532 1905.4 412.932 1900.3C410.382 1895.2 406.732 1891.17 401.982 1888.22C397.282 1885.27 391.732 1883.8 385.332 1883.8C378.282 1883.8 372.182 1885.55 367.032 1889.05C361.932 1892.5 358.007 1897 355.257 1902.55C352.507 1908.1 351.132 1914.05 351.132 1920.4V1930.6C351.132 1939.3 352.632 1946.67 355.632 1952.72C358.682 1958.72 362.907 1963.3 368.307 1966.45C373.707 1969.55 379.982 1971.1 387.132 1971.1C391.782 1971.1 395.982 1970.45 399.732 1969.15C403.532 1967.8 406.807 1965.8 409.557 1963.15C412.307 1960.45 414.432 1957.1 415.932 1953.1L433.032 1957.9C431.232 1963.7 428.207 1968.8 423.957 1973.2C419.707 1977.55 414.457 1980.95 408.207 1983.4C401.957 1985.8 394.932 1987 387.132 1987ZM502.689 1915.3V1984.6H484.989V1869.4H502.089V1887.4H503.589C506.289 1881.55 510.389 1876.85 515.889 1873.3C521.389 1869.7 528.489 1867.9 537.189 1867.9C544.989 1867.9 551.814 1869.5 557.664 1872.7C563.514 1875.85 568.064 1880.65 571.314 1887.1C574.564 1893.5 576.189 1901.6 576.189 1911.4V1984.6H558.489V1912.6C558.489 1903.55 556.139 1896.5 551.439 1891.45C546.739 1886.35 540.289 1883.8 532.089 1883.8C526.439 1883.8 521.389 1885.02 516.939 1887.47C512.539 1889.92 509.064 1893.5 506.514 1898.2C503.964 1902.9 502.689 1908.6 502.689 1915.3ZM681.865 1869.4V1884.4H622.165V1869.4H681.865ZM639.565 1841.8H657.265V1951.6C657.265 1956.6 657.99 1960.35 659.44 1962.85C660.94 1965.3 662.84 1966.95 665.14 1967.8C667.49 1968.6 669.965 1969 672.565 1969C674.515 1969 676.115 1968.9 677.365 1968.7C678.615 1968.45 679.615 1968.25 680.365 1968.1L683.965 1984C682.765 1984.45 681.09 1984.9 678.94 1985.35C676.79 1985.85 674.065 1986.1 670.765 1986.1C665.765 1986.1 660.865 1985.02 656.065 1982.87C651.315 1980.72 647.365 1977.45 644.215 1973.05C641.115 1968.65 639.565 1963.1 639.565 1956.4V1841.8ZM765.622 1987.3C758.322 1987.3 751.697 1985.92 745.747 1983.17C739.797 1980.37 735.072 1976.35 731.572 1971.1C728.072 1965.8 726.322 1959.4 726.322 1951.9C726.322 1945.3 727.622 1939.95 730.222 1935.85C732.822 1931.7 736.297 1928.45 740.647 1926.1C744.997 1923.75 749.797 1922 755.047 1920.85C760.347 1919.65 765.672 1918.7 771.022 1918C778.022 1917.1 783.697 1916.42 788.047 1915.97C792.447 1915.47 795.647 1914.65 797.647 1913.5C799.697 1912.35 800.722 1910.35 800.722 1907.5V1906.9C800.722 1899.5 798.697 1893.75 794.647 1889.65C790.647 1885.55 784.572 1883.5 776.422 1883.5C767.972 1883.5 761.347 1885.35 756.547 1889.05C751.747 1892.75 748.372 1896.7 746.422 1900.9L729.622 1894.9C732.622 1887.9 736.622 1882.45 741.622 1878.55C746.672 1874.6 752.172 1871.85 758.122 1870.3C764.122 1868.7 770.022 1867.9 775.822 1867.9C779.522 1867.9 783.772 1868.35 788.572 1869.25C793.422 1870.1 798.097 1871.87 802.597 1874.57C807.147 1877.27 810.922 1881.35 813.922 1886.8C816.922 1892.25 818.422 1899.55 818.422 1908.7V1984.6H800.722V1969H799.822C798.622 1971.5 796.622 1974.17 793.822 1977.02C791.022 1979.87 787.297 1982.3 782.647 1984.3C777.997 1986.3 772.322 1987.3 765.622 1987.3ZM768.322 1971.4C775.322 1971.4 781.222 1970.02 786.022 1967.27C790.872 1964.52 794.522 1960.97 796.972 1956.62C799.472 1952.27 800.722 1947.7 800.722 1942.9V1926.7C799.972 1927.6 798.322 1928.42 795.772 1929.17C793.272 1929.87 790.372 1930.5 787.072 1931.05C783.822 1931.55 780.647 1932 777.547 1932.4C774.497 1932.75 772.022 1933.05 770.122 1933.3C765.522 1933.9 761.222 1934.87 757.222 1936.22C753.272 1937.52 750.072 1939.5 747.622 1942.15C745.222 1944.75 744.022 1948.3 744.022 1952.8C744.022 1958.95 746.297 1963.6 750.847 1966.75C755.447 1969.85 761.272 1971.4 768.322 1971.4ZM891.66 1831V1984.6H873.96V1831H891.66ZM1238.24 1907.8C1238.24 1924 1235.31 1938 1229.46 1949.8C1223.61 1961.6 1215.59 1970.7 1205.39 1977.1C1195.19 1983.5 1183.54 1986.7 1170.44 1986.7C1157.34 1986.7 1145.69 1983.5 1135.49 1977.1C1125.29 1970.7 1117.26 1961.6 1111.41 1949.8C1105.56 1938 1102.64 1924 1102.64 1907.8C1102.64 1891.6 1105.56 1877.6 1111.41 1865.8C1117.26 1854 1125.29 1844.9 1135.49 1838.5C1145.69 1832.1 1157.34 1828.9 1170.44 1828.9C1183.54 1828.9 1195.19 1832.1 1205.39 1838.5C1215.59 1844.9 1223.61 1854 1229.46 1865.8C1235.31 1877.6 1238.24 1891.6 1238.24 1907.8ZM1220.24 1907.8C1220.24 1894.5 1218.01 1883.27 1213.56 1874.12C1209.16 1864.97 1203.19 1858.05 1195.64 1853.35C1188.14 1848.65 1179.74 1846.3 1170.44 1846.3C1161.14 1846.3 1152.71 1848.65 1145.16 1853.35C1137.66 1858.05 1131.69 1864.97 1127.24 1874.12C1122.84 1883.27 1120.64 1894.5 1120.64 1907.8C1120.64 1921.1 1122.84 1932.32 1127.24 1941.47C1131.69 1950.62 1137.66 1957.55 1145.16 1962.25C1152.71 1966.95 1161.14 1969.3 1170.44 1969.3C1179.74 1969.3 1188.14 1966.95 1195.64 1962.25C1203.19 1957.55 1209.16 1950.62 1213.56 1941.47C1218.01 1932.32 1220.24 1921.1 1220.24 1907.8ZM1308.05 1915.3V1984.6H1290.35V1869.4H1307.45V1887.4H1308.95C1311.65 1881.55 1315.75 1876.85 1321.25 1873.3C1326.75 1869.7 1333.85 1867.9 1342.55 1867.9C1350.35 1867.9 1357.17 1869.5 1363.02 1872.7C1368.87 1875.85 1373.42 1880.65 1376.67 1887.1C1379.92 1893.5 1381.55 1901.6 1381.55 1911.4V1984.6H1363.85V1912.6C1363.85 1903.55 1361.5 1896.5 1356.8 1891.45C1352.1 1886.35 1345.65 1883.8 1337.45 1883.8C1331.8 1883.8 1326.75 1885.02 1322.3 1887.47C1317.9 1889.92 1314.42 1893.5 1311.87 1898.2C1309.32 1902.9 1308.05 1908.6 1308.05 1915.3ZM1454.82 1831V1984.6H1437.12V1831H1454.82ZM1510.47 1984.6V1869.4H1528.17V1984.6H1510.47ZM1519.47 1850.2C1516.02 1850.2 1513.05 1849.02 1510.55 1846.67C1508.1 1844.32 1506.87 1841.5 1506.87 1838.2C1506.87 1834.9 1508.1 1832.07 1510.55 1829.72C1513.05 1827.37 1516.02 1826.2 1519.47 1826.2C1522.92 1826.2 1525.87 1827.37 1528.32 1829.72C1530.82 1832.07 1532.07 1834.9 1532.07 1838.2C1532.07 1841.5 1530.82 1844.32 1528.32 1846.67C1525.87 1849.02 1522.92 1850.2 1519.47 1850.2ZM1601.52 1915.3V1984.6H1583.82V1869.4H1600.92V1887.4H1602.42C1605.12 1881.55 1609.22 1876.85 1614.72 1873.3C1620.22 1869.7 1627.32 1867.9 1636.02 1867.9C1643.82 1867.9 1650.65 1869.5 1656.5 1872.7C1662.35 1875.85 1666.9 1880.65 1670.15 1887.1C1673.4 1893.5 1675.02 1901.6 1675.02 1911.4V1984.6H1657.32V1912.6C1657.32 1903.55 1654.97 1896.5 1650.27 1891.45C1645.57 1886.35 1639.12 1883.8 1630.92 1883.8C1625.27 1883.8 1620.22 1885.02 1615.77 1887.47C1611.37 1889.92 1607.9 1893.5 1605.35 1898.2C1602.8 1902.9 1601.52 1908.6 1601.52 1915.3ZM1778.9 1987C1767.8 1987 1758.22 1984.55 1750.17 1979.65C1742.17 1974.7 1736 1967.8 1731.65 1958.95C1727.35 1950.05 1725.2 1939.7 1725.2 1927.9C1725.2 1916.1 1727.35 1905.7 1731.65 1896.7C1736 1887.65 1742.05 1880.6 1749.8 1875.55C1757.6 1870.45 1766.7 1867.9 1777.1 1867.9C1783.1 1867.9 1789.02 1868.9 1794.87 1870.9C1800.72 1872.9 1806.05 1876.15 1810.85 1880.65C1815.65 1885.1 1819.47 1891 1822.32 1898.35C1825.17 1905.7 1826.6 1914.75 1826.6 1925.5V1933H1737.8V1917.7H1808.6C1808.6 1911.2 1807.3 1905.4 1804.7 1900.3C1802.15 1895.2 1798.5 1891.17 1793.75 1888.22C1789.05 1885.27 1783.5 1883.8 1777.1 1883.8C1770.05 1883.8 1763.95 1885.55 1758.8 1889.05C1753.7 1892.5 1749.77 1897 1747.02 1902.55C1744.27 1908.1 1742.9 1914.05 1742.9 1920.4V1930.6C1742.9 1939.3 1744.4 1946.67 1747.4 1952.72C1750.45 1958.72 1754.67 1963.3 1760.07 1966.45C1765.47 1969.55 1771.75 1971.1 1778.9 1971.1C1783.55 1971.1 1787.75 1970.45 1791.5 1969.15C1795.3 1967.8 1798.57 1965.8 1801.32 1963.15C1804.07 1960.45 1806.2 1957.1 1807.7 1953.1L1824.8 1957.9C1823 1963.7 1819.97 1968.8 1815.72 1973.2C1811.47 1977.55 1806.22 1980.95 1799.97 1983.4C1793.72 1985.8 1786.7 1987 1778.9 1987ZM2045.79 1869.4C2044.89 1861.8 2041.24 1855.9 2034.84 1851.7C2028.44 1847.5 2020.59 1845.4 2011.29 1845.4C2004.49 1845.4 1998.54 1846.5 1993.44 1848.7C1988.39 1850.9 1984.44 1853.92 1981.59 1857.77C1978.79 1861.62 1977.39 1866 1977.39 1870.9C1977.39 1875 1978.36 1878.52 1980.31 1881.47C1982.31 1884.37 1984.86 1886.8 1987.96 1888.75C1991.06 1890.65 1994.31 1892.22 1997.71 1893.47C2001.11 1894.67 2004.24 1895.65 2007.09 1896.4L2022.69 1900.6C2026.69 1901.65 2031.14 1903.1 2036.04 1904.95C2040.99 1906.8 2045.71 1909.32 2050.21 1912.52C2054.76 1915.67 2058.51 1919.72 2061.46 1924.67C2064.41 1929.62 2065.89 1935.7 2065.89 1942.9C2065.89 1951.2 2063.71 1958.7 2059.36 1965.4C2055.06 1972.1 2048.76 1977.42 2040.46 1981.37C2032.21 1985.32 2022.19 1987.3 2010.39 1987.3C1999.39 1987.3 1989.86 1985.52 1981.81 1981.97C1973.81 1978.42 1967.51 1973.47 1962.91 1967.12C1958.36 1960.77 1955.79 1953.4 1955.19 1945H1974.39C1974.89 1950.8 1976.84 1955.6 1980.24 1959.4C1983.69 1963.15 1988.04 1965.95 1993.29 1967.8C1998.59 1969.6 2004.29 1970.5 2010.39 1970.5C2017.49 1970.5 2023.86 1969.35 2029.51 1967.05C2035.16 1964.7 2039.64 1961.45 2042.94 1957.3C2046.24 1953.1 2047.89 1948.2 2047.89 1942.6C2047.89 1937.5 2046.46 1933.35 2043.61 1930.15C2040.76 1926.95 2037.01 1924.35 2032.36 1922.35C2027.71 1920.35 2022.69 1918.6 2017.29 1917.1L1998.39 1911.7C1986.39 1908.25 1976.89 1903.32 1969.89 1896.92C1962.89 1890.52 1959.39 1882.15 1959.39 1871.8C1959.39 1863.2 1961.71 1855.7 1966.36 1849.3C1971.06 1842.85 1977.36 1837.85 1985.26 1834.3C1993.21 1830.7 2002.09 1828.9 2011.89 1828.9C2021.79 1828.9 2030.59 1830.67 2038.29 1834.22C2045.99 1837.72 2052.09 1842.52 2056.59 1848.62C2061.14 1854.72 2063.54 1861.65 2063.79 1869.4H2045.79ZM2164.1 1987C2153.3 1987 2144 1984.45 2136.2 1979.35C2128.4 1974.25 2122.4 1967.22 2118.2 1958.27C2114 1949.32 2111.9 1939.1 2111.9 1927.6C2111.9 1915.9 2114.05 1905.57 2118.35 1896.62C2122.7 1887.62 2128.75 1880.6 2136.5 1875.55C2144.3 1870.45 2153.4 1867.9 2163.8 1867.9C2171.9 1867.9 2179.2 1869.4 2185.7 1872.4C2192.2 1875.4 2197.53 1879.6 2201.68 1885C2205.83 1890.4 2208.4 1896.7 2209.4 1903.9H2191.7C2190.35 1898.65 2187.35 1894 2182.7 1889.95C2178.1 1885.85 2171.9 1883.8 2164.1 1883.8C2157.2 1883.8 2151.15 1885.6 2145.95 1889.2C2140.8 1892.75 2136.78 1897.77 2133.88 1904.27C2131.03 1910.72 2129.6 1918.3 2129.6 1927C2129.6 1935.9 2131 1943.65 2133.8 1950.25C2136.65 1956.85 2140.65 1961.97 2145.8 1965.62C2151 1969.27 2157.1 1971.1 2164.1 1971.1C2168.7 1971.1 2172.88 1970.3 2176.63 1968.7C2180.38 1967.1 2183.55 1964.8 2186.15 1961.8C2188.75 1958.8 2190.6 1955.2 2191.7 1951H2209.4C2208.4 1957.8 2205.93 1963.92 2201.98 1969.37C2198.08 1974.77 2192.9 1979.07 2186.45 1982.27C2180.05 1985.42 2172.6 1987 2164.1 1987ZM2276.21 1915.3V1984.6H2258.51V1831H2276.21V1887.4H2277.71C2280.41 1881.45 2284.46 1876.72 2289.86 1873.22C2295.31 1869.67 2302.56 1867.9 2311.61 1867.9C2319.46 1867.9 2326.33 1869.47 2332.23 1872.62C2338.13 1875.72 2342.71 1880.5 2345.96 1886.95C2349.26 1893.35 2350.91 1901.5 2350.91 1911.4V1984.6H2333.21V1912.6C2333.21 1903.45 2330.83 1896.37 2326.08 1891.37C2321.38 1886.32 2314.86 1883.8 2306.51 1883.8C2300.71 1883.8 2295.51 1885.02 2290.91 1887.47C2286.36 1889.92 2282.76 1893.5 2280.11 1898.2C2277.51 1902.9 2276.21 1908.6 2276.21 1915.3ZM2453.32 1987C2442.92 1987 2433.8 1984.52 2425.95 1979.57C2418.15 1974.62 2412.05 1967.7 2407.65 1958.8C2403.3 1949.9 2401.12 1939.5 2401.12 1927.6C2401.12 1915.6 2403.3 1905.12 2407.65 1896.17C2412.05 1887.22 2418.15 1880.27 2425.95 1875.32C2433.8 1870.37 2442.92 1867.9 2453.32 1867.9C2463.72 1867.9 2472.82 1870.37 2480.62 1875.32C2488.47 1880.27 2494.57 1887.22 2498.92 1896.17C2503.32 1905.12 2505.52 1915.6 2505.52 1927.6C2505.52 1939.5 2503.32 1949.9 2498.92 1958.8C2494.57 1967.7 2488.47 1974.62 2480.62 1979.57C2472.82 1984.52 2463.72 1987 2453.32 1987ZM2453.32 1971.1C2461.22 1971.1 2467.72 1969.07 2472.82 1965.02C2477.92 1960.97 2481.7 1955.65 2484.15 1949.05C2486.6 1942.45 2487.82 1935.3 2487.82 1927.6C2487.82 1919.9 2486.6 1912.72 2484.15 1906.07C2481.7 1899.42 2477.92 1894.05 2472.82 1889.95C2467.72 1885.85 2461.22 1883.8 2453.32 1883.8C2445.42 1883.8 2438.92 1885.85 2433.82 1889.95C2428.72 1894.05 2424.95 1899.42 2422.5 1906.07C2420.05 1912.72 2418.82 1919.9 2418.82 1927.6C2418.82 1935.3 2420.05 1942.45 2422.5 1949.05C2424.95 1955.65 2428.72 1960.97 2433.82 1965.02C2438.92 1969.07 2445.42 1971.1 2453.32 1971.1ZM2602.57 1987C2592.17 1987 2583.05 1984.52 2575.2 1979.57C2567.4 1974.62 2561.3 1967.7 2556.9 1958.8C2552.55 1949.9 2550.37 1939.5 2550.37 1927.6C2550.37 1915.6 2552.55 1905.12 2556.9 1896.17C2561.3 1887.22 2567.4 1880.27 2575.2 1875.32C2583.05 1870.37 2592.17 1867.9 2602.57 1867.9C2612.97 1867.9 2622.07 1870.37 2629.87 1875.32C2637.72 1880.27 2643.82 1887.22 2648.17 1896.17C2652.57 1905.12 2654.77 1915.6 2654.77 1927.6C2654.77 1939.5 2652.57 1949.9 2648.17 1958.8C2643.82 1967.7 2637.72 1974.62 2629.87 1979.57C2622.07 1984.52 2612.97 1987 2602.57 1987ZM2602.57 1971.1C2610.47 1971.1 2616.97 1969.07 2622.07 1965.02C2627.17 1960.97 2630.95 1955.65 2633.4 1949.05C2635.85 1942.45 2637.07 1935.3 2637.07 1927.6C2637.07 1919.9 2635.85 1912.72 2633.4 1906.07C2630.95 1899.42 2627.17 1894.05 2622.07 1889.95C2616.97 1885.85 2610.47 1883.8 2602.57 1883.8C2594.67 1883.8 2588.17 1885.85 2583.07 1889.95C2577.97 1894.05 2574.2 1899.42 2571.75 1906.07C2569.3 1912.72 2568.07 1919.9 2568.07 1927.6C2568.07 1935.3 2569.3 1942.45 2571.75 1949.05C2574.2 1955.65 2577.97 1960.97 2583.07 1965.02C2588.17 1969.07 2594.67 1971.1 2602.57 1971.1ZM2722.72 1831V1984.6H2705.02V1831H2722.72Z" fill="black"/>
</g>
</svg>
