<svg width="24" height="24" viewBox="0 0 24 24" fill="none" xmlns="http://www.w3.org/2000/svg">
<g clip-path="url(#clip0_9771_252)">
<path d="M12.8215 14.5096L15.3615 11.9996L17.1215 12.4696C17.3923 12.533 17.675 12.5228 17.9405 12.4402C18.206 12.3575 18.4446 12.2054 18.6315 11.9996C18.8148 11.8032 18.9449 11.5633 19.0097 11.3026C19.0744 11.0419 19.0716 10.769 19.0015 10.5096L18.5315 8.75966L19.3515 7.99966L21.1115 8.46966C21.3823 8.533 21.665 8.52282 21.9305 8.44019C22.196 8.35755 22.4346 8.20546 22.6215 7.99966C22.8049 7.80524 22.9359 7.56749 23.0023 7.30865C23.0688 7.04982 23.0685 6.77836 23.0015 6.51966L22.5315 4.76966C22.9731 4.32808 23.2212 3.72916 23.2212 3.10466C23.2212 2.48017 22.9731 1.88125 22.5315 1.43966C22.0899 0.99808 21.491 0.75 20.8665 0.75C20.242 0.75 19.6431 0.99808 19.2015 1.43966L9.4915 11.1796C8.14764 10.6088 6.64704 10.5232 5.24698 10.9376C3.84694 11.352 2.63467 12.2405 1.81803 13.4509C1.0014 14.6612 0.631271 16.118 0.771114 17.5714C0.910957 19.0247 1.55205 20.3842 2.58449 21.4166C3.61693 22.4491 4.97638 23.0902 6.42976 23.23C7.88313 23.3699 9.33989 22.9997 10.5503 22.1831C11.7606 21.3665 12.6492 20.1542 13.0636 18.7541C13.478 17.3541 13.3924 15.8535 12.8215 14.5096Z" stroke="black" stroke-width="1.5" stroke-linecap="round" stroke-linejoin="round"/>
<path d="M4.25781 17.8404C4.25781 18.0899 4.30695 18.3369 4.40244 18.5675C4.49792 18.798 4.63788 19.0074 4.81431 19.1839C4.99074 19.3603 5.20019 19.5003 5.43071 19.5957C5.66123 19.6912 5.9083 19.7404 6.15781 19.7404C6.40732 19.7404 6.65439 19.6912 6.88491 19.5957C7.11543 19.5003 7.32488 19.3603 7.50131 19.1839C7.67774 19.0074 7.8177 18.798 7.91318 18.5675C8.00866 18.3369 8.05781 18.0899 8.05781 17.8404C8.05781 17.3365 7.85763 16.8532 7.50131 16.4969C7.14499 16.1405 6.66172 15.9404 6.15781 15.9404C5.6539 15.9404 5.17063 16.1405 4.81431 16.4969C4.45799 16.8532 4.25781 17.3365 4.25781 17.8404Z" stroke="black" stroke-width="1.5" stroke-linecap="round" stroke-linejoin="round"/>
</g>
<defs>
<clipPath id="clip0_9771_252">
<rect width="24" height="24" fill="white"/>
</clipPath>
</defs>
</svg>
