<svg width="21" height="20" viewBox="0 0 21 20" fill="none" xmlns="http://www.w3.org/2000/svg">
<path d="M11.6959 0.774399C11.2945 0.395264 10.6617 0.413343 10.2826 0.814781C9.9034 1.21622 9.92149 1.849 10.3229 2.22814L17.4929 8.99977H0.999801C0.447626 8.99977 0 9.44739 0 9.99957C0 10.5518 0.447626 10.9994 0.999801 10.9994H17.4929L10.3229 17.771C9.92149 18.1502 9.9034 18.7829 10.2826 19.1843C10.6617 19.5858 11.2945 19.6039 11.6959 19.2247L20.6941 10.7264C20.894 10.5376 21.0074 10.2746 21.0074 9.99957C21.0074 9.7245 20.894 9.46158 20.6941 9.27271L11.6959 0.774399Z" fill="#01433D"/>
</svg>
