<svg width="40" height="40" viewBox="0 0 40 40" fill="none" xmlns="http://www.w3.org/2000/svg">
<g clip-path="url(#clip0_7882_141)">
<path d="M34.9998 7.95719V36C34.9998 38.2091 33.209 40 30.9998 40H9C6.79086 40 5 38.2091 5 36V4C5 1.79086 6.79086 0 9 0H26.3367L34.9998 7.95719Z" fill="#D8E4EE"/>
<g filter="url(#filter0_d_7882_141)">
<path d="M34.9991 7.95719H27.3359C26.7837 7.95719 26.3359 7.50947 26.3359 6.95719V0L34.9991 7.95719Z" fill="#D8E4EE"/>
</g>
<path d="M11.0349 28.884H8.67695L8.29895 30H6.68795L8.97395 23.682H10.7559L13.0419 30H11.4129L11.0349 28.884ZM10.6389 27.696L9.85595 25.383L9.08195 27.696H10.6389ZM15.3757 28.74H18.0937V30H13.6297V28.83L16.3297 24.942H13.6297V23.682H18.0937V24.852L15.3757 28.74ZM27.793 23.682L26.146 30H24.283L23.275 25.842L22.231 30H20.368L18.766 23.682H20.413L21.322 28.281L22.447 23.682H24.139L25.219 28.281L26.137 23.682H27.793ZM28.4658 25.284C28.4898 24.642 28.6998 24.147 29.0958 23.799C29.4918 23.451 30.0288 23.277 30.7068 23.277C31.1568 23.277 31.5408 23.355 31.8588 23.511C32.1828 23.667 32.4258 23.88 32.5878 24.15C32.7558 24.42 32.8398 24.723 32.8398 25.059C32.8398 25.455 32.7408 25.779 32.5428 26.031C32.3448 26.277 32.1138 26.445 31.8498 26.535V26.571C32.1918 26.685 32.4618 26.874 32.6598 27.138C32.8578 27.402 32.9568 27.741 32.9568 28.155C32.9568 28.527 32.8698 28.857 32.6958 29.145C32.5278 29.427 32.2788 29.649 31.9488 29.811C31.6248 29.973 31.2378 30.054 30.7878 30.054C30.0678 30.054 29.4918 29.877 29.0598 29.523C28.6338 29.169 28.4088 28.635 28.3848 27.921H29.8788C29.8848 28.185 29.9598 28.395 30.1038 28.551C30.2478 28.701 30.4578 28.776 30.7338 28.776C30.9678 28.776 31.1478 28.71 31.2738 28.578C31.4058 28.44 31.4718 28.26 31.4718 28.038C31.4718 27.75 31.3788 27.543 31.1928 27.417C31.0128 27.285 30.7218 27.219 30.3198 27.219H30.0318V25.968H30.3198C30.6258 25.968 30.8718 25.917 31.0578 25.815C31.2498 25.707 31.3458 25.518 31.3458 25.248C31.3458 25.032 31.2858 24.864 31.1658 24.744C31.0458 24.624 30.8808 24.564 30.6708 24.564C30.4428 24.564 30.2718 24.633 30.1578 24.771C30.0498 24.909 29.9868 25.08 29.9688 25.284H28.4658Z" fill="#475467"/>
</g>
<defs>
<filter id="filter0_d_7882_141" x="23.3359" y="-1" width="12.6641" height="11.957" filterUnits="userSpaceOnUse" color-interpolation-filters="sRGB">
<feFlood flood-opacity="0" result="BackgroundImageFix"/>
<feColorMatrix in="SourceAlpha" type="matrix" values="0 0 0 0 0 0 0 0 0 0 0 0 0 0 0 0 0 0 127 0" result="hardAlpha"/>
<feOffset dx="-1" dy="1"/>
<feGaussianBlur stdDeviation="1"/>
<feComposite in2="hardAlpha" operator="out"/>
<feColorMatrix type="matrix" values="0 0 0 0 0 0 0 0 0 0 0 0 0 0 0 0 0 0 0.2 0"/>
<feBlend mode="normal" in2="BackgroundImageFix" result="effect1_dropShadow_7882_141"/>
<feBlend mode="normal" in="SourceGraphic" in2="effect1_dropShadow_7882_141" result="shape"/>
</filter>
<clipPath id="clip0_7882_141">
<rect width="40" height="40" fill="white"/>
</clipPath>
</defs>
</svg>
