<svg width="20" height="20" viewBox="0 0 20 20" fill="none" xmlns="http://www.w3.org/2000/svg">
<path d="M17.6693 10.0007V15.9636C17.6693 16.4155 17.4898 16.8488 17.1703 17.1683C16.8508 17.4878 16.4174 17.6673 15.9656 17.6673H4.03964C3.58779 17.6673 3.15445 17.4878 2.83494 17.1683C2.51543 16.8488 2.33594 16.4155 2.33594 15.9636V4.03769C2.33594 3.58584 2.51543 3.15249 2.83494 2.83299C3.15445 2.51348 3.58779 2.33398 4.03964 2.33398H13.41" fill="#7FDFD5"/>
<path d="M17.6693 10.0007V15.9636C17.6693 16.4155 17.4898 16.8488 17.1703 17.1683C16.8508 17.4878 16.4174 17.6673 15.9656 17.6673H4.03964C3.58779 17.6673 3.15445 17.4878 2.83494 17.1683C2.51543 16.8488 2.33594 16.4155 2.33594 15.9636V4.03769C2.33594 3.58584 2.51543 3.15249 2.83494 2.83299C3.15445 2.51348 3.58779 2.33398 4.03964 2.33398H13.41H16.0337C16.937 2.33398 17.6693 3.06625 17.6693 3.96954V10.0007Z" fill="#7FDFD5"/>
<path d="M6 10.5007L8.5 13.0007L14.5 7.33398" stroke="#EDF8FF" stroke-width="1.33333" stroke-linecap="round" stroke-linejoin="round"/>
</svg>
