<svg width="40" height="40" viewBox="0 0 40 40" fill="none" xmlns="http://www.w3.org/2000/svg">
<g clip-path="url(#clip0_7882_128)">
<path d="M34.9998 7.95719V36C34.9998 38.2091 33.209 40 30.9998 40H9C6.79086 40 5 38.2091 5 36V4C5 1.79086 6.79086 0 9 0H26.3367L34.9998 7.95719Z" fill="#D8E4EE"/>
<g filter="url(#filter0_d_7882_128)">
<path d="M34.9991 7.95719H27.3359C26.7837 7.95719 26.3359 7.50947 26.3359 6.95719V0L34.9991 7.95719Z" fill="#D8E4EE"/>
</g>
<path d="M10.7152 24.915V26.193H12.7762V27.381H10.7152V28.767H13.0462V30H9.17616V23.682H13.0462V24.915H10.7152ZM18.8603 25.716C18.8603 26.082 18.7763 26.418 18.6083 26.724C18.4403 27.024 18.1823 27.267 17.8343 27.453C17.4863 27.639 17.0543 27.732 16.5383 27.732H15.5843V30H14.0453V23.682H16.5383C17.0423 23.682 17.4683 23.769 17.8163 23.943C18.1643 24.117 18.4253 24.357 18.5993 24.663C18.7733 24.969 18.8603 25.32 18.8603 25.716ZM16.4213 26.508C16.7153 26.508 16.9343 26.439 17.0783 26.301C17.2223 26.163 17.2943 25.968 17.2943 25.716C17.2943 25.464 17.2223 25.269 17.0783 25.131C16.9343 24.993 16.7153 24.924 16.4213 24.924H15.5843V26.508H16.4213ZM21.1735 23.682V27.462C21.1735 27.84 21.2665 28.131 21.4525 28.335C21.6385 28.539 21.9115 28.641 22.2715 28.641C22.6315 28.641 22.9075 28.539 23.0995 28.335C23.2915 28.131 23.3875 27.84 23.3875 27.462V23.682H24.9265V27.453C24.9265 28.017 24.8065 28.494 24.5665 28.884C24.3265 29.274 24.0025 29.568 23.5945 29.766C23.1925 29.964 22.7425 30.063 22.2445 30.063C21.7465 30.063 21.2995 29.967 20.9035 29.775C20.5135 29.577 20.2045 29.283 19.9765 28.893C19.7485 28.497 19.6345 28.017 19.6345 27.453V23.682H21.1735ZM29.8322 26.76C30.1982 26.838 30.4922 27.021 30.7142 27.309C30.9362 27.591 31.0472 27.915 31.0472 28.281C31.0472 28.809 30.8612 29.229 30.4892 29.541C30.1232 29.847 29.6102 30 28.9502 30H26.0072V23.682H28.8512C29.4932 23.682 29.9942 23.829 30.3542 24.123C30.7202 24.417 30.9032 24.816 30.9032 25.32C30.9032 25.692 30.8042 26.001 30.6062 26.247C30.4142 26.493 30.1562 26.664 29.8322 26.76ZM27.5462 26.238H28.5542C28.8062 26.238 28.9982 26.184 29.1302 26.076C29.2682 25.962 29.3372 25.797 29.3372 25.581C29.3372 25.365 29.2682 25.2 29.1302 25.086C28.9982 24.972 28.8062 24.915 28.5542 24.915H27.5462V26.238ZM28.6802 28.758C28.9382 28.758 29.1362 28.701 29.2742 28.587C29.4182 28.467 29.4902 28.296 29.4902 28.074C29.4902 27.852 29.4152 27.678 29.2652 27.552C29.1212 27.426 28.9202 27.363 28.6622 27.363H27.5462V28.758H28.6802Z" fill="#475467"/>
</g>
<defs>
<filter id="filter0_d_7882_128" x="23.3359" y="-1" width="12.6641" height="11.957" filterUnits="userSpaceOnUse" color-interpolation-filters="sRGB">
<feFlood flood-opacity="0" result="BackgroundImageFix"/>
<feColorMatrix in="SourceAlpha" type="matrix" values="0 0 0 0 0 0 0 0 0 0 0 0 0 0 0 0 0 0 127 0" result="hardAlpha"/>
<feOffset dx="-1" dy="1"/>
<feGaussianBlur stdDeviation="1"/>
<feComposite in2="hardAlpha" operator="out"/>
<feColorMatrix type="matrix" values="0 0 0 0 0 0 0 0 0 0 0 0 0 0 0 0 0 0 0.2 0"/>
<feBlend mode="normal" in2="BackgroundImageFix" result="effect1_dropShadow_7882_128"/>
<feBlend mode="normal" in="SourceGraphic" in2="effect1_dropShadow_7882_128" result="shape"/>
</filter>
<clipPath id="clip0_7882_128">
<rect width="40" height="40" fill="white"/>
</clipPath>
</defs>
</svg>
