<svg width="39" height="39" viewBox="0 0 39 39" fill="none" xmlns="http://www.w3.org/2000/svg">
<path d="M2 31V19.4C2 14.7852 3.84374 10.3595 7.12563 7.09634C10.4075 3.83321 14.8587 2 19.5 2C24.1413 2 28.5925 3.83321 31.8744 7.09634C35.1563 10.3595 37 14.7852 37 19.4V31" stroke="#7FDFD5" stroke-width="2.5" stroke-linecap="round" stroke-linejoin="round"/>
<path d="M37 33C37 34.0609 36.5903 35.0783 35.861 35.8284C35.1317 36.5786 34.1425 37 33.1111 37H31.1667C30.1353 37 29.1461 36.5786 28.4168 35.8284C27.6875 35.0783 27.2778 34.0609 27.2778 33V27C27.2778 25.9391 27.6875 24.9217 28.4168 24.1716C29.1461 23.4214 30.1353 23 31.1667 23H37V33ZM2 33C2 34.0609 2.40972 35.0783 3.13903 35.8284C3.86834 36.5786 4.85749 37 5.88889 37H7.83333C8.86473 37 9.85388 36.5786 10.5832 35.8284C11.3125 35.0783 11.7222 34.0609 11.7222 33V27C11.7222 25.9391 11.3125 24.9217 10.5832 24.1716C9.85388 23.4214 8.86473 23 7.83333 23H2V33Z" stroke="#7FDFD5" stroke-width="2.5" stroke-linecap="round" stroke-linejoin="round"/>
</svg>
