<svg width="24" height="24" viewBox="0 0 24 24" fill="none" xmlns="http://www.w3.org/2000/svg">
<g clip-path="url(#clip0_9559_251)">
<path d="M21.75 18.75H11.25L5.25 23.25V18.75H2.25C1.85218 18.75 1.47064 18.592 1.18934 18.3107C0.908035 18.0294 0.75 17.6478 0.75 17.25V2.25C0.75 1.85218 0.908035 1.47064 1.18934 1.18934C1.47064 0.908035 1.85218 0.75 2.25 0.75H21.75C22.1478 0.75 22.5294 0.908035 22.8107 1.18934C23.092 1.47064 23.25 1.85218 23.25 2.25V17.25C23.25 17.6478 23.092 18.0294 22.8107 18.3107C22.5294 18.592 22.1478 18.75 21.75 18.75Z" stroke="black" stroke-width="1.5" stroke-linecap="round" stroke-linejoin="round"/>
<path d="M9.75 6.74943C9.75011 6.19946 9.90139 5.6601 10.1873 5.19029C10.4733 4.72049 10.8828 4.33833 11.3713 4.08558C11.8597 3.83283 12.4083 3.71921 12.9569 3.75715C13.5056 3.79508 14.0333 3.98311 14.4823 4.30068C14.9313 4.61825 15.2844 5.05314 15.5029 5.55782C15.7215 6.0625 15.7971 6.61755 15.7215 7.1623C15.6459 7.70705 15.4221 8.22055 15.0744 8.64666C14.7267 9.07277 14.2685 9.3951 13.75 9.57843C13.4576 9.68181 13.2044 9.8733 13.0253 10.1266C12.8462 10.3798 12.75 10.6823 12.75 10.9925V11.2495" stroke="black" stroke-width="1.5" stroke-linecap="round" stroke-linejoin="round"/>
<path d="M12.75 15C12.5429 15 12.375 14.8321 12.375 14.625C12.375 14.4179 12.5429 14.25 12.75 14.25" stroke="black" stroke-width="1.5"/>
<path d="M12.75 15C12.9571 15 13.125 14.8321 13.125 14.625C13.125 14.4179 12.9571 14.25 12.75 14.25" stroke="black" stroke-width="1.5"/>
</g>
<defs>
<clipPath id="clip0_9559_251">
<rect width="24" height="24" fill="white"/>
</clipPath>
</defs>
</svg>
