<svg width="40" height="40" viewBox="0 0 40 40" fill="none" xmlns="http://www.w3.org/2000/svg">
<g clip-path="url(#clip0_7882_135)">
<path d="M34.9998 7.95719V36C34.9998 38.2091 33.209 40 30.9998 40H9C6.79086 40 5 38.2091 5 36V4C5 1.79086 6.79086 0 9 0H26.3367L34.9998 7.95719Z" fill="#D8E4EE"/>
<g filter="url(#filter0_d_7882_135)">
<path d="M34.9991 7.95719H27.3359C26.7837 7.95719 26.3359 7.50947 26.3359 6.95719V0L34.9991 7.95719Z" fill="#D8E4EE"/>
</g>
<path d="M15.7511 23.682V30H14.2121V26.211L12.7991 30H11.5571L10.1351 26.202V30H8.59609V23.682H10.4141L12.1871 28.056L13.9421 23.682H15.7511ZM19.8458 30.063C19.2518 30.063 18.7058 29.925 18.2078 29.649C17.7158 29.373 17.3228 28.989 17.0288 28.497C16.7408 27.999 16.5968 27.441 16.5968 26.823C16.5968 26.205 16.7408 25.65 17.0288 25.158C17.3228 24.666 17.7158 24.282 18.2078 24.006C18.7058 23.73 19.2518 23.592 19.8458 23.592C20.4398 23.592 20.9828 23.73 21.4748 24.006C21.9728 24.282 22.3628 24.666 22.6448 25.158C22.9328 25.65 23.0768 26.205 23.0768 26.823C23.0768 27.441 22.9328 27.999 22.6448 28.497C22.3568 28.989 21.9668 29.373 21.4748 29.649C20.9828 29.925 20.4398 30.063 19.8458 30.063ZM19.8458 28.659C20.3498 28.659 20.7518 28.491 21.0518 28.155C21.3578 27.819 21.5108 27.375 21.5108 26.823C21.5108 26.265 21.3578 25.821 21.0518 25.491C20.7518 25.155 20.3498 24.987 19.8458 24.987C19.3358 24.987 18.9278 25.152 18.6218 25.482C18.3218 25.812 18.1718 26.259 18.1718 26.823C18.1718 27.381 18.3218 27.828 18.6218 28.164C18.9278 28.494 19.3358 28.659 19.8458 28.659ZM27.758 26.76C28.124 26.838 28.418 27.021 28.64 27.309C28.862 27.591 28.973 27.915 28.973 28.281C28.973 28.809 28.787 29.229 28.415 29.541C28.049 29.847 27.536 30 26.876 30H23.933V23.682H26.777C27.419 23.682 27.92 23.829 28.28 24.123C28.646 24.417 28.829 24.816 28.829 25.32C28.829 25.692 28.73 26.001 28.532 26.247C28.34 26.493 28.082 26.664 27.758 26.76ZM25.472 26.238H26.48C26.732 26.238 26.924 26.184 27.056 26.076C27.194 25.962 27.263 25.797 27.263 25.581C27.263 25.365 27.194 25.2 27.056 25.086C26.924 24.972 26.732 24.915 26.48 24.915H25.472V26.238ZM26.606 28.758C26.864 28.758 27.062 28.701 27.2 28.587C27.344 28.467 27.416 28.296 27.416 28.074C27.416 27.852 27.341 27.678 27.191 27.552C27.047 27.426 26.846 27.363 26.588 27.363H25.472V28.758H26.606ZM31.4046 23.682V30H29.8656V23.682H31.4046Z" fill="#475467"/>
</g>
<defs>
<filter id="filter0_d_7882_135" x="23.3359" y="-1" width="12.6641" height="11.957" filterUnits="userSpaceOnUse" color-interpolation-filters="sRGB">
<feFlood flood-opacity="0" result="BackgroundImageFix"/>
<feColorMatrix in="SourceAlpha" type="matrix" values="0 0 0 0 0 0 0 0 0 0 0 0 0 0 0 0 0 0 127 0" result="hardAlpha"/>
<feOffset dx="-1" dy="1"/>
<feGaussianBlur stdDeviation="1"/>
<feComposite in2="hardAlpha" operator="out"/>
<feColorMatrix type="matrix" values="0 0 0 0 0 0 0 0 0 0 0 0 0 0 0 0 0 0 0.2 0"/>
<feBlend mode="normal" in2="BackgroundImageFix" result="effect1_dropShadow_7882_135"/>
<feBlend mode="normal" in="SourceGraphic" in2="effect1_dropShadow_7882_135" result="shape"/>
</filter>
<clipPath id="clip0_7882_135">
<rect width="40" height="40" fill="white"/>
</clipPath>
</defs>
</svg>
