<svg width="26" height="26" viewBox="0 0 26 26" fill="none" xmlns="http://www.w3.org/2000/svg">
<path d="M19.5 8.66699C19.5 6.94309 18.8152 5.28978 17.5962 4.0708C16.3772 2.85181 14.7239 2.16699 13 2.16699C11.2761 2.16699 9.62279 2.85181 8.40381 4.0708C7.18482 5.28978 6.5 6.94309 6.5 8.66699C6.5 16.2503 3.25 18.417 3.25 18.417H22.75C22.75 18.417 19.5 16.2503 19.5 8.66699Z" stroke="#01433D" stroke-width="1.5" stroke-linecap="round" stroke-linejoin="round"/>
<path d="M14.8811 22.75C14.6907 23.0783 14.4173 23.3509 14.0884 23.5403C13.7595 23.7298 13.3866 23.8295 13.007 23.8295C12.6274 23.8295 12.2545 23.7298 11.9256 23.5403C11.5966 23.3509 11.3233 23.0783 11.1328 22.75" stroke="#01433D" stroke-width="1.5" stroke-linecap="round" stroke-linejoin="round"/>
</svg>
