<svg width="58" height="58" viewBox="0 0 58 58" fill="none" xmlns="http://www.w3.org/2000/svg">
<path fill-rule="evenodd" clip-rule="evenodd" d="M10.3655 4.0874C6.84994 4.0874 4 6.93734 4 10.4529C4 13.9685 6.84994 16.8184 10.3655 16.8184C13.8811 16.8184 16.731 13.9685 16.731 10.4529C16.731 6.93734 13.8811 4.0874 10.3655 4.0874ZM0 10.4529C0 4.7282 4.6408 0.0874023 10.3655 0.0874023C16.0902 0.0874023 20.731 4.7282 20.731 10.4529C20.731 16.1776 16.0902 20.8184 10.3655 20.8184C4.6408 20.8184 0 16.1776 0 10.4529ZM53.6075 4.01912C54.3885 4.80017 54.3885 6.0665 53.6075 6.84755L6.76062 53.6944C5.97958 54.4754 4.71325 54.4754 3.9322 53.6944C3.15115 52.9133 3.15115 51.647 3.9322 50.866L50.779 4.01912C51.5601 3.23807 52.8264 3.23807 53.6075 4.01912ZM40.8076 47.2613C40.8076 43.7457 43.6576 40.8958 47.1731 40.8958C50.6887 40.8958 53.5387 43.7457 53.5387 47.2613C53.5387 50.7768 50.6887 53.6268 47.1731 53.6268C43.6576 53.6268 40.8076 50.7768 40.8076 47.2613ZM47.1731 36.8958C41.4484 36.8958 36.8076 41.5365 36.8076 47.2613C36.8076 52.986 41.4484 57.6268 47.1731 57.6268C52.8979 57.6268 57.5387 52.986 57.5387 47.2613C57.5387 41.5365 52.8979 36.8958 47.1731 36.8958Z" fill="#006D8D"/>
</svg>
