<svg width="27" height="30" viewBox="0 0 27 30" fill="none" xmlns="http://www.w3.org/2000/svg">
    <path d="M19.7619 27.2724H7.23607C4.73044 27.2724 2.69922 25.2412 2.69922 22.7355C2.69922 22.1299 2.82049 21.5303 3.05588 20.9723L3.71063 19.42C4.49203 17.5675 6.30701 16.3633 8.31756 16.3633H9H18H18.6816C20.6926 16.3633 22.5078 17.5681 23.289 19.4212L23.9429 20.9726C24.1781 21.5305 24.2992 22.1297 24.2992 22.735C24.2992 25.2409 22.2678 27.2724 19.7619 27.2724Z" stroke="#01433D" stroke-width="1.5" stroke-linejoin="round"/>
    <path d="M13.5016 13.6357C16.4839 13.6357 18.9016 11.1936 18.9016 8.18111C18.9016 5.16865 16.4839 2.72656 13.5016 2.72656C10.5192 2.72656 8.10156 5.16865 8.10156 8.18111C8.10156 11.1936 10.5192 13.6357 13.5016 13.6357Z" stroke="#01433D" stroke-width="1.5" stroke-linecap="round" stroke-linejoin="round"/>
</svg>