<svg width="20" height="20" viewBox="0 0 20 20" fill="none" xmlns="http://www.w3.org/2000/svg">
<g clip-path="url(#clip0_7140_207)">
<path d="M-5 0H25V20H-5V0Z" fill="#FF0000"/>
<path d="M-5 0H7V20H-5V0Z" fill="#006600"/>
<path fill-rule="evenodd" clip-rule="evenodd" d="M10.9103 13.1016C9.39978 13.0561 2.47328 8.7326 2.42578 8.0441L2.80828 7.40625C3.49528 8.40455 10.5763 12.6093 11.2718 12.4603L10.9103 13.1014" fill="#FFFF00"/>
<path d="M10.9103 13.1016C9.39978 13.0561 2.47328 8.7326 2.42578 8.0441L2.80828 7.40625C3.49528 8.40455 10.5763 12.6093 11.2718 12.4603L10.9103 13.1014" stroke="black" stroke-width="0.02865" stroke-linecap="round" stroke-linejoin="round"/>
<path fill-rule="evenodd" clip-rule="evenodd" d="M2.72781 7.31987C2.59231 7.68457 4.53526 8.88577 6.87296 10.3076C9.21056 11.7293 11.2262 12.6079 11.3756 12.4819C11.3848 12.4656 11.4491 12.3549 11.4432 12.3557C11.4152 12.3979 11.3471 12.4112 11.2407 12.3806C10.6091 12.1984 8.96191 11.4423 6.92196 10.2053C4.88206 8.96812 3.10726 7.82807 2.83146 7.34367C2.81226 7.31012 2.79856 7.24887 2.80136 7.20127L2.79466 7.20117L2.73591 7.30382L2.72781 7.31987ZM10.9458 13.1219C10.9202 13.1684 10.8725 13.1699 10.7817 13.1599C10.2167 13.0974 8.50226 12.2637 6.47361 11.0493C4.11311 9.63627 2.16361 8.34877 2.37511 8.01227L2.43266 7.91057L2.44401 7.91407C2.25381 8.48432 6.29141 10.793 6.52911 10.9402C8.86531 12.3875 10.8349 13.2327 11.0092 13.0131L10.9458 13.1221V13.122L10.9458 13.1219Z" fill="#FFFF00" stroke="black" stroke-width="0.02865" stroke-linecap="round" stroke-linejoin="round"/>
<path fill-rule="evenodd" clip-rule="evenodd" d="M7.00803 8.46133C8.51988 8.44938 10.3855 8.25473 11.4592 7.82683L11.2279 7.45098C10.5932 7.80223 8.71738 8.03318 6.99523 8.06773C4.95843 8.04898 3.52073 7.85933 2.80038 7.37598L2.58203 7.77623C3.90623 8.33658 5.26318 8.45558 7.00803 8.46138" fill="#FFFF00"/>
<path d="M7.00803 8.46133C8.51988 8.44938 10.3855 8.25473 11.4592 7.82683L11.2279 7.45098C10.5932 7.80223 8.71738 8.03318 6.99523 8.06773C4.95843 8.04898 3.52073 7.85933 2.80038 7.37598L2.58203 7.77623C3.90623 8.33658 5.26318 8.45558 7.00803 8.46138" stroke="black" stroke-width="0.02865" stroke-linecap="round" stroke-linejoin="round"/>
<path fill-rule="evenodd" clip-rule="evenodd" d="M11.521 7.83578C11.4841 7.89488 10.7839 8.13633 9.75236 8.31453C9.05296 8.42118 8.14066 8.51233 7.00216 8.51343C5.92051 8.51443 5.03691 8.43743 4.36796 8.34678C3.28516 8.17703 2.72631 7.94078 2.51971 7.85728C2.53946 7.81803 2.55221 7.79043 2.57121 7.75378C3.16596 7.99058 3.72741 8.13333 4.38521 8.23453C5.04971 8.32453 5.92271 8.40263 6.99896 8.40163C8.13216 8.40048 9.03446 8.30243 9.72976 8.19898C10.7875 8.02838 11.3653 7.80878 11.4465 7.70683L11.5212 7.83578H11.5211H11.521ZM11.318 7.45463C11.2034 7.54673 10.6321 7.74933 9.62701 7.90983C8.95631 8.00593 8.10346 8.09198 7.01381 8.09303C5.97861 8.09403 5.13281 8.02428 4.48956 7.93058C3.46886 7.79728 2.92556 7.55683 2.72976 7.48673C2.7492 7.45307 2.7691 7.4195 2.78946 7.38603C2.94186 7.46278 3.46611 7.67558 4.50076 7.82218C5.13676 7.91233 5.98376 7.97953 7.01386 7.97848C8.09836 7.97738 8.94151 7.88968 9.60801 7.79408C10.6183 7.65508 11.1619 7.39668 11.2444 7.33203L11.3181 7.45453L11.318 7.45463ZM2.04301 10.2833C2.97291 10.7834 5.03826 11.0355 6.99271 11.0528C8.77226 11.0556 11.0906 10.7777 11.9576 10.3183L11.9337 9.81773C11.6625 10.2416 9.17806 10.6482 6.97341 10.6315C4.76876 10.6149 2.72151 10.2744 2.03906 9.83358L2.04306 10.2831" fill="#FFFF00"/>
<path d="M2.04301 10.2833C2.97291 10.7834 5.03826 11.0355 6.99271 11.0528C8.77226 11.0556 11.0906 10.7777 11.9576 10.3183L11.9337 9.81773C11.6625 10.2416 9.17806 10.6482 6.97341 10.6315C4.76876 10.6149 2.72151 10.2744 2.03906 9.83358L2.04306 10.2831M11.521 7.83578C11.4841 7.89488 10.7839 8.13633 9.75236 8.31453C9.05296 8.42118 8.14066 8.51233 7.00216 8.51343C5.92051 8.51443 5.03691 8.43743 4.36796 8.34678C3.28516 8.17703 2.72631 7.94078 2.51971 7.85728C2.53946 7.81803 2.55221 7.79043 2.57121 7.75378C3.16596 7.99058 3.72741 8.13333 4.38521 8.23453C5.04971 8.32453 5.92271 8.40263 6.99896 8.40163C8.13216 8.40048 9.03446 8.30243 9.72976 8.19898C10.7875 8.02838 11.3653 7.80878 11.4465 7.70683L11.5212 7.83578H11.5211H11.521ZM11.318 7.45463C11.2034 7.54673 10.6321 7.74933 9.62701 7.90983C8.95631 8.00593 8.10346 8.09198 7.01381 8.09303C5.97861 8.09403 5.13281 8.02428 4.48956 7.93058C3.46886 7.79728 2.92556 7.55683 2.72976 7.48673C2.7492 7.45307 2.7691 7.4195 2.78946 7.38603C2.94186 7.46278 3.46611 7.67558 4.50076 7.82218C5.13676 7.91233 5.98376 7.97953 7.01386 7.97848C8.09836 7.97738 8.94151 7.88968 9.60801 7.79408C10.6183 7.65508 11.1619 7.39668 11.2444 7.33203L11.3181 7.45453L11.318 7.45463Z" stroke="black" stroke-width="0.02865" stroke-linecap="round" stroke-linejoin="round"/>
<path fill-rule="evenodd" clip-rule="evenodd" d="M12.0067 10.2111V10.3305C11.8764 10.4863 11.0594 10.7218 10.0349 10.8876C9.25513 11.0071 8.23852 11.0973 6.97178 11.0973C5.76828 11.0973 4.80863 11.0115 4.06438 10.8973C2.88788 10.7259 2.13538 10.4259 1.98438 10.3364L1.98503 10.1971C2.43878 10.4988 3.66808 10.7195 4.08088 10.787C4.82028 10.9005 5.77428 10.9857 6.97173 10.9857C8.23253 10.9857 9.24342 10.8961 10.0183 10.7774C10.7533 10.6712 11.8005 10.3951 12.0066 10.2112L12.0067 10.2111ZM12.0072 9.78651V9.90586C11.8769 10.0616 11.0599 10.2971 10.0354 10.4629C9.25563 10.5824 8.23903 10.6726 6.97228 10.6726C5.76878 10.6726 4.80913 10.5869 4.06488 10.4725C2.88837 10.3013 2.13588 10.0013 1.98488 9.91171L1.98553 9.77246C2.43928 10.0741 3.66858 10.2948 4.08138 10.3623C4.82078 10.4759 5.77478 10.5611 6.97223 10.5611C8.23303 10.5611 9.24393 10.4715 10.0188 10.3526C10.7538 10.2464 11.801 9.97026 12.0071 9.78641L12.0072 9.78651ZM6.99017 13.0161C4.85157 13.0034 3.01913 12.4332 2.63218 12.3389L2.91432 12.7806C3.59782 13.0681 5.38553 13.4966 7.01067 13.4492C8.63583 13.4017 10.0562 13.2759 11.0571 12.7887L11.3464 12.3309C10.6643 12.6521 8.34302 13.0128 6.99017 13.0161Z" fill="#FFFF00" stroke="black" stroke-width="0.02865" stroke-linecap="round" stroke-linejoin="round"/>
<path fill-rule="evenodd" clip-rule="evenodd" d="M11.1642 12.6863C11.122 12.7509 11.0787 12.8147 11.0344 12.8778C10.5623 13.0443 9.81837 13.219 9.50452 13.27C8.86332 13.4021 7.87127 13.4997 6.99082 13.5001C5.09632 13.4724 3.54557 13.1015 2.81602 12.7852L2.75712 12.684L2.76677 12.6688L2.86657 12.7075C4.16397 13.1717 5.62112 13.3568 7.00147 13.3901C7.87837 13.3932 8.75622 13.2896 9.46607 13.1626C10.5546 12.9445 10.9948 12.7801 11.1298 12.7056L11.1642 12.6863ZM11.415 12.2726L11.4183 12.2764C11.386 12.331 11.3533 12.3854 11.3202 12.4396C11.0684 12.5296 10.3851 12.7295 9.38722 12.869C8.72977 12.9586 8.32112 13.0453 7.01327 13.0707C4.56252 13.0084 2.97577 12.5292 2.59882 12.411L2.54297 12.3038C3.96327 12.6746 5.41407 12.9334 7.01337 12.9598C8.20987 12.9344 8.71897 12.8463 9.37097 12.7573C10.5345 12.5764 11.1208 12.3849 11.2967 12.3296C11.2943 12.3261 11.2917 12.3228 11.289 12.3196L11.4152 12.2725L11.415 12.2726Z" fill="#FFFF00" stroke="black" stroke-width="0.0275" stroke-linecap="round" stroke-linejoin="round"/>
<path fill-rule="evenodd" clip-rule="evenodd" d="M11.4407 9.88839C11.4476 11.2952 10.7277 12.5577 10.1478 13.1146C9.32736 13.9026 8.23961 14.4094 6.96931 14.4328C5.55081 14.4588 4.21331 13.5341 3.85456 13.1278C3.15316 12.3336 2.58211 11.325 2.56381 9.96569C2.65071 8.43024 3.25346 7.36069 4.12721 6.62724C5.00096 5.89379 6.16436 5.53659 7.13326 5.56214C8.25116 5.59164 9.55701 6.14004 10.4593 7.22874C11.0505 7.94204 11.3065 8.71614 11.4407 9.88839ZM6.98136 5.07129C9.70561 5.07129 11.9462 7.28819 11.9462 10.0064C11.9462 12.7246 9.70561 14.9416 6.98136 14.9416C4.25711 14.9416 2.03516 12.7247 2.03516 10.0064C2.03516 7.28819 4.25711 5.07129 6.98136 5.07129Z" fill="#FFFF00" stroke="black" stroke-width="0.02865" stroke-linecap="round" stroke-linejoin="round"/>
<path fill-rule="evenodd" clip-rule="evenodd" d="M6.99743 5.05371C9.72413 5.05371 11.948 7.27786 11.948 10.0048C11.948 12.7317 9.72408 14.9558 6.99743 14.9558C4.27073 14.9558 2.04688 12.7318 2.04688 10.0048C2.04688 7.27786 4.27078 5.05371 6.99743 5.05371ZM2.15583 10.0048C2.15583 12.6678 4.34263 14.8469 6.99743 14.8469C9.65228 14.8469 11.8391 12.6678 11.8391 10.0048C11.8391 7.34171 9.65223 5.16261 6.99743 5.16261C4.34263 5.16261 2.15583 7.34181 2.15583 10.0048Z" fill="#FFFF00" stroke="black" stroke-width="0.02865" stroke-linecap="round" stroke-linejoin="round"/>
<path fill-rule="evenodd" clip-rule="evenodd" d="M6.99949 5.46582C9.48604 5.46582 11.5341 7.50687 11.5341 10.001C11.5341 12.4952 9.48599 14.5362 6.99949 14.5362C4.51299 14.5362 2.46484 12.4952 2.46484 10.001C2.46484 7.50682 4.51304 5.46582 6.99949 5.46582ZM2.57374 10.001C2.57374 12.4352 4.57269 14.4272 6.99949 14.4272C9.42629 14.4272 11.4252 12.4352 11.4252 10.001C11.4252 7.56672 9.42634 5.57472 6.99949 5.57472C4.57264 5.57472 2.57374 7.56672 2.57374 10.001Z" fill="#FFFF00" stroke="black" stroke-width="0.02865" stroke-linecap="round" stroke-linejoin="round"/>
<path fill-rule="evenodd" clip-rule="evenodd" d="M7.19769 5.03418H6.77344L6.77394 14.9822H7.19964L7.19769 5.03418Z" fill="#FFFF00" stroke="black" stroke-width="0.02865" stroke-linecap="round" stroke-linejoin="round"/>
<path fill-rule="evenodd" clip-rule="evenodd" d="M7.15543 4.97754H7.26342L7.26432 15.04H7.15628L7.15543 4.97754ZM6.73438 4.97764H6.84317L6.84333 15.0401H6.73443L6.73438 4.97764Z" fill="#FFFF00" stroke="black" stroke-width="0.02865" stroke-linecap="round" stroke-linejoin="round"/>
<path fill-rule="evenodd" clip-rule="evenodd" d="M11.9508 10.1964V9.82861L11.6513 9.54961L9.95134 9.09961L7.50134 8.84961L4.55134 8.99961L2.45134 9.49961L2.02734 9.81361V10.1815L3.10134 9.69961L5.65134 9.29961H8.10134L9.90134 9.49961L11.1513 9.79961L11.9508 10.1964Z" fill="#FFFF00" stroke="black" stroke-width="0.02865" stroke-linecap="round" stroke-linejoin="round"/>
<path fill-rule="evenodd" clip-rule="evenodd" d="M6.99867 9.23819C8.16782 9.23604 9.30218 9.34894 10.2019 9.52419C11.1304 9.70979 11.7838 9.94194 12.0072 10.2027L12.0069 10.3318C11.7375 10.0073 10.8583 9.76944 10.181 9.63344C9.28812 9.45974 8.16138 9.34759 6.99867 9.34974C5.77177 9.35204 4.62933 9.46824 3.74948 9.63989C3.04348 9.77999 2.10193 10.0583 1.98438 10.3328V10.1983C2.04893 10.0083 2.75002 9.72439 3.73357 9.52749C4.62002 9.35464 5.76457 9.24044 6.99867 9.23819ZM6.99918 8.81359C8.16833 8.81149 9.30267 8.92444 10.2024 9.09959C11.1309 9.28524 11.7843 9.51734 12.0077 9.77809L12.0074 9.90724C11.738 9.58279 10.8588 9.34489 10.1815 9.20894C9.28862 9.03514 8.16188 8.92299 6.99918 8.92524C5.77228 8.92744 4.63538 9.04374 3.75543 9.21529C3.07413 9.34449 2.09413 9.63379 1.98483 9.90829V9.77379C2.04938 9.58579 2.76468 9.29169 3.73408 9.10294C4.62053 8.93004 5.76508 8.81594 6.99918 8.81359ZM6.97517 6.64769C8.81762 6.63849 10.4247 6.90529 11.1599 7.28194L11.4281 7.74589C10.7891 7.40149 9.05533 7.04339 6.97787 7.09694C5.28517 7.10734 3.47653 7.28329 2.56908 7.76744L2.88923 7.23199C3.63398 6.84579 5.39033 6.64984 6.97522 6.64779" fill="#FFFF00"/>
<path d="M6.97517 6.64769C8.81762 6.63849 10.4247 6.90529 11.1599 7.28194L11.4281 7.74589C10.7891 7.40149 9.05532 7.04339 6.97787 7.09694C5.28517 7.10734 3.47653 7.28329 2.56908 7.76744L2.88923 7.23199C3.63398 6.84579 5.39033 6.64984 6.97523 6.64779M6.99867 9.23819C8.16782 9.23604 9.30218 9.34894 10.2019 9.52419C11.1304 9.70979 11.7838 9.94194 12.0072 10.2027L12.0069 10.3318C11.7375 10.0073 10.8583 9.76944 10.181 9.63344C9.28812 9.45974 8.16137 9.34759 6.99867 9.34974C5.77177 9.35204 4.62933 9.46824 3.74948 9.63989C3.04348 9.77999 2.10193 10.0583 1.98438 10.3328V10.1983C2.04893 10.0083 2.75002 9.72439 3.73357 9.52749C4.62002 9.35464 5.76457 9.24044 6.99867 9.23819ZM6.99918 8.81359C8.16833 8.81149 9.30267 8.92444 10.2024 9.09959C11.1309 9.28524 11.7843 9.51734 12.0077 9.77809L12.0074 9.90724C11.738 9.58279 10.8588 9.34489 10.1815 9.20894C9.28862 9.03514 8.16188 8.92299 6.99918 8.92524C5.77228 8.92744 4.63538 9.04374 3.75543 9.21529C3.07413 9.34449 2.09413 9.63379 1.98483 9.90829V9.77379C2.04938 9.58579 2.76468 9.29169 3.73408 9.10294C4.62053 8.93004 5.76508 8.81594 6.99918 8.81359Z" stroke="black" stroke-width="0.02865" stroke-linecap="round" stroke-linejoin="round"/>
<path fill-rule="evenodd" clip-rule="evenodd" d="M6.99921 7.03073C8.05006 7.02793 9.06546 7.08723 9.87301 7.23293C10.6251 7.37288 11.3423 7.58293 11.4448 7.69593L11.5243 7.83643C11.2749 7.67358 10.6543 7.49223 9.85736 7.34113C9.05706 7.19073 8.04236 7.14088 6.99736 7.14363C5.81126 7.13958 4.88976 7.20218 4.09891 7.34008C3.26251 7.49659 2.68221 7.72013 2.53906 7.82638L2.61696 7.67788C2.89516 7.53598 3.33646 7.36488 4.07811 7.23138C4.89596 7.08198 5.82721 7.03718 6.99921 7.03073ZM6.99876 6.60653C8.00441 6.60388 8.99736 6.65993 9.77136 6.79903C10.3818 6.91788 10.9855 7.10344 11.2066 7.26854L11.3229 7.45328C11.1252 7.23353 10.3811 7.02528 9.72416 6.90868C8.95611 6.77618 8.00441 6.72378 6.99876 6.71538C5.94336 6.71838 4.96801 6.78298 4.21116 6.92078C3.48911 7.05823 3.02316 7.22088 2.82601 7.34793L2.92826 7.19358C3.20031 7.05038 3.63986 6.91883 4.19341 6.81128C4.95586 6.67243 5.93721 6.60948 6.99881 6.60653H6.99876ZM9.45821 12.0627C8.54731 11.8927 7.63476 11.868 6.99736 11.8755C3.92701 11.9115 2.93516 12.506 2.81411 12.686L2.58461 12.3119C3.36636 11.7453 5.03831 11.4275 7.01401 11.46C8.03991 11.4768 8.92521 11.5449 9.66996 11.6892L9.45816 12.0628" fill="#FFFF00"/>
<path d="M9.45821 12.0627C8.54731 11.8927 7.63476 11.868 6.99736 11.8755C3.92701 11.9115 2.93516 12.506 2.81411 12.686L2.58461 12.3119C3.36636 11.7453 5.03831 11.4275 7.01401 11.46C8.03991 11.4768 8.92521 11.5449 9.66996 11.6892L9.45816 12.0628M6.99921 7.03073C8.05006 7.02793 9.06546 7.08723 9.87301 7.23293C10.6251 7.37288 11.3423 7.58293 11.4448 7.69593L11.5243 7.83643C11.2749 7.67358 10.6543 7.49223 9.85736 7.34113C9.05706 7.19073 8.04236 7.14088 6.99736 7.14363C5.81126 7.13958 4.88976 7.20218 4.09891 7.34008C3.26251 7.49658 2.68221 7.72013 2.53906 7.82638L2.61696 7.67788C2.89516 7.53598 3.33646 7.36488 4.07811 7.23138C4.89596 7.08198 5.82721 7.03718 6.99921 7.03073ZM6.99876 6.60653C8.00441 6.60388 8.99736 6.65993 9.77136 6.79903C10.3818 6.91788 10.9855 7.10344 11.2066 7.26854L11.3229 7.45328C11.1252 7.23353 10.3811 7.02528 9.72416 6.90868C8.95611 6.77618 8.00441 6.72378 6.99876 6.71538C5.94336 6.71838 4.96801 6.78298 4.21116 6.92078C3.48911 7.05823 3.02316 7.22088 2.82601 7.34793L2.92826 7.19358C3.20031 7.05038 3.63986 6.91883 4.19341 6.81128C4.95586 6.67243 5.93721 6.60948 6.99881 6.60653H6.99876Z" stroke="black" stroke-width="0.02865" stroke-linecap="round" stroke-linejoin="round"/>
<path fill-rule="evenodd" clip-rule="evenodd" d="M6.97746 11.8234C7.83156 11.8361 8.66991 11.8714 9.47911 12.0223L9.42051 12.1258C8.66896 11.987 7.86776 11.9339 6.98036 11.9383C5.84721 11.9294 4.70111 12.0352 3.70331 12.3216C3.38846 12.4092 2.86726 12.6116 2.81411 12.7789L2.75581 12.6827C2.77261 12.5839 3.08761 12.3787 3.67651 12.2132C4.81941 11.886 5.88851 11.8308 6.97751 11.8233L6.97746 11.8234ZM7.01621 11.3936C7.90111 11.4101 8.81496 11.451 9.70321 11.627L9.64221 11.7346C8.84011 11.5754 8.07371 11.5223 7.02146 11.5061C5.88471 11.5082 4.67891 11.5893 3.58256 11.908C3.22856 12.0111 2.61771 12.234 2.59736 12.4105L2.53906 12.3072C2.55231 12.1469 3.08116 11.9378 3.55696 11.7994C4.66176 11.4782 5.87071 11.3956 7.01626 11.3936H7.01621Z" fill="#FFFF00" stroke="black" stroke-width="0.0275" stroke-linecap="round" stroke-linejoin="round"/>
<path fill-rule="evenodd" clip-rule="evenodd" d="M11.3807 12.3692L11.0117 12.9416L9.95169 12.0002L7.20169 10.1502L4.10169 8.4502L2.49219 7.8997L2.83519 7.2637L2.95169 7.2002L3.95169 7.4502L7.25169 9.1502L9.15169 10.3502L10.7517 11.5002L11.4017 12.2502L11.3807 12.3692Z" fill="#FFFF00" stroke="black" stroke-width="0.02865" stroke-linecap="round" stroke-linejoin="round"/>
<path fill-rule="evenodd" clip-rule="evenodd" d="M2.43344 7.91499C2.71574 7.72349 4.79039 8.64774 6.96119 9.95669C9.12624 11.2694 11.195 12.7527 11.0083 13.0303L10.9469 13.1269L10.9187 13.1492C10.9247 13.1448 10.9558 13.1068 10.9157 13.0039C10.8234 12.7004 9.35589 11.5293 6.92094 10.0591C4.54719 8.64364 2.56894 7.79059 2.37109 8.03444L2.43344 7.91499ZM11.4554 12.3613C11.6339 12.0087 9.70964 10.5591 7.32384 9.14774C4.88319 7.76444 3.12414 6.95019 2.80284 7.19299L2.73144 7.32299C2.73084 7.33009 2.73404 7.31409 2.74914 7.30244C2.80754 7.25144 2.90439 7.25494 2.94809 7.25409C3.50134 7.26239 5.08144 7.98959 7.29839 9.26049C8.26979 9.82624 11.4019 11.835 11.39 12.4C11.3908 12.4485 11.394 12.4585 11.3757 12.4825L11.4554 12.3613Z" fill="#FFFF00"/>
<path d="M11.4554 12.3613C11.6339 12.0087 9.70964 10.5591 7.32384 9.14774C4.88319 7.76444 3.12414 6.95019 2.80284 7.19299L2.73144 7.32299C2.73084 7.33009 2.73404 7.31409 2.74914 7.30244C2.80754 7.25144 2.90439 7.25494 2.94809 7.25409C3.50134 7.26239 5.08144 7.98959 7.29839 9.26049C8.26979 9.82624 11.4019 11.835 11.39 12.4C11.3908 12.4485 11.394 12.4585 11.3757 12.4825L11.4554 12.3613ZM11.4554 12.3613V12.3612M2.43344 7.91499C2.71574 7.72349 4.79039 8.64774 6.96119 9.95669C9.12624 11.2694 11.195 12.7527 11.0083 13.0303L10.9469 13.1269L10.9187 13.1492C10.9247 13.1448 10.9558 13.1068 10.9157 13.0039C10.8234 12.7004 9.35589 11.5293 6.92094 10.0591C4.54719 8.64364 2.56894 7.79059 2.37109 8.03444L2.43344 7.91499Z" stroke="black" stroke-width="0.02865" stroke-linecap="round" stroke-linejoin="round"/>
<path d="M4.03195 10.5508C4.03195 11.3644 4.3651 12.1002 4.9048 12.6379C5.44555 13.1768 6.1804 13.5169 6.99525 13.5169C7.8143 13.5169 8.5576 13.1842 9.09605 12.6474C9.6345 12.1107 9.9682 11.3698 9.96835 10.5534H9.96825V6.59396L4.03125 6.58691L4.03185 10.5508H4.03195Z" fill="white" stroke="black" stroke-width="0.0335" stroke-linejoin="bevel"/>
<path d="M4.14073 10.5562V10.5584C4.14073 11.3363 4.46278 12.0446 4.97948 12.5589C5.49718 13.0741 6.21018 13.3945 6.99018 13.3945C7.77423 13.3945 8.48578 13.0765 9.00128 12.5632C9.51668 12.0499 9.83613 11.3416 9.83623 10.561H9.83613V6.7197L4.14413 6.71875L4.14062 10.5562M8.69173 7.8688L8.69193 10.3133L8.68988 10.5719C8.68988 10.64 8.68582 10.7175 8.67788 10.7836C8.63162 11.1701 8.45388 11.507 8.19063 11.769C7.88243 12.0758 7.45708 12.2661 6.98828 12.2661C6.52193 12.2661 6.10628 12.0692 5.79678 11.7611C5.47933 11.4451 5.29528 11.0118 5.29528 10.5637L5.29468 7.8626L8.69167 7.8687L8.69173 7.8688Z" fill="#FF0000"/>
<path d="M4.14073 10.5562V10.5584C4.14073 11.3363 4.46278 12.0446 4.97948 12.5589C5.49718 13.0741 6.21018 13.3945 6.99018 13.3945C7.77423 13.3945 8.48578 13.0765 9.00128 12.5632C9.51668 12.0499 9.83613 11.3416 9.83623 10.561H9.83613V6.7197L4.14413 6.71875L4.14062 10.5562M8.69173 7.8688L8.69193 10.3133L8.68988 10.5719C8.68988 10.64 8.68582 10.7175 8.67787 10.7836C8.63162 11.1701 8.45388 11.507 8.19063 11.769C7.88243 12.0758 7.45708 12.2661 6.98828 12.2661C6.52193 12.2661 6.10628 12.0692 5.79678 11.7611C5.47933 11.4451 5.29528 11.0118 5.29528 10.5637L5.29468 7.8626L8.69167 7.8687L8.69173 7.8688Z" stroke="black" stroke-width="0.02535"/>
<path d="M4.50781 7.72127C4.51456 7.44522 4.71041 7.37987 4.71181 7.37892C4.71321 7.37797 4.92341 7.44927 4.92271 7.72382L4.50781 7.72127Z" fill="#FFFF00"/>
<path d="M4.34222 7.38481L4.30812 7.70206L4.51512 7.70251C4.51712 7.44001 4.71387 7.39636 4.71862 7.39736C4.72312 7.39711 4.91807 7.45536 4.92327 7.70251H5.13082L5.09332 7.38281L4.34222 7.38471V7.38481ZM4.29422 7.70331H5.14152C5.15937 7.70331 5.17402 7.72096 5.17402 7.74251C5.17402 7.76401 5.15937 7.78156 5.14152 7.78156H4.29422C4.27637 7.78156 4.26172 7.76406 4.26172 7.74251C4.26172 7.72096 4.27637 7.70331 4.29422 7.70331Z" fill="#FFFF00" stroke="black" stroke-width="0.025"/>
<path d="M4.6024 7.70132C4.60335 7.53567 4.7155 7.48882 4.7161 7.48892C4.7161 7.48892 4.8332 7.53722 4.8341 7.70132H4.6024ZM4.3124 7.25232H5.12465C5.14175 7.25232 5.1558 7.26822 5.1558 7.28757C5.1558 7.30692 5.1418 7.32277 5.12465 7.32277H4.3124C4.2953 7.32277 4.28125 7.30702 4.28125 7.28757C4.28125 7.26822 4.29525 7.25232 4.3124 7.25232ZM4.3294 7.32332H5.1063C5.12265 7.32332 5.13605 7.33917 5.13605 7.35852C5.13605 7.37792 5.12265 7.39372 5.1063 7.39372H4.3294C4.31305 7.39372 4.29965 7.37792 4.29965 7.35852C4.29965 7.33912 4.31305 7.32332 4.3294 7.32332ZM4.5804 6.79382L4.64175 6.79392V6.83747H4.6865V6.79297L4.74935 6.79317V6.83752H4.7942V6.79302H4.8571L4.857 6.89352C4.857 6.90937 4.8443 6.91957 4.82955 6.91957H4.60905C4.5942 6.91957 4.58055 6.90772 4.58045 6.89327L4.5803 6.79387L4.5804 6.79382ZM4.8114 6.92832L4.82525 7.25087L4.6101 7.25012L4.62435 6.92747L4.8114 6.92832Z" fill="#FFFF00" stroke="black" stroke-width="0.025"/>
<path d="M4.54736 7.07812L4.55391 7.25202L4.34766 7.25208L4.35346 7.07812H4.54736Z" fill="#FFFF00" stroke="black" stroke-width="0.025"/>
<path d="M5.07861 7.07812L5.08516 7.25202L4.87891 7.25208L4.88471 7.07812H5.07861Z" fill="#FFFF00" stroke="black" stroke-width="0.025"/>
<path d="M4.31646 6.95202L4.37646 6.95217V6.99577H4.42031V6.95117L4.48181 6.95137V6.99582H4.52576V6.95117L4.58726 6.95127L4.58716 7.05187C4.58716 7.06757 4.57471 7.07777 4.56036 7.07777H4.34451C4.33001 7.07777 4.31656 7.06602 4.31651 7.05152L4.31641 6.95207L4.31646 6.95202Z" fill="#FFFF00" stroke="black" stroke-width="0.025"/>
<path d="M4.8438 6.95202L4.9038 6.95217V6.99577H4.94765V6.95117L5.00915 6.95137V6.99582H5.0531V6.95117L5.1146 6.95127L5.1145 7.05187C5.1145 7.06757 5.10205 7.07777 5.0877 7.07777H4.87185C4.85735 7.07777 4.8439 7.06602 4.84385 7.05152L4.84375 6.95207L4.8438 6.95202Z" fill="#FFFF00" stroke="black" stroke-width="0.025"/>
<path d="M4.69534 7.03048C4.69404 6.99913 4.73919 6.99878 4.73864 7.03048V7.10728H4.69534V7.03048Z" fill="black"/>
<path d="M4.42969 7.14209C4.42954 7.11179 4.47154 7.11119 4.47099 7.14209V7.20144H4.42969V7.14209Z" fill="black"/>
<path d="M4.96094 7.14209C4.96079 7.11179 5.00279 7.11119 5.00224 7.14209V7.20144H4.96094V7.14209Z" fill="black"/>
<path d="M4.50781 10.0377C4.51456 9.76162 4.71041 9.69627 4.71181 9.69532C4.71321 9.69437 4.92341 9.76567 4.92271 10.0402L4.50781 10.0377Z" fill="#FFFF00"/>
<path d="M4.34222 9.70024L4.30812 10.0175L4.51512 10.0179C4.51712 9.75544 4.71387 9.71179 4.71862 9.71279C4.72312 9.71254 4.91807 9.77079 4.92327 10.0179H5.13082L5.09332 9.69824L4.34222 9.70014V9.70024ZM4.29422 10.0187H5.14152C5.15937 10.0187 5.17402 10.0364 5.17402 10.0579C5.17402 10.0794 5.15937 10.097 5.14152 10.097H4.29422C4.27637 10.097 4.26172 10.0795 4.26172 10.0579C4.26172 10.0364 4.27637 10.0187 4.29422 10.0187Z" fill="#FFFF00" stroke="black" stroke-width="0.025"/>
<path d="M4.6024 10.0177C4.60335 9.85207 4.7155 9.80522 4.7161 9.80532C4.7161 9.80532 4.8332 9.85362 4.8341 10.0177H4.6024ZM4.3124 9.56872H5.12465C5.14175 9.56872 5.1558 9.58462 5.1558 9.60397C5.1558 9.62332 5.1418 9.63917 5.12465 9.63917H4.3124C4.2953 9.63917 4.28125 9.62342 4.28125 9.60397C4.28125 9.58462 4.29525 9.56872 4.3124 9.56872ZM4.3294 9.63972H5.1063C5.12265 9.63972 5.13605 9.65557 5.13605 9.67492C5.13605 9.69432 5.12265 9.71012 5.1063 9.71012H4.3294C4.31305 9.71012 4.29965 9.69432 4.29965 9.67492C4.29965 9.65552 4.31305 9.63972 4.3294 9.63972ZM4.5804 9.11022L4.64175 9.11032V9.15387H4.6865V9.10938L4.74935 9.10957V9.15392H4.7942V9.10942H4.8571L4.857 9.20992C4.857 9.22577 4.8443 9.23597 4.82955 9.23597H4.60905C4.5942 9.23597 4.58055 9.22412 4.58045 9.20967L4.5803 9.11027L4.5804 9.11022ZM4.8114 9.24473L4.82525 9.56727L4.6101 9.56652L4.62435 9.24387L4.8114 9.24473Z" fill="#FFFF00" stroke="black" stroke-width="0.025"/>
<path d="M4.54736 9.39453L4.55391 9.56843L4.34766 9.56848L4.35346 9.39453H4.54736Z" fill="#FFFF00" stroke="black" stroke-width="0.025"/>
<path d="M5.07861 9.39453L5.08516 9.56843L4.87891 9.56848L4.88471 9.39453H5.07861Z" fill="#FFFF00" stroke="black" stroke-width="0.025"/>
<path d="M4.31646 9.26843L4.37646 9.26858V9.31218H4.42031V9.26758L4.48181 9.26778V9.31223H4.52576V9.26758L4.58726 9.26768L4.58716 9.36828C4.58716 9.38398 4.57471 9.39418 4.56036 9.39418H4.34451C4.33001 9.39418 4.31656 9.38243 4.31651 9.36793L4.31641 9.26848L4.31646 9.26843Z" fill="#FFFF00" stroke="black" stroke-width="0.025"/>
<path d="M4.8438 9.26843L4.9038 9.26858V9.31218H4.94765V9.26758L5.00915 9.26778V9.31223H5.0531V9.26758L5.1146 9.26768L5.1145 9.36828C5.1145 9.38398 5.10205 9.39418 5.0877 9.39418H4.87185C4.85735 9.39418 4.8439 9.38243 4.84385 9.36793L4.84375 9.26848L4.8438 9.26843Z" fill="#FFFF00" stroke="black" stroke-width="0.025"/>
<path d="M4.69534 9.34689C4.69404 9.31554 4.73919 9.31519 4.73864 9.34689V9.42369H4.69534V9.34689Z" fill="black"/>
<path d="M4.42969 9.4585C4.42954 9.4282 4.47154 9.4276 4.47099 9.4585V9.51785H4.42969V9.4585Z" fill="black"/>
<path d="M4.96094 9.4585C4.96079 9.4282 5.00279 9.4276 5.00224 9.4585V9.51785H4.96094V9.4585Z" fill="black"/>
<path d="M5.41481 12.4483C5.22368 12.249 5.31531 12.0639 5.31562 12.0623C5.31593 12.0606 5.51464 11.9617 5.70896 12.1556L5.41481 12.4483Z" fill="#FFFF00"/>
<path d="M5.05423 12.331L5.25533 12.5787L5.4015 12.4322C5.21664 12.2458 5.3243 12.0754 5.32835 12.0728C5.33135 12.0694 5.51005 11.9721 5.68909 12.1425L5.83533 11.9953L5.58205 11.7966L5.05416 12.3309L5.05423 12.331ZM5.24642 12.5895L5.84343 11.9882C5.85601 11.9756 5.87886 11.9776 5.89415 11.9928C5.90941 12.008 5.91154 12.0307 5.89896 12.0434L5.30195 12.6446C5.28937 12.6573 5.26663 12.6554 5.25134 12.6402C5.23604 12.625 5.23384 12.6022 5.24642 12.5895Z" fill="#FFFF00" stroke="black" stroke-width="0.025"/>
<path d="M5.4646 12.3702C5.34772 12.2528 5.3935 12.1402 5.39399 12.1398C5.39399 12.1398 5.51077 12.0908 5.62785 12.2057L5.4646 12.3702ZM4.94165 12.2596L5.51397 11.6832C5.52602 11.6711 5.5472 11.6723 5.56093 11.6859C5.57466 11.6996 5.57604 11.7207 5.56396 11.7328L4.99164 12.3092C4.97959 12.3213 4.95852 12.3202 4.94472 12.3065C4.93099 12.2929 4.92957 12.2717 4.94165 12.2596ZM5.00401 12.2975L5.55142 11.7462C5.56294 11.7346 5.58363 11.7363 5.59736 11.7499C5.61113 11.7636 5.6129 11.7842 5.60138 11.7959L5.05397 12.3471C5.04245 12.3587 5.02179 12.3571 5.00803 12.3434C4.99426 12.3298 4.99249 12.3091 5.00401 12.2975ZM4.80514 11.7463L4.84844 11.7029L4.87934 11.7336L4.91087 11.7018L4.87929 11.6704L4.92372 11.626L4.95519 11.6572L4.98679 11.6254L4.95521 11.5941L4.99953 11.5494L5.07078 11.6203C5.08203 11.6315 5.08031 11.6477 5.06992 11.6581L4.91456 11.8146C4.90409 11.8251 4.88607 11.8265 4.87574 11.8164L4.8051 11.7464L4.80514 11.7463ZM5.06334 11.6772L5.30198 11.8946L5.14985 12.0468L4.93094 11.8093L5.06334 11.6772Z" fill="#FFFF00" stroke="black" stroke-width="0.025"/>
<path d="M4.98446 11.9686L5.11247 12.0865L4.96718 12.2329L4.84784 12.1062L4.98446 11.9686Z" fill="#FFFF00" stroke="black" stroke-width="0.025"/>
<path d="M5.35555 11.5917L5.48357 11.7096L5.33828 11.856L5.21893 11.7293L5.35555 11.5917Z" fill="#FFFF00" stroke="black" stroke-width="0.025"/>
<path d="M4.73111 12.0445L4.77349 12.002L4.80443 12.0328L4.83533 12.0016L4.80368 11.9702L4.84715 11.9267L4.87869 11.958L4.90966 11.9269L4.87798 11.8954L4.92138 11.8518L4.9927 11.9228C5.00384 11.9338 5.0023 11.9499 4.99219 11.96L4.8401 12.1132C4.82989 12.1235 4.81207 12.1248 4.80175 12.1146L4.73111 12.0446L4.73111 12.0445Z" fill="#FFFF00" stroke="black" stroke-width="0.025"/>
<path d="M5.10611 11.6676L5.14849 11.6251L5.17943 11.6558L5.21033 11.6247L5.17868 11.5933L5.22215 11.5498L5.25369 11.5811L5.28466 11.5499L5.25298 11.5184L5.29638 11.4749L5.3677 11.5458C5.37884 11.5569 5.3773 11.5729 5.36719 11.5831L5.2151 11.7363C5.20489 11.7465 5.18707 11.7478 5.17675 11.7376L5.10611 11.6676L5.10611 11.6676Z" fill="#FFFF00" stroke="black" stroke-width="0.025"/>
<path d="M5.05586 11.8301C5.0327 11.8089 5.06426 11.7767 5.08637 11.7994L5.14087 11.8535L5.11036 11.8842L5.05586 11.8301Z" fill="black"/>
<path d="M4.94597 12.0982C4.92437 12.077 4.95353 12.0467 4.97507 12.0689L5.01719 12.1107L4.98809 12.14L4.94597 12.0982Z" fill="black"/>
<path d="M5.32097 11.7203C5.29937 11.699 5.32853 11.6688 5.35007 11.691L5.39219 11.7328L5.36309 11.7621L5.32097 11.7203Z" fill="black"/>
<path d="M6.79688 7.72127C6.80363 7.44522 6.99948 7.37987 7.00088 7.37892C7.00228 7.37797 7.21248 7.44927 7.21178 7.72382L6.79688 7.72127Z" fill="#FFFF00"/>
<path d="M6.62738 7.38481L6.59328 7.70206L6.80028 7.70251C6.80228 7.44001 6.99903 7.39636 7.00378 7.39736C7.00828 7.39711 7.20323 7.45536 7.20843 7.70251H7.41598L7.37848 7.38281L6.62738 7.38471V7.38481ZM6.57938 7.70331H7.42668C7.44453 7.70331 7.45918 7.72096 7.45918 7.74251C7.45918 7.76401 7.44453 7.78156 7.42668 7.78156H6.57938C6.56153 7.78156 6.54688 7.76406 6.54688 7.74251C6.54688 7.72096 6.56153 7.70331 6.57938 7.70331Z" fill="#FFFF00" stroke="black" stroke-width="0.025"/>
<path d="M6.88756 7.70132C6.88851 7.53567 7.00066 7.48882 7.00126 7.48892C7.00126 7.48892 7.11836 7.53722 7.11926 7.70132H6.88756ZM6.59756 7.25232H7.40981C7.42691 7.25232 7.44096 7.26822 7.44096 7.28757C7.44096 7.30692 7.42696 7.32277 7.40981 7.32277H6.59756C6.58046 7.32277 6.56641 7.30702 6.56641 7.28757C6.56641 7.26822 6.58041 7.25232 6.59756 7.25232ZM6.61456 7.32332H7.39146C7.40781 7.32332 7.42121 7.33917 7.42121 7.35852C7.42121 7.37792 7.40781 7.39372 7.39146 7.39372H6.61456C6.59821 7.39372 6.58481 7.37792 6.58481 7.35852C6.58481 7.33912 6.59821 7.32332 6.61456 7.32332ZM6.86556 6.79382L6.92691 6.79392V6.83747H6.97166V6.79297L7.03451 6.79317V6.83752H7.07936V6.79302H7.14226L7.14216 6.89352C7.14216 6.90937 7.12946 6.91957 7.11471 6.91957H6.89421C6.87936 6.91957 6.86571 6.90772 6.86561 6.89327L6.86546 6.79387L6.86556 6.79382ZM7.09656 6.92832L7.11041 7.25087L6.89526 7.25012L6.90951 6.92747L7.09656 6.92832Z" fill="#FFFF00" stroke="black" stroke-width="0.025"/>
<path d="M6.83251 7.07812L6.83906 7.25202L6.63281 7.25208L6.63861 7.07812H6.83251Z" fill="#FFFF00" stroke="black" stroke-width="0.025"/>
<path d="M7.36376 7.07812L7.37031 7.25202L7.16406 7.25208L7.16986 7.07812H7.36376Z" fill="#FFFF00" stroke="black" stroke-width="0.025"/>
<path d="M6.60161 6.95202L6.66161 6.95217V6.99577H6.70546V6.95117L6.76696 6.95137V6.99582H6.81091V6.95117L6.87241 6.95127L6.87231 7.05187C6.87231 7.06757 6.85986 7.07777 6.84551 7.07777H6.62966C6.61516 7.07777 6.60171 7.06602 6.60166 7.05152L6.60156 6.95207L6.60161 6.95202Z" fill="#FFFF00" stroke="black" stroke-width="0.025"/>
<path d="M7.13286 6.95202L7.19286 6.95217V6.99577H7.23671V6.95117L7.29821 6.95137V6.99582H7.34216V6.95117L7.40366 6.95127L7.40356 7.05187C7.40356 7.06757 7.39111 7.07777 7.37676 7.07777H7.16091C7.14641 7.07777 7.13296 7.06602 7.13291 7.05152L7.13281 6.95207L7.13286 6.95202Z" fill="#FFFF00" stroke="black" stroke-width="0.025"/>
<path d="M6.9805 7.03048C6.9792 6.99913 7.02435 6.99878 7.0238 7.03048V7.10728H6.9805V7.03048Z" fill="black"/>
<path d="M6.71484 7.14209C6.71469 7.11179 6.75669 7.11119 6.75614 7.14209V7.20144H6.71484V7.14209Z" fill="black"/>
<path d="M7.24609 7.14209C7.24594 7.11179 7.28794 7.11119 7.28739 7.14209V7.20144H7.24609V7.14209Z" fill="black"/>
<path d="M9.48047 7.72127C9.47372 7.44522 9.27787 7.37987 9.27647 7.37892C9.27507 7.37797 9.06487 7.44927 9.06557 7.72382L9.48047 7.72127Z" fill="#FFFF00"/>
<path d="M9.64997 7.38481L9.68407 7.70206L9.47707 7.70251C9.47507 7.44001 9.27832 7.39636 9.27357 7.39736C9.26907 7.39711 9.07412 7.45536 9.06892 7.70251H8.86137L8.89887 7.38281L9.64997 7.38471V7.38481ZM9.69797 7.70331H8.85067C8.83282 7.70331 8.81817 7.72096 8.81817 7.74251C8.81817 7.76401 8.83282 7.78156 8.85067 7.78156H9.69797C9.71582 7.78156 9.73047 7.76406 9.73047 7.74251C9.73047 7.72096 9.71582 7.70331 9.69797 7.70331Z" fill="#FFFF00" stroke="black" stroke-width="0.025"/>
<path d="M9.38979 7.70132C9.38884 7.53567 9.27669 7.48882 9.27609 7.48892C9.27609 7.48892 9.15899 7.53722 9.15809 7.70132H9.38979ZM9.67979 7.25232H8.86754C8.85044 7.25232 8.83639 7.26822 8.83639 7.28757C8.83639 7.30692 8.85039 7.32277 8.86754 7.32277H9.67979C9.69689 7.32277 9.71094 7.30702 9.71094 7.28757C9.71094 7.26822 9.69694 7.25232 9.67979 7.25232ZM9.66279 7.32332H8.88589C8.86954 7.32332 8.85614 7.33917 8.85614 7.35852C8.85614 7.37792 8.86954 7.39372 8.88589 7.39372H9.66279C9.67914 7.39372 9.69254 7.37792 9.69254 7.35852C9.69254 7.33912 9.67914 7.32332 9.66279 7.32332ZM9.41179 6.79382L9.35044 6.79392V6.83747H9.30569V6.79297L9.24284 6.79317V6.83752H9.19799V6.79302H9.13509L9.13519 6.89352C9.13519 6.90937 9.14789 6.91957 9.16264 6.91957H9.38314C9.39799 6.91957 9.41164 6.90772 9.41174 6.89327L9.41189 6.79387L9.41179 6.79382ZM9.18079 6.92832L9.16694 7.25087L9.38209 7.25012L9.36784 6.92747L9.18079 6.92832Z" fill="#FFFF00" stroke="black" stroke-width="0.025"/>
<path d="M9.44092 7.07812L9.43438 7.25202L9.64062 7.25208L9.63483 7.07812H9.44092Z" fill="#FFFF00" stroke="black" stroke-width="0.025"/>
<path d="M8.91358 7.07812L8.90703 7.25202L9.11328 7.25208L9.10748 7.07812H8.91358Z" fill="#FFFF00" stroke="black" stroke-width="0.025"/>
<path d="M9.67573 6.95202L9.61573 6.95217V6.99577H9.57188V6.95117L9.51038 6.95137V6.99582H9.46643V6.95117L9.40493 6.95127L9.40503 7.05187C9.40503 7.06757 9.41748 7.07777 9.43183 7.07777H9.64768C9.66218 7.07777 9.67563 7.06602 9.67568 7.05152L9.67578 6.95207L9.67573 6.95202Z" fill="#FFFF00" stroke="black" stroke-width="0.025"/>
<path d="M9.14448 6.95202L9.08448 6.95217V6.99577H9.04063V6.95117L8.97913 6.95137V6.99582H8.93518V6.95117L8.87368 6.95127L8.87378 7.05187C8.87378 7.06757 8.88623 7.07777 8.90058 7.07777H9.11643C9.13093 7.07777 9.14438 7.06602 9.14443 7.05152L9.14453 6.95207L9.14448 6.95202Z" fill="#FFFF00" stroke="black" stroke-width="0.025"/>
<path d="M9.29294 7.03048C9.29424 6.99913 9.24909 6.99878 9.24964 7.03048V7.10728H9.29294V7.03048Z" fill="black"/>
<path d="M9.5625 7.14209C9.56265 7.11179 9.52065 7.11119 9.5212 7.14209V7.20144H9.5625V7.14209Z" fill="black"/>
<path d="M9.02734 7.14209C9.02749 7.11179 8.98549 7.11119 8.98604 7.14209V7.20144H9.02734V7.14209Z" fill="black"/>
<path d="M9.48047 10.0377C9.47372 9.76162 9.27787 9.69627 9.27647 9.69532C9.27507 9.69437 9.06487 9.76567 9.06557 10.0402L9.48047 10.0377Z" fill="#FFFF00"/>
<path d="M9.64997 9.70024L9.68407 10.0175L9.47707 10.0179C9.47507 9.75544 9.27832 9.71179 9.27357 9.71279C9.26907 9.71254 9.07412 9.77079 9.06892 10.0179H8.86137L8.89887 9.69824L9.64997 9.70014V9.70024ZM9.69797 10.0187H8.85067C8.83282 10.0187 8.81817 10.0364 8.81817 10.0579C8.81817 10.0794 8.83282 10.097 8.85067 10.097H9.69797C9.71582 10.097 9.73047 10.0795 9.73047 10.0579C9.73047 10.0364 9.71582 10.0187 9.69797 10.0187Z" fill="#FFFF00" stroke="black" stroke-width="0.025"/>
<path d="M9.38979 10.0177C9.38884 9.85207 9.27669 9.80522 9.27609 9.80532C9.27609 9.80532 9.15899 9.85362 9.15809 10.0177H9.38979ZM9.67979 9.56872H8.86754C8.85044 9.56872 8.83639 9.58462 8.83639 9.60397C8.83639 9.62332 8.85039 9.63917 8.86754 9.63917H9.67979C9.69689 9.63917 9.71094 9.62342 9.71094 9.60397C9.71094 9.58462 9.69694 9.56872 9.67979 9.56872ZM9.66279 9.63972H8.88589C8.86954 9.63972 8.85614 9.65557 8.85614 9.67492C8.85614 9.69432 8.86954 9.71012 8.88589 9.71012H9.66279C9.67914 9.71012 9.69254 9.69432 9.69254 9.67492C9.69254 9.65552 9.67914 9.63972 9.66279 9.63972ZM9.41179 9.11022L9.35044 9.11032V9.15387H9.30569V9.10938L9.24284 9.10957V9.15392H9.19799V9.10942H9.13509L9.13519 9.20992C9.13519 9.22577 9.14789 9.23597 9.16264 9.23597H9.38314C9.39799 9.23597 9.41164 9.22412 9.41174 9.20967L9.41189 9.11027L9.41179 9.11022ZM9.18079 9.24473L9.16694 9.56727L9.38209 9.56652L9.36784 9.24387L9.18079 9.24473Z" fill="#FFFF00" stroke="black" stroke-width="0.025"/>
<path d="M9.44092 9.39453L9.43438 9.56843L9.64062 9.56848L9.63483 9.39453H9.44092Z" fill="#FFFF00" stroke="black" stroke-width="0.025"/>
<path d="M8.91358 9.39453L8.90703 9.56843L9.11328 9.56848L9.10748 9.39453H8.91358Z" fill="#FFFF00" stroke="black" stroke-width="0.025"/>
<path d="M9.67573 9.26843L9.61573 9.26858V9.31218H9.57188V9.26758L9.51038 9.26778V9.31223H9.46643V9.26758L9.40493 9.26768L9.40503 9.36828C9.40503 9.38398 9.41748 9.39418 9.43183 9.39418H9.64768C9.66218 9.39418 9.67563 9.38243 9.67568 9.36793L9.67578 9.26848L9.67573 9.26843Z" fill="#FFFF00" stroke="black" stroke-width="0.025"/>
<path d="M9.14448 9.26843L9.08448 9.26858V9.31218H9.04063V9.26758L8.97913 9.26778V9.31223H8.93518V9.26758L8.87368 9.26768L8.87378 9.36828C8.87378 9.38398 8.88623 9.39418 8.90058 9.39418H9.11643C9.13093 9.39418 9.14438 9.38243 9.14443 9.36793L9.14453 9.26848L9.14448 9.26843Z" fill="#FFFF00" stroke="black" stroke-width="0.025"/>
<path d="M9.29294 9.34689C9.29424 9.31554 9.24909 9.31519 9.24964 9.34689V9.42369H9.29294V9.34689Z" fill="black"/>
<path d="M9.5625 9.4585C9.56265 9.4282 9.52065 9.4276 9.5212 9.4585V9.51785H9.5625V9.4585Z" fill="black"/>
<path d="M9.02734 9.4585C9.02749 9.4282 8.98549 9.4276 8.98604 9.4585V9.51785H9.02734V9.4585Z" fill="black"/>
<path d="M8.58128 12.4483C8.77241 12.249 8.68078 12.0639 8.68047 12.0623C8.68016 12.0606 8.48146 11.9617 8.28713 12.1556L8.58128 12.4483Z" fill="#FFFF00"/>
<path d="M8.93795 12.331L8.73686 12.5787L8.59069 12.4322C8.77555 12.2458 8.66789 12.0754 8.66383 12.0728C8.66084 12.0694 8.48214 11.9721 8.3031 12.1425L8.15686 11.9953L8.41014 11.7966L8.93802 12.3309L8.93795 12.331ZM8.74577 12.5895L8.14875 11.9882C8.13618 11.9756 8.11333 11.9776 8.09804 11.9928C8.08278 12.008 8.08065 12.0307 8.09323 12.0434L8.69024 12.6446C8.70282 12.6573 8.72556 12.6554 8.74085 12.6402C8.75614 12.625 8.75835 12.6022 8.74577 12.5895Z" fill="#FFFF00" stroke="black" stroke-width="0.025"/>
<path d="M8.5315 12.3702C8.64837 12.2528 8.6026 12.1402 8.6021 12.1398C8.6021 12.1398 8.48532 12.0908 8.36824 12.2057L8.5315 12.3702ZM9.05444 12.2596L8.48212 11.6832C8.47007 11.6711 8.44889 11.6723 8.43516 11.6859C8.42143 11.6996 8.42005 11.7207 8.43213 11.7328L9.00445 12.3092C9.0165 12.3213 9.03758 12.3202 9.05138 12.3065C9.06511 12.2929 9.06653 12.2717 9.05444 12.2596ZM8.99208 12.2975L8.44467 11.7462C8.43315 11.7346 8.41246 11.7363 8.39873 11.7499C8.38497 11.7636 8.3832 11.7842 8.39472 11.7959L8.94213 12.3471C8.95365 12.3587 8.9743 12.3571 8.98807 12.3434C9.00183 12.3298 9.0036 12.3091 8.99208 12.2975ZM9.19096 11.7463L9.14766 11.7029L9.11676 11.7336L9.08522 11.7018L9.1168 11.6704L9.07237 11.626L9.0409 11.6572L9.0093 11.6254L9.04088 11.5941L8.99656 11.5494L8.92532 11.6203C8.91407 11.6315 8.91578 11.6477 8.92617 11.6581L9.08154 11.8146C9.092 11.8251 9.11003 11.8265 9.12035 11.8164L9.19099 11.7464L9.19096 11.7463ZM8.93275 11.6772L8.69411 11.8946L8.84624 12.0468L9.06515 11.8093L8.93275 11.6772Z" fill="#FFFF00" stroke="black" stroke-width="0.025"/>
<path d="M9.01163 11.9686L8.88362 12.0865L9.02891 12.2329L9.14826 12.1062L9.01163 11.9686Z" fill="#FFFF00" stroke="black" stroke-width="0.025"/>
<path d="M8.63663 11.5917L8.50862 11.7096L8.65391 11.856L8.77326 11.7293L8.63663 11.5917Z" fill="#FFFF00" stroke="black" stroke-width="0.025"/>
<path d="M9.26108 12.0445L9.2187 12.002L9.18776 12.0328L9.15686 12.0016L9.18851 11.9702L9.14503 11.9267L9.11349 11.958L9.08253 11.9269L9.11421 11.8954L9.0708 11.8518L8.99949 11.9228C8.98835 11.9338 8.98988 11.9499 8.99999 11.96L9.15208 12.1132C9.1623 12.1235 9.18012 12.1248 9.19044 12.1146L9.26108 12.0446L9.26108 12.0445Z" fill="#FFFF00" stroke="black" stroke-width="0.025"/>
<path d="M8.88999 11.6676L8.8476 11.6251L8.81667 11.6558L8.78577 11.6247L8.81742 11.5933L8.77394 11.5498L8.7424 11.5811L8.71143 11.5499L8.74312 11.5184L8.69971 11.4749L8.6284 11.5458C8.61725 11.5569 8.61879 11.5729 8.6289 11.5831L8.78099 11.7363C8.79121 11.7465 8.80902 11.7478 8.81935 11.7376L8.88999 11.6676L8.88999 11.6676Z" fill="#FFFF00" stroke="black" stroke-width="0.025"/>
<path d="M8.94023 11.8301C8.9634 11.8089 8.93183 11.7767 8.90972 11.7994L8.85523 11.8535L8.88574 11.8842L8.94023 11.8301Z" fill="black"/>
<path d="M9.04621 12.0982C9.06782 12.077 9.03865 12.0467 9.01711 12.0689L8.975 12.1107L9.0041 12.14L9.04621 12.0982Z" fill="black"/>
<path d="M8.67121 11.7203C8.69282 11.699 8.66365 11.6688 8.64211 11.691L8.6 11.7328L8.6291 11.7621L8.67121 11.7203Z" fill="black"/>
<path d="M6.63281 10.1204V10.1206C6.63281 10.2312 6.67531 10.332 6.74341 10.4051C6.81166 10.4784 6.90566 10.524 7.00851 10.524C7.11186 10.524 7.20571 10.4787 7.27366 10.4057C7.34156 10.3328 7.38376 10.2321 7.38376 10.1211V9.58268L6.63416 9.58203L6.63281 10.1204Z" fill="#003399"/>
<path d="M6.63281 8.8196V8.81985C6.63281 8.93045 6.67531 9.0312 6.74341 9.10435C6.81166 9.17765 6.90566 9.2232 7.00851 9.2232C7.11186 9.2232 7.20571 9.17795 7.27366 9.10495C7.34156 9.032 7.38376 8.93135 7.38376 8.8203V8.2819L6.63416 8.28125L6.63281 8.8196Z" fill="#003399"/>
<path d="M5.59375 10.1204V10.1206C5.59375 10.2312 5.63625 10.332 5.70435 10.4051C5.7726 10.4784 5.8666 10.524 5.96945 10.524C6.0728 10.524 6.16665 10.4787 6.2346 10.4057C6.3025 10.3328 6.3447 10.2321 6.3447 10.1211V9.58268L5.5951 9.58203L5.59375 10.1204Z" fill="#003399"/>
<path d="M7.66797 10.1204V10.1206C7.66797 10.2312 7.71047 10.332 7.77857 10.4051C7.84682 10.4784 7.94082 10.524 8.04367 10.524C8.14702 10.524 8.24087 10.4787 8.30882 10.4057C8.37672 10.3328 8.41892 10.2321 8.41892 10.1211V9.58268L7.66932 9.58203L7.66797 10.1204Z" fill="#003399"/>
<path d="M6.63281 11.4094V11.4097C6.63281 11.5203 6.67531 11.621 6.74341 11.6942C6.81166 11.7675 6.90566 11.813 7.00851 11.813C7.11186 11.813 7.20571 11.7678 7.27366 11.6948C7.34156 11.6218 7.38376 11.5212 7.38376 11.4101V10.8717L6.63416 10.8711L6.63281 11.4094Z" fill="#003399"/>
</g>
<defs>
<clipPath id="clip0_7140_207">
<rect width="30" height="20" fill="white" transform="translate(-5)"/>
</clipPath>
</defs>
</svg>
