<svg width="26" height="26" viewBox="0 0 26 26" fill="none" xmlns="http://www.w3.org/2000/svg">
<g clip-path="url(#clip0_9674_491)">
<path d="M12.9922 16.25C14.7871 16.25 16.2422 14.7949 16.2422 13C16.2422 11.2051 14.7871 9.75 12.9922 9.75C11.1973 9.75 9.74219 11.2051 9.74219 13C9.74219 14.7949 11.1973 16.25 12.9922 16.25Z" stroke="#01433D" stroke-width="1.5" stroke-linecap="round" stroke-linejoin="round"/>
<path d="M21.0115 16.2497C20.8673 16.5764 20.8242 16.9389 20.888 17.2903C20.9517 17.6417 21.1192 17.966 21.369 18.2213L21.434 18.2863C21.6354 18.4876 21.7952 18.7265 21.9043 18.9896C22.0133 19.2526 22.0694 19.5345 22.0694 19.8193C22.0694 20.104 22.0133 20.3859 21.9043 20.649C21.7952 20.912 21.6354 21.1509 21.434 21.3522C21.2327 21.5536 20.9938 21.7134 20.7307 21.8225C20.4677 21.9315 20.1858 21.9876 19.901 21.9876C19.6163 21.9876 19.3344 21.9315 19.0713 21.8225C18.8083 21.7134 18.5693 21.5536 18.3681 21.3522L18.3031 21.2872C18.0478 21.0374 17.7235 20.8699 17.3721 20.8062C17.0207 20.7424 16.6582 20.7855 16.3315 20.9297C16.011 21.067 15.7378 21.295 15.5453 21.5857C15.3528 21.8763 15.2495 22.2169 15.2481 22.5655V22.7497C15.2481 23.3243 15.0199 23.8754 14.6135 24.2817C14.2072 24.6881 13.6561 24.9163 13.0815 24.9163C12.5068 24.9163 11.9557 24.6881 11.5494 24.2817C11.1431 23.8754 10.9148 23.3243 10.9148 22.7497V22.6522C10.9064 22.2936 10.7903 21.9458 10.5817 21.6541C10.373 21.3624 10.0814 21.1401 9.74479 21.0163C9.41804 20.8721 9.05558 20.8291 8.70415 20.8928C8.35273 20.9566 8.02844 21.1241 7.77313 21.3738L7.70813 21.4388C7.5069 21.6403 7.26794 21.8001 7.00491 21.9091C6.74188 22.0182 6.45994 22.0743 6.17521 22.0743C5.89047 22.0743 5.60853 22.0182 5.3455 21.9091C5.08248 21.8001 4.84352 21.6403 4.64229 21.4388C4.44084 21.2376 4.28103 20.9987 4.172 20.7356C4.06296 20.4726 4.00684 20.1907 4.00684 19.9059C4.00684 19.6212 4.06296 19.3393 4.172 19.0762C4.28103 18.8132 4.44084 18.5742 4.64229 18.373L4.70729 18.308C4.95704 18.0527 5.12458 17.7284 5.1883 17.377C5.25202 17.0256 5.209 16.6631 5.06479 16.3363C4.92747 16.0159 4.69944 15.7427 4.4088 15.5502C4.11815 15.3577 3.77756 15.2544 3.42896 15.253H3.24479C2.67016 15.253 2.11906 15.0247 1.71273 14.6184C1.3064 14.2121 1.07813 13.661 1.07812 13.0863C1.07812 12.5117 1.3064 11.9606 1.71273 11.5543C2.11906 11.1479 2.67016 10.9197 3.24479 10.9197H3.34229C3.70087 10.9113 4.04863 10.7952 4.34037 10.5866C4.6321 10.3779 4.85432 10.0863 4.97813 9.74967C5.12233 9.42292 5.16535 9.06047 5.10163 8.70904C5.03791 8.35761 4.87037 8.03333 4.62063 7.77801L4.55563 7.71301C4.35418 7.51178 4.19437 7.27282 4.08533 7.0098C3.97629 6.74677 3.92017 6.46482 3.92017 6.18009C3.92017 5.89536 3.97629 5.61342 4.08533 5.35039C4.19437 5.08736 4.35418 4.8484 4.55563 4.64717C4.75685 4.44573 4.99581 4.28591 5.25884 4.17688C5.52187 4.06784 5.80381 4.01172 6.08854 4.01172C6.37328 4.01172 6.65522 4.06784 6.91825 4.17688C7.18128 4.28591 7.42023 4.44573 7.62146 4.64717L7.68646 4.71217C7.94178 4.96192 8.26606 5.12946 8.61749 5.19318C8.96892 5.2569 9.33137 5.21388 9.65813 5.06967H9.74479C10.0652 4.93235 10.3385 4.70433 10.531 4.41368C10.7234 4.12303 10.8267 3.78244 10.8281 3.43384V3.24967C10.8281 2.67504 11.0564 2.12394 11.4627 1.71761C11.8691 1.31128 12.4202 1.08301 12.9948 1.08301C13.5694 1.08301 14.1205 1.31128 14.5269 1.71761C14.9332 2.12394 15.1615 2.67504 15.1615 3.24967V3.34717C15.1628 3.69578 15.2661 4.03636 15.4586 4.32701C15.6511 4.61766 15.9244 4.84568 16.2448 4.98301C16.5715 5.12722 16.934 5.17023 17.2854 5.10651C17.6369 5.04279 17.9611 4.87526 18.2165 4.62551L18.2815 4.56051C18.4827 4.35906 18.7216 4.19925 18.9847 4.09021C19.2477 3.98118 19.5296 3.92505 19.8144 3.92505C20.0991 3.92505 20.3811 3.98118 20.6441 4.09021C20.9071 4.19925 21.1461 4.35906 21.3473 4.56051C21.5487 4.76173 21.7086 5.00069 21.8176 5.26372C21.9266 5.52675 21.9827 5.80869 21.9827 6.09342C21.9827 6.37816 21.9266 6.6601 21.8176 6.92313C21.7086 7.18616 21.5487 7.42512 21.3473 7.62634L21.2823 7.69134C21.0325 7.94666 20.865 8.27094 20.8013 8.62237C20.7376 8.9738 20.7806 9.33626 20.9248 9.66301V9.74967C21.0621 10.0701 21.2901 10.3434 21.5808 10.5358C21.8714 10.7283 22.212 10.8316 22.5606 10.833H22.7448C23.3194 10.833 23.8705 11.0613 24.2769 11.4676C24.6832 11.8739 24.9115 12.425 24.9115 12.9997C24.9115 13.5743 24.6832 14.1254 24.2769 14.5317C23.8705 14.9381 23.3194 15.1663 22.7448 15.1663H22.6473C22.2987 15.1677 21.9581 15.271 21.6675 15.4635C21.3768 15.656 21.1488 15.9293 21.0115 16.2497Z" stroke="#01433D" stroke-width="1.5" stroke-linecap="round" stroke-linejoin="round"/>
</g>
<defs>
<clipPath id="clip0_9674_491">
<rect width="26" height="26" fill="white"/>
</clipPath>
</defs>
</svg>
