<svg width="23" height="30" viewBox="0 0 23 30" fill="none" xmlns="http://www.w3.org/2000/svg">
<g clip-path="url(#clip0_5516_332)">
<path fill-rule="evenodd" clip-rule="evenodd" d="M36.3594 2.33836C36.3723 4.64042 36.3741 4.67672 36.4737 4.67243C36.5293 4.67006 36.7341 4.66471 36.9287 4.66051L37.2826 4.65289L37.2659 3.96286C37.2568 3.58336 37.2628 3.20042 37.2795 3.11191L37.3097 2.95089L38.0041 2.91993C38.3859 2.90292 38.8049 2.8598 38.935 2.8241C39.285 2.72821 39.5858 2.49191 39.7552 2.17981C39.8849 1.94098 39.9026 1.85601 39.9069 1.45075C39.9114 1.03474 39.8983 0.967589 39.7662 0.729517C39.601 0.431762 39.4925 0.320224 39.204 0.151326C39.008 0.0366072 38.9606 0.0324669 37.674 0.0164608L36.3462 0L36.3594 2.33836ZM61.9315 0.787078C61.9315 1.21591 61.9109 1.57941 61.8859 1.59486C61.8608 1.61036 61.722 1.54356 61.5774 1.44636C61.3375 1.28514 61.2828 1.26974 60.9504 1.26974C60.0331 1.26974 59.5551 1.86585 59.5551 3.00956C59.5551 3.68586 59.6696 4.0132 60.0337 4.37675C60.4999 4.84229 61.2291 4.8952 61.6558 4.49449C61.8616 4.30116 61.982 4.30363 61.982 4.50126C61.982 4.63744 61.9986 4.65324 62.1464 4.65789C62.2367 4.66072 62.4078 4.66748 62.5265 4.67288C62.6453 4.67834 62.759 4.67031 62.7793 4.65511C62.7997 4.63991 62.809 3.588 62.8 2.31746L62.7837 0.00742257H62.3576H61.9315V0.787078ZM65.5347 0.423986C65.5368 0.653071 65.5336 1.69221 65.5276 2.73311L65.5165 4.62567L65.658 4.66471C65.7358 4.68616 65.8904 4.69399 66.0017 4.68213C66.1129 4.67021 66.2311 4.65875 66.2643 4.65663C66.2974 4.65451 66.3315 4.56362 66.3401 4.45471L66.3556 4.25662L66.6482 4.47798C66.9683 4.7201 67.1666 4.77852 67.5452 4.74216C67.8973 4.70838 68.2437 4.51409 68.4593 4.22941C68.7027 3.90787 68.7606 3.71297 68.7932 3.10499C68.8308 2.4039 68.7099 1.9883 68.3715 1.65515C68.0611 1.34951 67.7985 1.25252 67.3503 1.27782C67.0639 1.29397 66.9518 1.3274 66.7375 1.4604C66.5933 1.54992 66.4541 1.62318 66.4281 1.62318C66.4008 1.62318 66.3809 1.28191 66.3809 0.815304V0.00742257H65.9558H65.5307L65.5347 0.423986ZM38.4485 0.821312C38.9102 0.937395 39.1179 1.41616 38.8774 1.81006C38.7215 2.06545 38.5484 2.12548 37.931 2.13831C37.63 2.14452 37.3553 2.1321 37.3206 2.11064C37.2757 2.08302 37.2574 1.89706 37.2574 1.47125C37.2574 0.952694 37.2695 0.863777 37.3459 0.819343C37.4651 0.749966 38.1698 0.751229 38.4485 0.821312ZM41.7068 1.31695C41.3293 1.43207 40.9177 1.75755 40.747 2.0759C40.5378 2.46631 40.4834 3.16871 40.6254 3.64612C40.8406 4.36988 41.5 4.78715 42.3614 4.74469C43.0296 4.71171 43.5486 4.37468 43.8247 3.79436C43.9415 3.54887 43.9566 3.45511 43.9555 2.98648C43.9544 2.50786 43.9404 2.42824 43.8114 2.16775C43.5138 1.56658 42.9887 1.26635 42.2484 1.27408C42.0201 1.27645 41.7763 1.29574 41.7068 1.31695ZM50.5715 1.35244C50.2488 1.46661 49.9358 1.77249 49.7676 2.1378C49.6344 2.42748 49.621 2.5066 49.6204 3.01173C49.6198 3.51938 49.6323 3.59451 49.767 3.88565C50.0385 4.47293 50.5061 4.75372 51.2124 4.75372C51.6622 4.75372 52.0339 4.63633 52.2761 4.4178C52.5139 4.2033 52.7088 3.90373 52.6472 3.84763C52.6228 3.82542 52.4334 3.76675 52.2263 3.71721C51.9333 3.64713 51.845 3.64117 51.8285 3.6904C51.817 3.72519 51.7394 3.83097 51.6564 3.92549C51.5282 4.07127 51.4721 4.09732 51.2863 4.09732C51.1658 4.09732 51.0097 4.07546 50.9393 4.0487C50.7699 3.98442 50.5045 3.61279 50.5045 3.43986C50.5045 3.30918 50.5195 3.3008 50.8133 3.26763C50.983 3.24844 51.4779 3.23703 51.913 3.24228L52.704 3.25187L52.6966 2.82289C52.6849 2.13149 52.4333 1.68519 51.9074 1.42273C51.6384 1.28852 51.5504 1.27024 51.1917 1.27373C50.9667 1.2759 50.6876 1.31134 50.5715 1.35244ZM53.5057 1.34588C53.495 1.3739 53.4923 2.13508 53.4996 3.03738L53.513 4.67798L53.6646 4.68096C53.7481 4.68258 53.9347 4.67122 54.0795 4.65572L54.3427 4.62749L54.364 3.59239C54.3871 2.47035 54.4179 2.32175 54.6681 2.12518C54.808 2.01526 54.9722 2.00971 55.2875 2.10408C55.4019 2.13836 55.4422 2.0705 55.5666 1.63419C55.6481 1.3483 55.5974 1.30321 55.1679 1.27903C54.8329 1.26019 54.8234 1.26322 54.5621 1.4711C54.4161 1.58723 54.2934 1.66328 54.2895 1.6401C54.2856 1.61692 54.2799 1.54113 54.2768 1.47171C54.2716 1.35138 54.2539 1.34431 53.8983 1.32023C53.6705 1.30483 53.5177 1.31478 53.5057 1.34588ZM56.6983 1.38849C56.0211 1.70407 55.7095 2.46833 55.8609 3.44258C55.996 4.31252 56.5247 4.75372 57.4316 4.75372C58.025 4.75372 58.5768 4.4745 58.7646 4.07924C58.9007 3.7928 58.884 3.7725 58.4574 3.70469C58.1005 3.64799 58.0635 3.65021 58.0184 3.7312C57.8867 3.96765 57.6936 4.09732 57.4733 4.09722C57.1533 4.09712 56.9256 3.9621 56.7867 3.6901C56.5645 3.25485 56.6616 3.21905 57.9897 3.24662C59.0481 3.26853 58.9925 3.30085 58.8993 2.71852C58.7836 1.99537 58.5273 1.59521 58.0382 1.37461C57.7005 1.22227 57.0404 1.22909 56.6983 1.38849ZM44.336 1.33916C44.336 1.34962 44.5522 2.05964 44.8163 2.91706C45.0805 3.77447 45.2966 4.505 45.2966 4.54039C45.2967 4.64592 45.5015 4.6852 45.897 4.65552L46.2698 4.62749L46.5179 3.64395C46.6543 3.10297 46.7863 2.64005 46.8111 2.61526C46.8638 2.5626 46.8943 2.66414 47.1614 3.78417C47.2694 4.23678 47.3667 4.61608 47.3776 4.62704C47.4247 4.674 48.2395 4.66273 48.2879 4.61441C48.3168 4.58548 48.3815 4.41749 48.4317 4.24117C48.4817 4.06485 48.5693 3.77291 48.6263 3.59239C48.7414 3.22764 48.9016 2.71059 49.1348 1.95139C49.2201 1.67368 49.2901 1.41712 49.2905 1.38133C49.2909 1.3322 49.1898 1.31977 48.8797 1.33083L48.4683 1.34548L48.1896 2.38057C48.0363 2.94988 47.901 3.42698 47.8889 3.44082C47.8364 3.5012 47.7263 3.25218 47.6256 2.84531C47.5657 2.6036 47.4553 2.16724 47.38 1.87565L47.2433 1.34548H46.8184H46.3936L46.1501 2.29251C45.8998 3.26616 45.8224 3.48358 45.7528 3.40845C45.7127 3.36503 45.5114 2.65995 45.2902 1.78729L45.1718 1.32023H44.7539C44.524 1.32023 44.336 1.32876 44.336 1.33916ZM69.2683 1.36522C69.2295 1.39031 69.2101 1.45297 69.225 1.50443C69.3129 1.80627 70.2213 4.193 70.3313 4.41088C70.4604 4.66673 70.4477 4.84355 70.2829 5.08152C70.1098 5.33166 69.9627 5.40841 69.6548 5.40937L69.4146 5.41013V5.66128C69.4146 5.88622 69.4296 5.9202 69.5583 5.98665C69.7406 6.08077 70.2739 6.05572 70.565 5.93939C70.9457 5.78731 71.016 5.65542 71.6833 3.84486C71.9339 3.16447 72.2425 2.33513 72.3689 2.00188C72.4953 1.66863 72.599 1.3789 72.5994 1.3581C72.5997 1.3373 72.3993 1.32023 72.154 1.32023H71.708L71.4746 2.03975C71.3463 2.43551 71.1806 2.95917 71.1064 3.20355C71.0264 3.46692 70.9481 3.64001 70.9141 3.6287C70.8825 3.61815 70.8195 3.49777 70.7742 3.36114C70.7289 3.22451 70.6209 2.89686 70.5342 2.63304C70.4474 2.36921 70.3111 1.97158 70.2313 1.74942L70.0862 1.34548L69.7125 1.33255C69.5069 1.32538 69.3071 1.34012 69.2683 1.36522ZM9.56858 2.12786C8.79337 2.52256 8.13637 2.86273 8.10856 2.88373C8.05022 2.92786 7.23643 3.35316 5.75745 4.11232C5.18736 4.40497 4.50478 4.76014 4.2406 4.90162C3.97641 5.0431 3.30521 5.38887 2.74903 5.67001C1.06467 6.52147 0.432948 6.87421 0.220943 7.08178L0.0186964 7.27982L0.00327504 11.0786C-0.0173036 16.1583 0.0496908 17.2835 0.476381 19.0254C1.10643 21.5972 2.31617 23.7011 4.24773 25.584C4.94856 26.2672 5.74668 26.9384 6.31363 27.3212C7.86294 28.3675 8.41067 28.6899 9.97768 29.4777C11.3008 30.1429 11.2045 30.1394 12.3557 29.5647C13.1033 29.1915 13.8678 28.7965 14.0496 28.6894C14.6308 28.3471 15.2329 27.9783 15.4147 27.8533C15.7133 27.6478 16.3108 27.2336 16.5001 27.1009C17.7148 26.249 19.2366 24.7062 20.0904 23.4612C21.064 22.0416 21.8427 20.1834 22.1883 18.4554C22.4816 16.9891 22.5441 15.688 22.5408 11.1173C22.5378 7.07184 22.5526 7.25901 22.2133 6.98862C22.0336 6.84538 21.1052 6.34479 19.8136 5.69465C19.3547 5.4637 18.5698 5.0586 18.0692 4.79447C17.5687 4.53034 16.5903 4.0233 15.8951 3.66773C15.1998 3.31216 14.4376 2.91458 14.2012 2.78421C13.9649 2.65379 13.2823 2.30034 12.6844 1.9987C11.7207 1.5125 11.5622 1.44798 11.2877 1.43025L10.978 1.41026L9.56858 2.12786ZM42.503 1.97593C42.5377 1.97633 42.6573 2.05899 42.7688 2.15962C43.0317 2.39668 43.147 2.75982 43.0969 3.19169C43.0572 3.53291 42.9257 3.76043 42.6663 3.9365C42.3093 4.17881 41.6992 3.97967 41.5253 3.56422C41.4211 3.31519 41.3853 2.88737 41.4489 2.65182C41.5605 2.23839 42.0081 1.88777 42.3388 1.95477C42.3944 1.96603 42.4683 1.97557 42.503 1.97593ZM51.5558 2.00521C51.687 2.09701 51.8697 2.43127 51.8697 2.57956C51.8697 2.64561 51.8262 2.69252 51.7464 2.71251C51.5833 2.75341 50.5738 2.71928 50.5258 2.67121C50.4583 2.6036 50.6048 2.23773 50.7624 2.08029C50.895 1.94795 50.954 1.92614 51.1797 1.92614C51.3366 1.92614 51.4883 1.95805 51.5558 2.00521ZM57.7265 1.99759C57.9363 2.10589 58.1361 2.54048 58.0331 2.66444C57.9666 2.74442 56.901 2.76472 56.7801 2.68827C56.6674 2.61698 56.756 2.30605 56.9465 2.10433C57.0925 1.94972 57.1461 1.92614 57.3515 1.92614C57.4817 1.92614 57.6504 1.9583 57.7265 1.99759ZM61.5678 2.02834C61.8191 2.18133 61.929 2.4709 61.9304 2.98315C61.9317 3.49747 61.8148 3.78825 61.5335 3.97018C61.3775 4.07106 61.3147 4.08323 61.1142 4.05127C60.6163 3.9719 60.4567 3.74211 60.4247 3.05864C60.4062 2.66217 60.4183 2.57053 60.5142 2.37699C60.6793 2.04399 60.8443 1.92665 61.1478 1.92659C61.3124 1.92654 61.4589 1.96204 61.5678 2.02834ZM67.609 2.10216C67.8169 2.31589 67.8979 2.56573 67.8974 2.99234C67.8969 3.57508 67.7516 3.88121 67.4054 4.0285C67.0241 4.19073 66.5579 3.89611 66.4369 3.41648C66.2971 2.86197 66.4127 2.33079 66.7315 2.06292C66.8643 1.95134 66.9444 1.92614 67.1661 1.92614C67.41 1.92614 67.4553 1.94417 67.609 2.10216ZM55.8388 6.92349C55.5051 7.00165 54.7144 7.17388 54.0818 7.30622L52.9315 7.54687V9.13032V10.7138L53.0705 10.6834C53.147 10.6666 53.2396 10.6436 53.2763 10.6321C53.5131 10.5583 56.5039 9.90396 56.6044 9.90396C56.6192 9.90396 56.6236 9.19959 56.6143 8.33869C56.5997 6.98519 56.5871 6.77398 56.5215 6.77741C56.4797 6.77959 56.1725 6.84533 55.8388 6.92349ZM39.1534 8.95395C38.2635 9.14905 37.5069 9.31694 37.4721 9.32709C37.4217 9.34173 37.4092 10.6149 37.411 15.5258C37.4123 18.925 37.4345 21.9533 37.4605 22.2555C37.5651 23.4751 38.0887 24.433 39.0017 25.076C39.4051 25.36 39.7859 25.5259 40.3449 25.6611C40.7516 25.7596 40.8954 25.7696 41.5476 25.7451C42.3079 25.7166 43.011 25.5961 43.5017 25.4104C43.7405 25.32 43.7565 25.3024 43.7893 25.0949C43.8084 24.9739 43.8242 24.2648 43.8243 23.519L43.8246 22.163L43.7137 22.1907C43.6528 22.2059 43.4663 22.2533 43.2995 22.2962C43.1326 22.339 42.7913 22.3742 42.5411 22.3744C41.9876 22.3747 41.6721 22.2505 41.3897 21.9209C41.0525 21.5276 41.0561 21.5652 41.0414 18.2856C41.034 16.661 41.0456 15.3034 41.067 15.2687C41.0966 15.2208 41.4347 15.2057 42.4714 15.2057H43.8368L43.8209 13.5614L43.8051 11.9172L42.4565 11.9219C41.7147 11.9245 41.0968 11.9088 41.0833 11.887C41.0698 11.8652 41.051 11.1147 41.0415 10.2193L41.0242 8.59116L40.8978 8.5952C40.8283 8.59742 40.0433 8.75884 39.1534 8.95395ZM18.6001 10.4823C18.9755 10.8556 19.2827 11.1818 19.2827 11.2069C19.2827 11.2724 19.0301 11.5478 18.6501 11.8967C18.266 12.2492 16.5748 13.853 15.6675 14.7251C15.3199 15.0593 14.7852 15.5712 14.4793 15.8628C14.1734 16.1544 13.4588 16.8359 12.8913 17.3772C12.3237 17.9185 11.8331 18.3842 11.8011 18.412C11.769 18.4397 11.471 18.7238 11.1389 19.0431C8.93985 21.1574 8.4992 21.5677 8.42776 21.5677C8.39348 21.5677 8.02327 21.2326 7.60497 20.823C7.18672 20.4133 6.48058 19.7374 6.03574 19.3208C3.87701 17.2993 3.22936 16.6698 3.22936 16.5931C3.22936 16.5603 3.44895 16.32 3.71733 16.0589C3.98572 15.7979 4.29429 15.4978 4.403 15.392C4.5155 15.2825 4.63963 15.2062 4.69095 15.2152C4.77342 15.2296 5.65122 16.0515 7.56012 17.9017C7.95824 18.2876 8.32502 18.6321 8.37518 18.6672C8.45628 18.7239 8.54243 18.6571 9.15034 18.0665C9.52647 17.7011 10.0376 17.209 10.2862 16.9729C10.5347 16.7369 11.0922 16.2029 11.5251 15.7863C12.1983 15.1384 13.3813 14.0125 14.1189 13.3175C14.2337 13.2094 14.6121 12.8457 14.9597 12.5093C16.3115 11.2014 17.6001 9.97895 17.644 9.96289C17.6693 9.9536 17.69 9.91386 17.69 9.87453C17.69 9.83393 17.7392 9.80308 17.8038 9.80323C17.8821 9.80338 18.1301 10.0149 18.6001 10.4823ZM30.8613 11.7448C29.1756 12.0517 28.108 12.7726 27.4955 14.0177C27.1672 14.685 27.0898 14.9984 27.058 15.789C27.0232 16.6521 27.0914 17.0455 27.3793 17.6426C27.5779 18.0542 27.6618 18.1638 28.0929 18.5752C28.5298 18.9921 28.6511 19.0757 29.241 19.3663C29.6038 19.5451 30.2589 19.8331 30.6968 20.0066C32.097 20.5611 32.4804 20.8244 32.6122 21.3224C32.6658 21.5247 32.662 21.5887 32.5842 21.7922C32.4218 22.2167 32.1073 22.3924 31.3932 22.4577C30.5402 22.5356 28.97 22.1133 27.638 21.4476L27.1956 21.2265V23.0776V24.9286L27.3599 24.9941C30.0772 26.0762 33.053 25.9885 34.7545 24.776C35.3139 24.3773 35.8939 23.6533 36.0798 23.1213C36.3372 22.3852 36.4399 21.5286 36.3548 20.8272C36.2136 19.6626 35.8054 18.9638 34.8546 18.2591C34.3857 17.9115 34.0221 17.7331 33.0419 17.3701C31.2761 16.7162 31.0533 16.5988 30.851 16.2168C30.6099 15.7616 30.7708 15.3098 31.242 15.1189C31.4693 15.0268 31.6179 15.0067 32.0748 15.0063C33.0702 15.0054 34.109 15.2401 35.196 15.7114C35.411 15.8046 35.5967 15.871 35.6088 15.8589C35.6208 15.8467 35.637 15.0695 35.6448 14.1317C35.6569 12.6735 35.648 12.4156 35.5834 12.3511C35.4771 12.2449 34.7361 12.0014 34.1431 11.8778C33.152 11.6712 31.6091 11.6086 30.8613 11.7448ZM63.8528 11.706C63.2918 11.7997 62.5452 12.1602 62.0889 12.5577C61.9113 12.7124 61.7481 12.8205 61.7262 12.7978C61.7044 12.7753 61.6494 12.5757 61.604 12.3543C61.5586 12.133 61.5119 11.9423 61.5002 11.9306C61.4885 11.9189 60.7583 11.9098 59.8776 11.9104L58.2763 11.9114L58.2711 20.9557C58.2681 25.93 58.2786 30 58.2943 30C58.31 30 58.9584 29.8546 59.7353 29.677C60.5122 29.4993 61.3363 29.314 61.5666 29.2653L61.9854 29.1768L61.9792 27.0346C61.9758 25.8564 61.9854 24.8801 62.0004 24.865C62.0155 24.85 62.1709 24.9351 62.3457 25.0544C63.4728 25.8227 64.8011 25.9629 66.1716 25.4583C67.2916 25.0459 68.2226 24.1366 68.8269 22.8651C69.6287 21.1778 69.8484 18.0973 69.3138 16.0388C69.2561 15.8166 69.2017 15.6008 69.1929 15.5591C69.1842 15.5175 69.1629 15.4493 69.1457 15.4077C69.1285 15.366 69.0776 15.2183 69.0326 15.0795C68.9175 14.7246 68.5366 14.0241 68.2639 13.6657C67.4367 12.5788 66.4232 11.9005 65.3655 11.7261C65.0479 11.6737 64.1202 11.6614 63.8528 11.706ZM75.4567 11.7058C75.2281 11.7353 74.7145 11.8643 74.4103 11.9689C73.339 12.3369 72.2451 13.3259 71.5539 14.5512C71.3908 14.8404 71.0484 15.754 70.9397 16.1903C70.6735 17.2584 70.6533 17.4432 70.655 18.7907C70.6566 20.1566 70.7182 20.6651 70.9944 21.593C71.5003 23.2933 72.4629 24.4853 73.8893 25.1779C75.331 25.8778 77.6274 25.9425 79.4803 25.3354C80.0746 25.1407 80.4476 24.9828 80.6519 24.8395L80.791 24.7419V23.2102V21.6786L80.2834 21.9017C79.6123 22.1966 79.0346 22.3592 78.3303 22.4514C76.7782 22.6546 75.7177 22.4576 75.0333 21.8391C74.8629 21.6852 74.7236 21.5346 74.7236 21.5044C74.7236 21.4742 74.6924 21.4136 74.6543 21.3698C74.5567 21.2576 74.3678 20.6836 74.3336 20.3957L74.305 20.154H77.9337H81.5625L81.5354 18.7528C81.5079 17.3335 81.4685 16.9671 81.2463 16.0641C81.0894 15.4268 81.0205 15.2374 80.6762 14.4988C79.9717 12.9868 78.6344 11.9598 77.065 11.7255C76.7223 11.6743 75.7902 11.6629 75.4567 11.7058ZM50.4287 11.7472C50.4009 11.7569 50.2519 11.7999 50.0977 11.8427C49.6764 11.9596 49.2396 12.2666 48.949 12.65C48.811 12.832 48.6849 12.9678 48.6688 12.9517C48.6527 12.9356 48.6005 12.6998 48.5528 12.4276L48.4661 11.9329L48.2872 11.912C48.1889 11.9005 47.4701 11.8928 46.6899 11.8948L45.2714 11.8984L45.2586 18.7023L45.2458 25.5062H47.0914H48.9371V20.8714V16.2365L49.152 16.0291C49.6851 15.5145 50.2015 15.3333 51.0312 15.3696C51.3395 15.3831 51.6314 15.4109 51.6801 15.4315C51.7634 15.4668 51.7686 15.3641 51.7686 13.6751V11.8813L51.4173 11.8015C51.1031 11.7301 50.5631 11.7005 50.4287 11.7472ZM52.9315 18.6917V25.5102L54.7644 25.4956L56.5972 25.4809L56.6101 18.7089L56.6228 11.9369L56.4331 11.9056C56.3287 11.8884 55.4982 11.874 54.5874 11.8737L52.9315 11.8732V18.6917ZM76.6196 14.8548C77.1214 14.9848 77.5153 15.3088 77.7731 15.8035C78.0592 16.3523 78.2105 17.2271 78.0312 17.2957C77.9872 17.3126 77.1499 17.3264 76.1706 17.3264C74.853 17.3264 74.3741 17.3106 74.3292 17.2658C74.2958 17.2325 74.2685 17.12 74.2685 17.0158C74.2685 16.2722 74.7996 15.3004 75.3676 15.0047C75.7196 14.8215 76.2476 14.7583 76.6196 14.8548ZM64.5519 15.3049C65.1499 15.6254 65.587 16.3 65.8553 17.3166C66.1609 18.474 66.0039 20.1063 65.4889 21.1276C65.2698 21.562 64.7971 22.0518 64.4343 22.2203C63.7522 22.5371 62.641 22.3281 62.1246 21.7858L61.9891 21.6435L61.9729 18.7335L61.9567 15.8236L62.0832 15.7007C62.5361 15.2603 62.9934 15.0985 63.7264 15.1191C64.191 15.1323 64.258 15.1474 64.5519 15.3049Z" fill="#EDF8FF"/>
</g>
<defs>
<clipPath id="clip0_5516_332">
<rect width="23" height="30" fill="white"/>
</clipPath>
</defs>
</svg>
