<svg width="80" height="83" viewBox="0 0 80 83" fill="none" xmlns="http://www.w3.org/2000/svg">
<circle cx="40" cy="40" r="38.6207" fill="#64748B" fill-opacity="0.25" stroke="#CBD7E2" stroke-width="2.75862"/>
<path fill-rule="evenodd" clip-rule="evenodd" d="M53.6016 30.7988C53.6016 38.5308 47.1545 44.7988 39.2016 44.7988C31.2487 44.7988 24.8016 38.5308 24.8016 30.7988C24.8016 23.0668 31.2487 16.7988 39.2016 16.7988C47.1545 16.7988 53.6016 23.0668 53.6016 30.7988ZM65.7458 66.0322L67.2016 74.8493L57.8428 79.8823C56.8272 80.0826 55.8218 80.3307 54.7614 80.5924C51.3807 81.4266 47.4411 82.3988 40.827 82.3988C35.1397 82.3988 31.881 82.0811 26.3635 80.7212C19.5571 79.0435 13.6016 74.8493 13.6016 74.8493L15.3031 66.0322C15.3031 62.7346 16.6318 59.5722 18.9967 57.2405C21.3617 54.9088 24.5693 53.5988 27.9138 53.5988H53.1351C56.4797 53.5988 59.6872 54.9088 62.0522 57.2405C64.4171 59.5722 65.7458 62.7346 65.7458 66.0322Z" fill="#EDF8FF"/>
<circle cx="40" cy="40" r="39.2982" stroke="#CBD7E2" stroke-width="1.40351"/>
</svg>
