<svg width="2500" height="2500" viewBox="0 0 2500 2500" fill="none" xmlns="http://www.w3.org/2000/svg">
<path d="M806.103 1491.3C1111.46 1491.3 1359 1243.36 1359 937.5C1359 631.645 1111.46 383.7 806.103 383.7C500.745 383.7 253.203 631.645 253.203 937.5C253.203 1243.36 500.745 1491.3 806.103 1491.3Z" fill="#FF0202"/>
<path d="M1584.4 2115.1C1889.76 2115.1 2137.3 1867.16 2137.3 1561.3C2137.3 1255.44 1889.76 1007.5 1584.4 1007.5C1279.04 1007.5 1031.5 1255.44 1031.5 1561.3C1031.5 1867.16 1279.04 2115.1 1584.4 2115.1Z" fill="#7FDFD5"/>
<path d="M571.455 1057V475.182H768.045C813.689 475.182 851 483.42 879.977 499.898C909.144 516.186 930.735 538.25 944.75 566.091C958.765 593.932 965.773 624.992 965.773 659.273C965.773 693.553 958.765 724.708 944.75 752.739C930.924 780.769 909.523 803.117 880.545 819.784C851.568 836.261 814.447 844.5 769.182 844.5H628.273V782H766.909C798.159 782 823.254 776.602 842.193 765.807C861.133 755.011 874.864 740.428 883.386 722.057C892.098 703.496 896.455 682.568 896.455 659.273C896.455 635.977 892.098 615.144 883.386 596.773C874.864 578.402 861.038 564.008 841.909 553.591C822.78 542.985 797.402 537.682 765.773 537.682H641.909V1057H571.455ZM1079.27 1057V475.182H1275.86C1321.31 475.182 1358.62 482.947 1387.79 498.477C1416.96 513.818 1438.55 534.936 1452.56 561.83C1466.58 588.723 1473.59 619.311 1473.59 653.591C1473.59 687.871 1466.58 718.269 1452.56 744.784C1438.55 771.299 1417.05 792.133 1388.07 807.284C1359.1 822.246 1322.07 829.727 1276.99 829.727H1117.9V766.091H1274.72C1305.78 766.091 1330.78 761.545 1349.72 752.455C1368.85 743.364 1382.68 730.485 1391.2 713.818C1399.91 696.962 1404.27 676.886 1404.27 653.591C1404.27 630.295 1399.91 609.936 1391.2 592.511C1382.49 575.087 1368.57 561.64 1349.44 552.17C1330.31 542.511 1305.02 537.682 1273.59 537.682H1149.72V1057H1079.27ZM1353.13 795.636L1496.31 1057H1414.49L1273.59 795.636H1353.13ZM1590.99 1057V475.182H1942.12V537.682H1661.44V734.273H1923.94V796.773H1661.44V994.5H1946.67V1057H1590.99Z" fill="#000105"/>
<path d="M218.455 1782V1200.18H415.045C460.689 1200.18 498 1208.42 526.977 1224.9C556.144 1241.19 577.735 1263.25 591.75 1291.09C605.765 1318.93 612.773 1349.99 612.773 1384.27C612.773 1418.55 605.765 1449.71 591.75 1477.74C577.924 1505.77 556.523 1528.12 527.545 1544.78C498.568 1561.26 461.447 1569.5 416.182 1569.5H275.273V1507H413.909C445.159 1507 470.254 1501.6 489.193 1490.81C508.133 1480.01 521.864 1465.43 530.386 1447.06C539.098 1428.5 543.455 1407.57 543.455 1384.27C543.455 1360.98 539.098 1340.14 530.386 1321.77C521.864 1303.4 508.038 1289.01 488.909 1278.59C469.78 1267.98 444.402 1262.68 412.773 1262.68H288.909V1782H218.455ZM726.267 1782V1200.18H922.858C968.313 1200.18 1005.62 1207.95 1034.79 1223.48C1063.96 1238.82 1085.55 1259.94 1099.56 1286.83C1113.58 1313.72 1120.59 1344.31 1120.59 1378.59C1120.59 1412.87 1113.58 1443.27 1099.56 1469.78C1085.55 1496.3 1064.05 1517.13 1035.07 1532.28C1006.1 1547.25 969.07 1554.73 923.994 1554.73H764.903V1491.09H921.722C952.782 1491.09 977.782 1486.55 996.722 1477.45C1015.85 1468.36 1029.68 1455.48 1038.2 1438.82C1046.91 1421.96 1051.27 1401.89 1051.27 1378.59C1051.27 1355.3 1046.91 1334.94 1038.2 1317.51C1029.49 1300.09 1015.57 1286.64 996.438 1277.17C977.309 1267.51 952.025 1262.68 920.585 1262.68H796.722V1782H726.267ZM1000.13 1520.64L1143.31 1782H1061.49L920.585 1520.64H1000.13ZM1728.89 1491.09C1728.89 1552.45 1717.82 1605.48 1695.66 1650.18C1673.5 1694.88 1643.1 1729.35 1604.46 1753.59C1565.83 1777.83 1521.7 1789.95 1472.08 1789.95C1422.46 1789.95 1378.33 1777.83 1339.69 1753.59C1301.05 1729.35 1270.66 1694.88 1248.5 1650.18C1226.34 1605.48 1215.26 1552.45 1215.26 1491.09C1215.26 1429.73 1226.34 1376.7 1248.5 1332C1270.66 1287.3 1301.05 1252.83 1339.69 1228.59C1378.33 1204.35 1422.46 1192.23 1472.08 1192.23C1521.7 1192.23 1565.83 1204.35 1604.46 1228.59C1643.1 1252.83 1673.5 1287.3 1695.66 1332C1717.82 1376.7 1728.89 1429.73 1728.89 1491.09ZM1660.71 1491.09C1660.71 1440.71 1652.29 1398.19 1635.43 1363.53C1618.76 1328.88 1596.13 1302.64 1567.53 1284.84C1539.12 1267.04 1507.3 1258.14 1472.08 1258.14C1436.85 1258.14 1404.94 1267.04 1376.34 1284.84C1347.93 1302.64 1325.3 1328.88 1308.44 1363.53C1291.77 1398.19 1283.44 1440.71 1283.44 1491.09C1283.44 1541.47 1291.77 1583.99 1308.44 1618.65C1325.3 1653.31 1347.93 1679.54 1376.34 1697.34C1404.94 1715.14 1436.85 1724.05 1472.08 1724.05C1507.3 1724.05 1539.12 1715.14 1567.53 1697.34C1596.13 1679.54 1618.76 1653.31 1635.43 1618.65C1652.29 1583.99 1660.71 1541.47 1660.71 1491.09ZM2026.91 1782H1847.36V1200.18H2034.86C2091.3 1200.18 2139.6 1211.83 2179.75 1235.12C2219.9 1258.23 2250.68 1291.47 2272.08 1334.84C2293.48 1378.02 2304.18 1429.73 2304.18 1489.95C2304.18 1550.56 2293.38 1602.74 2271.79 1646.49C2250.2 1690.05 2218.76 1723.57 2177.47 1747.06C2136.19 1770.35 2086 1782 2026.91 1782ZM1917.82 1719.5H2022.36C2070.47 1719.5 2110.33 1710.22 2141.96 1691.66C2173.59 1673.1 2197.17 1646.68 2212.7 1612.4C2228.23 1578.12 2236 1537.3 2236 1489.95C2236 1442.98 2228.33 1402.55 2212.99 1368.65C2197.64 1334.56 2174.73 1308.42 2144.24 1290.24C2113.74 1271.87 2075.77 1262.68 2030.32 1262.68H1917.82V1719.5Z" fill="#000105"/>
</svg>
